mtllib openarm_right_link7_collision_node_STL_BINARY__mesh.mtl
v -0.007532851100131299 0.028500001353677362 0.5744441801166644
v 0.007534851432104972 0.028500001353677362 0.5744441801166644
v -0.007499000428662639 0.028500001353677362 0.574625027293223
v -0.007499000428662639 0.028500001353677362 0.574625027293223
v 0.007534851432104972 0.028500001353677362 0.5744441801166644
v 0.007501000283799131 0.028500001353677362 0.574625027293223
v -0.007499000428662639 0.028500001353677362 0.574625027293223
v 0.007501000283799131 0.028500001353677362 0.574625027293223
v -0.007499000428662639 0.028500001353677362 0.5764327056017393
v -0.007499000428662639 0.028500001353677362 0.5764327056017393
v 0.007501000283799131 0.028500001353677362 0.574625027293223
v 0.007501000283799131 0.028500001353677362 0.5764327056017393
v -0.007499000428662639 0.028500001353677362 0.5764327056017393
v 0.007501000283799131 0.028500001353677362 0.5764327056017393
v -0.007459619876407642 0.028500001353677362 0.5766271636187881
v -0.007459619876407642 0.028500001353677362 0.5766271636187881
v 0.007501000283799131 0.028500001353677362 0.5764327056017393
v 0.0074616197315441335 0.028500001353677362 0.5766271636187881
v -0.007459619876407642 0.028500001353677362 0.5766271636187881
v 0.0074616197315441335 0.028500001353677362 0.5766271636187881
v -0.00734768187136553 0.028500001353677362 0.5767910430211032
v -0.00734768187136553 0.028500001353677362 0.5767910430211032
v 0.0074616197315441335 0.028500001353677362 0.5766271636187881
v 0.007349681726502022 0.028500001353677362 0.5767910430211032
v -0.00734768187136553 0.028500001353677362 0.5767910430211032
v 0.007349681726502022 0.028500001353677362 0.5767910430211032
v -0.007180818421972657 0.028500001353677362 0.5768984649012054
v -0.007180818421972657 0.028500001353677362 0.5768984649012054
v 0.007349681726502022 0.028500001353677362 0.5767910430211032
v 0.0071828187539463295 0.028500001353677362 0.5768984649012054
v -0.007180818421972657 0.028500001353677362 0.5768984649012054
v 0.0071828187539463295 0.028500001353677362 0.5768984649012054
v -0.004372637479570229 0.028500001353677362 0.5777601592780712
v -0.004372637479570229 0.028500001353677362 0.5777601592780712
v 0.0071828187539463295 0.028500001353677362 0.5768984649012054
v 0.004374637334706721 0.028500001353677362 0.5777601592780712
v -0.004372637479570229 0.028500001353677362 0.5777601592780712
v 0.004374637334706721 0.028500001353677362 0.5777601592780712
v -0.0014677086573589015 0.028500001353677362 0.5781958282440769
v -0.0014677086573589015 0.028500001353677362 0.5781958282440769
v 0.004374637334706721 0.028500001353677362 0.5777601592780712
v 0.001469708750913984 0.028500001353677362 0.5781958282440769
v 0.007534851432104972 0.028500001353677362 0.5744441801166644
v -0.007532851100131299 0.028500001353677362 0.5744441801166644
v 0.007631820564365788 0.028500001353677362 0.5742878690740838
v 0.007631820564365788 0.028500001353677362 0.5742878690740838
v -0.007532851100131299 0.028500001353677362 0.5744441801166644
v -0.007629820709229296 0.028500001353677362 0.5742878690740838
v 0.007631820564365788 0.028500001353677362 0.5742878690740838
v -0.007629820709229296 0.028500001353677362 0.5742878690740838
v 0.007778777968806827 0.028500001353677362 0.5741771512953875
v 0.007778777968806827 0.028500001353677362 0.5741771512953875
v -0.007629820709229296 0.028500001353677362 0.5742878690740838
v -0.007776778113670335 0.028500001353677362 0.5741771512953875
v 0.007778777968806827 0.028500001353677362 0.5741771512953875
v -0.007776778113670335 0.028500001353677362 0.5741771512953875
v 0.010144348626361932 0.028500001353677362 0.5727610745679712
v 0.010144348626361932 0.028500001353677362 0.5727610745679712
v -0.007776778113670335 0.028500001353677362 0.5741771512953875
v -0.01014234877122544 0.028500001353677362 0.5727610745679712
v 0.010144348626361932 0.028500001353677362 0.5727610745679712
v -0.01014234877122544 0.028500001353677362 0.5727610745679712
v 0.012258157358659427 0.028500001353677362 0.5709909939174906
v 0.012258157358659427 0.028500001353677362 0.5709909939174906
v -0.01014234877122544 0.028500001353677362 0.5727610745679712
v 0.014067739201201745 0.028500001353677362 0.5689109767288514
v 0.014067739201201745 0.028500001353677362 0.5689109767288514
v -0.01014234877122544 0.028500001353677362 0.5727610745679712
v 0.015528178952575744 0.028500001353677362 0.566572475641216
v 0.015528178952575744 0.028500001353677362 0.566572475641216
v -0.01014234877122544 0.028500001353677362 0.5727610745679712
v 0.016603230311316164 0.028500001353677362 0.5640337181964128
v 0.016603230311316164 0.028500001353677362 0.5640337181964128
v -0.01014234877122544 0.028500001353677362 0.5727610745679712
v 0.017266207561433822 0.028500001353677362 0.5613575706083651
v 0.017266207561433822 0.028500001353677362 0.5613575706083651
v -0.01014234877122544 0.028500001353677362 0.5727610745679712
v 0.017500655051817526 0.028500001353677362 0.5586105001653863
v 0.017500655051817526 0.028500001353677362 0.5586105001653863
v -0.01014234877122544 0.028500001353677362 0.5727610745679712
v 0.017300755368860887 0.028500001353677362 0.5558607441754049
v 0.017300755368860887 0.028500001353677362 0.5558607441754049
v -0.01014234877122544 0.028500001353677362 0.5727610745679712
v 0.01667147143394221 0.028500001353677362 0.5531764789111904
v 0.01667147143394221 0.028500001353677362 0.5531764789111904
v -0.01014234877122544 0.028500001353677362 0.5727610745679712
v 0.01562841871106002 0.028500001353677362 0.5506243547665335
v 0.01562841871106002 0.028500001353677362 0.5506243547665335
v -0.01014234877122544 0.028500001353677362 0.5727610745679712
v 0.01419748850546021 0.028500001353677362 0.5482677262366309
v 0.01419748850546021 0.028500001353677362 0.5482677262366309
v -0.01014234877122544 0.028500001353677362 0.5727610745679712
v 0.012414195650372606 0.028500001353677362 0.5461651260391065
v 0.012414195650372606 0.028500001353677362 0.5461651260391065
v -0.01014234877122544 0.028500001353677362 0.5727610745679712
v 0.01032280398762131 0.028500001353677362 0.5443686171647144
v 0.01032280398762131 0.028500001353677362 0.5443686171647144
v -0.01014234877122544 0.028500001353677362 0.5727610745679712
v 0.007975221059039472 0.028500001353677362 0.5429229383851109
v 0.007975221059039472 0.028500001353677362 0.5429229383851109
v -0.01014234877122544 0.028500001353677362 0.5727610745679712
v 0.005429714937615626 0.028500001353677362 0.5418638563035572
v 0.005429714937615626 0.028500001353677362 0.5418638563035572
v -0.01014234877122544 0.028500001353677362 0.5727610745679712
v 0.002749466549812618 0.028500001353677362 0.5412176770736465
v 0.002749466549812618 0.028500001353677362 0.5412176770736465
v -0.01014234877122544 0.028500001353677362 0.5727610745679712
v 9.999993965029407e-07 0.028500001353677362 0.5410005139773943
v 9.999993965029407e-07 0.028500001353677362 0.5410005139773943
v -0.01014234877122544 0.028500001353677362 0.5727610745679712
v -0.0027474664562575357 0.028500001353677362 0.5412176770736465
v -0.0027474664562575357 0.028500001353677362 0.5412176770736465
v -0.01014234877122544 0.028500001353677362 0.5727610745679712
v -0.005427715082479134 0.028500001353677362 0.5418638563035572
v -0.005427715082479134 0.028500001353677362 0.5418638563035572
v -0.01014234877122544 0.028500001353677362 0.5727610745679712
v -0.00797322120390298 0.028500001353677362 0.5429229383851109
v -0.00797322120390298 0.028500001353677362 0.5429229383851109
v -0.01014234877122544 0.028500001353677362 0.5727610745679712
v -0.010320804132484818 0.028500001353677362 0.5443686171647144
v -0.010320804132484818 0.028500001353677362 0.5443686171647144
v -0.01014234877122544 0.028500001353677362 0.5727610745679712
v -0.012256157503522935 0.028500001353677362 0.5709909939174906
v -0.010320804132484818 0.028500001353677362 0.5443686171647144
v -0.012256157503522935 0.028500001353677362 0.5709909939174906
v -0.012412195795236114 0.028500001353677362 0.5461651260391065
v -0.012412195795236114 0.028500001353677362 0.5461651260391065
v -0.012256157503522935 0.028500001353677362 0.5709909939174906
v -0.014065739346065254 0.028500001353677362 0.5689109767288514
v -0.012412195795236114 0.028500001353677362 0.5461651260391065
v -0.014065739346065254 0.028500001353677362 0.5689109767288514
v -0.014195488650323718 0.028500001353677362 0.5482677262366309
v -0.014195488650323718 0.028500001353677362 0.5482677262366309
v -0.014065739346065254 0.028500001353677362 0.5689109767288514
v -0.015526179097439252 0.028500001353677362 0.566572475641216
v -0.014195488650323718 0.028500001353677362 0.5482677262366309
v -0.015526179097439252 0.028500001353677362 0.566572475641216
v -0.01562641885592353 0.028500001353677362 0.5506243547665335
v -0.01562641885592353 0.028500001353677362 0.5506243547665335
v -0.015526179097439252 0.028500001353677362 0.566572475641216
v -0.01660122950250531 0.028500001353677362 0.5640337181964128
v -0.01562641885592353 0.028500001353677362 0.5506243547665335
v -0.01660122950250531 0.028500001353677362 0.5640337181964128
v -0.016669470625131355 0.028500001353677362 0.5531764789111904
v -0.016669470625131355 0.028500001353677362 0.5531764789111904
v -0.01660122950250531 0.028500001353677362 0.5640337181964128
v -0.017264206752622968 0.028500001353677362 0.5613575706083651
v -0.016669470625131355 0.028500001353677362 0.5531764789111904
v -0.017264206752622968 0.028500001353677362 0.5613575706083651
v -0.017298756467398757 0.028500001353677362 0.5558607441754049
v -0.017298756467398757 0.028500001353677362 0.5558607441754049
v -0.017264206752622968 0.028500001353677362 0.5613575706083651
v -0.017498654243006673 0.028500001353677362 0.5586105001653863
v -0.007180818421972657 0.029000001377426088 0.5768984649012054
v -0.007180818421972657 0.028500001353677362 0.5768984649012054
v -0.004372637479570229 0.029000001377426088 0.5777601592780712
v -0.004372637479570229 0.029000001377426088 0.5777601592780712
v -0.007180818421972657 0.028500001353677362 0.5768984649012054
v -0.004372637479570229 0.028500001353677362 0.5777601592780712
v -0.004372637479570229 0.029000001377426088 0.5777601592780712
v -0.004372637479570229 0.028500001353677362 0.5777601592780712
v -0.0014677086573589015 0.029000001377426088 0.5781958282440769
v -0.0014677086573589015 0.029000001377426088 0.5781958282440769
v -0.004372637479570229 0.028500001353677362 0.5777601592780712
v -0.0014677086573589015 0.028500001353677362 0.5781958282440769
v -0.0014677086573589015 0.029000001377426088 0.5781958282440769
v -0.0014677086573589015 0.028500001353677362 0.5781958282440769
v 0.001469708750913984 0.029000001377426088 0.5781958282440769
v 0.001469708750913984 0.029000001377426088 0.5781958282440769
v -0.0014677086573589015 0.028500001353677362 0.5781958282440769
v 0.001469708750913984 0.028500001353677362 0.5781958282440769
v 0.001469708750913984 0.029000001377426088 0.5781958282440769
v 0.001469708750913984 0.028500001353677362 0.5781958282440769
v 0.004374637334706721 0.029000001377426088 0.5777601592780712
v 0.004374637334706721 0.029000001377426088 0.5777601592780712
v 0.001469708750913984 0.028500001353677362 0.5781958282440769
v 0.004374637334706721 0.028500001353677362 0.5777601592780712
v 0.004374637334706721 0.029000001377426088 0.5777601592780712
v 0.004374637334706721 0.028500001353677362 0.5777601592780712
v 0.0071828187539463295 0.029000001377426088 0.5768984649012054
v 0.0071828187539463295 0.029000001377426088 0.5768984649012054
v 0.004374637334706721 0.028500001353677362 0.5777601592780712
v 0.0071828187539463295 0.028500001353677362 0.5768984649012054
v 0.0071828187539463295 0.029000001377426088 0.5768984649012054
v 0.0071828187539463295 0.028500001353677362 0.5768984649012054
v 0.007349681726502022 0.029000001377426088 0.5767910430211032
v 0.007349681726502022 0.029000001377426088 0.5767910430211032
v 0.0071828187539463295 0.028500001353677362 0.5768984649012054
v 0.007349681726502022 0.028500001353677362 0.5767910430211032
v 0.007349681726502022 0.029000001377426088 0.5767910430211032
v 0.007349681726502022 0.028500001353677362 0.5767910430211032
v 0.0074616197315441335 0.029000001377426088 0.5766271636187881
v 0.0074616197315441335 0.029000001377426088 0.5766271636187881
v 0.007349681726502022 0.028500001353677362 0.5767910430211032
v 0.0074616197315441335 0.028500001353677362 0.5766271636187881
v 0.0074616197315441335 0.029000001377426088 0.5766271636187881
v 0.0074616197315441335 0.028500001353677362 0.5766271636187881
v 0.007501000283799131 0.029000001377426088 0.5764327056017393
v 0.007501000283799131 0.029000001377426088 0.5764327056017393
v 0.0074616197315441335 0.028500001353677362 0.5766271636187881
v 0.007501000283799131 0.028500001353677362 0.5764327056017393
v 0.007501000283799131 0.028500001353677362 0.5764327056017393
v 0.007501000283799131 0.028500001353677362 0.574625027293223
v 0.007501000283799131 0.029000001377426088 0.5764327056017393
v 0.007501000283799131 0.029000001377426088 0.5764327056017393
v 0.007501000283799131 0.028500001353677362 0.574625027293223
v 0.007501000283799131 0.03450000163866207 0.574625027293223
v 0.007501000283799131 0.029000001377426088 0.5764327056017393
v 0.007501000283799131 0.03450000163866207 0.574625027293223
v 0.007501000283799131 0.03450000163866207 0.5990015543299521
v 0.007501000283799131 0.029000001377426088 0.5990015543299521
v 0.007501000283799131 0.029000001377426088 0.5990005167322465
v 0.007501000283799131 0.03450000163866207 0.5990015543299521
v 0.007501000283799131 0.03450000163866207 0.5990015543299521
v 0.007501000283799131 0.029000001377426088 0.5990005167322465
v 0.007501000283799131 0.029000001377426088 0.5764327056017393
v 0.007501000283799131 0.03450000163866207 0.574625027293223
v 0.007501000283799131 0.028500001353677362 0.574625027293223
v 0.007534851432104972 0.031500001496169716 0.5744441801166644
v 0.007534851432104972 0.031500001496169716 0.5744441801166644
v 0.007501000283799131 0.028500001353677362 0.574625027293223
v 0.007534851432104972 0.028500001353677362 0.5744441801166644
v 0.007534851432104972 0.031500001496169716 0.5744441801166644
v 0.007534851432104972 0.028500001353677362 0.5744441801166644
v 0.007631820564365788 0.031500001496169716 0.5742878690740838
v 0.007631820564365788 0.031500001496169716 0.5742878690740838
v 0.007534851432104972 0.028500001353677362 0.5744441801166644
v 0.007631820564365788 0.028500001353677362 0.5742878690740838
v 0.007631820564365788 0.031500001496169716 0.5742878690740838
v 0.007631820564365788 0.028500001353677362 0.5742878690740838
v 0.007778777968806827 0.028500001353677362 0.5741771512953875
v 0.007778777968806827 0.028500001353677362 0.5741771512953875
v 0.007778777968806827 0.03450000163866207 0.5741771512953875
v 0.007631820564365788 0.031500001496169716 0.5742878690740838
v 0.007631820564365788 0.031500001496169716 0.5742878690740838
v 0.007778777968806827 0.03450000163866207 0.5741771512953875
v 0.007631820564365788 0.03450000163866207 0.5742878690740838
v 0.007631820564365788 0.031500001496169716 0.5742878690740838
v 0.007631820564365788 0.03450000163866207 0.5742878690740838
v 0.007534851432104972 0.031500001496169716 0.5744441801166644
v 0.007534851432104972 0.031500001496169716 0.5744441801166644
v 0.007631820564365788 0.03450000163866207 0.5742878690740838
v 0.007534851432104972 0.03450000163866207 0.5744441801166644
v 0.007534851432104972 0.031500001496169716 0.5744441801166644
v 0.007534851432104972 0.03450000163866207 0.5744441801166644
v 0.007501000283799131 0.03450000163866207 0.574625027293223
v -0.007499000428662639 0.029000001377426088 0.5990005167322465
v 0.001469708750913984 0.029000001377426088 0.5781958282440769
v 0.007501000283799131 0.029000001377426088 0.5990005167322465
v 0.007501000283799131 0.029000001377426088 0.5990005167322465
v 0.001469708750913984 0.029000001377426088 0.5781958282440769
v 0.004374637334706721 0.029000001377426088 0.5777601592780712
v 0.007501000283799131 0.029000001377426088 0.5990005167322465
v 0.004374637334706721 0.029000001377426088 0.5777601592780712
v 0.0071828187539463295 0.029000001377426088 0.5768984649012054
v -0.007499000428662639 0.029000001377426088 0.5764327056017393
v -0.007459619876407642 0.029000001377426088 0.5766271636187881
v -0.007499000428662639 0.029000001377426088 0.5990005167322465
v -0.007499000428662639 0.029000001377426088 0.5990005167322465
v -0.007459619876407642 0.029000001377426088 0.5766271636187881
v -0.00734768187136553 0.029000001377426088 0.5767910430211032
v -0.007499000428662639 0.029000001377426088 0.5990005167322465
v -0.00734768187136553 0.029000001377426088 0.5767910430211032
v -0.007180818421972657 0.029000001377426088 0.5768984649012054
v -0.007180818421972657 0.029000001377426088 0.5768984649012054
v -0.004372637479570229 0.029000001377426088 0.5777601592780712
v -0.007499000428662639 0.029000001377426088 0.5990005167322465
v -0.007499000428662639 0.029000001377426088 0.5990005167322465
v -0.004372637479570229 0.029000001377426088 0.5777601592780712
v -0.0014677086573589015 0.029000001377426088 0.5781958282440769
v -0.007499000428662639 0.029000001377426088 0.5990005167322465
v -0.0014677086573589015 0.029000001377426088 0.5781958282440769
v 0.001469708750913984 0.029000001377426088 0.5781958282440769
v 0.0071828187539463295 0.029000001377426088 0.5768984649012054
v 0.007349681726502022 0.029000001377426088 0.5767910430211032
v 0.007501000283799131 0.029000001377426088 0.5990005167322465
v 0.007501000283799131 0.029000001377426088 0.5990005167322465
v 0.007349681726502022 0.029000001377426088 0.5767910430211032
v 0.0074616197315441335 0.029000001377426088 0.5766271636187881
v 0.007501000283799131 0.029000001377426088 0.5990005167322465
v 0.0074616197315441335 0.029000001377426088 0.5766271636187881
v 0.007501000283799131 0.029000001377426088 0.5764327056017393
v 0.007778777968806827 0.03450000163866207 0.5741771512953875
v 0.007778777968806827 0.028500001353677362 0.5741771512953875
v 0.010144348626361932 0.03450000163866207 0.5727610745679712
v 0.010144348626361932 0.03450000163866207 0.5727610745679712
v 0.007778777968806827 0.028500001353677362 0.5741771512953875
v 0.010144348626361932 0.028500001353677362 0.5727610745679712
v 0.010144348626361932 0.03450000163866207 0.5727610745679712
v 0.010144348626361932 0.028500001353677362 0.5727610745679712
v 0.012258157358659427 0.03450000163866207 0.5709909939174906
v 0.012258157358659427 0.03450000163866207 0.5709909939174906
v 0.010144348626361932 0.028500001353677362 0.5727610745679712
v 0.012258157358659427 0.028500001353677362 0.5709909939174906
v 0.012258157358659427 0.03450000163866207 0.5709909939174906
v 0.012258157358659427 0.028500001353677362 0.5709909939174906
v 0.014067739201201745 0.03450000163866207 0.5689109767288514
v 0.014067739201201745 0.03450000163866207 0.5689109767288514
v 0.012258157358659427 0.028500001353677362 0.5709909939174906
v 0.014067739201201745 0.028500001353677362 0.5689109767288514
v 0.014067739201201745 0.03450000163866207 0.5689109767288514
v 0.014067739201201745 0.028500001353677362 0.5689109767288514
v 0.015528178952575744 0.03450000163866207 0.566572475641216
v 0.015528178952575744 0.03450000163866207 0.566572475641216
v 0.014067739201201745 0.028500001353677362 0.5689109767288514
v 0.015528178952575744 0.028500001353677362 0.566572475641216
v 0.015528178952575744 0.03450000163866207 0.566572475641216
v 0.015528178952575744 0.028500001353677362 0.566572475641216
v 0.016603230311316164 0.03450000163866207 0.5640337181964128
v 0.016603230311316164 0.03450000163866207 0.5640337181964128
v 0.015528178952575744 0.028500001353677362 0.566572475641216
v 0.016603230311316164 0.028500001353677362 0.5640337181964128
v 0.016603230311316164 0.03450000163866207 0.5640337181964128
v 0.016603230311316164 0.028500001353677362 0.5640337181964128
v 0.017266207561433822 0.03450000163866207 0.5613575706083651
v 0.017266207561433822 0.03450000163866207 0.5613575706083651
v 0.016603230311316164 0.028500001353677362 0.5640337181964128
v 0.017266207561433822 0.028500001353677362 0.5613575706083651
v 0.017266207561433822 0.03450000163866207 0.5613575706083651
v 0.017266207561433822 0.028500001353677362 0.5613575706083651
v 0.017500655051817526 0.03450000163866207 0.5586105001653863
v 0.017500655051817526 0.03450000163866207 0.5586105001653863
v 0.017266207561433822 0.028500001353677362 0.5613575706083651
v 0.017500655051817526 0.028500001353677362 0.5586105001653863
v 0.017500655051817526 0.03450000163866207 0.5586105001653863
v 0.017500655051817526 0.028500001353677362 0.5586105001653863
v 0.017300755368860887 0.03450000163866207 0.5558607441754049
v 0.017300755368860887 0.03450000163866207 0.5558607441754049
v 0.017500655051817526 0.028500001353677362 0.5586105001653863
v 0.017300755368860887 0.028500001353677362 0.5558607441754049
v 0.017300755368860887 0.03450000163866207 0.5558607441754049
v 0.017300755368860887 0.028500001353677362 0.5558607441754049
v 0.01667147143394221 0.03450000163866207 0.5531764789111904
v 0.01667147143394221 0.03450000163866207 0.5531764789111904
v 0.017300755368860887 0.028500001353677362 0.5558607441754049
v 0.01667147143394221 0.028500001353677362 0.5531764789111904
v 0.01667147143394221 0.03450000163866207 0.5531764789111904
v 0.01667147143394221 0.028500001353677362 0.5531764789111904
v 0.01562841871106002 0.03450000163866207 0.5506243547665335
v 0.01562841871106002 0.03450000163866207 0.5506243547665335
v 0.01667147143394221 0.028500001353677362 0.5531764789111904
v 0.01562841871106002 0.028500001353677362 0.5506243547665335
v 0.01562841871106002 0.03450000163866207 0.5506243547665335
v 0.01562841871106002 0.028500001353677362 0.5506243547665335
v 0.01419748850546021 0.03450000163866207 0.5482677262366309
v 0.01419748850546021 0.03450000163866207 0.5482677262366309
v 0.01562841871106002 0.028500001353677362 0.5506243547665335
v 0.01419748850546021 0.028500001353677362 0.5482677262366309
v 0.01419748850546021 0.03450000163866207 0.5482677262366309
v 0.01419748850546021 0.028500001353677362 0.5482677262366309
v 0.012414195650372606 0.03450000163866207 0.5461651260391065
v 0.012414195650372606 0.03450000163866207 0.5461651260391065
v 0.01419748850546021 0.028500001353677362 0.5482677262366309
v 0.012414195650372606 0.028500001353677362 0.5461651260391065
v 0.012414195650372606 0.03450000163866207 0.5461651260391065
v 0.012414195650372606 0.028500001353677362 0.5461651260391065
v 0.01032280398762131 0.03450000163866207 0.5443686171647144
v 0.01032280398762131 0.03450000163866207 0.5443686171647144
v 0.012414195650372606 0.028500001353677362 0.5461651260391065
v 0.01032280398762131 0.028500001353677362 0.5443686171647144
v 0.01032280398762131 0.03450000163866207 0.5443686171647144
v 0.01032280398762131 0.028500001353677362 0.5443686171647144
v 0.007975221059039472 0.03450000163866207 0.5429229383851109
v 0.007975221059039472 0.03450000163866207 0.5429229383851109
v 0.01032280398762131 0.028500001353677362 0.5443686171647144
v 0.007975221059039472 0.028500001353677362 0.5429229383851109
v 0.007975221059039472 0.03450000163866207 0.5429229383851109
v 0.007975221059039472 0.028500001353677362 0.5429229383851109
v 0.005429714937615626 0.03450000163866207 0.5418638563035572
v 0.005429714937615626 0.03450000163866207 0.5418638563035572
v 0.007975221059039472 0.028500001353677362 0.5429229383851109
v 0.005429714937615626 0.028500001353677362 0.5418638563035572
v 0.005429714937615626 0.03450000163866207 0.5418638563035572
v 0.005429714937615626 0.028500001353677362 0.5418638563035572
v 0.002749466549812618 0.03450000163866207 0.5412176770736465
v 0.002749466549812618 0.03450000163866207 0.5412176770736465
v 0.005429714937615626 0.028500001353677362 0.5418638563035572
v 0.002749466549812618 0.028500001353677362 0.5412176770736465
v 0.002749466549812618 0.03450000163866207 0.5412176770736465
v 0.002749466549812618 0.028500001353677362 0.5412176770736465
v 9.999993965029407e-07 0.03450000163866207 0.5410005139773943
v 9.999993965029407e-07 0.03450000163866207 0.5410005139773943
v 0.002749466549812618 0.028500001353677362 0.5412176770736465
v 9.999993965029407e-07 0.028500001353677362 0.5410005139773943
v 9.999993965029407e-07 0.03450000163866207 0.5410005139773943
v 9.999993965029407e-07 0.028500001353677362 0.5410005139773943
v -0.0027474664562575357 0.03450000163866207 0.5412176770736465
v -0.0027474664562575357 0.03450000163866207 0.5412176770736465
v 9.999993965029407e-07 0.028500001353677362 0.5410005139773943
v -0.0027474664562575357 0.028500001353677362 0.5412176770736465
v -0.0027474664562575357 0.03450000163866207 0.5412176770736465
v -0.0027474664562575357 0.028500001353677362 0.5412176770736465
v -0.005427715082479134 0.03450000163866207 0.5418638563035572
v -0.005427715082479134 0.03450000163866207 0.5418638563035572
v -0.0027474664562575357 0.028500001353677362 0.5412176770736465
v -0.005427715082479134 0.028500001353677362 0.5418638563035572
v -0.005427715082479134 0.03450000163866207 0.5418638563035572
v -0.005427715082479134 0.028500001353677362 0.5418638563035572
v -0.00797322120390298 0.03450000163866207 0.5429229383851109
v -0.00797322120390298 0.03450000163866207 0.5429229383851109
v -0.005427715082479134 0.028500001353677362 0.5418638563035572
v -0.00797322120390298 0.028500001353677362 0.5429229383851109
v -0.00797322120390298 0.03450000163866207 0.5429229383851109
v -0.00797322120390298 0.028500001353677362 0.5429229383851109
v -0.010320804132484818 0.03450000163866207 0.5443686171647144
v -0.010320804132484818 0.03450000163866207 0.5443686171647144
v -0.00797322120390298 0.028500001353677362 0.5429229383851109
v -0.010320804132484818 0.028500001353677362 0.5443686171647144
v -0.010320804132484818 0.03450000163866207 0.5443686171647144
v -0.010320804132484818 0.028500001353677362 0.5443686171647144
v -0.012412195795236114 0.03450000163866207 0.5461651260391065
v -0.012412195795236114 0.03450000163866207 0.5461651260391065
v -0.010320804132484818 0.028500001353677362 0.5443686171647144
v -0.012412195795236114 0.028500001353677362 0.5461651260391065
v -0.012412195795236114 0.03450000163866207 0.5461651260391065
v -0.012412195795236114 0.028500001353677362 0.5461651260391065
v -0.014195488650323718 0.03450000163866207 0.5482677262366309
v -0.014195488650323718 0.03450000163866207 0.5482677262366309
v -0.012412195795236114 0.028500001353677362 0.5461651260391065
v -0.014195488650323718 0.028500001353677362 0.5482677262366309
v -0.014195488650323718 0.03450000163866207 0.5482677262366309
v -0.014195488650323718 0.028500001353677362 0.5482677262366309
v -0.01562641885592353 0.03450000163866207 0.5506243547665335
v -0.01562641885592353 0.03450000163866207 0.5506243547665335
v -0.014195488650323718 0.028500001353677362 0.5482677262366309
v -0.01562641885592353 0.028500001353677362 0.5506243547665335
v -0.01562641885592353 0.03450000163866207 0.5506243547665335
v -0.01562641885592353 0.028500001353677362 0.5506243547665335
v -0.016669470625131355 0.03450000163866207 0.5531764789111904
v -0.016669470625131355 0.03450000163866207 0.5531764789111904
v -0.01562641885592353 0.028500001353677362 0.5506243547665335
v -0.016669470625131355 0.028500001353677362 0.5531764789111904
v -0.016669470625131355 0.03450000163866207 0.5531764789111904
v -0.016669470625131355 0.028500001353677362 0.5531764789111904
v -0.017298756467398757 0.03450000163866207 0.5558607441754049
v -0.017298756467398757 0.03450000163866207 0.5558607441754049
v -0.016669470625131355 0.028500001353677362 0.5531764789111904
v -0.017298756467398757 0.028500001353677362 0.5558607441754049
v -0.017298756467398757 0.03450000163866207 0.5558607441754049
v -0.017298756467398757 0.028500001353677362 0.5558607441754049
v -0.017498654243006673 0.03450000163866207 0.5586105001653863
v -0.017498654243006673 0.03450000163866207 0.5586105001653863
v -0.017298756467398757 0.028500001353677362 0.5558607441754049
v -0.017498654243006673 0.028500001353677362 0.5586105001653863
v -0.017498654243006673 0.03450000163866207 0.5586105001653863
v -0.017498654243006673 0.028500001353677362 0.5586105001653863
v -0.017264206752622968 0.03450000163866207 0.5613575706083651
v -0.017264206752622968 0.03450000163866207 0.5613575706083651
v -0.017498654243006673 0.028500001353677362 0.5586105001653863
v -0.017264206752622968 0.028500001353677362 0.5613575706083651
v -0.017264206752622968 0.03450000163866207 0.5613575706083651
v -0.017264206752622968 0.028500001353677362 0.5613575706083651
v -0.01660122950250531 0.03450000163866207 0.5640337181964128
v -0.01660122950250531 0.03450000163866207 0.5640337181964128
v -0.017264206752622968 0.028500001353677362 0.5613575706083651
v -0.01660122950250531 0.028500001353677362 0.5640337181964128
v -0.01660122950250531 0.03450000163866207 0.5640337181964128
v -0.01660122950250531 0.028500001353677362 0.5640337181964128
v -0.015526179097439252 0.03450000163866207 0.566572475641216
v -0.015526179097439252 0.03450000163866207 0.566572475641216
v -0.01660122950250531 0.028500001353677362 0.5640337181964128
v -0.015526179097439252 0.028500001353677362 0.566572475641216
v -0.015526179097439252 0.03450000163866207 0.566572475641216
v -0.015526179097439252 0.028500001353677362 0.566572475641216
v -0.014065739346065254 0.03450000163866207 0.5689109767288514
v -0.014065739346065254 0.03450000163866207 0.5689109767288514
v -0.015526179097439252 0.028500001353677362 0.566572475641216
v -0.014065739346065254 0.028500001353677362 0.5689109767288514
v -0.014065739346065254 0.03450000163866207 0.5689109767288514
v -0.014065739346065254 0.028500001353677362 0.5689109767288514
v -0.012256157503522935 0.03450000163866207 0.5709909939174906
v -0.012256157503522935 0.03450000163866207 0.5709909939174906
v -0.014065739346065254 0.028500001353677362 0.5689109767288514
v -0.012256157503522935 0.028500001353677362 0.5709909939174906
v -0.012256157503522935 0.03450000163866207 0.5709909939174906
v -0.012256157503522935 0.028500001353677362 0.5709909939174906
v -0.01014234877122544 0.03450000163866207 0.5727610745679712
v -0.01014234877122544 0.03450000163866207 0.5727610745679712
v -0.012256157503522935 0.028500001353677362 0.5709909939174906
v -0.01014234877122544 0.028500001353677362 0.5727610745679712
v -0.01014234877122544 0.03450000163866207 0.5727610745679712
v -0.01014234877122544 0.028500001353677362 0.5727610745679712
v -0.007776778113670335 0.03450000163866207 0.5741771512953875
v -0.007776778113670335 0.03450000163866207 0.5741771512953875
v -0.01014234877122544 0.028500001353677362 0.5727610745679712
v -0.007776778113670335 0.028500001353677362 0.5741771512953875
v -0.007499000428662639 0.028500001353677362 0.5764327056017393
v -0.007499000428662639 0.029000001377426088 0.5764327056017393
v -0.007499000428662639 0.028500001353677362 0.574625027293223
v -0.007499000428662639 0.028500001353677362 0.574625027293223
v -0.007499000428662639 0.029000001377426088 0.5764327056017393
v -0.007499000428662639 0.03450000163866207 0.574625027293223
v -0.007499000428662639 0.03450000163866207 0.574625027293223
v -0.007499000428662639 0.029000001377426088 0.5764327056017393
v -0.007499000428662639 0.03450000163866207 0.5990015543299521
v -0.007499000428662639 0.03450000163866207 0.5990015543299521
v -0.007499000428662639 0.029000001377426088 0.5764327056017393
v -0.007499000428662639 0.029000001377426088 0.5990005167322465
v -0.007499000428662639 0.03450000163866207 0.5990015543299521
v -0.007499000428662639 0.029000001377426088 0.5990005167322465
v -0.007499000428662639 0.029000001377426088 0.5990015543299521
v -0.007776778113670335 0.03450000163866207 0.5741771512953875
v -0.007776778113670335 0.028500001353677362 0.5741771512953875
v -0.007629820709229296 0.031500001496169716 0.5742878690740838
v -0.007629820709229296 0.031500001496169716 0.5742878690740838
v -0.007776778113670335 0.028500001353677362 0.5741771512953875
v -0.007629820709229296 0.028500001353677362 0.5742878690740838
v -0.007629820709229296 0.031500001496169716 0.5742878690740838
v -0.007629820709229296 0.028500001353677362 0.5742878690740838
v -0.007532851100131299 0.031500001496169716 0.5744441801166644
v -0.007532851100131299 0.031500001496169716 0.5744441801166644
v -0.007629820709229296 0.028500001353677362 0.5742878690740838
v -0.007532851100131299 0.028500001353677362 0.5744441801166644
v -0.007532851100131299 0.031500001496169716 0.5744441801166644
v -0.007532851100131299 0.028500001353677362 0.5744441801166644
v -0.007499000428662639 0.028500001353677362 0.574625027293223
v -0.007499000428662639 0.028500001353677362 0.574625027293223
v -0.007499000428662639 0.03450000163866207 0.574625027293223
v -0.007532851100131299 0.031500001496169716 0.5744441801166644
v -0.007532851100131299 0.031500001496169716 0.5744441801166644
v -0.007499000428662639 0.03450000163866207 0.574625027293223
v -0.007532851100131299 0.03450000163866207 0.5744441801166644
v -0.007532851100131299 0.031500001496169716 0.5744441801166644
v -0.007532851100131299 0.03450000163866207 0.5744441801166644
v -0.007629820709229296 0.031500001496169716 0.5742878690740838
v -0.007629820709229296 0.031500001496169716 0.5742878690740838
v -0.007532851100131299 0.03450000163866207 0.5744441801166644
v -0.007629820709229296 0.03450000163866207 0.5742878690740838
v -0.007629820709229296 0.031500001496169716 0.5742878690740838
v -0.007629820709229296 0.03450000163866207 0.5742878690740838
v -0.007776778113670335 0.03450000163866207 0.5741771512953875
v 0.00999600076470153 0.029000001377426088 0.6070005171122261
v 0.00999600076470153 0.029000001377426088 0.5990015543299521
v 0.00999600076470153 0.03450000163866207 0.6070005171122261
v 0.00999600076470153 0.03450000163866207 0.6070005171122261
v 0.00999600076470153 0.029000001377426088 0.5990015543299521
v 0.00999600076470153 0.03450000163866207 0.5990015543299521
v 0.007501000283799131 0.029000001377426088 0.5990015543299521
v 0.007501000283799131 0.03450000163866207 0.5990015543299521
v 0.00999600076470153 0.029000001377426088 0.5990015543299521
v 0.00999600076470153 0.029000001377426088 0.5990015543299521
v 0.007501000283799131 0.03450000163866207 0.5990015543299521
v 0.00999600076470153 0.03450000163866207 0.5990015543299521
v -0.007499000428662639 0.03450000163866207 0.5990015543299521
v -0.007499000428662639 0.029000001377426088 0.5990015543299521
v -0.009994000909565037 0.03450000163866207 0.5990015543299521
v -0.009994000909565037 0.03450000163866207 0.5990015543299521
v -0.007499000428662639 0.029000001377426088 0.5990015543299521
v -0.009994000909565037 0.029000001377426088 0.5990015543299521
v -0.009994000909565037 0.029000001377426088 0.6070005171122261
v -0.009994000909565037 0.03450000163866207 0.6070005171122261
v -0.009994000909565037 0.029000001377426088 0.5990015543299521
v -0.009994000909565037 0.029000001377426088 0.5990015543299521
v -0.009994000909565037 0.03450000163866207 0.6070005171122261
v -0.009994000909565037 0.03450000163866207 0.5990015543299521
v -0.007499000428662639 0.029000001377426088 0.5764327056017393
v -0.007499000428662639 0.028500001353677362 0.5764327056017393
v -0.007459619876407642 0.029000001377426088 0.5766271636187881
v -0.007459619876407642 0.029000001377426088 0.5766271636187881
v -0.007499000428662639 0.028500001353677362 0.5764327056017393
v -0.007459619876407642 0.028500001353677362 0.5766271636187881
v -0.007459619876407642 0.029000001377426088 0.5766271636187881
v -0.007459619876407642 0.028500001353677362 0.5766271636187881
v -0.00734768187136553 0.029000001377426088 0.5767910430211032
v -0.00734768187136553 0.029000001377426088 0.5767910430211032
v -0.007459619876407642 0.028500001353677362 0.5766271636187881
v -0.00734768187136553 0.028500001353677362 0.5767910430211032
v -0.00734768187136553 0.029000001377426088 0.5767910430211032
v -0.00734768187136553 0.028500001353677362 0.5767910430211032
v -0.007180818421972657 0.029000001377426088 0.5768984649012054
v -0.007180818421972657 0.029000001377426088 0.5768984649012054
v -0.00734768187136553 0.028500001353677362 0.5767910430211032
v -0.007180818421972657 0.028500001353677362 0.5768984649012054
v -0.007499000428662639 0.029000001377426088 0.5990015543299521
v -0.007499000428662639 0.029000001377426088 0.5990005167322465
v -0.009994000909565037 0.029000001377426088 0.5990015543299521
v -0.009994000909565037 0.029000001377426088 0.5990015543299521
v -0.007499000428662639 0.029000001377426088 0.5990005167322465
v -0.009999000070569086 0.029000001377426088 0.5990005167322465
v -0.009994000909565037 0.029000001377426088 0.5990015543299521
v -0.009999000070569086 0.029000001377426088 0.5990005167322465
v -0.009999000070569086 0.029000001377426088 0.6070005171122261
v -0.009999000070569086 0.029000001377426088 0.6070005171122261
v -0.009994000909565037 0.029000001377426088 0.6070005171122261
v -0.009994000909565037 0.029000001377426088 0.5990015543299521
v 0.007501000283799131 0.029000001377426088 0.5990015543299521
v 0.00999600076470153 0.029000001377426088 0.5990015543299521
v 0.007501000283799131 0.029000001377426088 0.5990005167322465
v 0.007501000283799131 0.029000001377426088 0.5990005167322465
v 0.00999600076470153 0.029000001377426088 0.5990015543299521
v 0.01000100087937994 0.029000001377426088 0.5990005167322465
v 0.01000100087937994 0.029000001377426088 0.5990005167322465
v 0.00999600076470153 0.029000001377426088 0.5990015543299521
v 0.01000100087937994 0.029000001377426088 0.6070005171122261
v 0.01000100087937994 0.029000001377426088 0.6070005171122261
v 0.00999600076470153 0.029000001377426088 0.5990015543299521
v 0.00999600076470153 0.029000001377426088 0.6070005171122261
v 0.00999600076470153 0.03450000163866207 0.6070005171122261
v 0.01000100087937994 0.03450000163866207 0.6070005171122261
v 0.00999600076470153 0.029000001377426088 0.6070005171122261
v 0.00999600076470153 0.029000001377426088 0.6070005171122261
v 0.01000100087937994 0.03450000163866207 0.6070005171122261
v 0.01000100087937994 0.029000001377426088 0.6070005171122261
v -0.009994000909565037 0.029000001377426088 0.6070005171122261
v -0.009999000070569086 0.029000001377426088 0.6070005171122261
v -0.009994000909565037 0.03450000163866207 0.6070005171122261
v -0.009994000909565037 0.03450000163866207 0.6070005171122261
v -0.009999000070569086 0.029000001377426088 0.6070005171122261
v -0.009999000070569086 0.03450000163866207 0.6070005171122261
v 0.005792770660884017 0.027879685772456142 0.6153849779596854
v 0.00527875591555288 0.02800705852020524 0.6080005171597236
v 0.005233174095760906 0.028015414614962486 0.6153854052057994
v 0.005233174095760906 0.028015414614962486 0.6153854052057994
v 0.00527875591555288 0.02800705852020524 0.6080005171597236
v 0.0017693287974556576 0.028445088783930483 0.6080005171597236
v 0.005233174095760906 0.028015414614962486 0.6153854052057994
v 0.0017693287974556576 0.028445088783930483 0.6080005171597236
v 0.00229945146038385 0.028381587422882104 0.615382353447842
v 0.00229945146038385 0.028381587422882104 0.615382353447842
v 0.0017693287974556576 0.028445088783930483 0.6080005171597236
v 0.0017276297436180643 0.0284474939506707 0.6153816820610913
v 0.0017276297436180643 0.0284474939506707 0.6153816820610913
v 0.0017693287974556576 0.028445088783930483 0.6080005171597236
v -0.0017673288231098705 0.028445088783930483 0.6080005171597236
v 0.0017276297436180643 0.0284474939506707 0.6153816820610913
v -0.0017673288231098705 0.028445088783930483 0.6080005171597236
v -0.0012295572149636363 0.028447492043321976 0.6153730150684922
v -0.0012295572149636363 0.028447492043321976 0.6153730150684922
v -0.0017673288231098705 0.028445088783930483 0.6080005171597236
v -0.0018044137619669526 0.02844263402612346 0.6153712450488769
v -0.0018044137619669526 0.02844263402612346 0.6153712450488769
v -0.0017673288231098705 0.028445088783930483 0.6080005171597236
v -0.005276756060416388 0.02800705852020524 0.6080005171597236
v -0.0018044137619669526 0.02844263402612346 0.6153712450488769
v -0.005276756060416388 0.02800705852020524 0.6080005171597236
v -0.004740052925183147 0.028076217077567245 0.6153570848919543
v -0.004740052925183147 0.028076217077567245 0.6153570848919543
v -0.005276756060416388 0.02800705852020524 0.6080005171597236
v -0.005308718933486056 0.02800092067201332 0.6153542772746334
v -0.005308718933486056 0.02800092067201332 0.6153542772746334
v -0.005276756060416388 0.02800705852020524 0.6080005171597236
v -0.008704909738107003 0.027137744285189447 0.6080005171597236
v -0.005308718933486056 0.02800092067201332 0.6153542772746334
v -0.008704909738107003 0.027137744285189447 0.6080005171597236
v -0.008178051383309626 0.027273307188356855 0.6153348070588649
v -0.008178051383309626 0.027273307188356855 0.6153348070588649
v -0.008704909738107003 0.027137744285189447 0.6080005171597236
v -0.00873147433745225 0.02712913451305199 0.6153309618438385
v -0.00873147433745225 0.02712913451305199 0.6153309618438385
v -0.008704909738107003 0.027137744285189447 0.6080005171597236
v -0.011999000165563989 0.02585053375957269 0.6080005171597236
v -0.00873147433745225 0.02712913451305199 0.6153309618438385
v -0.011999000165563989 0.02585053375957269 0.6080005171597236
v -0.01149066216687089 0.026050938889941033 0.6153065477801789
v -0.01149066216687089 0.026050938889941033 0.6153065477801789
v -0.011999000165563989 0.02585053375957269 0.6080005171597236
v -0.012020122145326995 0.025840665137277785 0.6153017870377653
v -0.012020122145326995 0.025840665137277785 0.6153017870377653
v -0.011999000165563989 0.02585053375957269 0.6080005171597236
v -0.011999000165563989 0.02585053375957269 0.5990005167322465
v -0.012020122145326995 0.025840665137277785 0.6153017870377653
v -0.011999000165563989 0.02585053375957269 0.5990005167322465
v -0.012038298224986699 0.02583216980606373 0.6153016039322878
v -0.012038298224986699 0.02583216980606373 0.6153016039322878
v -0.011999000165563989 0.02585053375957269 0.5990005167322465
v -0.015081030608278256 0.02418227501334247 0.5990005167322465
v -0.012038298224986699 0.02583216980606373 0.6153016039322878
v -0.015081030608278256 0.02418227501334247 0.5990005167322465
v -0.014191263872901372 0.02466679690220075 0.6152775560795831
v 0.01000100087937994 0.03450000163866207 0.5990005167322465
v 0.012001000974374842 0.03450000163866207 0.5990005167322465
v 0.01000100087937994 0.029000001377426088 0.5990005167322465
v 0.01000100087937994 0.029000001377426088 0.5990005167322465
v 0.012001000974374842 0.03450000163866207 0.5990005167322465
v 0.012001000974374842 0.02585053375957269 0.5990005167322465
v 0.01000100087937994 0.029000001377426088 0.5990005167322465
v 0.012001000974374842 0.02585053375957269 0.5990005167322465
v -0.011999000165563989 0.02585053375957269 0.5990005167322465
v -0.011999000165563989 0.02585053375957269 0.5990005167322465
v 0.012001000974374842 0.02585053375957269 0.5990005167322465
v -0.015081030608278256 0.02418227501334247 0.5990005167322465
v -0.015081030608278256 0.02418227501334247 0.5990005167322465
v 0.012001000974374842 0.02585053375957269 0.5990005167322465
v 0.015083030463414748 0.02418227501334247 0.5990005167322465
v -0.015081030608278256 0.02418227501334247 0.5990005167322465
v 0.015083030463414748 0.02418227501334247 0.5990005167322465
v -0.017935006039855317 0.02214835844334795 0.5990005167322465
v -0.017935006039855317 0.02214835844334795 0.5990005167322465
v 0.015083030463414748 0.02418227501334247 0.5990005167322465
v 0.017937004941317447 0.02214835844334795 0.5990005167322465
v -0.017935006039855317 0.02214835844334795 0.5990005167322465
v 0.017937004941317447 0.02214835844334795 0.5990005167322465
v -0.020517771741753732 0.01977953814040534 0.5990005167322465
v -0.020517771741753732 0.01977953814040534 0.5990005167322465
v 0.017937004941317447 0.02214835844334795 0.5990005167322465
v 0.020519770643215862 0.01977953814040534 0.5990005167322465
v -0.020517771741753732 0.01977953814040534 0.5990005167322465
v 0.020519770643215862 0.01977953814040534 0.5990005167322465
v -0.022790272841513026 0.017111632206191496 0.5990005167322465
v -0.022790272841513026 0.017111632206191496 0.5990005167322465
v 0.020519770643215862 0.01977953814040534 0.5990005167322465
v 0.02279227365032388 0.017111632206191496 0.5990005167322465
v -0.022790272841513026 0.017111632206191496 0.5990005167322465
v 0.02279227365032388 0.017111632206191496 0.5990005167322465
v -0.02471815035922975 0.01418498106620647 0.5990005167322465
v -0.02471815035922975 0.01418498106620647 0.5990005167322465
v 0.02279227365032388 0.017111632206191496 0.5990005167322465
v 0.02472014926069188 0.01418498106620647 0.5990005167322465
v -0.02471815035922975 0.01418498106620647 0.5990005167322465
v 0.02472014926069188 0.01418498106620647 0.5990005167322465
v -0.026272250469666636 0.011043839979205106 0.5990005167322465
v -0.026272250469666636 0.011043839979205106 0.5990005167322465
v 0.02472014926069188 0.01418498106620647 0.5990005167322465
v 0.026274249371128766 0.011043839979205106 0.5990005167322465
v -0.026272250469666636 0.011043839979205106 0.5990005167322465
v 0.026274249371128766 0.011043839979205106 0.5990005167322465
v -0.027429072729202586 0.007735706219934857 0.5990005167322465
v -0.027429072729202586 0.007735706219934857 0.5990005167322465
v 0.026274249371128766 0.011043839979205106 0.5990005167322465
v 0.02743107353801344 0.007735706219934857 0.5990005167322465
v -0.027429072729202586 0.007735706219934857 0.5990005167322465
v 0.02743107353801344 0.007735706219934857 0.5990005167322465
v -0.028171128657392686 0.0043106009623414265 0.5990005167322465
v -0.028171128657392686 0.0043106009623414265 0.5990005167322465
v 0.02743107353801344 0.007735706219934857 0.5990005167322465
v -0.028487193506999686 0.0008203155191951333 0.5990005167322465
v -0.028487193506999686 0.0008203155191951333 0.5990005167322465
v 0.02743107353801344 0.007735706219934857 0.5990005167322465
v -0.028372489369471454 -0.002682374127955245 0.5990005167322465
v -0.028372489369471454 -0.002682374127955245 0.5990005167322465
v 0.02743107353801344 0.007735706219934857 0.5990005167322465
v -0.027828753839495013 -0.006144503408455904 0.5990005167322465
v -0.027828753839495013 -0.006144503408455904 0.5990005167322465
v 0.02743107353801344 0.007735706219934857 0.5990005167322465
v -0.0268642037753708 -0.009513721917941975 0.5990005167322465
v -0.0268642037753708 -0.009513721917941975 0.5990005167322465
v 0.02743107353801344 0.007735706219934857 0.5990005167322465
v -0.025493426580135425 -0.012739084848848448 0.5990005167322465
v -0.025493426580135425 -0.012739084848848448 0.5990005167322465
v 0.02743107353801344 0.007735706219934857 0.5990005167322465
v -0.023737149412366154 -0.01577181986380627 0.5990005167322465
v -0.023737149412366154 -0.01577181986380627 0.5990005167322465
v 0.02743107353801344 0.007735706219934857 0.5990005167322465
v -0.0216219301956877 -0.018566069531132934 0.5990005167322465
v -0.0216219301956877 -0.018566069531132934 0.5990005167322465
v 0.02743107353801344 0.007735706219934857 0.5990005167322465
v -0.019179751353494146 -0.021079585122930622 0.5990005167322465
v -0.019179751353494146 -0.021079585122930622 0.5990005167322465
v 0.02743107353801344 0.007735706219934857 0.5990005167322465
v -0.01644754106441937 -0.0232743541328162 0.5990005167322465
v -0.01644754106441937 -0.0232743541328162 0.5990005167322465
v 0.02743107353801344 0.007735706219934857 0.5990005167322465
v -0.013466612501812358 -0.02511719441504856 0.5990005167322465
v -0.013466612501812358 -0.02511719441504856 0.5990005167322465
v 0.02743107353801344 0.007735706219934857 0.5990005167322465
v -0.010282042038053385 -0.026580239604778733 0.5990005167322465
v -0.010282042038053385 -0.026580239604778733 0.5990005167322465
v 0.02743107353801344 0.007735706219934857 0.5990005167322465
v -0.0069419816453392125 -0.027641366364163922 0.5990005167322465
v -0.0069419816453392125 -0.027641366364163922 0.5990005167322465
v 0.02743107353801344 0.007735706219934857 0.5990005167322465
v -0.0034969369641912884 -0.028284528168394107 0.5990005167322465
v -0.0034969369641912884 -0.028284528168394107 0.5990005167322465
v 0.02743107353801344 0.007735706219934857 0.5990005167322465
v 9.999993965029407e-07 -0.028500001353677362 0.5990005167322465
v 9.999993965029407e-07 -0.028500001353677362 0.5990005167322465
v 0.02743107353801344 0.007735706219934857 0.5990005167322465
v 0.0034989368193277803 -0.028284528168394107 0.5990005167322465
v 0.0034989368193277803 -0.028284528168394107 0.5990005167322465
v 0.02743107353801344 0.007735706219934857 0.5990005167322465
v 0.006943981500475704 -0.027641366364163922 0.5990005167322465
v 0.006943981500475704 -0.027641366364163922 0.5990005167322465
v 0.02743107353801344 0.007735706219934857 0.5990005167322465
v 0.010284041893189877 -0.026580239604778733 0.5990005167322465
v 0.010284041893189877 -0.026580239604778733 0.5990005167322465
v 0.02743107353801344 0.007735706219934857 0.5990005167322465
v 0.01346861235694885 -0.02511719441504856 0.5990005167322465
v 0.01346861235694885 -0.02511719441504856 0.5990005167322465
v 0.02743107353801344 0.007735706219934857 0.5990005167322465
v 0.0164495399658815 -0.0232743541328162 0.5990005167322465
v 0.0164495399658815 -0.0232743541328162 0.5990005167322465
v 0.02743107353801344 0.007735706219934857 0.5990005167322465
v 0.019181750254956276 -0.021079585122930622 0.5990005167322465
v 0.019181750254956276 -0.021079585122930622 0.5990005167322465
v 0.02743107353801344 0.007735706219934857 0.5990005167322465
v 0.021623931004498553 -0.018566069531132934 0.5990005167322465
v 0.021623931004498553 -0.018566069531132934 0.5990005167322465
v 0.02743107353801344 0.007735706219934857 0.5990005167322465
v 0.023739150221177008 -0.01577181986380627 0.5990005167322465
v 0.023739150221177008 -0.01577181986380627 0.5990005167322465
v 0.02743107353801344 0.007735706219934857 0.5990005167322465
v 0.02549542738894628 -0.012739084848848448 0.5990005167322465
v 0.02549542738894628 -0.012739084848848448 0.5990005167322465
v 0.02743107353801344 0.007735706219934857 0.5990005167322465
v 0.02686620267683293 -0.009513721917941975 0.5990005167322465
v 0.02686620267683293 -0.009513721917941975 0.5990005167322465
v 0.02743107353801344 0.007735706219934857 0.5990005167322465
v 0.027830752740957143 -0.006144503408455904 0.5990005167322465
v 0.027830752740957143 -0.006144503408455904 0.5990005167322465
v 0.02743107353801344 0.007735706219934857 0.5990005167322465
v 0.028173127558854816 0.0043106009623414265 0.5990005167322465
v 0.027830752740957143 -0.006144503408455904 0.5990005167322465
v 0.028173127558854816 0.0043106009623414265 0.5990005167322465
v 0.028374490178282308 -0.002682374127955245 0.5990005167322465
v 0.028374490178282308 -0.002682374127955245 0.5990005167322465
v 0.028173127558854816 0.0043106009623414265 0.5990005167322465
v 0.028489192408461816 0.0008203155191951333 0.5990005167322465
v -0.011999000165563989 0.03450000163866207 0.5990005167322465
v -0.009999000070569086 0.029000001377426088 0.5990005167322465
v -0.011999000165563989 0.02585053375957269 0.5990005167322465
v -0.011999000165563989 0.02585053375957269 0.5990005167322465
v -0.009999000070569086 0.029000001377426088 0.5990005167322465
v -0.007499000428662639 0.029000001377426088 0.5990005167322465
v -0.011999000165563989 0.02585053375957269 0.5990005167322465
v -0.007499000428662639 0.029000001377426088 0.5990005167322465
v 0.007501000283799131 0.029000001377426088 0.5990005167322465
v -0.011999000165563989 0.03450000163866207 0.5990005167322465
v -0.009999000070569086 0.03450000163866207 0.5990005167322465
v -0.009999000070569086 0.029000001377426088 0.5990005167322465
v 0.007501000283799131 0.029000001377426088 0.5990005167322465
v 0.01000100087937994 0.029000001377426088 0.5990005167322465
v -0.011999000165563989 0.02585053375957269 0.5990005167322465
v -0.011999000165563989 0.02585053375957269 0.6080005171597236
v -0.008704909738107003 0.027137744285189447 0.6080005171597236
v -0.011999000165563989 0.03450000163866207 0.6080005171597236
v -0.011999000165563989 0.03450000163866207 0.6080005171597236
v -0.008704909738107003 0.027137744285189447 0.6080005171597236
v -0.005276756060416388 0.02800705852020524 0.6080005171597236
v -0.011999000165563989 0.03450000163866207 0.6080005171597236
v -0.005276756060416388 0.02800705852020524 0.6080005171597236
v -0.0017673288231098705 0.028445088783930483 0.6080005171597236
v -0.0017673288231098705 0.028445088783930483 0.6080005171597236
v 0.0017693287974556576 0.028445088783930483 0.6080005171597236
v -0.011999000165563989 0.03450000163866207 0.6080005171597236
v -0.011999000165563989 0.03450000163866207 0.6080005171597236
v 0.0017693287974556576 0.028445088783930483 0.6080005171597236
v 0.012001000974374842 0.03450000163866207 0.6080005171597236
v 0.012001000974374842 0.03450000163866207 0.6080005171597236
v 0.0017693287974556576 0.028445088783930483 0.6080005171597236
v 0.00527875591555288 0.02800705852020524 0.6080005171597236
v 0.012001000974374842 0.03450000163866207 0.6080005171597236
v 0.00527875591555288 0.02800705852020524 0.6080005171597236
v 0.008706909593243495 0.027137744285189447 0.6080005171597236
v 0.008706909593243495 0.027137744285189447 0.6080005171597236
v 0.012001000974374842 0.02585053375957269 0.6080005171597236
v 0.012001000974374842 0.03450000163866207 0.6080005171597236
v -0.009999000070569086 0.03450000163866207 0.5990005167322465
v -0.011999000165563989 0.03450000163866207 0.5990005167322465
v -0.009999000070569086 0.03450000163866207 0.6070005171122261
v -0.009999000070569086 0.03450000163866207 0.6070005171122261
v -0.011999000165563989 0.03450000163866207 0.5990005167322465
v -0.011999000165563989 0.03450000163866207 0.6080005171597236
v -0.009999000070569086 0.03450000163866207 0.6070005171122261
v -0.011999000165563989 0.03450000163866207 0.6080005171597236
v -0.009994000909565037 0.03450000163866207 0.6070005171122261
v -0.009994000909565037 0.03450000163866207 0.6070005171122261
v -0.011999000165563989 0.03450000163866207 0.6080005171597236
v 0.00999600076470153 0.03450000163866207 0.6070005171122261
v -0.009994000909565037 0.03450000163866207 0.6070005171122261
v 0.00999600076470153 0.03450000163866207 0.6070005171122261
v 0.007501000283799131 0.03450000163866207 0.5990015543299521
v 0.007501000283799131 0.03450000163866207 0.5990015543299521
v 0.00999600076470153 0.03450000163866207 0.6070005171122261
v 0.00999600076470153 0.03450000163866207 0.5990015543299521
v -0.011999000165563989 0.03450000163866207 0.6080005171597236
v 0.012001000974374842 0.03450000163866207 0.6080005171597236
v 0.00999600076470153 0.03450000163866207 0.6070005171122261
v 0.00999600076470153 0.03450000163866207 0.6070005171122261
v 0.012001000974374842 0.03450000163866207 0.6080005171597236
v 0.01000100087937994 0.03450000163866207 0.6070005171122261
v 0.01000100087937994 0.03450000163866207 0.6070005171122261
v 0.012001000974374842 0.03450000163866207 0.6080005171597236
v 0.012001000974374842 0.03450000163866207 0.5990005167322465
v 0.01000100087937994 0.03450000163866207 0.6070005171122261
v 0.012001000974374842 0.03450000163866207 0.5990005167322465
v 0.01000100087937994 0.03450000163866207 0.5990005167322465
v -0.009994000909565037 0.03450000163866207 0.6070005171122261
v 0.007501000283799131 0.03450000163866207 0.5990015543299521
v -0.007499000428662639 0.03450000163866207 0.5990015543299521
v -0.007499000428662639 0.03450000163866207 0.5990015543299521
v 0.007501000283799131 0.03450000163866207 0.5990015543299521
v 0.007501000283799131 0.03450000163866207 0.574625027293223
v -0.007499000428662639 0.03450000163866207 0.5990015543299521
v 0.007501000283799131 0.03450000163866207 0.574625027293223
v -0.007499000428662639 0.03450000163866207 0.574625027293223
v -0.007499000428662639 0.03450000163866207 0.574625027293223
v 0.007501000283799131 0.03450000163866207 0.574625027293223
v -0.007532851100131299 0.03450000163866207 0.5744441801166644
v -0.007532851100131299 0.03450000163866207 0.5744441801166644
v 0.007501000283799131 0.03450000163866207 0.574625027293223
v 0.007534851432104972 0.03450000163866207 0.5744441801166644
v -0.007532851100131299 0.03450000163866207 0.5744441801166644
v 0.007534851432104972 0.03450000163866207 0.5744441801166644
v 9.999993965029407e-07 0.03450000163866207 0.5410005139773943
v 9.999993965029407e-07 0.03450000163866207 0.5410005139773943
v 0.007534851432104972 0.03450000163866207 0.5744441801166644
v 0.002749466549812618 0.03450000163866207 0.5412176770736465
v 0.002749466549812618 0.03450000163866207 0.5412176770736465
v 0.007534851432104972 0.03450000163866207 0.5744441801166644
v 0.007631820564365788 0.03450000163866207 0.5742878690740838
v 0.002749466549812618 0.03450000163866207 0.5412176770736465
v 0.007631820564365788 0.03450000163866207 0.5742878690740838
v 0.005429714937615626 0.03450000163866207 0.5418638563035572
v 0.005429714937615626 0.03450000163866207 0.5418638563035572
v 0.007631820564365788 0.03450000163866207 0.5742878690740838
v 0.007778777968806827 0.03450000163866207 0.5741771512953875
v 0.005429714937615626 0.03450000163866207 0.5418638563035572
v 0.007778777968806827 0.03450000163866207 0.5741771512953875
v 0.007975221059039472 0.03450000163866207 0.5429229383851109
v 0.007975221059039472 0.03450000163866207 0.5429229383851109
v 0.007778777968806827 0.03450000163866207 0.5741771512953875
v 0.010144348626361932 0.03450000163866207 0.5727610745679712
v 0.007975221059039472 0.03450000163866207 0.5429229383851109
v 0.010144348626361932 0.03450000163866207 0.5727610745679712
v 0.01032280398762131 0.03450000163866207 0.5443686171647144
v 0.01032280398762131 0.03450000163866207 0.5443686171647144
v 0.010144348626361932 0.03450000163866207 0.5727610745679712
v 0.012258157358659427 0.03450000163866207 0.5709909939174906
v 0.01032280398762131 0.03450000163866207 0.5443686171647144
v 0.012258157358659427 0.03450000163866207 0.5709909939174906
v 0.012414195650372606 0.03450000163866207 0.5461651260391065
v 0.012414195650372606 0.03450000163866207 0.5461651260391065
v 0.012258157358659427 0.03450000163866207 0.5709909939174906
v 0.014067739201201745 0.03450000163866207 0.5689109767288514
v 0.012414195650372606 0.03450000163866207 0.5461651260391065
v 0.014067739201201745 0.03450000163866207 0.5689109767288514
v 0.01419748850546021 0.03450000163866207 0.5482677262366309
v 0.01419748850546021 0.03450000163866207 0.5482677262366309
v 0.014067739201201745 0.03450000163866207 0.5689109767288514
v 0.015528178952575744 0.03450000163866207 0.566572475641216
v 0.01419748850546021 0.03450000163866207 0.5482677262366309
v 0.015528178952575744 0.03450000163866207 0.566572475641216
v 0.01562841871106002 0.03450000163866207 0.5506243547665335
v 0.01562841871106002 0.03450000163866207 0.5506243547665335
v 0.015528178952575744 0.03450000163866207 0.566572475641216
v 0.016603230311316164 0.03450000163866207 0.5640337181964128
v 0.01562841871106002 0.03450000163866207 0.5506243547665335
v 0.016603230311316164 0.03450000163866207 0.5640337181964128
v 0.01667147143394221 0.03450000163866207 0.5531764789111904
v 0.01667147143394221 0.03450000163866207 0.5531764789111904
v 0.016603230311316164 0.03450000163866207 0.5640337181964128
v 0.017266207561433822 0.03450000163866207 0.5613575706083651
v 0.01667147143394221 0.03450000163866207 0.5531764789111904
v 0.017266207561433822 0.03450000163866207 0.5613575706083651
v 0.017300755368860887 0.03450000163866207 0.5558607441754049
v 0.017300755368860887 0.03450000163866207 0.5558607441754049
v 0.017266207561433822 0.03450000163866207 0.5613575706083651
v 0.017500655051817526 0.03450000163866207 0.5586105001653863
v 9.999993965029407e-07 0.03450000163866207 0.5410005139773943
v -0.0027474664562575357 0.03450000163866207 0.5412176770736465
v -0.007532851100131299 0.03450000163866207 0.5744441801166644
v -0.007532851100131299 0.03450000163866207 0.5744441801166644
v -0.0027474664562575357 0.03450000163866207 0.5412176770736465
v -0.007629820709229296 0.03450000163866207 0.5742878690740838
v -0.007629820709229296 0.03450000163866207 0.5742878690740838
v -0.0027474664562575357 0.03450000163866207 0.5412176770736465
v -0.005427715082479134 0.03450000163866207 0.5418638563035572
v -0.007629820709229296 0.03450000163866207 0.5742878690740838
v -0.005427715082479134 0.03450000163866207 0.5418638563035572
v -0.007776778113670335 0.03450000163866207 0.5741771512953875
v -0.007776778113670335 0.03450000163866207 0.5741771512953875
v -0.005427715082479134 0.03450000163866207 0.5418638563035572
v -0.00797322120390298 0.03450000163866207 0.5429229383851109
v -0.007776778113670335 0.03450000163866207 0.5741771512953875
v -0.00797322120390298 0.03450000163866207 0.5429229383851109
v -0.01014234877122544 0.03450000163866207 0.5727610745679712
v -0.01014234877122544 0.03450000163866207 0.5727610745679712
v -0.00797322120390298 0.03450000163866207 0.5429229383851109
v -0.010320804132484818 0.03450000163866207 0.5443686171647144
v -0.01014234877122544 0.03450000163866207 0.5727610745679712
v -0.010320804132484818 0.03450000163866207 0.5443686171647144
v -0.012256157503522935 0.03450000163866207 0.5709909939174906
v -0.012256157503522935 0.03450000163866207 0.5709909939174906
v -0.010320804132484818 0.03450000163866207 0.5443686171647144
v -0.012412195795236114 0.03450000163866207 0.5461651260391065
v -0.012256157503522935 0.03450000163866207 0.5709909939174906
v -0.012412195795236114 0.03450000163866207 0.5461651260391065
v -0.014065739346065254 0.03450000163866207 0.5689109767288514
v -0.014065739346065254 0.03450000163866207 0.5689109767288514
v -0.012412195795236114 0.03450000163866207 0.5461651260391065
v -0.014195488650323718 0.03450000163866207 0.5482677262366309
v -0.014065739346065254 0.03450000163866207 0.5689109767288514
v -0.014195488650323718 0.03450000163866207 0.5482677262366309
v -0.015526179097439252 0.03450000163866207 0.566572475641216
v -0.015526179097439252 0.03450000163866207 0.566572475641216
v -0.014195488650323718 0.03450000163866207 0.5482677262366309
v -0.01562641885592353 0.03450000163866207 0.5506243547665335
v -0.015526179097439252 0.03450000163866207 0.566572475641216
v -0.01562641885592353 0.03450000163866207 0.5506243547665335
v -0.01660122950250531 0.03450000163866207 0.5640337181964128
v -0.01660122950250531 0.03450000163866207 0.5640337181964128
v -0.01562641885592353 0.03450000163866207 0.5506243547665335
v -0.016669470625131355 0.03450000163866207 0.5531764789111904
v -0.01660122950250531 0.03450000163866207 0.5640337181964128
v -0.016669470625131355 0.03450000163866207 0.5531764789111904
v -0.017264206752622968 0.03450000163866207 0.5613575706083651
v -0.017264206752622968 0.03450000163866207 0.5613575706083651
v -0.016669470625131355 0.03450000163866207 0.5531764789111904
v -0.017298756467398757 0.03450000163866207 0.5558607441754049
v -0.017264206752622968 0.03450000163866207 0.5613575706083651
v -0.017298756467398757 0.03450000163866207 0.5558607441754049
v -0.017498654243006673 0.03450000163866207 0.5586105001653863
v -0.007499000428662639 0.03450000163866207 0.5990015543299521
v -0.009994000909565037 0.03450000163866207 0.5990015543299521
v -0.009994000909565037 0.03450000163866207 0.6070005171122261
v -0.011999000165563989 0.03450000163866207 0.6080005171597236
v -0.011999000165563989 0.03450000163866207 0.5990005167322465
v -0.011999000165563989 0.02585053375957269 0.6080005171597236
v -0.011999000165563989 0.02585053375957269 0.6080005171597236
v -0.011999000165563989 0.03450000163866207 0.5990005167322465
v -0.011999000165563989 0.02585053375957269 0.5990005167322465
v 0.012001000974374842 0.02585053375957269 0.6080005171597236
v 0.012001000974374842 0.02585053375957269 0.5990005167322465
v 0.012001000974374842 0.03450000163866207 0.6080005171597236
v 0.012001000974374842 0.03450000163866207 0.6080005171597236
v 0.012001000974374842 0.02585053375957269 0.5990005167322465
v 0.012001000974374842 0.03450000163866207 0.5990005167322465
v -0.009999000070569086 0.029000001377426088 0.5990005167322465
v -0.009999000070569086 0.03450000163866207 0.5990005167322465
v -0.009999000070569086 0.029000001377426088 0.6070005171122261
v -0.009999000070569086 0.029000001377426088 0.6070005171122261
v -0.009999000070569086 0.03450000163866207 0.5990005167322465
v -0.009999000070569086 0.03450000163866207 0.6070005171122261
v 0.01000100087937994 0.029000001377426088 0.5990005167322465
v 0.01000100087937994 0.029000001377426088 0.6070005171122261
v 0.01000100087937994 0.03450000163866207 0.5990005167322465
v 0.01000100087937994 0.03450000163866207 0.5990005167322465
v 0.01000100087937994 0.029000001377426088 0.6070005171122261
v 0.01000100087937994 0.03450000163866207 0.6070005171122261
v -0.017935006039855317 0.02214835844334795 0.5990005167322465
v -0.01711447224844065 0.02273634064900998 0.6152396532457516
v -0.015118823769558198 0.024158566668710524 0.6152671190673686
v -0.017935006039855317 0.02214835844334795 0.5990005167322465
v -0.015118823769558198 0.024158566668710524 0.6152671190673686
v -0.015081030608278256 0.02418227501334247 0.5990005167322465
v -0.017935006039855317 0.02214835844334795 0.5990005167322465
v -0.017970545668618554 0.022119420148516422 0.6152277513897175
v -0.01711447224844065 0.02273634064900998 0.6152396532457516
v -0.020517771741753732 0.01977953814040534 0.5990005167322465
v -0.019778573021951296 0.020461157816945574 0.6151972948453022
v -0.017970545668618554 0.022119420148516422 0.6152277513897175
v -0.020517771741753732 0.01977953814040534 0.5990005167322465
v -0.017970545668618554 0.022119420148516422 0.6152277513897175
v -0.017935006039855317 0.02214835844334795 0.5990005167322465
v -0.020517771741753732 0.01977953814040534 0.5990005167322465
v -0.020550320647718667 0.0197455873331287 0.615184111250926
v -0.019778573021951296 0.020461157816945574 0.6151972948453022
v -0.022790272841513026 0.017111632206191496 0.5990005167322465
v -0.022143082716779006 0.0178756817725112 0.6151510912298264
v -0.020550320647718667 0.0197455873331287 0.615184111250926
v -0.022790272841513026 0.017111632206191496 0.5990005167322465
v -0.020550320647718667 0.0197455873331287 0.615184111250926
v -0.020517771741753732 0.01977953814040534 0.5990005167322465
v -0.022790272841513026 0.017111632206191496 0.5990005167322465
v -0.022819111954210936 0.017072995043101447 0.6151369310729038
v -0.022143082716779006 0.0178756817725112 0.6151510912298264
v -0.02471815035922975 0.01418498106620647 0.5990005167322465
v -0.0241720916785082 0.015019065616626581 0.6151017137860748
v -0.022819111954210936 0.017072995043101447 0.6151369310729038
v -0.02471815035922975 0.01418498106620647 0.5990005167322465
v -0.022819111954210936 0.017072995043101447 0.6151369310729038
v -0.022790272841513026 0.017111632206191496 0.5990005167322465
v -0.02471815035922975 0.01418498106620647 0.5990005167322465
v -0.024742602569863825 0.01414208288606833 0.6150866991369242
v -0.0241720916785082 0.015019065616626581 0.6151017137860748
v -0.026272250469666636 0.011043839979205106 0.5990005167322465
v -0.025834748541537778 0.011934624285125928 0.6150499559711164
v -0.024742602569863825 0.01414208288606833 0.6150866991369242
v -0.026272250469666636 0.011043839979205106 0.5990005167322465
v -0.024742602569863825 0.01414208288606833 0.6150866991369242
v -0.02471815035922975 0.01418498106620647 0.5990005167322465
v -0.026272250469666636 0.011043839979205106 0.5990005167322465
v -0.026291690167855597 0.010997202441894727 0.6150343309703743
v -0.025834748541537778 0.011934624285125928 0.6150499559711164
v -0.027429072729202586 0.007735706219934857 0.5990005167322465
v -0.027105790472026214 0.008669124061358446 0.6149965502068611
v -0.026291690167855597 0.010997202441894727 0.6150343309703743
v -0.027429072729202586 0.007735706219934857 0.5990005167322465
v -0.026291690167855597 0.010997202441894727 0.6150343309703743
v -0.026272250469666636 0.011043839979205106 0.5990005167322465
v -0.027429072729202586 0.007735706219934857 0.5990005167322465
v -0.0274429429691192 0.007685939677043729 0.6149806200303232
v -0.027105790472026214 0.008669124061358446 0.6149965502068611
v -0.028171128657392686 0.0043106009623414265 0.5990005167322465
v -0.027965894120056678 0.005272118818832605 0.614942473055855
v -0.0274429429691192 0.007685939677043729 0.6149806200303232
v -0.028171128657392686 0.0043106009623414265 0.5990005167322465
v -0.0274429429691192 0.007685939677043729 0.6149806200303232
v -0.027429072729202586 0.007735706219934857 0.5990005167322465
v -0.028171128657392686 0.0043106009623414265 0.5990005167322465
v -0.028178948787158653 0.0042583939667587 0.6149263597738397
v -0.027965894120056678 0.005272118818832605 0.614942473055855
v -0.028487193506999686 0.0008203155191951333 0.5990005167322465
v -0.02840200368361745 0.0017951370138227785 0.6148882127993716
v -0.028178948787158653 0.0042583939667587 0.6149263597738397
v -0.028487193506999686 0.0008203155191951333 0.5990005167322465
v -0.028178948787158653 0.0042583939667587 0.6149263597738397
v -0.028171128657392686 0.0043106009623414265 0.5990005167322465
v -0.028487193506999686 0.0008203155191951333 0.5990005167322465
v -0.028488570612777986 0.0007664254671779433 0.614872404693152
v -0.02840200368361745 0.0017951370138227785 0.6148882127993716
v -0.028372489369471454 -0.002682374127955245 0.5990005167322465
v -0.028407500662638308 -0.0017090404845411522 0.6148349291054345
v -0.028488570612777986 0.0007664254671779433 0.614872404693152
v -0.028372489369471454 -0.002682374127955245 0.5990005167322465
v -0.028488570612777986 0.0007664254671779433 0.614872404693152
v -0.028487193506999686 0.0008203155191951333 0.5990005167322465
v -0.028372489369471454 -0.002682374127955245 0.5990005167322465
v -0.028367131626907405 -0.0027371331561298895 0.6148194872101698
v -0.028407500662638308 -0.0017090404845411522 0.6148349291054345
v -0.027828753839495013 -0.006144503408455904 0.5990005167322465
v -0.02798232783665755 -0.00518724323115255 0.6147833543959536
v -0.028367131626907405 -0.0027371331561298895 0.6148194872101698
v -0.027828753839495013 -0.006144503408455904 0.5990005167322465
v -0.028367131626907405 -0.0027371331561298895 0.6148194872101698
v -0.028372489369471454 -0.002682374127955245 0.5990005167322465
v -0.027828753839495013 -0.006144503408455904 0.5990005167322465
v -0.02781646860636755 -0.0061992743575600695 0.614768400781962
v -0.02798232783665755 -0.00518724323115255 0.6147833543959536
v -0.0268642037753708 -0.009513721917941975 0.5990005167322465
v -0.027132977820729653 -0.00858670561567132 0.6147341600576794
v -0.02781646860636755 -0.0061992743575600695 0.614768400781962
v -0.0268642037753708 -0.009513721917941975 0.5990005167322465
v -0.02781646860636755 -0.0061992743575600695 0.614768400781962
v -0.027828753839495013 -0.006144503408455904 0.5990005167322465
v -0.0268642037753708 -0.009513721917941975 0.5990005167322465
v -0.026844909035684816 -0.009567615963470555 0.614720060935916
v -0.027132977820729653 -0.00858670561567132 0.6147341600576794
v -0.025493426580135425 -0.012739084848848448 0.5990005167322465
v -0.025872397697989102 -0.011855864134290295 0.6146882005828402
v -0.026844909035684816 -0.009567615963470555 0.614720060935916
v -0.025493426580135425 -0.012739084848848448 0.5990005167322465
v -0.026844909035684816 -0.009567615963470555 0.614720060935916
v -0.0268642037753708 -0.009513721917941975 0.5990005167322465
v -0.025493426580135425 -0.012739084848848448 0.5990005167322465
v -0.025467156666167945 -0.012791198384343727 0.6146751390587823
v -0.025872397697989102 -0.011855864134290295 0.6146882005828402
v -0.023737149412366154 -0.01577181986380627 0.5990005167322465
v -0.02421977730394209 -0.01494515489992021 0.6146460252878683
v -0.025467156666167945 -0.012791198384343727 0.6146751390587823
v -0.023737149412366154 -0.01577181986380627 0.5990005167322465
v -0.025467156666167945 -0.012791198384343727 0.6146751390587823
v -0.025493426580135425 -0.012739084848848448 0.5990005167322465
v -0.023737149412366154 -0.01577181986380627 0.5990005167322465
v -0.023704051189968878 -0.015821247852298992 0.6146342455021525
v -0.02421977730394209 -0.01494515489992021 0.6146460252878683
v -0.0216219301956877 -0.018566069531132934 0.5990005167322465
v -0.022200259309460568 -0.017807778250609196 0.6146084886649916
v -0.023704051189968878 -0.015821247852298992 0.6146342455021525
v -0.0216219301956877 -0.018566069531132934 0.5990005167322465
v -0.023704051189968878 -0.015821247852298992 0.6146342455021525
v -0.023737149412366154 -0.01577181986380627 0.5990005167322465
v -0.0216219301956877 -0.018566069531132934 0.5990005167322465
v -0.02158226878633318 -0.018611918379746184 0.6145980516527771
v -0.022200259309460568 -0.017807778250609196 0.6146084886649916
v -0.019179751353494146 -0.021079585122930622 0.5990005167322465
v -0.019844553936340104 -0.020400383964571667 0.6145759569251652
v -0.02158226878633318 -0.018611918379746184 0.6145980516527771
v -0.019179751353494146 -0.021079585122930622 0.5990005167322465
v -0.02158226878633318 -0.018611918379746184 0.6145980516527771
v -0.0216219301956877 -0.018566069531132934 0.5990005167322465
v -0.019179751353494146 -0.021079585122930622 0.5990005167322465
v -0.01913390441222962 -0.021120989849018335 0.6145671068270886
v -0.019844553936340104 -0.020400383964571667 0.6145759569251652
v -0.01644754106441937 -0.0232743541328162 0.5990005167322465
v -0.017188446861329254 -0.022683758859403103 0.6145490404199805
v -0.01913390441222962 -0.021120989849018335 0.6145671068270886
v -0.01644754106441937 -0.0232743541328162 0.5990005167322465
v -0.01913390441222962 -0.021120989849018335 0.6145671068270886
v -0.019179751353494146 -0.021079585122930622 0.5990005167322465
v -0.01644754106441937 -0.0232743541328162 0.5990005167322465
v -0.016395996872518026 -0.023310486947032416 0.6145418382712009
v -0.017188446861329254 -0.022683758859403103 0.6145490404199805
v -0.013466612501812358 -0.02511719441504856 0.5990005167322465
v -0.014272269926858816 -0.024623391367302183 0.6145280443252332
v -0.016395996872518026 -0.023310486947032416 0.6145418382712009
v -0.013466612501812358 -0.02511719441504856 0.5990005167322465
v -0.016395996872518026 -0.023310486947032416 0.6145418382712009
v -0.01644754106441937 -0.0232743541328162 0.5990005167322465
v -0.013466612501812358 -0.02511719441504856 0.5990005167322465
v -0.013409970920447711 -0.025147280933811578 0.614522612196069
v -0.014272269926858816 -0.024623391367302183 0.6145280443252332
v -0.010282042038053385 -0.026580239604778733 0.5990005167322465
v -0.011140286021078527 -0.02619001131475951 0.6145133958870375
v -0.013409970920447711 -0.025147280933811578 0.614522612196069
v -0.010282042038053385 -0.026580239604778733 0.5990005167322465
v -0.013409970920447711 -0.025147280933811578 0.614522612196069
v -0.013466612501812358 -0.02511719441504856 0.5990005167322465
v -0.010282042038053385 -0.026580239604778733 0.5990005167322465
v -0.010220999249509477 -0.02660357410906089 0.6145097948126477
v -0.011140286021078527 -0.02619001131475951 0.6145133958870375
v -0.0069419816453392125 -0.027641366364163922 0.5990005167322465
v -0.007839973822085788 -0.027360017168671646 0.6145053392460298
v -0.010220999249509477 -0.02660357410906089 0.6145097948126477
v -0.0069419816453392125 -0.027641366364163922 0.5990005167322465
v -0.010220999249509477 -0.02660357410906089 0.6145097948126477
v -0.010282042038053385 -0.026580239604778733 0.5990005167322465
v -0.0069419816453392125 -0.027641366364163922 0.5990005167322465
v -0.006877331106684981 -0.02765732705828139 0.6145036302615736
v -0.007839973822085788 -0.027360017168671646 0.6145053392460298
v -0.0034969369641912884 -0.028284528168394107 0.5990005167322465
v -0.004421352596477579 -0.028115838432598572 0.6145038744022102
v -0.006877331106684981 -0.02765732705828139 0.6145036302615736
v -0.0034969369641912884 -0.028284528168394107 0.5990005167322465
v -0.006877331106684981 -0.02765732705828139 0.6145036302615736
v -0.0069419816453392125 -0.027641366364163922 0.5990005167322465
v -0.0034969369641912884 -0.028284528168394107 0.5990005167322465
v -0.003429555579002319 -0.028292577180006884 0.6145040575076877
v -0.004421352596477579 -0.028115838432598572 0.6145038744022102
v 9.999993965029407e-07 -0.028500001353677362 0.5990005167322465
v -0.0009361872521653283 -0.028446170250656655 0.6145090013555787
v -0.003429555579002319 -0.028292577180006884 0.6145040575076877
v 9.999993965029407e-07 -0.028500001353677362 0.5990005167322465
v -0.003429555579002319 -0.028292577180006884 0.6145040575076877
v -0.0034969369641912884 -0.028284528168394107 0.5990005167322465
v 9.999993965029407e-07 -0.028500001353677362 0.5990005167322465
v 7.015860413954467e-05 -0.02849970952932268 0.6145111986213081
v -0.0009361872521653283 -0.028446170250656655 0.6145090013555787
v 0.0034989368193277803 -0.028284528168394107 0.5990005167322465
v 0.002562788369788044 -0.028346164142390995 0.6145207811412945
v 7.015860413954467e-05 -0.02849970952932268 0.6145111986213081
v 0.0034989368193277803 -0.028284528168394107 0.5990005167322465
v 7.015860413954467e-05 -0.02849970952932268 0.6145111986213081
v 9.999993965029407e-07 -0.028500001353677362 0.5990005167322465
v 0.0034989368193277803 -0.028284528168394107 0.5990005167322465
v 0.0035688545014816997 -0.02827557698083516 0.6145248094617983
v 0.002562788369788044 -0.028346164142390995 0.6145207811412945
v 0.006943981500475704 -0.027641366364163922 0.5990005167322465
v 0.00602265434260979 -0.02781747568649351 0.6145389696187209
v 0.0035688545014816997 -0.02827557698083516 0.6145248094617983
v 0.006943981500475704 -0.027641366364163922 0.5990005167322465
v 0.0035688545014816997 -0.02827557698083516 0.6145248094617983
v 0.0034989368193277803 -0.028284528168394107 0.5990005167322465
v 0.006943981500475704 -0.027641366364163922 0.5990005167322465
v 0.007013589715299251 -0.027623557449133473 0.6145448289939992
v 0.00602265434260979 -0.02781747568649351 0.6145389696187209
v 0.010284041893189877 -0.026580239604778733 0.5990005167322465
v 0.009391131847116818 -0.02686822446647974 0.6145632616120622
v 0.007013589715299251 -0.027623557449133473 0.6145448289939992
v 0.010284041893189877 -0.026580239604778733 0.5990005167322465
v 0.007013589715299251 -0.027623557449133473 0.6145448289939992
v 0.006943981500475704 -0.027641366364163922 0.5990005167322465
v 0.010284041893189877 -0.026580239604778733 0.5990005167322465
v 0.010352232471074752 -0.026553506205071464 0.6145708910069558
v 0.009391131847116818 -0.02686822446647974 0.6145632616120622
v 0.01346861235694885 -0.02511719441504856 0.5990005167322465
v 0.012617336872484675 -0.025512889166509067 0.6145933519455227
v 0.010352232471074752 -0.026553506205071464 0.6145708910069558
v 0.01346861235694885 -0.02511719441504856 0.5990005167322465
v 0.010352232471074752 -0.026553506205071464 0.6145708910069558
v 0.010284041893189877 -0.026580239604778733 0.5990005167322465
v 0.01346861235694885 -0.02511719441504856 0.5990005167322465
v 0.013534256624287977 -0.02508161282461341 0.6146025682545542
v 0.012617336872484675 -0.025512889166509067 0.6145933519455227
v 0.0164495399658815 -0.0232743541328162 0.5990005167322465
v 0.0156525819583625 -0.02377205007930705 0.61462869130267
v 0.013534256624287977 -0.02508161282461341 0.6146025682545542
v 0.0164495399658815 -0.0232743541328162 0.5990005167322465
v 0.013534256624287977 -0.02508161282461341 0.6146025682545542
v 0.01346861235694885 -0.02511719441504856 0.5990005167322465
v 0.0164495399658815 -0.0232743541328162 0.5990005167322465
v 0.01651150209651009 -0.023230136067361462 0.6146394334906802
v 0.0156525819583625 -0.02377205007930705 0.61462869130267
v 0.019181750254956276 -0.021079585122930622 0.5990005167322465
v 0.018451065939855127 -0.021672104911205636 0.6146687914022309
v 0.01651150209651009 -0.023230136067361462 0.6146394334906802
v 0.019181750254956276 -0.021079585122930622 0.5990005167322465
v 0.01651150209651009 -0.023230136067361462 0.6146394334906802
v 0.0164495399658815 -0.0232743541328162 0.5990005167322465
v 0.019181750254956276 -0.021079585122930622 0.5990005167322465
v 0.019238903959453157 -0.021027087256667576 0.6146809373989015
v 0.018451065939855127 -0.021672104911205636 0.6146687914022309
v 0.021623931004498553 -0.018566069531132934 0.5990005167322465
v 0.020970589680131546 -0.01924483390663423 0.614713102927773
v 0.019238903959453157 -0.021027087256667576 0.6146809373989015
v 0.021623931004498553 -0.018566069531132934 0.5990005167322465
v 0.019238903959453157 -0.021027087256667576 0.6146809373989015
v 0.019181750254956276 -0.021079585122930622 0.5990005167322465
v 0.021623931004498553 -0.018566069531132934 0.5990005167322465
v 0.02167518146469649 -0.018505799218822006 0.6147264085924675
v 0.020970589680131546 -0.01924483390663423 0.614713102927773
v 0.023739150221177008 -0.01577181986380627 0.5990005167322465
v 0.023173171190388198 -0.016526942084426066 0.6147608324222276
v 0.02167518146469649 -0.018505799218822006 0.6147264085924675
v 0.023739150221177008 -0.01577181986380627 0.5990005167322465
v 0.02167518146469649 -0.018505799218822006 0.6147264085924675
v 0.021623931004498553 -0.018566069531132934 0.5990005167322465
v 0.023739150221177008 -0.01577181986380627 0.5990005167322465
v 0.023783456024673022 -0.015704430372385225 0.6147751146494684
v 0.023173171190388198 -0.016526942084426066 0.6147608324222276
v 0.02549542738894628 -0.012739084848848448 0.5990005167322465
v 0.02502560925139674 -0.01355950324566535 0.614811369534003
v 0.023783456024673022 -0.015704430372385225 0.6147751146494684
v 0.02549542738894628 -0.012739084848848448 0.5990005167322465
v 0.023783456024673022 -0.015704430372385225 0.6147751146494684
v 0.023739150221177008 -0.01577181986380627 0.5990005167322465
v 0.02549542738894628 -0.012739084848848448 0.5990005167322465
v 0.025531810065845262 -0.012665368681711864 0.6148264452183128
v 0.02502560925139674 -0.01355950324566535 0.614811369534003
v 0.02686620267683293 -0.009513721917941975 0.5990005167322465
v 0.02649998409254395 -0.01038733054860852 0.6148638597708711
v 0.025531810065845262 -0.012665368681711864 0.6148264452183128
v 0.02686620267683293 -0.009513721917941975 0.5990005167322465
v 0.025531810065845262 -0.012665368681711864 0.6148264452183128
v 0.02549542738894628 -0.012739084848848448 0.5990005167322465
v 0.02686620267683293 -0.009513721917941975 0.5990005167322465
v 0.026893775309978496 -0.009434610814941236 0.6148795458067724
v 0.02649998409254395 -0.01038733054860852 0.6148638597708711
v 0.027830752740957143 -0.006144503408455904 0.5990005167322465
v 0.027574077008550857 -0.007058317042863138 0.6149176927812405
v 0.026893775309978496 -0.009434610814941236 0.6148795458067724
v 0.027830752740957143 -0.006144503408455904 0.5990005167322465
v 0.026893775309978496 -0.009434610814941236 0.6148795458067724
v 0.02686620267683293 -0.009513721917941975 0.5990005167322465
v 0.027830752740957143 -0.006144503408455904 0.5990005167322465
v 0.027848733317372698 -0.006061052610272233 0.6149336229577784
v 0.027574077008550857 -0.007058317042863138 0.6149176927812405
v 0.028374490178282308 -0.002682374127955245 0.5990005167322465
v 0.028231694608755742 -0.0036227006248736038 0.6149718309674057
v 0.027848733317372698 -0.006061052610272233 0.6149336229577784
v 0.028374490178282308 -0.002682374127955245 0.5990005167322465
v 0.027848733317372698 -0.006061052610272233 0.6149336229577784
v 0.027830752740957143 -0.006144503408455904 0.5990005167322465
v 0.028374490178282308 -0.002682374127955245 0.5990005167322465
v 0.02838222829205317 -0.0025957564156349477 0.6149878832142619
v 0.028231694608755742 -0.0036227006248736038 0.6149718309674057
v 0.028489192408461816 0.0008203155191951333 0.5990005167322465
v 0.028462911050401996 -0.00013232166203521606 0.6150255419074568
v 0.02838222829205317 -0.0025957564156349477 0.6149878832142619
v 0.028489192408461816 0.0008203155191951333 0.5990005167322465
v 0.02838222829205317 -0.0025957564156349477 0.6149878832142619
v 0.028374490178282308 -0.002682374127955245 0.5990005167322465
v 0.028489192408461816 0.0008203155191951333 0.5990005167322465
v 0.028486180704827557 0.0009088293745650872 0.6150414720839947
v 0.028462911050401996 -0.00013232166203521606 0.6150255419074568
v 0.028173127558854816 0.0043106009623414265 0.5990005167322465
v 0.02826421108979238 0.0033601478742133206 0.615078032144325
v 0.028486180704827557 0.0009088293745650872 0.6150414720839947
v 0.028173127558854816 0.0043106009623414265 0.5990005167322465
v 0.028486180704827557 0.0009088293745650872 0.6150414720839947
v 0.028489192408461816 0.0008203155191951333 0.5990005167322465
v 0.028173127558854816 0.0043106009623414265 0.5990005167322465
v 0.028159016992999053 0.00439965793526037 0.6150935350747488
v 0.02826421108979238 0.0033601478742133206 0.615078032144325
v 0.02743107353801344 0.007735706219934857 0.5990005167322465
v 0.027638558746843067 0.0068019927394591395 0.6151285082209412
v 0.028159016992999053 0.00439965793526037 0.6150935350747488
v 0.02743107353801344 0.007735706219934857 0.5990005167322465
v 0.028159016992999053 0.00439965793526037 0.6150935350747488
v 0.028173127558854816 0.0043106009623414265 0.5990005167322465
v 0.02743107353801344 0.007735706219934857 0.5990005167322465
v 0.02740568863385362 0.007823892011324385 0.6151433397646144
v 0.027638558746843067 0.0068019927394591395 0.6151285082209412
v 0.026274249371128766 0.011043839979205106 0.5990005167322465
v 0.026595341991970667 0.010141248231012034 0.6151762987505549
v 0.02740568863385362 0.007823892011324385 0.6151433397646144
v 0.026274249371128766 0.011043839979205106 0.5990005167322465
v 0.02740568863385362 0.007823892011324385 0.6151433397646144
v 0.02743107353801344 0.007735706219934857 0.5990005167322465
v 0.026274249371128766 0.011043839979205106 0.5990005167322465
v 0.026237603480105953 0.011129702143012343 0.6151902147668409
v 0.026595341991970667 0.010141248231012034 0.6151762987505549
v 0.02472014926069188 0.01418498106620647 0.5990005167322465
v 0.025150237324332858 0.0133275047910425 0.6152204271706196
v 0.026237603480105953 0.011129702143012343 0.6151902147668409
v 0.02472014926069188 0.01418498106620647 0.5990005167322465
v 0.026237603480105953 0.011129702143012343 0.6151902147668409
v 0.026274249371128766 0.011043839979205106 0.5990005167322465
v 0.02472014926069188 0.01418498106620647 0.5990005167322465
v 0.024672444561770757 0.014267055235449022 0.6152333666243592
v 0.025150237324332858 0.0133275047910425 0.6152204271706196
v 0.02279227365032388 0.017111632206191496 0.5990005167322465
v 0.023324992334073924 0.01631259995693579 0.6152604662350214
v 0.024672444561770757 0.014267055235449022 0.6152333666243592
v 0.02279227365032388 0.017111632206191496 0.5990005167322465
v 0.024672444561770757 0.014267055235449022 0.6152333666243592
v 0.02472014926069188 0.01418498106620647 0.5990005167322465
v 0.02279227365032388 0.017111632206191496 0.5990005167322465
v 0.022733908779387635 0.017188465934816488 0.6152720629152597
v 0.023324992334073924 0.01631259995693579 0.6152604662350214
v 0.020519770643215862 0.01977953814040534 0.5990005167322465
v 0.021147080472205815 0.019051407765244832 0.6152957445570095
v 0.022733908779387635 0.017188465934816488 0.6152720629152597
v 0.020519770643215862 0.01977953814040534 0.5990005167322465
v 0.022733908779387635 0.017188465934816488 0.6152720629152597
v 0.02279227365032388 0.017111632206191496 0.5990005167322465
v 0.020519770643215862 0.01977953814040534 0.5990005167322465
v 0.020451342600414923 0.01984971903668309 0.6153058153582691
v 0.021147080472205815 0.019051407765244832 0.6152957445570095
v 0.017937004941317447 0.02214835844334795 0.5990005167322465
v 0.018649311951468572 0.021502486296581802 0.6153257128201517
v 0.020451342600414923 0.01984971903668309 0.6153058153582691
v 0.017937004941317447 0.02214835844334795 0.5990005167322465
v 0.020451342600414923 0.01984971903668309 0.6153058153582691
v 0.020519770643215862 0.01977953814040534 0.5990005167322465
v 0.017937004941317447 0.02214835844334795 0.5990005167322465
v 0.017859299554325858 0.0222105456411259 0.6153341356721143
v 0.018649311951468572 0.021502486296581802 0.6153257128201517
v 0.015083030463414748 0.02418227501334247 0.5990005167322465
v 0.01586933592831352 0.02362872045213793 0.6153498217080156
v 0.017859299554325858 0.0222105456411259 0.6153341356721143
v 0.015083030463414748 0.02418227501334247 0.5990005167322465
v 0.017859299554325858 0.0222105456411259 0.6153341356721143
v 0.017937004941317447 0.02214835844334795 0.5990005167322465
v 0.015083030463414748 0.02418227501334247 0.5990005167322465
v 0.014997021433755808 0.024235221106555516 0.6153564745403628
v 0.01586933592831352 0.02362872045213793 0.6153498217080156
v 0.012001000974374842 0.02585053375957269 0.5990005167322465
v 0.0128490969085171 0.025397866501744026 0.6153678881151237
v 0.014997021433755808 0.024235221106555516 0.6153564745403628
v 0.012001000974374842 0.02585053375957269 0.5990005167322465
v 0.014997021433755808 0.024235221106555516 0.6153564745403628
v 0.015083030463414748 0.02418227501334247 0.5990005167322465
v 0.012001000974374842 0.02585053375957269 0.6080005171597236
v 0.012459224339034791 0.025605958247467697 0.6153699022753756
v 0.0128490969085171 0.025397866501744026 0.6153678881151237
v 0.012001000974374842 0.02585053375957269 0.6080005171597236
v 0.0128490969085171 0.025397866501744026 0.6153678881151237
v 0.012001000974374842 0.02585053375957269 0.5990005167322465
v 0.012001000974374842 0.02585053375957269 0.6080005171597236
v 0.01195066031951797 0.025873542107223146 0.6153724657520598
v 0.012459224339034791 0.025605958247467697 0.6153699022753756
v 0.008706909593243495 0.027137744285189447 0.6080005171597236
v 0.009196766336481144 0.026949666349620482 0.6153807665337041
v 0.01195066031951797 0.025873542107223146 0.6153724657520598
v 0.008706909593243495 0.027137744285189447 0.6080005171597236
v 0.01195066031951797 0.025873542107223146 0.6153724657520598
v 0.012001000974374842 0.02585053375957269 0.6080005171597236
v 0.008706909593243495 0.027137744285189447 0.6080005171597236
v 0.008658384734371305 0.02715302024111521 0.6153822924126828
v 0.009196766336481144 0.026949666349620482 0.6153807665337041
v -0.015081030608278256 0.02418227501334247 0.5990005167322465
v -0.015118823769558198 0.024158566668710524 0.6152671190673686
v -0.014191263872901372 0.02466679690220075 0.6152775560795831
v 0.00527875591555288 0.02800705852020524 0.6080005171597236
v 0.005792770660884017 0.027879685772456142 0.6153849779596854
v 0.008658384734371305 0.02715302024111521 0.6153822924126828
v 0.00527875591555288 0.02800705852020524 0.6080005171597236
v 0.008658384734371305 0.02715302024111521 0.6153822924126828
v 0.008706909593243495 0.027137744285189447 0.6080005171597236
usemtl DefaultMaterial
f 1 2 3
f 4 5 6
f 7 8 9
f 10 11 12
f 13 14 15
f 16 17 18
f 19 20 21
f 22 23 24
f 25 26 27
f 28 29 30
f 31 32 33
f 34 35 36
f 37 38 39
f 40 41 42
f 43 44 45
f 46 47 48
f 49 50 51
f 52 53 54
f 55 56 57
f 58 59 60
f 61 62 63
f 64 65 66
f 67 68 69
f 70 71 72
f 73 74 75
f 76 77 78
f 79 80 81
f 82 83 84
f 85 86 87
f 88 89 90
f 91 92 93
f 94 95 96
f 97 98 99
f 100 101 102
f 103 104 105
f 106 107 108
f 109 110 111
f 112 113 114
f 115 116 117
f 118 119 120
f 121 122 123
f 124 125 126
f 127 128 129
f 130 131 132
f 133 134 135
f 136 137 138
f 139 140 141
f 142 143 144
f 145 146 147
f 148 149 150
f 151 152 153
f 154 155 156
f 157 158 159
f 160 161 162
f 163 164 165
f 166 167 168
f 169 170 171
f 172 173 174
f 175 176 177
f 178 179 180
f 181 182 183
f 184 185 186
f 187 188 189
f 190 191 192
f 193 194 195
f 196 197 198
f 199 200 201
f 202 203 204
f 205 206 207
f 208 209 210
f 211 212 213
f 214 215 216
f 217 218 219
f 220 221 222
f 223 224 225
f 226 227 228
f 229 230 231
f 232 233 234
f 235 236 237
f 238 239 240
f 241 242 243
f 244 245 246
f 247 248 249
f 250 251 252
f 253 254 255
f 256 257 258
f 259 260 261
f 262 263 264
f 265 266 267
f 268 269 270
f 271 272 273
f 274 275 276
f 277 278 279
f 280 281 282
f 283 284 285
f 286 287 288
f 289 290 291
f 292 293 294
f 295 296 297
f 298 299 300
f 301 302 303
f 304 305 306
f 307 308 309
f 310 311 312
f 313 314 315
f 316 317 318
f 319 320 321
f 322 323 324
f 325 326 327
f 328 329 330
f 331 332 333
f 334 335 336
f 337 338 339
f 340 341 342
f 343 344 345
f 346 347 348
f 349 350 351
f 352 353 354
f 355 356 357
f 358 359 360
f 361 362 363
f 364 365 366
f 367 368 369
f 370 371 372
f 373 374 375
f 376 377 378
f 379 380 381
f 382 383 384
f 385 386 387
f 388 389 390
f 391 392 393
f 394 395 396
f 397 398 399
f 400 401 402
f 403 404 405
f 406 407 408
f 409 410 411
f 412 413 414
f 415 416 417
f 418 419 420
f 421 422 423
f 424 425 426
f 427 428 429
f 430 431 432
f 433 434 435
f 436 437 438
f 439 440 441
f 442 443 444
f 445 446 447
f 448 449 450
f 451 452 453
f 454 455 456
f 457 458 459
f 460 461 462
f 463 464 465
f 466 467 468
f 469 470 471
f 472 473 474
f 475 476 477
f 478 479 480
f 481 482 483
f 484 485 486
f 487 488 489
f 490 491 492
f 493 494 495
f 496 497 498
f 499 500 501
f 502 503 504
f 505 506 507
f 508 509 510
f 511 512 513
f 514 515 516
f 517 518 519
f 520 521 522
f 523 524 525
f 526 527 528
f 529 530 531
f 532 533 534
f 535 536 537
f 538 539 540
f 541 542 543
f 544 545 546
f 547 548 549
f 550 551 552
f 553 554 555
f 556 557 558
f 559 560 561
f 562 563 564
f 565 566 567
f 568 569 570
f 571 572 573
f 574 575 576
f 577 578 579
f 580 581 582
f 583 584 585
f 586 587 588
f 589 590 591
f 592 593 594
f 595 596 597
f 598 599 600
f 601 602 603
f 604 605 606
f 607 608 609
f 610 611 612
f 613 614 615
f 616 617 618
f 619 620 621
f 622 623 624
f 625 626 627
f 628 629 630
f 631 632 633
f 634 635 636
f 637 638 639
f 640 641 642
f 643 644 645
f 646 647 648
f 649 650 651
f 652 653 654
f 655 656 657
f 658 659 660
f 661 662 663
f 664 665 666
f 667 668 669
f 670 671 672
f 673 674 675
f 676 677 678
f 679 680 681
f 682 683 684
f 685 686 687
f 688 689 690
f 691 692 693
f 694 695 696
f 697 698 699
f 700 701 702
f 703 704 705
f 706 707 708
f 709 710 711
f 712 713 714
f 715 716 717
f 718 719 720
f 721 722 723
f 724 725 726
f 727 728 729
f 730 731 732
f 733 734 735
f 736 737 738
f 739 740 741
f 742 743 744
f 745 746 747
f 748 749 750
f 751 752 753
f 754 755 756
f 757 758 759
f 760 761 762
f 763 764 765
f 766 767 768
f 769 770 771
f 772 773 774
f 775 776 777
f 778 779 780
f 781 782 783
f 784 785 786
f 787 788 789
f 790 791 792
f 793 794 795
f 796 797 798
f 799 800 801
f 802 803 804
f 805 806 807
f 808 809 810
f 811 812 813
f 814 815 816
f 817 818 819
f 820 821 822
f 823 824 825
f 826 827 828
f 829 830 831
f 832 833 834
f 835 836 837
f 838 839 840
f 841 842 843
f 844 845 846
f 847 848 849
f 850 851 852
f 853 854 855
f 856 857 858
f 859 860 861
f 862 863 864
f 865 866 867
f 868 869 870
f 871 872 873
f 874 875 876
f 877 878 879
f 880 881 882
f 883 884 885
f 886 887 888
f 889 890 891
f 892 893 894
f 895 896 897
f 898 899 900
f 901 902 903
f 904 905 906
f 907 908 909
f 910 911 912
f 913 914 915
f 916 917 918
f 919 920 921
f 922 923 924
f 925 926 927
f 928 929 930
f 931 932 933
f 934 935 936
f 937 938 939
f 940 941 942
f 943 944 945
f 946 947 948
f 949 950 951
f 952 953 954
f 955 956 957
f 958 959 960
f 961 962 963
f 964 965 966
f 967 968 969
f 970 971 972
f 973 974 975
f 976 977 978
f 979 980 981
f 982 983 984
f 985 986 987
f 988 989 990
f 991 992 993
f 994 995 996
f 997 998 999
f 1000 1001 1002
f 1003 1004 1005
f 1006 1007 1008
f 1009 1010 1011
f 1012 1013 1014
f 1015 1016 1017
f 1018 1019 1020
f 1021 1022 1023
f 1024 1025 1026
f 1027 1028 1029
f 1030 1031 1032
f 1033 1034 1035
f 1036 1037 1038
f 1039 1040 1041
f 1042 1043 1044
f 1045 1046 1047
f 1048 1049 1050
f 1051 1052 1053
f 1054 1055 1056
f 1057 1058 1059
f 1060 1061 1062
f 1063 1064 1065
f 1066 1067 1068
f 1069 1070 1071
f 1072 1073 1074
f 1075 1076 1077
f 1078 1079 1080
f 1081 1082 1083
f 1084 1085 1086
f 1087 1088 1089
f 1090 1091 1092
f 1093 1094 1095
f 1096 1097 1098
f 1099 1100 1101
f 1102 1103 1104
f 1105 1106 1107
f 1108 1109 1110
f 1111 1112 1113
f 1114 1115 1116
f 1117 1118 1119
f 1120 1121 1122
f 1123 1124 1125
f 1126 1127 1128
f 1129 1130 1131
f 1132 1133 1134
f 1135 1136 1137
f 1138 1139 1140
f 1141 1142 1143
f 1144 1145 1146
f 1147 1148 1149
f 1150 1151 1152
f 1153 1154 1155
f 1156 1157 1158
f 1159 1160 1161
f 1162 1163 1164
f 1165 1166 1167
f 1168 1169 1170
f 1171 1172 1173
f 1174 1175 1176
f 1177 1178 1179
f 1180 1181 1182
f 1183 1184 1185
f 1186 1187 1188
f 1189 1190 1191
f 1192 1193 1194
f 1195 1196 1197
f 1198 1199 1200
f 1201 1202 1203
f 1204 1205 1206
f 1207 1208 1209
f 1210 1211 1212
f 1213 1214 1215
f 1216 1217 1218
f 1219 1220 1221
f 1222 1223 1224
f 1225 1226 1227
f 1228 1229 1230
f 1231 1232 1233
f 1234 1235 1236
f 1237 1238 1239
f 1240 1241 1242
f 1243 1244 1245
f 1246 1247 1248
f 1249 1250 1251
f 1252 1253 1254
f 1255 1256 1257
f 1258 1259 1260
f 1261 1262 1263
f 1264 1265 1266
f 1267 1268 1269
f 1270 1271 1272
f 1273 1274 1275
f 1276 1277 1278
f 1279 1280 1281
f 1282 1283 1284
f 1285 1286 1287
f 1288 1289 1290
f 1291 1292 1293
f 1294 1295 1296
f 1297 1298 1299
f 1300 1301 1302
f 1303 1304 1305
f 1306 1307 1308
f 1309 1310 1311
f 1312 1313 1314
f 1315 1316 1317
f 1318 1319 1320
f 1321 1322 1323
f 1324 1325 1326
f 1327 1328 1329
f 1330 1331 1332
f 1333 1334 1335
f 1336 1337 1338
f 1339 1340 1341
f 1342 1343 1344
f 1345 1346 1347
f 1348 1349 1350
f 1351 1352 1353
f 1354 1355 1356
f 1357 1358 1359
f 1360 1361 1362
f 1363 1364 1365
f 1366 1367 1368
f 1369 1370 1371
f 1372 1373 1374
f 1375 1376 1377
f 1378 1379 1380
f 1381 1382 1383
f 1384 1385 1386
f 1387 1388 1389
f 1390 1391 1392
f 1393 1394 1395
f 1396 1397 1398
f 1399 1400 1401
f 1402 1403 1404
f 1405 1406 1407
f 1408 1409 1410
f 1411 1412 1413
f 1414 1415 1416
f 1417 1418 1419
f 1420 1421 1422
f 1423 1424 1425
f 1426 1427 1428
f 1429 1430 1431
f 1432 1433 1434
f 1435 1436 1437
f 1438 1439 1440
