mtllib openarm_left_hand_collision_node_STL_BINARY__mesh.mtl
v 0.0025107504129859293 0.028389279760283603 0.6530000310158357
v 0.0050010001650555025 0.028057977101725307 0.6530000310158357
v 0.0074242604920987665 -0.027516272898139293 0.6530000310158357
v 0.0074242604920987665 -0.027516272898139293 0.6530000310158357
v 0.0050010001650555025 0.028057977101725307 0.6530000310158357
v 0.0074242604920987665 0.027516272898139293 0.6530000310158357
v 0.0074242604920987665 -0.027516272898139293 0.6530000310158357
v 0.0074242604920987665 0.027516272898139293 0.6530000310158357
v 0.009791172492643607 -0.02676569875055046 0.6530000310158357
v 0.009791172492643607 -0.02676569875055046 0.6530000310158357
v 0.0074242604920987665 0.027516272898139293 0.6530000310158357
v 0.009791172492643607 0.02676569875055046 0.6530000310158357
v 0.009791172492643607 -0.02676569875055046 0.6530000310158357
v 0.009791172492643607 0.02676569875055046 0.6530000310158357
v 0.012083768464878353 -0.025811950002246897 0.6530000310158357
v 0.012083768464878353 -0.025811950002246897 0.6530000310158357
v 0.009791172492643607 0.02676569875055046 0.6530000310158357
v 0.012083768464878353 0.025811950002246897 0.6530000310158357
v 0.012083768464878353 -0.025811950002246897 0.6530000310158357
v 0.012083768464878353 0.025811950002246897 0.6530000310158357
v 0.014284646712725002 -0.024662268856331382 0.6530000310158357
v 0.014284646712725002 -0.024662268856331382 0.6530000310158357
v 0.012083768464878353 0.025811950002246897 0.6530000310158357
v 0.014284646712725002 0.024662268856331382 0.6530000310158357
v 0.014284646712725002 -0.024662268856331382 0.6530000310158357
v 0.014284646712725002 0.024662268856331382 0.6530000310158357
v 0.016377100768715236 -0.0233253814332135 0.6530000310158357
v 0.016377100768715236 -0.0233253814332135 0.6530000310158357
v 0.014284646712725002 0.024662268856331382 0.6530000310158357
v 0.016377100768715236 0.0233253814332135 0.6530000310158357
v 0.016377100768715236 -0.0233253814332135 0.6530000310158357
v 0.016377100768715236 0.0233253814332135 0.6530000310158357
v 0.018345248140029247 -0.021811434828101772 0.6530000310158357
v 0.018345248140029247 -0.021811434828101772 0.6530000310158357
v 0.016377100768715236 0.0233253814332135 0.6530000310158357
v 0.018345248140029247 0.021811434828101772 0.6530000310158357
v 0.018345248140029247 -0.021811434828101772 0.6530000310158357
v 0.018345248140029247 0.021811434828101772 0.6530000310158357
v 0.020174145703093505 -0.020131920817054727 0.6530000310158357
v 0.020174145703093505 -0.020131920817054727 0.6530000310158357
v 0.018345248140029247 0.021811434828101772 0.6530000310158357
v 0.020174145703093505 0.020131920817054727 0.6530000310158357
v 0.020174145703093505 -0.020131920817054727 0.6530000310158357
v 0.020174145703093505 0.020131920817054727 0.6530000310158357
v 0.02184991368124778 -0.01829959193363706 0.6530000310158357
v 0.02184991368124778 -0.01829959193363706 0.6530000310158357
v 0.020174145703093505 0.020131920817054727 0.6530000310158357
v 0.02184991368124778 0.01829959193363706 0.6530000310158357
v 0.02184991368124778 -0.01829959193363706 0.6530000310158357
v 0.02184991368124778 0.01829959193363706 0.6530000310158357
v 0.02335983196585567 -0.016328352750042407 0.6530000310158357
v 0.02335983196585567 -0.016328352750042407 0.6530000310158357
v 0.02184991368124778 0.01829959193363706 0.6530000310158357
v 0.02335983196585567 0.016328352750042407 0.6530000310158357
v 0.02335983196585567 -0.016328352750042407 0.6530000310158357
v 0.02335983196585567 0.016328352750042407 0.6530000310158357
v 0.024692435483740782 -0.014233167370680255 0.6530000310158357
v 0.024692435483740782 -0.014233167370680255 0.6530000310158357
v 0.02335983196585567 0.016328352750042407 0.6530000310158357
v 0.024692435483740782 0.014233167370680255 0.6530000310158357
v 0.024692435483740782 -0.014233167370680255 0.6530000310158357
v 0.024692435483740782 0.014233167370680255 0.6530000310158357
v 0.025837613379320334 -0.012029942130229454 0.6530000310158357
v 0.025837613379320334 -0.012029942130229454 0.6530000310158357
v 0.024692435483740782 0.014233167370680255 0.6530000310158357
v 0.025837613379320334 0.012029942130229454 0.6530000310158357
v 0.025837613379320334 -0.012029942130229454 0.6530000310158357
v 0.025837613379320334 0.012029942130229454 0.6530000310158357
v 0.026786670049764316 -0.009735399708622472 0.6530000310158357
v 0.026786670049764316 -0.009735399708622472 0.6530000310158357
v 0.025837613379320334 0.012029942130229454 0.6530000310158357
v 0.026786670049764316 0.009735399708622472 0.6530000310158357
v 0.026786670049764316 -0.009735399708622472 0.6530000310158357
v 0.026786670049764316 0.009735399708622472 0.6530000310158357
v 0.02753240143894442 -0.007366957060727097 0.6530000310158357
v 0.02753240143894442 -0.007366957060727097 0.6530000310158357
v 0.026786670049764316 0.009735399708622472 0.6530000310158357
v 0.02753240143894442 0.007366957060727097 0.6530000310158357
v 0.02753240143894442 -0.007366957060727097 0.6530000310158357
v 0.02753240143894442 0.007366957060727097 0.6530000310158357
v 0.028069146535849576 -0.004942593809284523 0.6530000310158357
v 0.028069146535849576 -0.004942593809284523 0.6530000310158357
v 0.02753240143894442 0.007366957060727097 0.6530000310158357
v 0.028069146535849576 0.004942593809284523 0.6530000310158357
v 0.028069146535849576 -0.004942593809284523 0.6530000310158357
v 0.028069146535849576 0.004942593809284523 0.6530000310158357
v 0.02839283315095531 -0.0024807122931967684 0.6530000310158357
v 0.02839283315095531 -0.0024807122931967684 0.6530000310158357
v 0.028069146535849576 0.004942593809284523 0.6530000310158357
v 0.02839283315095531 0.0024807122931967684 0.6530000310158357
v 0.02839283315095531 -0.0024807122931967684 0.6530000310158357
v 0.02839283315095531 0.0024807122931967684 0.6530000310158357
v 0.028501000804408427 -3.3089286217283235e-12 0.6530000310158357
v 0.0074242604920987665 -0.027516272898139293 0.6530000310158357
v 0.0050010001650555025 -0.028057977101725307 0.6530000310158357
v 0.0025107504129859293 0.028389279760283603 0.6530000310158357
v 0.0025107504129859293 0.028389279760283603 0.6530000310158357
v 0.0050010001650555025 -0.028057977101725307 0.6530000310158357
v 0.0025107504129859293 -0.028389279760283603 0.6530000310158357
v 0.0025107504129859293 0.028389279760283603 0.6530000310158357
v 0.0025107504129859293 -0.028389279760283603 0.6530000310158357
v 9.999993965029407e-07 0.028500001353677362 0.6530000310158357
v 9.999993965029407e-07 0.028500001353677362 0.6530000310158357
v 0.0025107504129859293 -0.028389279760283603 0.6530000310158357
v 9.999993965029407e-07 -0.028500001353677362 0.6530000310158357
v 9.999993965029407e-07 0.028500001353677362 0.6530000310158357
v 9.999993965029407e-07 -0.028500001353677362 0.6530000310158357
v -0.002508750319430847 0.028389279760283603 0.6530000310158357
v -0.002508750319430847 0.028389279760283603 0.6530000310158357
v 9.999993965029407e-07 -0.028500001353677362 0.6530000310158357
v -0.002508750319430847 -0.028389279760283603 0.6530000310158357
v -0.002508750319430847 0.028389279760283603 0.6530000310158357
v -0.002508750319430847 -0.028389279760283603 0.6530000310158357
v -0.0049990003099190106 0.028057977101725307 0.6530000310158357
v -0.0049990003099190106 0.028057977101725307 0.6530000310158357
v -0.002508750319430847 -0.028389279760283603 0.6530000310158357
v -0.0074222606369622746 0.027516272898139293 0.6530000310158357
v -0.0074222606369622746 0.027516272898139293 0.6530000310158357
v -0.002508750319430847 -0.028389279760283603 0.6530000310158357
v -0.0049990003099190106 -0.028057977101725307 0.6530000310158357
v -0.0074222606369622746 0.027516272898139293 0.6530000310158357
v -0.0049990003099190106 -0.028057977101725307 0.6530000310158357
v -0.0074222606369622746 -0.027516272898139293 0.6530000310158357
v -0.0074222606369622746 0.027516272898139293 0.6530000310158357
v -0.0074222606369622746 -0.027516272898139293 0.6530000310158357
v -0.009789172637507115 0.02676569875055046 0.6530000310158357
v -0.009789172637507115 0.02676569875055046 0.6530000310158357
v -0.0074222606369622746 -0.027516272898139293 0.6530000310158357
v -0.009789172637507115 -0.02676569875055046 0.6530000310158357
v -0.009789172637507115 0.02676569875055046 0.6530000310158357
v -0.009789172637507115 -0.02676569875055046 0.6530000310158357
v -0.01208176860974186 0.025811950002246897 0.6530000310158357
v -0.01208176860974186 0.025811950002246897 0.6530000310158357
v -0.009789172637507115 -0.02676569875055046 0.6530000310158357
v -0.01208176860974186 -0.025811950002246897 0.6530000310158357
v -0.01208176860974186 0.025811950002246897 0.6530000310158357
v -0.01208176860974186 -0.025811950002246897 0.6530000310158357
v -0.01428264685758851 0.024662268856331382 0.6530000310158357
v -0.01428264685758851 0.024662268856331382 0.6530000310158357
v -0.01208176860974186 -0.025811950002246897 0.6530000310158357
v -0.01428264685758851 -0.024662268856331382 0.6530000310158357
v -0.01428264685758851 0.024662268856331382 0.6530000310158357
v -0.01428264685758851 -0.024662268856331382 0.6530000310158357
v -0.016375101867253106 0.0233253814332135 0.6530000310158357
v -0.016375101867253106 0.0233253814332135 0.6530000310158357
v -0.01428264685758851 -0.024662268856331382 0.6530000310158357
v -0.016375101867253106 -0.0233253814332135 0.6530000310158357
v -0.016375101867253106 0.0233253814332135 0.6530000310158357
v -0.016375101867253106 -0.0233253814332135 0.6530000310158357
v -0.018343247331218393 0.021811434828101772 0.6530000310158357
v -0.018343247331218393 0.021811434828101772 0.6530000310158357
v -0.016375101867253106 -0.0233253814332135 0.6530000310158357
v -0.018343247331218393 -0.021811434828101772 0.6530000310158357
v -0.018343247331218393 0.021811434828101772 0.6530000310158357
v -0.018343247331218393 -0.021811434828101772 0.6530000310158357
v -0.020172146801631374 0.020131920817054727 0.6530000310158357
v -0.020172146801631374 0.020131920817054727 0.6530000310158357
v -0.018343247331218393 -0.021811434828101772 0.6530000310158357
v -0.020172146801631374 -0.020131920817054727 0.6530000310158357
v -0.020172146801631374 0.020131920817054727 0.6530000310158357
v -0.020172146801631374 -0.020131920817054727 0.6530000310158357
v -0.02184791477978565 0.01829959193363706 0.6530000310158357
v -0.02184791477978565 0.01829959193363706 0.6530000310158357
v -0.020172146801631374 -0.020131920817054727 0.6530000310158357
v -0.02184791477978565 -0.01829959193363706 0.6530000310158357
v -0.02184791477978565 0.01829959193363706 0.6530000310158357
v -0.02184791477978565 -0.01829959193363706 0.6530000310158357
v -0.023357831157044817 0.016328352750042407 0.6530000310158357
v -0.023357831157044817 0.016328352750042407 0.6530000310158357
v -0.02184791477978565 -0.01829959193363706 0.6530000310158357
v -0.023357831157044817 -0.016328352750042407 0.6530000310158357
v -0.023357831157044817 0.016328352750042407 0.6530000310158357
v -0.023357831157044817 -0.016328352750042407 0.6530000310158357
v -0.024690436582278652 0.014233167370680255 0.6530000310158357
v -0.024690436582278652 0.014233167370680255 0.6530000310158357
v -0.023357831157044817 -0.016328352750042407 0.6530000310158357
v -0.024690436582278652 -0.014233167370680255 0.6530000310158357
v -0.024690436582278652 0.014233167370680255 0.6530000310158357
v -0.024690436582278652 -0.014233167370680255 0.6530000310158357
v -0.02583561257050948 0.012029942130229454 0.6530000310158357
v -0.02583561257050948 0.012029942130229454 0.6530000310158357
v -0.024690436582278652 -0.014233167370680255 0.6530000310158357
v -0.02583561257050948 -0.012029942130229454 0.6530000310158357
v -0.02583561257050948 0.012029942130229454 0.6530000310158357
v -0.02583561257050948 -0.012029942130229454 0.6530000310158357
v -0.026784669240953463 0.009735399708622472 0.6530000310158357
v -0.026784669240953463 0.009735399708622472 0.6530000310158357
v -0.02583561257050948 -0.012029942130229454 0.6530000310158357
v -0.026784669240953463 -0.009735399708622472 0.6530000310158357
v -0.026784669240953463 0.009735399708622472 0.6530000310158357
v -0.026784669240953463 -0.009735399708622472 0.6530000310158357
v -0.027530400630133567 0.007366957060727097 0.6530000310158357
v -0.027530400630133567 0.007366957060727097 0.6530000310158357
v -0.026784669240953463 -0.009735399708622472 0.6530000310158357
v -0.027530400630133567 -0.007366957060727097 0.6530000310158357
v -0.027530400630133567 0.007366957060727097 0.6530000310158357
v -0.027530400630133567 -0.007366957060727097 0.6530000310158357
v -0.028067145727038723 0.004942593809284523 0.6530000310158357
v -0.028067145727038723 0.004942593809284523 0.6530000310158357
v -0.027530400630133567 -0.007366957060727097 0.6530000310158357
v -0.028067145727038723 -0.004942593809284523 0.6530000310158357
v -0.028067145727038723 0.004942593809284523 0.6530000310158357
v -0.028067145727038723 -0.004942593809284523 0.6530000310158357
v -0.028390832342144456 0.0024807122931967684 0.6530000310158357
v -0.028390832342144456 0.0024807122931967684 0.6530000310158357
v -0.028067145727038723 -0.004942593809284523 0.6530000310158357
v -0.028390832342144456 -0.0024807122931967684 0.6530000310158357
v -0.028390832342144456 0.0024807122931967684 0.6530000310158357
v -0.028390832342144456 -0.0024807122931967684 0.6530000310158357
v -0.028499001902946297 -3.3089441648514065e-12 0.6530000310158357
v -0.0049990003099190106 -0.08405797976158258 0.6690005200570681
v 0.0050010001650555025 -0.08405797976158258 0.6690005200570681
v -0.0049990003099190106 0.08405797976158258 0.6690005200570681
v -0.0049990003099190106 0.08405797976158258 0.6690005200570681
v 0.0050010001650555025 -0.08405797976158258 0.6690005200570681
v 0.0050010001650555025 0.08405797976158258 0.6690005200570681
v -0.0049990003099190106 -0.08405797976158258 0.6690005200570681
v -0.0049990003099190106 -0.08405797976158258 0.6645005198433296
v 0.0050010001650555025 -0.08405797976158258 0.6690005200570681
v 0.0050010001650555025 -0.08405797976158258 0.6690005200570681
v -0.0049990003099190106 -0.08405797976158258 0.6645005198433296
v 0.0050010001650555025 -0.08405797976158258 0.6645005198433296
v -0.0049990003099190106 0.08405797976158258 0.6690005200570681
v -0.0049990003099190106 0.03682592566881526 0.6645005198433296
v -0.0049990003099190106 -0.08405797976158258 0.6690005200570681
v -0.0049990003099190106 -0.08405797976158258 0.6690005200570681
v -0.0049990003099190106 0.03682592566881526 0.6645005198433296
v -0.0049990003099190106 -0.03682592566881526 0.6645005198433296
v -0.0049990003099190106 -0.08405797976158258 0.6690005200570681
v -0.0049990003099190106 -0.03682592566881526 0.6645005198433296
v -0.0049990003099190106 -0.04086738017595959 0.6645005198433296
v -0.0049990003099190106 -0.04086738017595959 0.6645005198433296
v -0.0049990003099190106 -0.03682592566881526 0.6645005198433296
v -0.0049990003099190106 -0.040525358217575747 0.6644402171060904
v -0.0049990003099190106 -0.040525358217575747 0.6644402171060904
v -0.0049990003099190106 -0.03682592566881526 0.6645005198433296
v -0.0049990003099190106 -0.04022459221207919 0.6642665720783114
v -0.0049990003099190106 -0.04022459221207919 0.6642665720783114
v -0.0049990003099190106 -0.03682592566881526 0.6645005198433296
v -0.0049990003099190106 -0.040001352302794224 0.6640005198195809
v -0.0049990003099190106 -0.040001352302794224 0.6640005198195809
v -0.0049990003099190106 -0.03682592566881526 0.6645005198433296
v -0.0049990003099190106 -0.03220712433249062 0.65650051946335
v -0.0049990003099190106 -0.040001352302794224 0.6640005198195809
v -0.0049990003099190106 -0.03220712433249062 0.65650051946335
v -0.0049990003099190106 -0.03480520032259182 0.6550005193921038
v -0.0049990003099190106 0.08405797976158258 0.6645005198433296
v -0.0049990003099190106 0.04086738017595959 0.6645005198433296
v -0.0049990003099190106 0.08405797976158258 0.6690005200570681
v -0.0049990003099190106 0.08405797976158258 0.6690005200570681
v -0.0049990003099190106 0.04086738017595959 0.6645005198433296
v -0.0049990003099190106 0.03682592566881526 0.6645005198433296
v -0.0049990003099190106 0.04086738017595959 0.6645005198433296
v -0.0049990003099190106 0.040525358217575747 0.6644402171060904
v -0.0049990003099190106 0.03682592566881526 0.6645005198433296
v -0.0049990003099190106 0.03682592566881526 0.6645005198433296
v -0.0049990003099190106 0.040525358217575747 0.6644402171060904
v -0.0049990003099190106 0.04022459221207919 0.6642665720783114
v -0.0049990003099190106 0.03682592566881526 0.6645005198433296
v -0.0049990003099190106 0.04022459221207919 0.6642665720783114
v -0.0049990003099190106 0.040001352302794224 0.6640005198195809
v -0.0049990003099190106 0.03480520032259182 0.6550005193921038
v -0.0049990003099190106 0.03220712433249062 0.65650051946335
v -0.0049990003099190106 0.040001352302794224 0.6640005198195809
v -0.0049990003099190106 0.040001352302794224 0.6640005198195809
v -0.0049990003099190106 0.03220712433249062 0.65650051946335
v -0.0049990003099190106 0.03682592566881526 0.6645005198433296
v -0.0049990003099190106 -0.04086738017595959 0.6645005198433296
v -0.0049990003099190106 -0.08405797976158258 0.6645005198433296
v -0.0049990003099190106 -0.08405797976158258 0.6690005200570681
v -0.0049990003099190106 -0.028057977101725307 0.6530005192971089
v -0.0016733723481576757 -0.02845077459047496 0.6530005192971089
v -0.0049990003099190106 -0.03134109836667398 0.6530005192971089
v -0.0049990003099190106 -0.03134109836667398 0.6530005192971089
v -0.0016733723481576757 -0.02845077459047496 0.6530005192971089
v 0.0050010001650555025 -0.03134109836667398 0.6530005192971089
v 0.0050010001650555025 -0.03134109836667398 0.6530005192971089
v -0.0016733723481576757 -0.02845077459047496 0.6530005192971089
v 0.0016753723225034628 -0.02845077459047496 0.6530005192971089
v 0.0050010001650555025 -0.03134109836667398 0.6530005192971089
v 0.0016753723225034628 -0.02845077459047496 0.6530005192971089
v 0.0050010001650555025 -0.028057977101725307 0.6530005192971089
v 0.0050010001650555025 0.028057977101725307 0.6530005192971089
v 0.0016753723225034628 0.02845077459047496 0.6530005192971089
v 0.0050010001650555025 0.03134109836667398 0.6530005192971089
v 0.0050010001650555025 0.03134109836667398 0.6530005192971089
v 0.0016753723225034628 0.02845077459047496 0.6530005192971089
v -0.0016733723481576757 0.02845077459047496 0.6530005192971089
v 0.0050010001650555025 0.03134109836667398 0.6530005192971089
v -0.0016733723481576757 0.02845077459047496 0.6530005192971089
v -0.0049990003099190106 0.03134109836667398 0.6530005192971089
v -0.0049990003099190106 0.03134109836667398 0.6530005192971089
v -0.0016733723481576757 0.02845077459047496 0.6530005192971089
v -0.0049990003099190106 0.028057977101725307 0.6530005192971089
v 0.0050010001650555025 0.03480520032259182 0.6550005193921038
v 0.0050010001650555025 0.03220712433249062 0.65650051946335
v 0.0050010001650555025 0.03391224831484685 0.6539363713923407
v 0.0050010001650555025 0.03391224831484685 0.6539363713923407
v 0.0050010001650555025 0.03220712433249062 0.65650051946335
v 0.0050010001650555025 0.03198388633055438 0.6562344672046194
v 0.0050010001650555025 0.03391224831484685 0.6539363713923407
v 0.0050010001650555025 0.03198388633055438 0.6562344672046194
v 0.0050010001650555025 0.03270918047816318 0.6532417302460658
v 0.0050010001650555025 0.03270918047816318 0.6532417302460658
v 0.0050010001650555025 0.03198388633055438 0.6562344672046194
v 0.0050010001650555025 0.0316831184177091 0.6560608221768405
v 0.0050010001650555025 0.03270918047816318 0.6532417302460658
v 0.0050010001650555025 0.0316831184177091 0.6560608221768405
v 0.0050010001650555025 0.03134109836667398 0.6530005192971089
v 0.0050010001650555025 0.03134109836667398 0.6530005192971089
v 0.0050010001650555025 0.0316831184177091 0.6560608221768405
v 0.0050010001650555025 0.03134109836667398 0.6560005194396012
v 0.0050010001650555025 0.03134109836667398 0.6560005194396012
v 0.0050010001650555025 0.028057977101725307 0.6560005194396012
v 0.0050010001650555025 0.03134109836667398 0.6530005192971089
v 0.0050010001650555025 0.03134109836667398 0.6530005192971089
v 0.0050010001650555025 0.028057977101725307 0.6560005194396012
v 0.0050010001650555025 0.028057977101725307 0.6530005192971089
v 0.0050010001650555025 -0.028057977101725307 0.6560005194396012
v 0.0050010001650555025 -0.03134109836667398 0.6560005194396012
v 0.0050010001650555025 -0.028057977101725307 0.6530005192971089
v 0.0050010001650555025 -0.028057977101725307 0.6530005192971089
v 0.0050010001650555025 -0.03134109836667398 0.6560005194396012
v 0.0050010001650555025 -0.03134109836667398 0.6530005192971089
v 0.0050010001650555025 -0.03134109836667398 0.6560005194396012
v 0.0050010001650555025 -0.0316831184177091 0.6560608221768405
v 0.0050010001650555025 -0.03134109836667398 0.6530005192971089
v 0.0050010001650555025 -0.03134109836667398 0.6530005192971089
v 0.0050010001650555025 -0.0316831184177091 0.6560608221768405
v 0.0050010001650555025 -0.03270918047816318 0.6532417302460658
v 0.0050010001650555025 -0.03270918047816318 0.6532417302460658
v 0.0050010001650555025 -0.0316831184177091 0.6560608221768405
v 0.0050010001650555025 -0.03198388633055438 0.6562344672046194
v 0.0050010001650555025 -0.03270918047816318 0.6532417302460658
v 0.0050010001650555025 -0.03198388633055438 0.6562344672046194
v 0.0050010001650555025 -0.03391224831484685 0.6539363713923407
v 0.0050010001650555025 -0.03391224831484685 0.6539363713923407
v 0.0050010001650555025 -0.03198388633055438 0.6562344672046194
v 0.0050010001650555025 -0.03220712433249062 0.65650051946335
v 0.0050010001650555025 -0.03391224831484685 0.6539363713923407
v 0.0050010001650555025 -0.03220712433249062 0.65650051946335
v 0.0050010001650555025 -0.03480520032259182 0.6550005193921038
v -0.0049990003099190106 -0.03480520032259182 0.6550005193921038
v -0.0049990003099190106 -0.03220712433249062 0.65650051946335
v -0.0049990003099190106 -0.03391224831484685 0.6539363713923407
v -0.0049990003099190106 -0.03391224831484685 0.6539363713923407
v -0.0049990003099190106 -0.03220712433249062 0.65650051946335
v -0.0049990003099190106 -0.03198388633055438 0.6562344672046194
v -0.0049990003099190106 -0.03391224831484685 0.6539363713923407
v -0.0049990003099190106 -0.03198388633055438 0.6562344672046194
v -0.0049990003099190106 -0.03270918047816318 0.6532417302460658
v -0.0049990003099190106 -0.03270918047816318 0.6532417302460658
v -0.0049990003099190106 -0.03198388633055438 0.6562344672046194
v -0.0049990003099190106 -0.0316831184177091 0.6560608221768405
v -0.0049990003099190106 -0.03270918047816318 0.6532417302460658
v -0.0049990003099190106 -0.0316831184177091 0.6560608221768405
v -0.0049990003099190106 -0.03134109836667398 0.6530005192971089
v -0.0049990003099190106 -0.03134109836667398 0.6530005192971089
v -0.0049990003099190106 -0.0316831184177091 0.6560608221768405
v -0.0049990003099190106 -0.03134109836667398 0.6560005194396012
v -0.0049990003099190106 -0.03134109836667398 0.6560005194396012
v -0.0049990003099190106 -0.028057977101725307 0.6560005194396012
v -0.0049990003099190106 -0.03134109836667398 0.6530005192971089
v -0.0049990003099190106 -0.03134109836667398 0.6530005192971089
v -0.0049990003099190106 -0.028057977101725307 0.6560005194396012
v -0.0049990003099190106 -0.028057977101725307 0.6530005192971089
v -0.0049990003099190106 0.028057977101725307 0.6560005194396012
v -0.0049990003099190106 0.03134109836667398 0.6560005194396012
v -0.0049990003099190106 0.028057977101725307 0.6530005192971089
v -0.0049990003099190106 0.028057977101725307 0.6530005192971089
v -0.0049990003099190106 0.03134109836667398 0.6560005194396012
v -0.0049990003099190106 0.03134109836667398 0.6530005192971089
v -0.0049990003099190106 0.03134109836667398 0.6560005194396012
v -0.0049990003099190106 0.0316831184177091 0.6560608221768405
v -0.0049990003099190106 0.03134109836667398 0.6530005192971089
v -0.0049990003099190106 0.03134109836667398 0.6530005192971089
v -0.0049990003099190106 0.0316831184177091 0.6560608221768405
v -0.0049990003099190106 0.03270918047816318 0.6532417302460658
v -0.0049990003099190106 0.03270918047816318 0.6532417302460658
v -0.0049990003099190106 0.0316831184177091 0.6560608221768405
v -0.0049990003099190106 0.03198388633055438 0.6562344672046194
v -0.0049990003099190106 0.03270918047816318 0.6532417302460658
v -0.0049990003099190106 0.03198388633055438 0.6562344672046194
v -0.0049990003099190106 0.03391224831484685 0.6539363713923407
v -0.0049990003099190106 0.03391224831484685 0.6539363713923407
v -0.0049990003099190106 0.03198388633055438 0.6562344672046194
v -0.0049990003099190106 0.03220712433249062 0.65650051946335
v -0.0049990003099190106 0.03391224831484685 0.6539363713923407
v -0.0049990003099190106 0.03220712433249062 0.65650051946335
v -0.0049990003099190106 0.03480520032259182 0.6550005193921038
v 0.0050010001650555025 -0.08405797976158258 0.6690005200570681
v 0.0050010001650555025 0.03682592566881526 0.6645005198433296
v 0.0050010001650555025 0.08405797976158258 0.6690005200570681
v 0.0050010001650555025 0.08405797976158258 0.6690005200570681
v 0.0050010001650555025 0.03682592566881526 0.6645005198433296
v 0.0050010001650555025 0.04086738017595959 0.6645005198433296
v 0.0050010001650555025 0.08405797976158258 0.6690005200570681
v 0.0050010001650555025 0.04086738017595959 0.6645005198433296
v 0.0050010001650555025 0.08405797976158258 0.6645005198433296
v 0.0050010001650555025 -0.08405797976158258 0.6645005198433296
v 0.0050010001650555025 -0.04086738017595959 0.6645005198433296
v 0.0050010001650555025 -0.08405797976158258 0.6690005200570681
v 0.0050010001650555025 -0.08405797976158258 0.6690005200570681
v 0.0050010001650555025 -0.04086738017595959 0.6645005198433296
v 0.0050010001650555025 -0.03682592566881526 0.6645005198433296
v 0.0050010001650555025 -0.08405797976158258 0.6690005200570681
v 0.0050010001650555025 -0.03682592566881526 0.6645005198433296
v 0.0050010001650555025 0.03682592566881526 0.6645005198433296
v 0.0050010001650555025 -0.04086738017595959 0.6645005198433296
v 0.0050010001650555025 -0.040525358217575747 0.6644402171060904
v 0.0050010001650555025 -0.03682592566881526 0.6645005198433296
v 0.0050010001650555025 -0.03682592566881526 0.6645005198433296
v 0.0050010001650555025 -0.040525358217575747 0.6644402171060904
v 0.0050010001650555025 -0.04022459221207919 0.6642665720783114
v 0.0050010001650555025 -0.03682592566881526 0.6645005198433296
v 0.0050010001650555025 -0.04022459221207919 0.6642665720783114
v 0.0050010001650555025 -0.040001352302794224 0.6640005198195809
v 0.0050010001650555025 -0.03480520032259182 0.6550005193921038
v 0.0050010001650555025 -0.03220712433249062 0.65650051946335
v 0.0050010001650555025 -0.040001352302794224 0.6640005198195809
v 0.0050010001650555025 -0.040001352302794224 0.6640005198195809
v 0.0050010001650555025 -0.03220712433249062 0.65650051946335
v 0.0050010001650555025 -0.03682592566881526 0.6645005198433296
v 0.0050010001650555025 0.03220712433249062 0.65650051946335
v 0.0050010001650555025 0.040001352302794224 0.6640005198195809
v 0.0050010001650555025 0.03682592566881526 0.6645005198433296
v 0.0050010001650555025 0.03682592566881526 0.6645005198433296
v 0.0050010001650555025 0.040001352302794224 0.6640005198195809
v 0.0050010001650555025 0.04022459221207919 0.6642665720783114
v 0.0050010001650555025 0.03682592566881526 0.6645005198433296
v 0.0050010001650555025 0.04022459221207919 0.6642665720783114
v 0.0050010001650555025 0.040525358217575747 0.6644402171060904
v 0.0050010001650555025 0.03220712433249062 0.65650051946335
v 0.0050010001650555025 0.03480520032259182 0.6550005193921038
v 0.0050010001650555025 0.040001352302794224 0.6640005198195809
v 0.0050010001650555025 0.040525358217575747 0.6644402171060904
v 0.0050010001650555025 0.04086738017595959 0.6645005198433296
v 0.0050010001650555025 0.03682592566881526 0.6645005198433296
v 0.0050010001650555025 0.08405797976158258 0.6690005200570681
v 0.0050010001650555025 0.08405797976158258 0.6645005198433296
v -0.0049990003099190106 0.08405797976158258 0.6690005200570681
v -0.0049990003099190106 0.08405797976158258 0.6690005200570681
v 0.0050010001650555025 0.08405797976158258 0.6645005198433296
v -0.0049990003099190106 0.08405797976158258 0.6645005198433296
v 0.0050010001650555025 0.08405797976158258 0.6645005198433296
v 0.0050010001650555025 0.04086738017595959 0.6645005198433296
v -0.0049990003099190106 0.08405797976158258 0.6645005198433296
v -0.0049990003099190106 0.08405797976158258 0.6645005198433296
v 0.0050010001650555025 0.04086738017595959 0.6645005198433296
v -0.0049990003099190106 0.04086738017595959 0.6645005198433296
v 0.0050010001650555025 0.040001352302794224 0.6640005198195809
v 0.0050010001650555025 0.03480520032259182 0.6550005193921038
v -0.0049990003099190106 0.040001352302794224 0.6640005198195809
v -0.0049990003099190106 0.040001352302794224 0.6640005198195809
v 0.0050010001650555025 0.03480520032259182 0.6550005193921038
v -0.0049990003099190106 0.03480520032259182 0.6550005193921038
v -0.0049990003099190106 -0.08405797976158258 0.6645005198433296
v -0.0049990003099190106 -0.04086738017595959 0.6645005198433296
v 0.0050010001650555025 -0.08405797976158258 0.6645005198433296
v 0.0050010001650555025 -0.08405797976158258 0.6645005198433296
v -0.0049990003099190106 -0.04086738017595959 0.6645005198433296
v 0.0050010001650555025 -0.04086738017595959 0.6645005198433296
v -0.0049990003099190106 -0.040001352302794224 0.6640005198195809
v -0.0049990003099190106 -0.03480520032259182 0.6550005193921038
v 0.0050010001650555025 -0.040001352302794224 0.6640005198195809
v 0.0050010001650555025 -0.040001352302794224 0.6640005198195809
v -0.0049990003099190106 -0.03480520032259182 0.6550005193921038
v 0.0050010001650555025 -0.03480520032259182 0.6550005193921038
v -0.0049990003099190106 0.04086738017595959 0.6645005198433296
v 0.0050010001650555025 0.04086738017595959 0.6645005198433296
v -0.0049990003099190106 0.040525358217575747 0.6644402171060904
v -0.0049990003099190106 0.040525358217575747 0.6644402171060904
v 0.0050010001650555025 0.04086738017595959 0.6645005198433296
v 0.0050010001650555025 0.040525358217575747 0.6644402171060904
v -0.0049990003099190106 0.040525358217575747 0.6644402171060904
v 0.0050010001650555025 0.040525358217575747 0.6644402171060904
v 0.0050010001650555025 0.04022459221207919 0.6642665720783114
v 0.0050010001650555025 0.040001352302794224 0.6640005198195809
v -0.0049990003099190106 0.040001352302794224 0.6640005198195809
v 0.0050010001650555025 0.04022459221207919 0.6642665720783114
v 0.0050010001650555025 0.04022459221207919 0.6642665720783114
v -0.0049990003099190106 0.040001352302794224 0.6640005198195809
v -0.0049990003099190106 0.04022459221207919 0.6642665720783114
v 0.0050010001650555025 0.04022459221207919 0.6642665720783114
v -0.0049990003099190106 0.04022459221207919 0.6642665720783114
v -0.0049990003099190106 0.040525358217575747 0.6644402171060904
v -0.0049990003099190106 -0.040001352302794224 0.6640005198195809
v 0.0050010001650555025 -0.040001352302794224 0.6640005198195809
v -0.0049990003099190106 -0.04022459221207919 0.6642665720783114
v -0.0049990003099190106 -0.04022459221207919 0.6642665720783114
v 0.0050010001650555025 -0.040001352302794224 0.6640005198195809
v 0.0050010001650555025 -0.04022459221207919 0.6642665720783114
v -0.0049990003099190106 -0.04022459221207919 0.6642665720783114
v 0.0050010001650555025 -0.04022459221207919 0.6642665720783114
v 0.0050010001650555025 -0.040525358217575747 0.6644402171060904
v 0.0050010001650555025 -0.04086738017595959 0.6645005198433296
v -0.0049990003099190106 -0.04086738017595959 0.6645005198433296
v 0.0050010001650555025 -0.040525358217575747 0.6644402171060904
v 0.0050010001650555025 -0.040525358217575747 0.6644402171060904
v -0.0049990003099190106 -0.04086738017595959 0.6645005198433296
v -0.0049990003099190106 -0.040525358217575747 0.6644402171060904
v 0.0050010001650555025 -0.040525358217575747 0.6644402171060904
v -0.0049990003099190106 -0.040525358217575747 0.6644402171060904
v -0.0049990003099190106 -0.04022459221207919 0.6642665720783114
v -0.0049990003099190106 -0.03134109836667398 0.6530005192971089
v 0.0050010001650555025 -0.03134109836667398 0.6530005192971089
v -0.0049990003099190106 -0.03270918047816318 0.6532417302460658
v -0.0049990003099190106 -0.03270918047816318 0.6532417302460658
v 0.0050010001650555025 -0.03134109836667398 0.6530005192971089
v 0.0050010001650555025 -0.03270918047816318 0.6532417302460658
v -0.0049990003099190106 -0.03270918047816318 0.6532417302460658
v 0.0050010001650555025 -0.03270918047816318 0.6532417302460658
v -0.0049990003099190106 -0.03391224831484685 0.6539363713923407
v -0.0049990003099190106 -0.03391224831484685 0.6539363713923407
v 0.0050010001650555025 -0.03270918047816318 0.6532417302460658
v 0.0050010001650555025 -0.03391224831484685 0.6539363713923407
v -0.0049990003099190106 -0.03391224831484685 0.6539363713923407
v 0.0050010001650555025 -0.03391224831484685 0.6539363713923407
v -0.0049990003099190106 -0.03480520032259182 0.6550005193921038
v -0.0049990003099190106 -0.03480520032259182 0.6550005193921038
v 0.0050010001650555025 -0.03391224831484685 0.6539363713923407
v 0.0050010001650555025 -0.03480520032259182 0.6550005193921038
v 0.0050010001650555025 0.03134109836667398 0.6530005192971089
v -0.0049990003099190106 0.03134109836667398 0.6530005192971089
v 0.0050010001650555025 0.03270918047816318 0.6532417302460658
v 0.0050010001650555025 0.03270918047816318 0.6532417302460658
v -0.0049990003099190106 0.03134109836667398 0.6530005192971089
v -0.0049990003099190106 0.03270918047816318 0.6532417302460658
v 0.0050010001650555025 0.03270918047816318 0.6532417302460658
v -0.0049990003099190106 0.03270918047816318 0.6532417302460658
v 0.0050010001650555025 0.03391224831484685 0.6539363713923407
v 0.0050010001650555025 0.03391224831484685 0.6539363713923407
v -0.0049990003099190106 0.03270918047816318 0.6532417302460658
v -0.0049990003099190106 0.03391224831484685 0.6539363713923407
v 0.0050010001650555025 0.03391224831484685 0.6539363713923407
v -0.0049990003099190106 0.03391224831484685 0.6539363713923407
v 0.0050010001650555025 0.03480520032259182 0.6550005193921038
v 0.0050010001650555025 0.03480520032259182 0.6550005193921038
v -0.0049990003099190106 0.03391224831484685 0.6539363713923407
v -0.0049990003099190106 0.03480520032259182 0.6550005193921038
v -0.0049990003099190106 0.03682592566881526 0.6645005198433296
v -0.0049990003099190106 0.03220712433249062 0.65650051946335
v 0.0050010001650555025 0.03682592566881526 0.6645005198433296
v 0.0050010001650555025 0.03682592566881526 0.6645005198433296
v -0.0049990003099190106 0.03220712433249062 0.65650051946335
v 0.0050010001650555025 0.03220712433249062 0.65650051946335
v -0.0049990003099190106 -0.03220712433249062 0.65650051946335
v -0.0049990003099190106 -0.03682592566881526 0.6645005198433296
v 0.0050010001650555025 -0.03220712433249062 0.65650051946335
v 0.0050010001650555025 -0.03220712433249062 0.65650051946335
v -0.0049990003099190106 -0.03682592566881526 0.6645005198433296
v 0.0050010001650555025 -0.03682592566881526 0.6645005198433296
v -0.0049990003099190106 0.03134109836667398 0.6560005194396012
v -0.0049990003099190106 0.028057977101725307 0.6560005194396012
v 0.0050010001650555025 0.03134109836667398 0.6560005194396012
v 0.0050010001650555025 0.03134109836667398 0.6560005194396012
v -0.0049990003099190106 0.028057977101725307 0.6560005194396012
v 0.0050010001650555025 0.028057977101725307 0.6560005194396012
v 0.0050010001650555025 0.028057977101725307 0.6560005194396012
v -0.0049990003099190106 0.028057977101725307 0.6560005194396012
v -0.0049990003099190106 -0.028057977101725307 0.6560005194396012
v 0.0050010001650555025 0.028057977101725307 0.6560005194396012
v -0.0049990003099190106 -0.028057977101725307 0.6560005194396012
v 0.0050010001650555025 -0.028057977101725307 0.6560005194396012
v 0.0050010001650555025 -0.028057977101725307 0.6560005194396012
v -0.0049990003099190106 -0.028057977101725307 0.6560005194396012
v -0.0049990003099190106 -0.03134109836667398 0.6560005194396012
v 0.0050010001650555025 -0.028057977101725307 0.6560005194396012
v -0.0049990003099190106 -0.03134109836667398 0.6560005194396012
v 0.0050010001650555025 -0.03134109836667398 0.6560005194396012
v -0.0049990003099190106 -0.028057977101725307 0.6560005194396012
v -0.0049990003099190106 0.028057977101725307 0.6560005194396012
v -0.008850330773151338 -0.027090663289300876 0.6560005194396012
v -0.008850330773151338 -0.027090663289300876 0.6560005194396012
v -0.0049990003099190106 0.028057977101725307 0.6560005194396012
v -0.008850330773151338 0.027090663289300876 0.6560005194396012
v -0.008850330773151338 -0.027090663289300876 0.6560005194396012
v -0.008850330773151338 0.027090663289300876 0.6560005194396012
v -0.012529826759380414 -0.025597430491325346 0.6560005194396012
v -0.012529826759380414 -0.025597430491325346 0.6560005194396012
v -0.008850330773151338 0.027090663289300876 0.6560005194396012
v -0.012529826759380414 0.025597430491325346 0.6560005194396012
v -0.012529826759380414 -0.025597430491325346 0.6560005194396012
v -0.012529826759380414 0.025597430491325346 0.6560005194396012
v -0.0159660594894262 -0.023607268501045775 0.6560005194396012
v -0.0159660594894262 -0.023607268501045775 0.6560005194396012
v -0.012529826759380414 0.025597430491325346 0.6560005194396012
v -0.0159660594894262 0.023607268501045775 0.6560005194396012
v -0.0159660594894262 -0.023607268501045775 0.6560005194396012
v -0.0159660594894262 0.023607268501045775 0.6560005194396012
v -0.019092318488013182 -0.021158810666854766 0.6560005194396012
v -0.019092318488013182 -0.021158810666854766 0.6560005194396012
v -0.0159660594894262 0.023607268501045775 0.6560005194396012
v -0.019092318488013182 0.021158810666854766 0.6560005194396012
v -0.019092318488013182 -0.021158810666854766 0.6560005194396012
v -0.019092318488013182 0.021158810666854766 0.6560005194396012
v -0.02184791477978565 -0.01829959193363706 0.6560005194396012
v -0.02184791477978565 -0.01829959193363706 0.6560005194396012
v -0.019092318488013182 0.021158810666854766 0.6560005194396012
v -0.02184791477978565 0.01829959193363706 0.6560005194396012
v -0.02184791477978565 -0.01829959193363706 0.6560005194396012
v -0.02184791477978565 0.01829959193363706 0.6560005194396012
v -0.024179351047749487 -0.015085116149243794 0.6560005194396012
v -0.024179351047749487 -0.015085116149243794 0.6560005194396012
v -0.02184791477978565 0.01829959193363706 0.6560005194396012
v -0.024179351047749487 0.015085116149243794 0.6560005194396012
v -0.024179351047749487 -0.015085116149243794 0.6560005194396012
v -0.024179351047749487 0.015085116149243794 0.6560005194396012
v -0.026041365906698255 -0.01157779081023047 0.6560005194396012
v -0.026041365906698255 -0.01157779081023047 0.6560005194396012
v -0.024179351047749487 0.015085116149243794 0.6560005194396012
v -0.026041365906698255 0.01157779081023047 0.6560005194396012
v -0.026041365906698255 -0.01157779081023047 0.6560005194396012
v -0.026041365906698255 0.01157779081023047 0.6560005194396012
v -0.027397815098323397 -0.007845701590302179 0.6560005194396012
v -0.027397815098323397 -0.007845701590302179 0.6560005194396012
v -0.026041365906698255 0.01157779081023047 0.6560005194396012
v -0.027397815098323397 0.007845701590302179 0.6560005194396012
v -0.027397815098323397 -0.007845701590302179 0.6560005194396012
v -0.027397815098323397 0.007845701590302179 0.6560005194396012
v -0.028222361951452113 -0.003961301753322016 0.6560005194396012
v -0.028222361951452113 -0.003961301753322016 0.6560005194396012
v -0.027397815098323397 0.007845701590302179 0.6560005194396012
v -0.028222361951452113 0.003961301753322016 0.6560005194396012
v -0.028222361951452113 -0.003961301753322016 0.6560005194396012
v -0.028222361951452113 0.003961301753322016 0.6560005194396012
v -0.028499001902946297 -3.308952380502179e-12 0.6560005194396012
v 0.0050010001650555025 0.028057977101725307 0.6560005194396012
v 0.0050010001650555025 -0.028057977101725307 0.6560005194396012
v 0.00885233062828783 0.027090663289300876 0.6560005194396012
v 0.00885233062828783 0.027090663289300876 0.6560005194396012
v 0.0050010001650555025 -0.028057977101725307 0.6560005194396012
v 0.00885233062828783 -0.027090663289300876 0.6560005194396012
v 0.00885233062828783 0.027090663289300876 0.6560005194396012
v 0.00885233062828783 -0.027090663289300876 0.6560005194396012
v 0.012531827568191267 0.025597430491325346 0.6560005194396012
v 0.012531827568191267 0.025597430491325346 0.6560005194396012
v 0.00885233062828783 -0.027090663289300876 0.6560005194396012
v 0.012531827568191267 -0.025597430491325346 0.6560005194396012
v 0.012531827568191267 0.025597430491325346 0.6560005194396012
v 0.012531827568191267 -0.025597430491325346 0.6560005194396012
v 0.01596805934456269 0.023607268501045775 0.6560005194396012
v 0.01596805934456269 0.023607268501045775 0.6560005194396012
v 0.012531827568191267 -0.025597430491325346 0.6560005194396012
v 0.01596805934456269 -0.023607268501045775 0.6560005194396012
v 0.01596805934456269 0.023607268501045775 0.6560005194396012
v 0.01596805934456269 -0.023607268501045775 0.6560005194396012
v 0.019094319296824036 0.021158810666854766 0.6560005194396012
v 0.019094319296824036 0.021158810666854766 0.6560005194396012
v 0.01596805934456269 -0.023607268501045775 0.6560005194396012
v 0.019094319296824036 -0.021158810666854766 0.6560005194396012
v 0.019094319296824036 0.021158810666854766 0.6560005194396012
v 0.019094319296824036 -0.021158810666854766 0.6560005194396012
v 0.02184991368124778 0.01829959193363706 0.6560005194396012
v 0.02184991368124778 0.01829959193363706 0.6560005194396012
v 0.019094319296824036 -0.021158810666854766 0.6560005194396012
v 0.02184991368124778 -0.01829959193363706 0.6560005194396012
v 0.02184991368124778 0.01829959193363706 0.6560005194396012
v 0.02184991368124778 -0.01829959193363706 0.6560005194396012
v 0.024181349949211617 0.015085116149243794 0.6560005194396012
v 0.024181349949211617 0.015085116149243794 0.6560005194396012
v 0.02184991368124778 -0.01829959193363706 0.6560005194396012
v 0.024181349949211617 -0.015085116149243794 0.6560005194396012
v 0.024181349949211617 0.015085116149243794 0.6560005194396012
v 0.024181349949211617 -0.015085116149243794 0.6560005194396012
v 0.02604336671550911 0.01157779081023047 0.6560005194396012
v 0.02604336671550911 0.01157779081023047 0.6560005194396012
v 0.024181349949211617 -0.015085116149243794 0.6560005194396012
v 0.02604336671550911 -0.01157779081023047 0.6560005194396012
v 0.02604336671550911 0.01157779081023047 0.6560005194396012
v 0.02604336671550911 -0.01157779081023047 0.6560005194396012
v 0.027399813999785527 0.007845701590302179 0.6560005194396012
v 0.027399813999785527 0.007845701590302179 0.6560005194396012
v 0.02604336671550911 -0.01157779081023047 0.6560005194396012
v 0.027399813999785527 -0.007845701590302179 0.6560005194396012
v 0.027399813999785527 0.007845701590302179 0.6560005194396012
v 0.027399813999785527 -0.007845701590302179 0.6560005194396012
v 0.028224362760262967 0.003961301753322016 0.6560005194396012
v 0.028224362760262967 0.003961301753322016 0.6560005194396012
v 0.027399813999785527 -0.007845701590302179 0.6560005194396012
v 0.028224362760262967 -0.003961301753322016 0.6560005194396012
v 0.028224362760262967 0.003961301753322016 0.6560005194396012
v 0.028224362760262967 -0.003961301753322016 0.6560005194396012
v 0.028501000804408427 -3.308939723959097e-12 0.6560005194396012
v -0.0049990003099190106 -0.03220712433249062 0.65650051946335
v 0.0050010001650555025 -0.03220712433249062 0.65650051946335
v -0.0049990003099190106 -0.03198388633055438 0.6562344672046194
v -0.0049990003099190106 -0.03198388633055438 0.6562344672046194
v 0.0050010001650555025 -0.03220712433249062 0.65650051946335
v 0.0050010001650555025 -0.03198388633055438 0.6562344672046194
v -0.0049990003099190106 -0.03198388633055438 0.6562344672046194
v 0.0050010001650555025 -0.03198388633055438 0.6562344672046194
v 0.0050010001650555025 -0.0316831184177091 0.6560608221768405
v 0.0050010001650555025 -0.03134109836667398 0.6560005194396012
v -0.0049990003099190106 -0.03134109836667398 0.6560005194396012
v 0.0050010001650555025 -0.0316831184177091 0.6560608221768405
v 0.0050010001650555025 -0.0316831184177091 0.6560608221768405
v -0.0049990003099190106 -0.03134109836667398 0.6560005194396012
v -0.0049990003099190106 -0.0316831184177091 0.6560608221768405
v 0.0050010001650555025 -0.0316831184177091 0.6560608221768405
v -0.0049990003099190106 -0.0316831184177091 0.6560608221768405
v -0.0049990003099190106 -0.03198388633055438 0.6562344672046194
v 0.0050010001650555025 0.03220712433249062 0.65650051946335
v -0.0049990003099190106 0.03220712433249062 0.65650051946335
v 0.0050010001650555025 0.03198388633055438 0.6562344672046194
v 0.0050010001650555025 0.03198388633055438 0.6562344672046194
v -0.0049990003099190106 0.03220712433249062 0.65650051946335
v -0.0049990003099190106 0.03198388633055438 0.6562344672046194
v 0.0050010001650555025 0.03198388633055438 0.6562344672046194
v -0.0049990003099190106 0.03198388633055438 0.6562344672046194
v -0.0049990003099190106 0.0316831184177091 0.6560608221768405
v -0.0049990003099190106 0.03134109836667398 0.6560005194396012
v 0.0050010001650555025 0.03134109836667398 0.6560005194396012
v -0.0049990003099190106 0.0316831184177091 0.6560608221768405
v -0.0049990003099190106 0.0316831184177091 0.6560608221768405
v 0.0050010001650555025 0.03134109836667398 0.6560005194396012
v 0.0050010001650555025 0.0316831184177091 0.6560608221768405
v -0.0049990003099190106 0.0316831184177091 0.6560608221768405
v 0.0050010001650555025 0.0316831184177091 0.6560608221768405
v 0.0050010001650555025 0.03198388633055438 0.6562344672046194
v -0.0049990003099190106 -0.03682592566881526 0.6645005198433296
v -0.0049990003099190106 0.03682592566881526 0.6645005198433296
v 0.0050010001650555025 -0.03682592566881526 0.6645005198433296
v 0.0050010001650555025 -0.03682592566881526 0.6645005198433296
v -0.0049990003099190106 0.03682592566881526 0.6645005198433296
v 0.0050010001650555025 0.03682592566881526 0.6645005198433296
v 0.0074242604920987665 0.027516272898139293 0.6530000310158357
v 0.0050010001650555025 0.028057977101725307 0.6530000310158357
v 0.0050010001650555025 0.028057977101725307 0.6530005192971089
v 0.0050010001650555025 0.028057977101725307 0.6530005192971089
v 0.0050010001650555025 0.028057977101725307 0.6530000310158357
v 0.0025107504129859293 0.028389279760283603 0.6530000310158357
v 0.0050010001650555025 0.028057977101725307 0.6530005192971089
v 0.0025107504129859293 0.028389279760283603 0.6530000310158357
v 0.0016753723225034628 0.02845077459047496 0.6530005192971089
v 0.0016753723225034628 0.02845077459047496 0.6530005192971089
v 0.0025107504129859293 0.028389279760283603 0.6530000310158357
v 9.999993965029407e-07 0.028500001353677362 0.6530000310158357
v 0.0016753723225034628 0.02845077459047496 0.6530005192971089
v 9.999993965029407e-07 0.028500001353677362 0.6530000310158357
v -0.0016733723481576757 0.02845077459047496 0.6530005192971089
v -0.0016733723481576757 0.02845077459047496 0.6530005192971089
v 9.999993965029407e-07 0.028500001353677362 0.6530000310158357
v -0.002508750319430847 0.028389279760283603 0.6530000310158357
v -0.0016733723481576757 0.02845077459047496 0.6530005192971089
v -0.002508750319430847 0.028389279760283603 0.6530000310158357
v -0.0049990003099190106 0.028057977101725307 0.6530005192971089
v -0.0049990003099190106 0.028057977101725307 0.6530005192971089
v -0.002508750319430847 0.028389279760283603 0.6530000310158357
v -0.0049990003099190106 0.028057977101725307 0.6530000310158357
v -0.0049990003099190106 0.028057977101725307 0.6530005192971089
v -0.0049990003099190106 0.028057977101725307 0.6530000310158357
v -0.0074222606369622746 0.027516272898139293 0.6530000310158357
v -0.009789172637507115 0.02676569875055046 0.6530000310158357
v -0.008850330773151338 0.027090663289300876 0.6560005194396012
v -0.0074222606369622746 0.027516272898139293 0.6530000310158357
v -0.0074222606369622746 0.027516272898139293 0.6530000310158357
v -0.008850330773151338 0.027090663289300876 0.6560005194396012
v -0.0049990003099190106 0.028057977101725307 0.6560005194396012
v -0.0074222606369622746 0.027516272898139293 0.6530000310158357
v -0.0049990003099190106 0.028057977101725307 0.6560005194396012
v -0.0049990003099190106 0.028057977101725307 0.6530005192971089
v -0.008850330773151338 0.027090663289300876 0.6560005194396012
v -0.009789172637507115 0.02676569875055046 0.6530000310158357
v -0.012529826759380414 0.025597430491325346 0.6560005194396012
v -0.012529826759380414 0.025597430491325346 0.6560005194396012
v -0.009789172637507115 0.02676569875055046 0.6530000310158357
v -0.01208176860974186 0.025811950002246897 0.6530000310158357
v -0.012529826759380414 0.025597430491325346 0.6560005194396012
v -0.01208176860974186 0.025811950002246897 0.6530000310158357
v -0.01428264685758851 0.024662268856331382 0.6530000310158357
v -0.012529826759380414 0.025597430491325346 0.6560005194396012
v -0.01428264685758851 0.024662268856331382 0.6530000310158357
v -0.0159660594894262 0.023607268501045775 0.6560005194396012
v -0.0159660594894262 0.023607268501045775 0.6560005194396012
v -0.01428264685758851 0.024662268856331382 0.6530000310158357
v -0.016375101867253106 0.0233253814332135 0.6530000310158357
v -0.0159660594894262 0.023607268501045775 0.6560005194396012
v -0.016375101867253106 0.0233253814332135 0.6530000310158357
v -0.018343247331218393 0.021811434828101772 0.6530000310158357
v -0.0159660594894262 0.023607268501045775 0.6560005194396012
v -0.018343247331218393 0.021811434828101772 0.6530000310158357
v -0.019092318488013182 0.021158810666854766 0.6560005194396012
v -0.019092318488013182 0.021158810666854766 0.6560005194396012
v -0.018343247331218393 0.021811434828101772 0.6530000310158357
v -0.020172146801631374 0.020131920817054727 0.6530000310158357
v -0.019092318488013182 0.021158810666854766 0.6560005194396012
v -0.020172146801631374 0.020131920817054727 0.6530000310158357
v -0.02184791477978565 0.01829959193363706 0.6560005194396012
v -0.02184791477978565 0.01829959193363706 0.6560005194396012
v -0.020172146801631374 0.020131920817054727 0.6530000310158357
v -0.02184791477978565 0.01829959193363706 0.6530000310158357
v -0.02184791477978565 0.01829959193363706 0.6560005194396012
v -0.02184791477978565 0.01829959193363706 0.6530000310158357
v -0.023357831157044817 0.016328352750042407 0.6530000310158357
v -0.02184791477978565 0.01829959193363706 0.6560005194396012
v -0.023357831157044817 0.016328352750042407 0.6530000310158357
v -0.024179351047749487 0.015085116149243794 0.6560005194396012
v -0.024179351047749487 0.015085116149243794 0.6560005194396012
v -0.023357831157044817 0.016328352750042407 0.6530000310158357
v -0.024690436582278652 0.014233167370680255 0.6530000310158357
v -0.024179351047749487 0.015085116149243794 0.6560005194396012
v -0.024690436582278652 0.014233167370680255 0.6530000310158357
v -0.026041365906698255 0.01157779081023047 0.6560005194396012
v -0.026041365906698255 0.01157779081023047 0.6560005194396012
v -0.024690436582278652 0.014233167370680255 0.6530000310158357
v -0.02583561257050948 0.012029942130229454 0.6530000310158357
v -0.026041365906698255 0.01157779081023047 0.6560005194396012
v -0.02583561257050948 0.012029942130229454 0.6530000310158357
v -0.026784669240953463 0.009735399708622472 0.6530000310158357
v -0.026041365906698255 0.01157779081023047 0.6560005194396012
v -0.026784669240953463 0.009735399708622472 0.6530000310158357
v -0.027397815098323397 0.007845701590302179 0.6560005194396012
v -0.027397815098323397 0.007845701590302179 0.6560005194396012
v -0.026784669240953463 0.009735399708622472 0.6530000310158357
v -0.027530400630133567 0.007366957060727097 0.6530000310158357
v -0.027397815098323397 0.007845701590302179 0.6560005194396012
v -0.027530400630133567 0.007366957060727097 0.6530000310158357
v -0.028067145727038723 0.004942593809284523 0.6530000310158357
v -0.027397815098323397 0.007845701590302179 0.6560005194396012
v -0.028067145727038723 0.004942593809284523 0.6530000310158357
v -0.028222361951452113 0.003961301753322016 0.6560005194396012
v -0.028222361951452113 0.003961301753322016 0.6560005194396012
v -0.028067145727038723 0.004942593809284523 0.6530000310158357
v -0.028390832342144456 0.0024807122931967684 0.6530000310158357
v -0.028222361951452113 0.003961301753322016 0.6560005194396012
v -0.028390832342144456 0.0024807122931967684 0.6530000310158357
v -0.028499001902946297 -3.308952380502179e-12 0.6560005194396012
v -0.028499001902946297 -3.308952380502179e-12 0.6560005194396012
v -0.028390832342144456 0.0024807122931967684 0.6530000310158357
v -0.028499001902946297 -3.3089441648514065e-12 0.6530000310158357
v -0.028499001902946297 -3.308952380502179e-12 0.6560005194396012
v -0.028499001902946297 -3.3089441648514065e-12 0.6530000310158357
v -0.028390832342144456 -0.0024807122931967684 0.6530000310158357
v -0.028499001902946297 -3.308952380502179e-12 0.6560005194396012
v -0.028390832342144456 -0.0024807122931967684 0.6530000310158357
v -0.028222361951452113 -0.003961301753322016 0.6560005194396012
v -0.028222361951452113 -0.003961301753322016 0.6560005194396012
v -0.028390832342144456 -0.0024807122931967684 0.6530000310158357
v -0.028067145727038723 -0.004942593809284523 0.6530000310158357
v -0.028222361951452113 -0.003961301753322016 0.6560005194396012
v -0.028067145727038723 -0.004942593809284523 0.6530000310158357
v -0.027397815098323397 -0.007845701590302179 0.6560005194396012
v -0.027397815098323397 -0.007845701590302179 0.6560005194396012
v -0.028067145727038723 -0.004942593809284523 0.6530000310158357
v -0.027530400630133567 -0.007366957060727097 0.6530000310158357
v -0.027397815098323397 -0.007845701590302179 0.6560005194396012
v -0.027530400630133567 -0.007366957060727097 0.6530000310158357
v -0.026784669240953463 -0.009735399708622472 0.6530000310158357
v -0.027397815098323397 -0.007845701590302179 0.6560005194396012
v -0.026784669240953463 -0.009735399708622472 0.6530000310158357
v -0.026041365906698255 -0.01157779081023047 0.6560005194396012
v -0.026041365906698255 -0.01157779081023047 0.6560005194396012
v -0.026784669240953463 -0.009735399708622472 0.6530000310158357
v -0.02583561257050948 -0.012029942130229454 0.6530000310158357
v -0.026041365906698255 -0.01157779081023047 0.6560005194396012
v -0.02583561257050948 -0.012029942130229454 0.6530000310158357
v -0.024690436582278652 -0.014233167370680255 0.6530000310158357
v -0.026041365906698255 -0.01157779081023047 0.6560005194396012
v -0.024690436582278652 -0.014233167370680255 0.6530000310158357
v -0.024179351047749487 -0.015085116149243794 0.6560005194396012
v -0.024179351047749487 -0.015085116149243794 0.6560005194396012
v -0.024690436582278652 -0.014233167370680255 0.6530000310158357
v -0.023357831157044817 -0.016328352750042407 0.6530000310158357
v -0.024179351047749487 -0.015085116149243794 0.6560005194396012
v -0.023357831157044817 -0.016328352750042407 0.6530000310158357
v -0.02184791477978565 -0.01829959193363706 0.6560005194396012
v -0.02184791477978565 -0.01829959193363706 0.6560005194396012
v -0.023357831157044817 -0.016328352750042407 0.6530000310158357
v -0.02184791477978565 -0.01829959193363706 0.6530000310158357
v -0.02184791477978565 -0.01829959193363706 0.6560005194396012
v -0.02184791477978565 -0.01829959193363706 0.6530000310158357
v -0.020172146801631374 -0.020131920817054727 0.6530000310158357
v -0.02184791477978565 -0.01829959193363706 0.6560005194396012
v -0.020172146801631374 -0.020131920817054727 0.6530000310158357
v -0.019092318488013182 -0.021158810666854766 0.6560005194396012
v -0.019092318488013182 -0.021158810666854766 0.6560005194396012
v -0.020172146801631374 -0.020131920817054727 0.6530000310158357
v -0.018343247331218393 -0.021811434828101772 0.6530000310158357
v -0.019092318488013182 -0.021158810666854766 0.6560005194396012
v -0.018343247331218393 -0.021811434828101772 0.6530000310158357
v -0.0159660594894262 -0.023607268501045775 0.6560005194396012
v -0.0159660594894262 -0.023607268501045775 0.6560005194396012
v -0.018343247331218393 -0.021811434828101772 0.6530000310158357
v -0.016375101867253106 -0.0233253814332135 0.6530000310158357
v -0.0159660594894262 -0.023607268501045775 0.6560005194396012
v -0.016375101867253106 -0.0233253814332135 0.6530000310158357
v -0.01428264685758851 -0.024662268856331382 0.6530000310158357
v -0.0159660594894262 -0.023607268501045775 0.6560005194396012
v -0.01428264685758851 -0.024662268856331382 0.6530000310158357
v -0.012529826759380414 -0.025597430491325346 0.6560005194396012
v -0.012529826759380414 -0.025597430491325346 0.6560005194396012
v -0.01428264685758851 -0.024662268856331382 0.6530000310158357
v -0.01208176860974186 -0.025811950002246897 0.6530000310158357
v -0.012529826759380414 -0.025597430491325346 0.6560005194396012
v -0.01208176860974186 -0.025811950002246897 0.6530000310158357
v -0.009789172637507115 -0.02676569875055046 0.6530000310158357
v -0.012529826759380414 -0.025597430491325346 0.6560005194396012
v -0.009789172637507115 -0.02676569875055046 0.6530000310158357
v -0.008850330773151338 -0.027090663289300876 0.6560005194396012
v -0.008850330773151338 -0.027090663289300876 0.6560005194396012
v -0.009789172637507115 -0.02676569875055046 0.6530000310158357
v -0.0074222606369622746 -0.027516272898139293 0.6530000310158357
v -0.008850330773151338 -0.027090663289300876 0.6560005194396012
v -0.0074222606369622746 -0.027516272898139293 0.6530000310158357
v -0.0049990003099190106 -0.028057977101725307 0.6560005194396012
v -0.0049990003099190106 -0.028057977101725307 0.6560005194396012
v -0.0074222606369622746 -0.027516272898139293 0.6530000310158357
v -0.0049990003099190106 -0.028057977101725307 0.6530005192971089
v -0.0049990003099190106 -0.028057977101725307 0.6530005192971089
v -0.0074222606369622746 -0.027516272898139293 0.6530000310158357
v -0.0049990003099190106 -0.028057977101725307 0.6530000310158357
v -0.0049990003099190106 -0.028057977101725307 0.6530005192971089
v -0.0049990003099190106 -0.028057977101725307 0.6530000310158357
v -0.002508750319430847 -0.028389279760283603 0.6530000310158357
v -0.0049990003099190106 -0.028057977101725307 0.6530005192971089
v -0.002508750319430847 -0.028389279760283603 0.6530000310158357
v -0.0016733723481576757 -0.02845077459047496 0.6530005192971089
v -0.0016733723481576757 -0.02845077459047496 0.6530005192971089
v -0.002508750319430847 -0.028389279760283603 0.6530000310158357
v 9.999993965029407e-07 -0.028500001353677362 0.6530000310158357
v -0.0016733723481576757 -0.02845077459047496 0.6530005192971089
v 9.999993965029407e-07 -0.028500001353677362 0.6530000310158357
v 0.0016753723225034628 -0.02845077459047496 0.6530005192971089
v 0.0016753723225034628 -0.02845077459047496 0.6530005192971089
v 9.999993965029407e-07 -0.028500001353677362 0.6530000310158357
v 0.0025107504129859293 -0.028389279760283603 0.6530000310158357
v 0.0016753723225034628 -0.02845077459047496 0.6530005192971089
v 0.0025107504129859293 -0.028389279760283603 0.6530000310158357
v 0.0050010001650555025 -0.028057977101725307 0.6530005192971089
v 0.0050010001650555025 -0.028057977101725307 0.6530005192971089
v 0.0025107504129859293 -0.028389279760283603 0.6530000310158357
v 0.0050010001650555025 -0.028057977101725307 0.6530000310158357
v 0.0050010001650555025 -0.028057977101725307 0.6530005192971089
v 0.0050010001650555025 -0.028057977101725307 0.6530000310158357
v 0.0074242604920987665 -0.027516272898139293 0.6530000310158357
v 0.009791172492643607 -0.02676569875055046 0.6530000310158357
v 0.00885233062828783 -0.027090663289300876 0.6560005194396012
v 0.0074242604920987665 -0.027516272898139293 0.6530000310158357
v 0.0074242604920987665 -0.027516272898139293 0.6530000310158357
v 0.00885233062828783 -0.027090663289300876 0.6560005194396012
v 0.0050010001650555025 -0.028057977101725307 0.6560005194396012
v 0.0074242604920987665 -0.027516272898139293 0.6530000310158357
v 0.0050010001650555025 -0.028057977101725307 0.6560005194396012
v 0.0050010001650555025 -0.028057977101725307 0.6530005192971089
v 0.00885233062828783 -0.027090663289300876 0.6560005194396012
v 0.009791172492643607 -0.02676569875055046 0.6530000310158357
v 0.012531827568191267 -0.025597430491325346 0.6560005194396012
v 0.012531827568191267 -0.025597430491325346 0.6560005194396012
v 0.009791172492643607 -0.02676569875055046 0.6530000310158357
v 0.012083768464878353 -0.025811950002246897 0.6530000310158357
v 0.012531827568191267 -0.025597430491325346 0.6560005194396012
v 0.012083768464878353 -0.025811950002246897 0.6530000310158357
v 0.014284646712725002 -0.024662268856331382 0.6530000310158357
v 0.012531827568191267 -0.025597430491325346 0.6560005194396012
v 0.014284646712725002 -0.024662268856331382 0.6530000310158357
v 0.01596805934456269 -0.023607268501045775 0.6560005194396012
v 0.01596805934456269 -0.023607268501045775 0.6560005194396012
v 0.014284646712725002 -0.024662268856331382 0.6530000310158357
v 0.016377100768715236 -0.0233253814332135 0.6530000310158357
v 0.01596805934456269 -0.023607268501045775 0.6560005194396012
v 0.016377100768715236 -0.0233253814332135 0.6530000310158357
v 0.018345248140029247 -0.021811434828101772 0.6530000310158357
v 0.01596805934456269 -0.023607268501045775 0.6560005194396012
v 0.018345248140029247 -0.021811434828101772 0.6530000310158357
v 0.019094319296824036 -0.021158810666854766 0.6560005194396012
v 0.019094319296824036 -0.021158810666854766 0.6560005194396012
v 0.018345248140029247 -0.021811434828101772 0.6530000310158357
v 0.020174145703093505 -0.020131920817054727 0.6530000310158357
v 0.019094319296824036 -0.021158810666854766 0.6560005194396012
v 0.020174145703093505 -0.020131920817054727 0.6530000310158357
v 0.02184991368124778 -0.01829959193363706 0.6560005194396012
v 0.02184991368124778 -0.01829959193363706 0.6560005194396012
v 0.020174145703093505 -0.020131920817054727 0.6530000310158357
v 0.02184991368124778 -0.01829959193363706 0.6530000310158357
v 0.02184991368124778 -0.01829959193363706 0.6560005194396012
v 0.02184991368124778 -0.01829959193363706 0.6530000310158357
v 0.02335983196585567 -0.016328352750042407 0.6530000310158357
v 0.02184991368124778 -0.01829959193363706 0.6560005194396012
v 0.02335983196585567 -0.016328352750042407 0.6530000310158357
v 0.024181349949211617 -0.015085116149243794 0.6560005194396012
v 0.024181349949211617 -0.015085116149243794 0.6560005194396012
v 0.02335983196585567 -0.016328352750042407 0.6530000310158357
v 0.024692435483740782 -0.014233167370680255 0.6530000310158357
v 0.024181349949211617 -0.015085116149243794 0.6560005194396012
v 0.024692435483740782 -0.014233167370680255 0.6530000310158357
v 0.02604336671550911 -0.01157779081023047 0.6560005194396012
v 0.02604336671550911 -0.01157779081023047 0.6560005194396012
v 0.024692435483740782 -0.014233167370680255 0.6530000310158357
v 0.025837613379320334 -0.012029942130229454 0.6530000310158357
v 0.02604336671550911 -0.01157779081023047 0.6560005194396012
v 0.025837613379320334 -0.012029942130229454 0.6530000310158357
v 0.026786670049764316 -0.009735399708622472 0.6530000310158357
v 0.02604336671550911 -0.01157779081023047 0.6560005194396012
v 0.026786670049764316 -0.009735399708622472 0.6530000310158357
v 0.027399813999785527 -0.007845701590302179 0.6560005194396012
v 0.027399813999785527 -0.007845701590302179 0.6560005194396012
v 0.026786670049764316 -0.009735399708622472 0.6530000310158357
v 0.02753240143894442 -0.007366957060727097 0.6530000310158357
v 0.027399813999785527 -0.007845701590302179 0.6560005194396012
v 0.02753240143894442 -0.007366957060727097 0.6530000310158357
v 0.028069146535849576 -0.004942593809284523 0.6530000310158357
v 0.027399813999785527 -0.007845701590302179 0.6560005194396012
v 0.028069146535849576 -0.004942593809284523 0.6530000310158357
v 0.028224362760262967 -0.003961301753322016 0.6560005194396012
v 0.028224362760262967 -0.003961301753322016 0.6560005194396012
v 0.028069146535849576 -0.004942593809284523 0.6530000310158357
v 0.02839283315095531 -0.0024807122931967684 0.6530000310158357
v 0.028224362760262967 -0.003961301753322016 0.6560005194396012
v 0.02839283315095531 -0.0024807122931967684 0.6530000310158357
v 0.028501000804408427 -3.308939723959097e-12 0.6560005194396012
v 0.028501000804408427 -3.308939723959097e-12 0.6560005194396012
v 0.02839283315095531 -0.0024807122931967684 0.6530000310158357
v 0.028501000804408427 -3.3089286217283235e-12 0.6530000310158357
v 0.028501000804408427 -3.308939723959097e-12 0.6560005194396012
v 0.028501000804408427 -3.3089286217283235e-12 0.6530000310158357
v 0.02839283315095531 0.0024807122931967684 0.6530000310158357
v 0.028501000804408427 -3.308939723959097e-12 0.6560005194396012
v 0.02839283315095531 0.0024807122931967684 0.6530000310158357
v 0.028224362760262967 0.003961301753322016 0.6560005194396012
v 0.028224362760262967 0.003961301753322016 0.6560005194396012
v 0.02839283315095531 0.0024807122931967684 0.6530000310158357
v 0.028069146535849576 0.004942593809284523 0.6530000310158357
v 0.028224362760262967 0.003961301753322016 0.6560005194396012
v 0.028069146535849576 0.004942593809284523 0.6530000310158357
v 0.027399813999785527 0.007845701590302179 0.6560005194396012
v 0.027399813999785527 0.007845701590302179 0.6560005194396012
v 0.028069146535849576 0.004942593809284523 0.6530000310158357
v 0.02753240143894442 0.007366957060727097 0.6530000310158357
v 0.027399813999785527 0.007845701590302179 0.6560005194396012
v 0.02753240143894442 0.007366957060727097 0.6530000310158357
v 0.026786670049764316 0.009735399708622472 0.6530000310158357
v 0.027399813999785527 0.007845701590302179 0.6560005194396012
v 0.026786670049764316 0.009735399708622472 0.6530000310158357
v 0.02604336671550911 0.01157779081023047 0.6560005194396012
v 0.02604336671550911 0.01157779081023047 0.6560005194396012
v 0.026786670049764316 0.009735399708622472 0.6530000310158357
v 0.025837613379320334 0.012029942130229454 0.6530000310158357
v 0.02604336671550911 0.01157779081023047 0.6560005194396012
v 0.025837613379320334 0.012029942130229454 0.6530000310158357
v 0.024692435483740782 0.014233167370680255 0.6530000310158357
v 0.02604336671550911 0.01157779081023047 0.6560005194396012
v 0.024692435483740782 0.014233167370680255 0.6530000310158357
v 0.024181349949211617 0.015085116149243794 0.6560005194396012
v 0.024181349949211617 0.015085116149243794 0.6560005194396012
v 0.024692435483740782 0.014233167370680255 0.6530000310158357
v 0.02335983196585567 0.016328352750042407 0.6530000310158357
v 0.024181349949211617 0.015085116149243794 0.6560005194396012
v 0.02335983196585567 0.016328352750042407 0.6530000310158357
v 0.02184991368124778 0.01829959193363706 0.6560005194396012
v 0.02184991368124778 0.01829959193363706 0.6560005194396012
v 0.02335983196585567 0.016328352750042407 0.6530000310158357
v 0.02184991368124778 0.01829959193363706 0.6530000310158357
v 0.02184991368124778 0.01829959193363706 0.6560005194396012
v 0.02184991368124778 0.01829959193363706 0.6530000310158357
v 0.020174145703093505 0.020131920817054727 0.6530000310158357
v 0.02184991368124778 0.01829959193363706 0.6560005194396012
v 0.020174145703093505 0.020131920817054727 0.6530000310158357
v 0.019094319296824036 0.021158810666854766 0.6560005194396012
v 0.019094319296824036 0.021158810666854766 0.6560005194396012
v 0.020174145703093505 0.020131920817054727 0.6530000310158357
v 0.018345248140029247 0.021811434828101772 0.6530000310158357
v 0.019094319296824036 0.021158810666854766 0.6560005194396012
v 0.018345248140029247 0.021811434828101772 0.6530000310158357
v 0.01596805934456269 0.023607268501045775 0.6560005194396012
v 0.01596805934456269 0.023607268501045775 0.6560005194396012
v 0.018345248140029247 0.021811434828101772 0.6530000310158357
v 0.016377100768715236 0.0233253814332135 0.6530000310158357
v 0.01596805934456269 0.023607268501045775 0.6560005194396012
v 0.016377100768715236 0.0233253814332135 0.6530000310158357
v 0.014284646712725002 0.024662268856331382 0.6530000310158357
v 0.01596805934456269 0.023607268501045775 0.6560005194396012
v 0.014284646712725002 0.024662268856331382 0.6530000310158357
v 0.012531827568191267 0.025597430491325346 0.6560005194396012
v 0.012531827568191267 0.025597430491325346 0.6560005194396012
v 0.014284646712725002 0.024662268856331382 0.6530000310158357
v 0.012083768464878353 0.025811950002246897 0.6530000310158357
v 0.012531827568191267 0.025597430491325346 0.6560005194396012
v 0.012083768464878353 0.025811950002246897 0.6530000310158357
v 0.009791172492643607 0.02676569875055046 0.6530000310158357
v 0.012531827568191267 0.025597430491325346 0.6560005194396012
v 0.009791172492643607 0.02676569875055046 0.6530000310158357
v 0.00885233062828783 0.027090663289300876 0.6560005194396012
v 0.00885233062828783 0.027090663289300876 0.6560005194396012
v 0.009791172492643607 0.02676569875055046 0.6530000310158357
v 0.0074242604920987665 0.027516272898139293 0.6530000310158357
v 0.00885233062828783 0.027090663289300876 0.6560005194396012
v 0.0074242604920987665 0.027516272898139293 0.6530000310158357
v 0.0050010001650555025 0.028057977101725307 0.6560005194396012
v 0.0050010001650555025 0.028057977101725307 0.6560005194396012
v 0.0074242604920987665 0.027516272898139293 0.6530000310158357
v 0.0050010001650555025 0.028057977101725307 0.6530005192971089
usemtl DefaultMaterial
f 1 2 3
f 4 5 6
f 7 8 9
f 10 11 12
f 13 14 15
f 16 17 18
f 19 20 21
f 22 23 24
f 25 26 27
f 28 29 30
f 31 32 33
f 34 35 36
f 37 38 39
f 40 41 42
f 43 44 45
f 46 47 48
f 49 50 51
f 52 53 54
f 55 56 57
f 58 59 60
f 61 62 63
f 64 65 66
f 67 68 69
f 70 71 72
f 73 74 75
f 76 77 78
f 79 80 81
f 82 83 84
f 85 86 87
f 88 89 90
f 91 92 93
f 94 95 96
f 97 98 99
f 100 101 102
f 103 104 105
f 106 107 108
f 109 110 111
f 112 113 114
f 115 116 117
f 118 119 120
f 121 122 123
f 124 125 126
f 127 128 129
f 130 131 132
f 133 134 135
f 136 137 138
f 139 140 141
f 142 143 144
f 145 146 147
f 148 149 150
f 151 152 153
f 154 155 156
f 157 158 159
f 160 161 162
f 163 164 165
f 166 167 168
f 169 170 171
f 172 173 174
f 175 176 177
f 178 179 180
f 181 182 183
f 184 185 186
f 187 188 189
f 190 191 192
f 193 194 195
f 196 197 198
f 199 200 201
f 202 203 204
f 205 206 207
f 208 209 210
f 211 212 213
f 214 215 216
f 217 218 219
f 220 221 222
f 223 224 225
f 226 227 228
f 229 230 231
f 232 233 234
f 235 236 237
f 238 239 240
f 241 242 243
f 244 245 246
f 247 248 249
f 250 251 252
f 253 254 255
f 256 257 258
f 259 260 261
f 262 263 264
f 265 266 267
f 268 269 270
f 271 272 273
f 274 275 276
f 277 278 279
f 280 281 282
f 283 284 285
f 286 287 288
f 289 290 291
f 292 293 294
f 295 296 297
f 298 299 300
f 301 302 303
f 304 305 306
f 307 308 309
f 310 311 312
f 313 314 315
f 316 317 318
f 319 320 321
f 322 323 324
f 325 326 327
f 328 329 330
f 331 332 333
f 334 335 336
f 337 338 339
f 340 341 342
f 343 344 345
f 346 347 348
f 349 350 351
f 352 353 354
f 355 356 357
f 358 359 360
f 361 362 363
f 364 365 366
f 367 368 369
f 370 371 372
f 373 374 375
f 376 377 378
f 379 380 381
f 382 383 384
f 385 386 387
f 388 389 390
f 391 392 393
f 394 395 396
f 397 398 399
f 400 401 402
f 403 404 405
f 406 407 408
f 409 410 411
f 412 413 414
f 415 416 417
f 418 419 420
f 421 422 423
f 424 425 426
f 427 428 429
f 430 431 432
f 433 434 435
f 436 437 438
f 439 440 441
f 442 443 444
f 445 446 447
f 448 449 450
f 451 452 453
f 454 455 456
f 457 458 459
f 460 461 462
f 463 464 465
f 466 467 468
f 469 470 471
f 472 473 474
f 475 476 477
f 478 479 480
f 481 482 483
f 484 485 486
f 487 488 489
f 490 491 492
f 493 494 495
f 496 497 498
f 499 500 501
f 502 503 504
f 505 506 507
f 508 509 510
f 511 512 513
f 514 515 516
f 517 518 519
f 520 521 522
f 523 524 525
f 526 527 528
f 529 530 531
f 532 533 534
f 535 536 537
f 538 539 540
f 541 542 543
f 544 545 546
f 547 548 549
f 550 551 552
f 553 554 555
f 556 557 558
f 559 560 561
f 562 563 564
f 565 566 567
f 568 569 570
f 571 572 573
f 574 575 576
f 577 578 579
f 580 581 582
f 583 584 585
f 586 587 588
f 589 590 591
f 592 593 594
f 595 596 597
f 598 599 600
f 601 602 603
f 604 605 606
f 607 608 609
f 610 611 612
f 613 614 615
f 616 617 618
f 619 620 621
f 622 623 624
f 625 626 627
f 628 629 630
f 631 632 633
f 634 635 636
f 637 638 639
f 640 641 642
f 643 644 645
f 646 647 648
f 649 650 651
f 652 653 654
f 655 656 657
f 658 659 660
f 661 662 663
f 664 665 666
f 667 668 669
f 670 671 672
f 673 674 675
f 676 677 678
f 679 680 681
f 682 683 684
f 685 686 687
f 688 689 690
f 691 692 693
f 694 695 696
f 697 698 699
f 700 701 702
f 703 704 705
f 706 707 708
f 709 710 711
f 712 713 714
f 715 716 717
f 718 719 720
f 721 722 723
f 724 725 726
f 727 728 729
f 730 731 732
f 733 734 735
f 736 737 738
f 739 740 741
f 742 743 744
f 745 746 747
f 748 749 750
f 751 752 753
f 754 755 756
f 757 758 759
f 760 761 762
f 763 764 765
f 766 767 768
f 769 770 771
f 772 773 774
f 775 776 777
f 778 779 780
f 781 782 783
f 784 785 786
f 787 788 789
f 790 791 792
f 793 794 795
f 796 797 798
f 799 800 801
f 802 803 804
f 805 806 807
f 808 809 810
f 811 812 813
f 814 815 816
f 817 818 819
f 820 821 822
f 823 824 825
f 826 827 828
f 829 830 831
f 832 833 834
f 835 836 837
f 838 839 840
f 841 842 843
f 844 845 846
f 847 848 849
f 850 851 852
f 853 854 855
f 856 857 858
f 859 860 861
f 862 863 864
f 865 866 867
f 868 869 870
f 871 872 873
f 874 875 876
f 877 878 879
f 880 881 882
f 883 884 885
f 886 887 888
f 889 890 891
f 892 893 894
f 895 896 897
f 898 899 900
f 901 902 903
f 904 905 906
f 907 908 909
f 910 911 912
f 913 914 915
f 916 917 918
f 919 920 921
f 922 923 924
f 925 926 927
f 928 929 930
f 931 932 933
f 934 935 936
f 937 938 939
f 940 941 942
f 943 944 945
f 946 947 948
f 949 950 951
f 952 953 954
f 955 956 957
f 958 959 960
f 961 962 963
f 964 965 966
f 967 968 969
f 970 971 972
f 973 974 975
f 976 977 978
f 979 980 981
f 982 983 984
f 985 986 987
f 988 989 990
f 991 992 993
f 994 995 996
f 997 998 999
f 1000 1001 1002
f 1003 1004 1005
f 1006 1007 1008
f 1009 1010 1011
f 1012 1013 1014
f 1015 1016 1017
f 1018 1019 1020
f 1021 1022 1023
f 1024 1025 1026
f 1027 1028 1029
f 1030 1031 1032
f 1033 1034 1035
f 1036 1037 1038
f 1039 1040 1041
f 1042 1043 1044
f 1045 1046 1047
f 1048 1049 1050
f 1051 1052 1053
f 1054 1055 1056
f 1057 1058 1059
f 1060 1061 1062
f 1063 1064 1065
f 1066 1067 1068
f 1069 1070 1071
f 1072 1073 1074
f 1075 1076 1077
f 1078 1079 1080
f 1081 1082 1083
f 1084 1085 1086
f 1087 1088 1089
f 1090 1091 1092
