mtllib openarm_left_link7_collision_node_STL_BINARY__mesh.mtl
v -0.006716791471984562 0.02769695604270761 0.6530005192971089
v 0.0050010001650555025 -0.028057977101725307 0.6530005192971089
v 0.008411099833404712 -0.02723087058660978 0.6530005192971089
v 0.0015151059155076724 -0.028459752480916034 0.6530005192971089
v 0.0050010001650555025 -0.028057977101725307 0.6530005192971089
v -0.006716791471984562 0.02769695604270761 0.6530005192971089
v -0.0019937406533218627 -0.028430108467056847 0.6530005192971089
v 0.0015151059155076724 -0.028459752480916034 0.6530005192971089
v -0.006716791471984562 0.02769695604270761 0.6530005192971089
v -0.006716791471984562 0.02769695604270761 0.6530005192971089
v -0.005472348949955574 -0.027969493287097746 0.6530005192971089
v -0.0019937406533218627 -0.028430108467056847 0.6530005192971089
v -0.008867987100283914 -0.0270848878373664 0.6530005192971089
v -0.005472348949955574 -0.027969493287097746 0.6530005192971089
v -0.006716791471984562 0.02769695604270761 0.6530005192971089
v -0.010069505216129815 0.02666148884569841 0.6530005192971089
v -0.008867987100283914 -0.0270848878373664 0.6530005192971089
v -0.006716791471984562 0.02769695604270761 0.6530005192971089
v -0.012129180530633943 -0.02578970268673708 0.6530005192971089
v -0.008867987100283914 -0.0270848878373664 0.6530005192971089
v -0.010069505216129815 0.02666148884569841 0.6530005192971089
v -0.013269561444174127 0.025221862083594226 0.6530005192971089
v -0.012129180530633943 -0.02578970268673708 0.6530005192971089
v -0.010069505216129815 0.02666148884569841 0.6530005192971089
v -0.015206492192606502 -0.024103573990317262 0.6530005192971089
v -0.012129180530633943 -0.02578970268673708 0.6530005192971089
v -0.013269561444174127 0.025221862083594226 0.6530005192971089
v -0.016268448648686373 0.02339989582579083 0.6530005192971089
v -0.015206492192606502 -0.024103573990317262 0.6530005192971089
v -0.013269561444174127 0.025221862083594226 0.6530005192971089
v -0.018053273104798873 -0.022052058313651868 0.6530005192971089
v -0.015206492192606502 -0.024103573990317262 0.6530005192971089
v -0.016268448648686373 0.02339989582579083 0.6530005192971089
v -0.019020707080192878 0.021223212296500593 0.6530005192971089
v -0.018053273104798873 -0.022052058313651868 0.6530005192971089
v -0.016268448648686373 0.02339989582579083 0.6530005192971089
v -0.020626372363367063 -0.019666254977676045 0.6530005192971089
v -0.018053273104798873 -0.022052058313651868 0.6530005192971089
v -0.019020707080192878 0.021223212296500593 0.6530005192971089
v -0.021484616346392205 0.01872480481394101 0.6530005192971089
v -0.020626372363367063 -0.019666254977676045 0.6530005192971089
v -0.019020707080192878 0.021223212296500593 0.6530005192971089
v -0.022886778964871235 -0.016982333036231756 0.6530005192971089
v -0.020626372363367063 -0.019666254977676045 0.6530005192971089
v -0.021484616346392205 0.01872480481394101 0.6530005192971089
v -0.023622826744582603 0.01594255046273585 0.6530005192971089
v -0.022886778964871235 -0.016982333036231756 0.6530005192971089
v -0.021484616346392205 0.01872480481394101 0.6530005192971089
v -0.024800231204192835 -0.014040975283914903 0.6530005192971089
v -0.022886778964871235 -0.016982333036231756 0.6530005192971089
v -0.023622826744582603 0.01594255046273585 0.6530005192971089
v -0.025402922883209778 0.012918622630508358 0.6530005192971089
v -0.024800231204192835 -0.014040975283914903 0.6530005192971089
v -0.023622826744582603 0.01594255046273585 0.6530005192971089
v -0.026337722121946294 -0.010886771719181287 0.6530005192971089
v -0.024800231204192835 -0.014040975283914903 0.6530005192971089
v -0.025402922883209778 0.012918622630508358 0.6530005192971089
v -0.026797921499883692 0.009698861582802532 0.6530005192971089
v -0.026337722121946294 -0.010886771719181287 0.6530005192971089
v -0.025402922883209778 0.012918622630508358 0.6530005192971089
v -0.027475943916731582 -0.0075675348061549075 0.6530005192971089
v -0.026337722121946294 -0.010886771719181287 0.6530005192971089
v -0.026797921499883692 0.009698861582802532 0.6530005192971089
v -0.027786675819307938 0.006332075419775984 0.6530005192971089
v -0.027475943916731582 -0.0075675348061549075 0.6530005192971089
v -0.026797921499883692 0.009698861582802532 0.6530005192971089
v -0.028197644619345485 -0.004133581834670774 0.6530005192971089
v -0.027475943916731582 -0.0075675348061549075 0.6530005192971089
v -0.027786675819307938 0.006332075419775984 0.6530005192971089
v -0.02835419598786526 0.002869301455406814 0.6530005192971089
v -0.028197644619345485 -0.004133581834670774 0.6530005192971089
v -0.027786675819307938 0.006332075419775984 0.6530005192971089
v -0.02849188177016182 -0.000636968046878808 0.6530005192971089
v -0.028197644619345485 -0.004133581834670774 0.6530005192971089
v -0.02835419598786526 0.002869301455406814 0.6530005192971089
v -0.006716791471984562 0.02769695604270761 0.6530005192971089
v 0.0037421404708634642 0.02825338879313577 0.6530005192971089
v -0.0032622424721479026 0.028312564287279463 0.6530005192971089
v 0.007185795171629206 0.027579499600971502 0.6530005192971089
v 0.0037421404708634642 0.02825338879313577 0.6530005192971089
v -0.006716791471984562 0.02769695604270761 0.6530005192971089
v 0.010520535968753797 0.02648753292007755 0.6530005192971089
v 0.007185795171629206 0.027579499600971502 0.6530005192971089
v -0.006716791471984562 0.02769695604270761 0.6530005192971089
v 0.0037421404708634642 0.02825338879313577 0.6530005192971089
v 0.00024177401916168108 0.028498984736807786 0.6530005192971089
v -0.0032622424721479026 0.028312564287279463 0.6530005192971089
v -0.006716791471984562 0.02769695604270761 0.6530005192971089
v 0.013695810968509248 0.024994044537373084 0.6530005192971089
v 0.010520535968753797 0.02648753292007755 0.6530005192971089
v 0.01666348727218603 0.023121670867507493 0.6530005192971089
v 0.013695810968509248 0.024994044537373084 0.6530005192971089
v -0.006716791471984562 0.02769695604270761 0.6530005192971089
v 0.019378575291770783 0.020898795166833795 0.6530005192971089
v 0.01666348727218603 0.023121670867507493 0.6530005192971089
v -0.006716791471984562 0.02769695604270761 0.6530005192971089
v -0.006716791471984562 0.02769695604270761 0.6530005192971089
v 0.021799920163858566 0.018359116472597137 0.6530005192971089
v 0.019378575291770783 0.020898795166833795 0.6530005192971089
v 0.023890816869616138 0.015541130804082037 0.6530005192971089
v 0.021799920163858566 0.018359116472597137 0.6530005192971089
v -0.006716791471984562 0.02769695604270761 0.6530005192971089
v 0.025619567180609204 0.012487558004320998 0.6530005192971089
v 0.023890816869616138 0.015541130804082037 0.6530005192971089
v -0.006716791471984562 0.02769695604270761 0.6530005192971089
v -0.006716791471984562 0.02769695604270761 0.6530005192971089
v 0.02695996603272688 0.009244687519482375 0.6530005192971089
v 0.025619567180609204 0.012487558004320998 0.6530005192971089
v 0.02789169444001871 0.005861676017702988 0.6530005192971089
v 0.02695996603272688 0.009244687519482375 0.6530005192971089
v -0.006716791471984562 0.02769695604270761 0.6530005192971089
v 0.028400628485187873 0.0023898075762020243 0.6530005192971089
v 0.02789169444001871 0.005861676017702988 0.6530005192971089
v -0.006716791471984562 0.02769695604270761 0.6530005192971089
v -0.006716791471984562 0.02769695604270761 0.6530005192971089
v 0.028479052942648186 -0.001118287735649079 0.6530005192971089
v 0.028400628485187873 0.0023898075762020243 0.6530005192971089
v 0.028125779534144968 -0.004609431008883724 0.6530005192971089
v 0.028479052942648186 -0.001118287735649079 0.6530005192971089
v -0.006716791471984562 0.02769695604270761 0.6530005192971089
v 0.02734616218754482 -0.008030700111357203 0.6530005192971089
v 0.028125779534144968 -0.004609431008883724 0.6530005192971089
v -0.006716791471984562 0.02769695604270761 0.6530005192971089
v -0.006716791471984562 0.02769695604270761 0.6530005192971089
v 0.026152020742886695 -0.011330231251047707 0.6530005192971089
v 0.02734616218754482 -0.008030700111357203 0.6530005192971089
v 0.024561457846904444 -0.014458008499218522 0.6530005192971089
v 0.026152020742886695 -0.011330231251047707 0.6530005192971089
v -0.006716791471984562 0.02769695604270761 0.6530005192971089
v 0.02259858238746193 -0.01736661612028012 0.6530005192971089
v 0.024561457846904444 -0.014458008499218522 0.6530005192971089
v -0.006716791471984562 0.02769695604270761 0.6530005192971089
v -0.006716791471984562 0.02769695604270761 0.6530005192971089
v 0.020293149004644295 -0.020011965748490956 0.6530005192971089
v 0.02259858238746193 -0.01736661612028012 0.6530005192971089
v 0.01768010986380797 -0.022353951562243957 0.6530005192971089
v 0.020293149004644295 -0.020011965748490956 0.6530005192971089
v -0.006716791471984562 0.02769695604270761 0.6530005192971089
v 0.014799072014868853 -0.0243570758944478 0.6530005192971089
v 0.01768010986380797 -0.022353951562243957 0.6530005192971089
v -0.006716791471984562 0.02769695604270761 0.6530005192971089
v -0.006716791471984562 0.02769695604270761 0.6530005192971089
v 0.011693710882569874 -0.025990971846077127 0.6530005192971089
v 0.014799072014868853 -0.0243570758944478 0.6530005192971089
v 0.008411099833404712 -0.02723087058660978 0.6530005192971089
v 0.011693710882569874 -0.025990971846077127 0.6530005192971089
v -0.006716791471984562 0.02769695604270761 0.6530005192971089
v -0.007499000428662639 -0.028500001353677362 0.574625027293223
v 0.007534851432104972 -0.028500001353677362 0.5744441801166644
v -0.007532851100131299 -0.028500001353677362 0.5744441801166644
v 0.007501000283799131 -0.028500001353677362 0.574625027293223
v 0.007534851432104972 -0.028500001353677362 0.5744441801166644
v -0.007499000428662639 -0.028500001353677362 0.574625027293223
v -0.007499000428662639 -0.028500001353677362 0.5764327056017393
v 0.007501000283799131 -0.028500001353677362 0.574625027293223
v -0.007499000428662639 -0.028500001353677362 0.574625027293223
v 0.007501000283799131 -0.028500001353677362 0.5764327056017393
v 0.007501000283799131 -0.028500001353677362 0.574625027293223
v -0.007499000428662639 -0.028500001353677362 0.5764327056017393
v -0.007459619876407642 -0.028500001353677362 0.5766271636187881
v 0.007501000283799131 -0.028500001353677362 0.5764327056017393
v -0.007499000428662639 -0.028500001353677362 0.5764327056017393
v 0.0074616197315441335 -0.028500001353677362 0.5766271636187881
v 0.007501000283799131 -0.028500001353677362 0.5764327056017393
v -0.007459619876407642 -0.028500001353677362 0.5766271636187881
v -0.00734768187136553 -0.028500001353677362 0.5767910430211032
v 0.0074616197315441335 -0.028500001353677362 0.5766271636187881
v -0.007459619876407642 -0.028500001353677362 0.5766271636187881
v 0.007349681726502022 -0.028500001353677362 0.5767910430211032
v 0.0074616197315441335 -0.028500001353677362 0.5766271636187881
v -0.00734768187136553 -0.028500001353677362 0.5767910430211032
v -0.007180818421972657 -0.028500001353677362 0.5768984649012054
v 0.007349681726502022 -0.028500001353677362 0.5767910430211032
v -0.00734768187136553 -0.028500001353677362 0.5767910430211032
v 0.0071828187539463295 -0.028500001353677362 0.5768984649012054
v 0.007349681726502022 -0.028500001353677362 0.5767910430211032
v -0.007180818421972657 -0.028500001353677362 0.5768984649012054
v -0.004372637479570229 -0.028500001353677362 0.5777601592780712
v 0.0071828187539463295 -0.028500001353677362 0.5768984649012054
v -0.007180818421972657 -0.028500001353677362 0.5768984649012054
v 0.004374637334706721 -0.028500001353677362 0.5777601592780712
v 0.0071828187539463295 -0.028500001353677362 0.5768984649012054
v -0.004372637479570229 -0.028500001353677362 0.5777601592780712
v -0.0014677086573589015 -0.028500001353677362 0.5781958282440769
v 0.004374637334706721 -0.028500001353677362 0.5777601592780712
v -0.004372637479570229 -0.028500001353677362 0.5777601592780712
v 0.001469708750913984 -0.028500001353677362 0.5781958282440769
v 0.004374637334706721 -0.028500001353677362 0.5777601592780712
v -0.0014677086573589015 -0.028500001353677362 0.5781958282440769
v 0.007631820564365788 -0.028500001353677362 0.5742878690740838
v -0.007532851100131299 -0.028500001353677362 0.5744441801166644
v 0.007534851432104972 -0.028500001353677362 0.5744441801166644
v -0.007629820709229296 -0.028500001353677362 0.5742878690740838
v -0.007532851100131299 -0.028500001353677362 0.5744441801166644
v 0.007631820564365788 -0.028500001353677362 0.5742878690740838
v 0.007778777968806827 -0.028500001353677362 0.5741771512953875
v -0.007629820709229296 -0.028500001353677362 0.5742878690740838
v 0.007631820564365788 -0.028500001353677362 0.5742878690740838
v -0.007776778113670335 -0.028500001353677362 0.5741771512953875
v -0.007629820709229296 -0.028500001353677362 0.5742878690740838
v 0.007778777968806827 -0.028500001353677362 0.5741771512953875
v 0.010144348626361932 -0.028500001353677362 0.5727610745679712
v -0.007776778113670335 -0.028500001353677362 0.5741771512953875
v 0.007778777968806827 -0.028500001353677362 0.5741771512953875
v -0.01014234877122544 -0.028500001353677362 0.5727610745679712
v -0.007776778113670335 -0.028500001353677362 0.5741771512953875
v 0.010144348626361932 -0.028500001353677362 0.5727610745679712
v 0.012258157358659427 -0.028500001353677362 0.5709909939174906
v -0.01014234877122544 -0.028500001353677362 0.5727610745679712
v 0.010144348626361932 -0.028500001353677362 0.5727610745679712
v 0.014067739201201745 -0.028500001353677362 0.5689109767288514
v -0.01014234877122544 -0.028500001353677362 0.5727610745679712
v 0.012258157358659427 -0.028500001353677362 0.5709909939174906
v 0.015528178952575744 -0.028500001353677362 0.566572475641216
v -0.01014234877122544 -0.028500001353677362 0.5727610745679712
v 0.014067739201201745 -0.028500001353677362 0.5689109767288514
v 0.016603230311316164 -0.028500001353677362 0.5640337181964128
v -0.01014234877122544 -0.028500001353677362 0.5727610745679712
v 0.015528178952575744 -0.028500001353677362 0.566572475641216
v 0.017266207561433822 -0.028500001353677362 0.5613575706083651
v -0.01014234877122544 -0.028500001353677362 0.5727610745679712
v 0.016603230311316164 -0.028500001353677362 0.5640337181964128
v 0.017500655051817526 -0.028500001353677362 0.5586105001653863
v -0.01014234877122544 -0.028500001353677362 0.5727610745679712
v 0.017266207561433822 -0.028500001353677362 0.5613575706083651
v 0.017300755368860887 -0.028500001353677362 0.5558607441754049
v -0.01014234877122544 -0.028500001353677362 0.5727610745679712
v 0.017500655051817526 -0.028500001353677362 0.5586105001653863
v 0.01667147143394221 -0.028500001353677362 0.5531764789111904
v -0.01014234877122544 -0.028500001353677362 0.5727610745679712
v 0.017300755368860887 -0.028500001353677362 0.5558607441754049
v 0.01562841871106002 -0.028500001353677362 0.5506243547665335
v -0.01014234877122544 -0.028500001353677362 0.5727610745679712
v 0.01667147143394221 -0.028500001353677362 0.5531764789111904
v 0.01419748850546021 -0.028500001353677362 0.5482677262366309
v -0.01014234877122544 -0.028500001353677362 0.5727610745679712
v 0.01562841871106002 -0.028500001353677362 0.5506243547665335
v 0.012414195650372606 -0.028500001353677362 0.5461651260391065
v -0.01014234877122544 -0.028500001353677362 0.5727610745679712
v 0.01419748850546021 -0.028500001353677362 0.5482677262366309
v 0.01032280398762131 -0.028500001353677362 0.5443686171647144
v -0.01014234877122544 -0.028500001353677362 0.5727610745679712
v 0.012414195650372606 -0.028500001353677362 0.5461651260391065
v 0.007975221059039472 -0.028500001353677362 0.5429229383851109
v -0.01014234877122544 -0.028500001353677362 0.5727610745679712
v 0.01032280398762131 -0.028500001353677362 0.5443686171647144
v 0.005429714937615626 -0.028500001353677362 0.5418638563035572
v -0.01014234877122544 -0.028500001353677362 0.5727610745679712
v 0.007975221059039472 -0.028500001353677362 0.5429229383851109
v 0.002749466549812618 -0.028500001353677362 0.5412176770736465
v -0.01014234877122544 -0.028500001353677362 0.5727610745679712
v 0.005429714937615626 -0.028500001353677362 0.5418638563035572
v 9.999993965029407e-07 -0.028500001353677362 0.5410005139773943
v -0.01014234877122544 -0.028500001353677362 0.5727610745679712
v 0.002749466549812618 -0.028500001353677362 0.5412176770736465
v -0.0027474664562575357 -0.028500001353677362 0.5412176770736465
v -0.01014234877122544 -0.028500001353677362 0.5727610745679712
v 9.999993965029407e-07 -0.028500001353677362 0.5410005139773943
v -0.005427715082479134 -0.028500001353677362 0.5418638563035572
v -0.01014234877122544 -0.028500001353677362 0.5727610745679712
v -0.0027474664562575357 -0.028500001353677362 0.5412176770736465
v -0.00797322120390298 -0.028500001353677362 0.5429229383851109
v -0.01014234877122544 -0.028500001353677362 0.5727610745679712
v -0.005427715082479134 -0.028500001353677362 0.5418638563035572
v -0.010320804132484818 -0.028500001353677362 0.5443686171647144
v -0.01014234877122544 -0.028500001353677362 0.5727610745679712
v -0.00797322120390298 -0.028500001353677362 0.5429229383851109
v -0.012256157503522935 -0.028500001353677362 0.5709909939174906
v -0.01014234877122544 -0.028500001353677362 0.5727610745679712
v -0.010320804132484818 -0.028500001353677362 0.5443686171647144
v -0.012412195795236114 -0.028500001353677362 0.5461651260391065
v -0.012256157503522935 -0.028500001353677362 0.5709909939174906
v -0.010320804132484818 -0.028500001353677362 0.5443686171647144
v -0.014065739346065254 -0.028500001353677362 0.5689109767288514
v -0.012256157503522935 -0.028500001353677362 0.5709909939174906
v -0.012412195795236114 -0.028500001353677362 0.5461651260391065
v -0.014195488650323718 -0.028500001353677362 0.5482677262366309
v -0.014065739346065254 -0.028500001353677362 0.5689109767288514
v -0.012412195795236114 -0.028500001353677362 0.5461651260391065
v -0.015526179097439252 -0.028500001353677362 0.566572475641216
v -0.014065739346065254 -0.028500001353677362 0.5689109767288514
v -0.014195488650323718 -0.028500001353677362 0.5482677262366309
v -0.01562641885592353 -0.028500001353677362 0.5506243547665335
v -0.015526179097439252 -0.028500001353677362 0.566572475641216
v -0.014195488650323718 -0.028500001353677362 0.5482677262366309
v -0.01660122950250531 -0.028500001353677362 0.5640337181964128
v -0.015526179097439252 -0.028500001353677362 0.566572475641216
v -0.01562641885592353 -0.028500001353677362 0.5506243547665335
v -0.016669470625131355 -0.028500001353677362 0.5531764789111904
v -0.01660122950250531 -0.028500001353677362 0.5640337181964128
v -0.01562641885592353 -0.028500001353677362 0.5506243547665335
v -0.017264206752622968 -0.028500001353677362 0.5613575706083651
v -0.01660122950250531 -0.028500001353677362 0.5640337181964128
v -0.016669470625131355 -0.028500001353677362 0.5531764789111904
v -0.017298756467398757 -0.028500001353677362 0.5558607441754049
v -0.017264206752622968 -0.028500001353677362 0.5613575706083651
v -0.016669470625131355 -0.028500001353677362 0.5531764789111904
v -0.017498654243006673 -0.028500001353677362 0.5586105001653863
v -0.017264206752622968 -0.028500001353677362 0.5613575706083651
v -0.017298756467398757 -0.028500001353677362 0.5558607441754049
v -0.004372637479570229 -0.029000001377426088 0.5777601592780712
v -0.007180818421972657 -0.028500001353677362 0.5768984649012054
v -0.007180818421972657 -0.029000001377426088 0.5768984649012054
v -0.004372637479570229 -0.028500001353677362 0.5777601592780712
v -0.007180818421972657 -0.028500001353677362 0.5768984649012054
v -0.004372637479570229 -0.029000001377426088 0.5777601592780712
v -0.0014677086573589015 -0.029000001377426088 0.5781958282440769
v -0.004372637479570229 -0.028500001353677362 0.5777601592780712
v -0.004372637479570229 -0.029000001377426088 0.5777601592780712
v -0.0014677086573589015 -0.028500001353677362 0.5781958282440769
v -0.004372637479570229 -0.028500001353677362 0.5777601592780712
v -0.0014677086573589015 -0.029000001377426088 0.5781958282440769
v 0.001469708750913984 -0.029000001377426088 0.5781958282440769
v -0.0014677086573589015 -0.028500001353677362 0.5781958282440769
v -0.0014677086573589015 -0.029000001377426088 0.5781958282440769
v 0.001469708750913984 -0.028500001353677362 0.5781958282440769
v -0.0014677086573589015 -0.028500001353677362 0.5781958282440769
v 0.001469708750913984 -0.029000001377426088 0.5781958282440769
v 0.004374637334706721 -0.029000001377426088 0.5777601592780712
v 0.001469708750913984 -0.028500001353677362 0.5781958282440769
v 0.001469708750913984 -0.029000001377426088 0.5781958282440769
v 0.004374637334706721 -0.028500001353677362 0.5777601592780712
v 0.001469708750913984 -0.028500001353677362 0.5781958282440769
v 0.004374637334706721 -0.029000001377426088 0.5777601592780712
v 0.0071828187539463295 -0.029000001377426088 0.5768984649012054
v 0.004374637334706721 -0.028500001353677362 0.5777601592780712
v 0.004374637334706721 -0.029000001377426088 0.5777601592780712
v 0.0071828187539463295 -0.028500001353677362 0.5768984649012054
v 0.004374637334706721 -0.028500001353677362 0.5777601592780712
v 0.0071828187539463295 -0.029000001377426088 0.5768984649012054
v 0.007349681726502022 -0.029000001377426088 0.5767910430211032
v 0.0071828187539463295 -0.028500001353677362 0.5768984649012054
v 0.0071828187539463295 -0.029000001377426088 0.5768984649012054
v 0.007349681726502022 -0.028500001353677362 0.5767910430211032
v 0.0071828187539463295 -0.028500001353677362 0.5768984649012054
v 0.007349681726502022 -0.029000001377426088 0.5767910430211032
v 0.0074616197315441335 -0.029000001377426088 0.5766271636187881
v 0.007349681726502022 -0.028500001353677362 0.5767910430211032
v 0.007349681726502022 -0.029000001377426088 0.5767910430211032
v 0.0074616197315441335 -0.028500001353677362 0.5766271636187881
v 0.007349681726502022 -0.028500001353677362 0.5767910430211032
v 0.0074616197315441335 -0.029000001377426088 0.5766271636187881
v 0.007501000283799131 -0.029000001377426088 0.5764327056017393
v 0.0074616197315441335 -0.028500001353677362 0.5766271636187881
v 0.0074616197315441335 -0.029000001377426088 0.5766271636187881
v 0.007501000283799131 -0.028500001353677362 0.5764327056017393
v 0.0074616197315441335 -0.028500001353677362 0.5766271636187881
v 0.007501000283799131 -0.029000001377426088 0.5764327056017393
v 0.007501000283799131 -0.029000001377426088 0.5764327056017393
v 0.007501000283799131 -0.028500001353677362 0.574625027293223
v 0.007501000283799131 -0.028500001353677362 0.5764327056017393
v 0.007501000283799131 -0.03450000163866207 0.574625027293223
v 0.007501000283799131 -0.028500001353677362 0.574625027293223
v 0.007501000283799131 -0.029000001377426088 0.5764327056017393
v 0.007501000283799131 -0.03450000163866207 0.5990015543299521
v 0.007501000283799131 -0.03450000163866207 0.574625027293223
v 0.007501000283799131 -0.029000001377426088 0.5764327056017393
v 0.007501000283799131 -0.03450000163866207 0.5990015543299521
v 0.007501000283799131 -0.029000001377426088 0.5990005167322465
v 0.007501000283799131 -0.029000001377426088 0.5990015543299521
v 0.007501000283799131 -0.029000001377426088 0.5764327056017393
v 0.007501000283799131 -0.029000001377426088 0.5990005167322465
v 0.007501000283799131 -0.03450000163866207 0.5990015543299521
v 0.007534851432104972 -0.031500001496169716 0.5744441801166644
v 0.007501000283799131 -0.028500001353677362 0.574625027293223
v 0.007501000283799131 -0.03450000163866207 0.574625027293223
v 0.007534851432104972 -0.028500001353677362 0.5744441801166644
v 0.007501000283799131 -0.028500001353677362 0.574625027293223
v 0.007534851432104972 -0.031500001496169716 0.5744441801166644
v 0.007631820564365788 -0.031500001496169716 0.5742878690740838
v 0.007534851432104972 -0.028500001353677362 0.5744441801166644
v 0.007534851432104972 -0.031500001496169716 0.5744441801166644
v 0.007631820564365788 -0.028500001353677362 0.5742878690740838
v 0.007534851432104972 -0.028500001353677362 0.5744441801166644
v 0.007631820564365788 -0.031500001496169716 0.5742878690740838
v 0.007778777968806827 -0.028500001353677362 0.5741771512953875
v 0.007631820564365788 -0.028500001353677362 0.5742878690740838
v 0.007631820564365788 -0.031500001496169716 0.5742878690740838
v 0.007631820564365788 -0.031500001496169716 0.5742878690740838
v 0.007778777968806827 -0.03450000163866207 0.5741771512953875
v 0.007778777968806827 -0.028500001353677362 0.5741771512953875
v 0.007631820564365788 -0.03450000163866207 0.5742878690740838
v 0.007778777968806827 -0.03450000163866207 0.5741771512953875
v 0.007631820564365788 -0.031500001496169716 0.5742878690740838
v 0.007534851432104972 -0.031500001496169716 0.5744441801166644
v 0.007631820564365788 -0.03450000163866207 0.5742878690740838
v 0.007631820564365788 -0.031500001496169716 0.5742878690740838
v 0.007534851432104972 -0.03450000163866207 0.5744441801166644
v 0.007631820564365788 -0.03450000163866207 0.5742878690740838
v 0.007534851432104972 -0.031500001496169716 0.5744441801166644
v 0.007501000283799131 -0.03450000163866207 0.574625027293223
v 0.007534851432104972 -0.03450000163866207 0.5744441801166644
v 0.007534851432104972 -0.031500001496169716 0.5744441801166644
v 0.007501000283799131 -0.029000001377426088 0.5990005167322465
v 0.001469708750913984 -0.029000001377426088 0.5781958282440769
v -0.007499000428662639 -0.029000001377426088 0.5990005167322465
v 0.004374637334706721 -0.029000001377426088 0.5777601592780712
v 0.001469708750913984 -0.029000001377426088 0.5781958282440769
v 0.007501000283799131 -0.029000001377426088 0.5990005167322465
v 0.0071828187539463295 -0.029000001377426088 0.5768984649012054
v 0.004374637334706721 -0.029000001377426088 0.5777601592780712
v 0.007501000283799131 -0.029000001377426088 0.5990005167322465
v -0.007499000428662639 -0.029000001377426088 0.5990005167322465
v -0.007459619876407642 -0.029000001377426088 0.5766271636187881
v -0.007499000428662639 -0.029000001377426088 0.5764327056017393
v -0.00734768187136553 -0.029000001377426088 0.5767910430211032
v -0.007459619876407642 -0.029000001377426088 0.5766271636187881
v -0.007499000428662639 -0.029000001377426088 0.5990005167322465
v -0.007180818421972657 -0.029000001377426088 0.5768984649012054
v -0.00734768187136553 -0.029000001377426088 0.5767910430211032
v -0.007499000428662639 -0.029000001377426088 0.5990005167322465
v -0.007499000428662639 -0.029000001377426088 0.5990005167322465
v -0.004372637479570229 -0.029000001377426088 0.5777601592780712
v -0.007180818421972657 -0.029000001377426088 0.5768984649012054
v -0.0014677086573589015 -0.029000001377426088 0.5781958282440769
v -0.004372637479570229 -0.029000001377426088 0.5777601592780712
v -0.007499000428662639 -0.029000001377426088 0.5990005167322465
v 0.001469708750913984 -0.029000001377426088 0.5781958282440769
v -0.0014677086573589015 -0.029000001377426088 0.5781958282440769
v -0.007499000428662639 -0.029000001377426088 0.5990005167322465
v 0.007501000283799131 -0.029000001377426088 0.5990005167322465
v 0.007349681726502022 -0.029000001377426088 0.5767910430211032
v 0.0071828187539463295 -0.029000001377426088 0.5768984649012054
v 0.0074616197315441335 -0.029000001377426088 0.5766271636187881
v 0.007349681726502022 -0.029000001377426088 0.5767910430211032
v 0.007501000283799131 -0.029000001377426088 0.5990005167322465
v 0.007501000283799131 -0.029000001377426088 0.5764327056017393
v 0.0074616197315441335 -0.029000001377426088 0.5766271636187881
v 0.007501000283799131 -0.029000001377426088 0.5990005167322465
v 0.010144348626361932 -0.03450000163866207 0.5727610745679712
v 0.007778777968806827 -0.028500001353677362 0.5741771512953875
v 0.007778777968806827 -0.03450000163866207 0.5741771512953875
v 0.010144348626361932 -0.028500001353677362 0.5727610745679712
v 0.007778777968806827 -0.028500001353677362 0.5741771512953875
v 0.010144348626361932 -0.03450000163866207 0.5727610745679712
v 0.012258157358659427 -0.03450000163866207 0.5709909939174906
v 0.010144348626361932 -0.028500001353677362 0.5727610745679712
v 0.010144348626361932 -0.03450000163866207 0.5727610745679712
v 0.012258157358659427 -0.028500001353677362 0.5709909939174906
v 0.010144348626361932 -0.028500001353677362 0.5727610745679712
v 0.012258157358659427 -0.03450000163866207 0.5709909939174906
v 0.014067739201201745 -0.03450000163866207 0.5689109767288514
v 0.012258157358659427 -0.028500001353677362 0.5709909939174906
v 0.012258157358659427 -0.03450000163866207 0.5709909939174906
v 0.014067739201201745 -0.028500001353677362 0.5689109767288514
v 0.012258157358659427 -0.028500001353677362 0.5709909939174906
v 0.014067739201201745 -0.03450000163866207 0.5689109767288514
v 0.015528178952575744 -0.03450000163866207 0.566572475641216
v 0.014067739201201745 -0.028500001353677362 0.5689109767288514
v 0.014067739201201745 -0.03450000163866207 0.5689109767288514
v 0.015528178952575744 -0.028500001353677362 0.566572475641216
v 0.014067739201201745 -0.028500001353677362 0.5689109767288514
v 0.015528178952575744 -0.03450000163866207 0.566572475641216
v 0.016603230311316164 -0.03450000163866207 0.5640337181964128
v 0.015528178952575744 -0.028500001353677362 0.566572475641216
v 0.015528178952575744 -0.03450000163866207 0.566572475641216
v 0.016603230311316164 -0.028500001353677362 0.5640337181964128
v 0.015528178952575744 -0.028500001353677362 0.566572475641216
v 0.016603230311316164 -0.03450000163866207 0.5640337181964128
v 0.017266207561433822 -0.03450000163866207 0.5613575706083651
v 0.016603230311316164 -0.028500001353677362 0.5640337181964128
v 0.016603230311316164 -0.03450000163866207 0.5640337181964128
v 0.017266207561433822 -0.028500001353677362 0.5613575706083651
v 0.016603230311316164 -0.028500001353677362 0.5640337181964128
v 0.017266207561433822 -0.03450000163866207 0.5613575706083651
v 0.017500655051817526 -0.03450000163866207 0.5586105001653863
v 0.017266207561433822 -0.028500001353677362 0.5613575706083651
v 0.017266207561433822 -0.03450000163866207 0.5613575706083651
v 0.017500655051817526 -0.028500001353677362 0.5586105001653863
v 0.017266207561433822 -0.028500001353677362 0.5613575706083651
v 0.017500655051817526 -0.03450000163866207 0.5586105001653863
v 0.017300755368860887 -0.03450000163866207 0.5558607441754049
v 0.017500655051817526 -0.028500001353677362 0.5586105001653863
v 0.017500655051817526 -0.03450000163866207 0.5586105001653863
v 0.017300755368860887 -0.028500001353677362 0.5558607441754049
v 0.017500655051817526 -0.028500001353677362 0.5586105001653863
v 0.017300755368860887 -0.03450000163866207 0.5558607441754049
v 0.01667147143394221 -0.03450000163866207 0.5531764789111904
v 0.017300755368860887 -0.028500001353677362 0.5558607441754049
v 0.017300755368860887 -0.03450000163866207 0.5558607441754049
v 0.01667147143394221 -0.028500001353677362 0.5531764789111904
v 0.017300755368860887 -0.028500001353677362 0.5558607441754049
v 0.01667147143394221 -0.03450000163866207 0.5531764789111904
v 0.01562841871106002 -0.03450000163866207 0.5506243547665335
v 0.01667147143394221 -0.028500001353677362 0.5531764789111904
v 0.01667147143394221 -0.03450000163866207 0.5531764789111904
v 0.01562841871106002 -0.028500001353677362 0.5506243547665335
v 0.01667147143394221 -0.028500001353677362 0.5531764789111904
v 0.01562841871106002 -0.03450000163866207 0.5506243547665335
v 0.01419748850546021 -0.03450000163866207 0.5482677262366309
v 0.01562841871106002 -0.028500001353677362 0.5506243547665335
v 0.01562841871106002 -0.03450000163866207 0.5506243547665335
v 0.01419748850546021 -0.028500001353677362 0.5482677262366309
v 0.01562841871106002 -0.028500001353677362 0.5506243547665335
v 0.01419748850546021 -0.03450000163866207 0.5482677262366309
v 0.012414195650372606 -0.03450000163866207 0.5461651260391065
v 0.01419748850546021 -0.028500001353677362 0.5482677262366309
v 0.01419748850546021 -0.03450000163866207 0.5482677262366309
v 0.012414195650372606 -0.028500001353677362 0.5461651260391065
v 0.01419748850546021 -0.028500001353677362 0.5482677262366309
v 0.012414195650372606 -0.03450000163866207 0.5461651260391065
v 0.01032280398762131 -0.03450000163866207 0.5443686171647144
v 0.012414195650372606 -0.028500001353677362 0.5461651260391065
v 0.012414195650372606 -0.03450000163866207 0.5461651260391065
v 0.01032280398762131 -0.028500001353677362 0.5443686171647144
v 0.012414195650372606 -0.028500001353677362 0.5461651260391065
v 0.01032280398762131 -0.03450000163866207 0.5443686171647144
v 0.007975221059039472 -0.03450000163866207 0.5429229383851109
v 0.01032280398762131 -0.028500001353677362 0.5443686171647144
v 0.01032280398762131 -0.03450000163866207 0.5443686171647144
v 0.007975221059039472 -0.028500001353677362 0.5429229383851109
v 0.01032280398762131 -0.028500001353677362 0.5443686171647144
v 0.007975221059039472 -0.03450000163866207 0.5429229383851109
v 0.005429714937615626 -0.03450000163866207 0.5418638563035572
v 0.007975221059039472 -0.028500001353677362 0.5429229383851109
v 0.007975221059039472 -0.03450000163866207 0.5429229383851109
v 0.005429714937615626 -0.028500001353677362 0.5418638563035572
v 0.007975221059039472 -0.028500001353677362 0.5429229383851109
v 0.005429714937615626 -0.03450000163866207 0.5418638563035572
v 0.002749466549812618 -0.03450000163866207 0.5412176770736465
v 0.005429714937615626 -0.028500001353677362 0.5418638563035572
v 0.005429714937615626 -0.03450000163866207 0.5418638563035572
v 0.002749466549812618 -0.028500001353677362 0.5412176770736465
v 0.005429714937615626 -0.028500001353677362 0.5418638563035572
v 0.002749466549812618 -0.03450000163866207 0.5412176770736465
v 9.999993965029407e-07 -0.03450000163866207 0.5410005139773943
v 0.002749466549812618 -0.028500001353677362 0.5412176770736465
v 0.002749466549812618 -0.03450000163866207 0.5412176770736465
v 9.999993965029407e-07 -0.028500001353677362 0.5410005139773943
v 0.002749466549812618 -0.028500001353677362 0.5412176770736465
v 9.999993965029407e-07 -0.03450000163866207 0.5410005139773943
v -0.0027474664562575357 -0.03450000163866207 0.5412176770736465
v 9.999993965029407e-07 -0.028500001353677362 0.5410005139773943
v 9.999993965029407e-07 -0.03450000163866207 0.5410005139773943
v -0.0027474664562575357 -0.028500001353677362 0.5412176770736465
v 9.999993965029407e-07 -0.028500001353677362 0.5410005139773943
v -0.0027474664562575357 -0.03450000163866207 0.5412176770736465
v -0.005427715082479134 -0.03450000163866207 0.5418638563035572
v -0.0027474664562575357 -0.028500001353677362 0.5412176770736465
v -0.0027474664562575357 -0.03450000163866207 0.5412176770736465
v -0.005427715082479134 -0.028500001353677362 0.5418638563035572
v -0.0027474664562575357 -0.028500001353677362 0.5412176770736465
v -0.005427715082479134 -0.03450000163866207 0.5418638563035572
v -0.00797322120390298 -0.03450000163866207 0.5429229383851109
v -0.005427715082479134 -0.028500001353677362 0.5418638563035572
v -0.005427715082479134 -0.03450000163866207 0.5418638563035572
v -0.00797322120390298 -0.028500001353677362 0.5429229383851109
v -0.005427715082479134 -0.028500001353677362 0.5418638563035572
v -0.00797322120390298 -0.03450000163866207 0.5429229383851109
v -0.010320804132484818 -0.03450000163866207 0.5443686171647144
v -0.00797322120390298 -0.028500001353677362 0.5429229383851109
v -0.00797322120390298 -0.03450000163866207 0.5429229383851109
v -0.010320804132484818 -0.028500001353677362 0.5443686171647144
v -0.00797322120390298 -0.028500001353677362 0.5429229383851109
v -0.010320804132484818 -0.03450000163866207 0.5443686171647144
v -0.012412195795236114 -0.03450000163866207 0.5461651260391065
v -0.010320804132484818 -0.028500001353677362 0.5443686171647144
v -0.010320804132484818 -0.03450000163866207 0.5443686171647144
v -0.012412195795236114 -0.028500001353677362 0.5461651260391065
v -0.010320804132484818 -0.028500001353677362 0.5443686171647144
v -0.012412195795236114 -0.03450000163866207 0.5461651260391065
v -0.014195488650323718 -0.03450000163866207 0.5482677262366309
v -0.012412195795236114 -0.028500001353677362 0.5461651260391065
v -0.012412195795236114 -0.03450000163866207 0.5461651260391065
v -0.014195488650323718 -0.028500001353677362 0.5482677262366309
v -0.012412195795236114 -0.028500001353677362 0.5461651260391065
v -0.014195488650323718 -0.03450000163866207 0.5482677262366309
v -0.01562641885592353 -0.03450000163866207 0.5506243547665335
v -0.014195488650323718 -0.028500001353677362 0.5482677262366309
v -0.014195488650323718 -0.03450000163866207 0.5482677262366309
v -0.01562641885592353 -0.028500001353677362 0.5506243547665335
v -0.014195488650323718 -0.028500001353677362 0.5482677262366309
v -0.01562641885592353 -0.03450000163866207 0.5506243547665335
v -0.016669470625131355 -0.03450000163866207 0.5531764789111904
v -0.01562641885592353 -0.028500001353677362 0.5506243547665335
v -0.01562641885592353 -0.03450000163866207 0.5506243547665335
v -0.016669470625131355 -0.028500001353677362 0.5531764789111904
v -0.01562641885592353 -0.028500001353677362 0.5506243547665335
v -0.016669470625131355 -0.03450000163866207 0.5531764789111904
v -0.017298756467398757 -0.03450000163866207 0.5558607441754049
v -0.016669470625131355 -0.028500001353677362 0.5531764789111904
v -0.016669470625131355 -0.03450000163866207 0.5531764789111904
v -0.017298756467398757 -0.028500001353677362 0.5558607441754049
v -0.016669470625131355 -0.028500001353677362 0.5531764789111904
v -0.017298756467398757 -0.03450000163866207 0.5558607441754049
v -0.017498654243006673 -0.03450000163866207 0.5586105001653863
v -0.017298756467398757 -0.028500001353677362 0.5558607441754049
v -0.017298756467398757 -0.03450000163866207 0.5558607441754049
v -0.017498654243006673 -0.028500001353677362 0.5586105001653863
v -0.017298756467398757 -0.028500001353677362 0.5558607441754049
v -0.017498654243006673 -0.03450000163866207 0.5586105001653863
v -0.017264206752622968 -0.03450000163866207 0.5613575706083651
v -0.017498654243006673 -0.028500001353677362 0.5586105001653863
v -0.017498654243006673 -0.03450000163866207 0.5586105001653863
v -0.017264206752622968 -0.028500001353677362 0.5613575706083651
v -0.017498654243006673 -0.028500001353677362 0.5586105001653863
v -0.017264206752622968 -0.03450000163866207 0.5613575706083651
v -0.01660122950250531 -0.03450000163866207 0.5640337181964128
v -0.017264206752622968 -0.028500001353677362 0.5613575706083651
v -0.017264206752622968 -0.03450000163866207 0.5613575706083651
v -0.01660122950250531 -0.028500001353677362 0.5640337181964128
v -0.017264206752622968 -0.028500001353677362 0.5613575706083651
v -0.01660122950250531 -0.03450000163866207 0.5640337181964128
v -0.015526179097439252 -0.03450000163866207 0.566572475641216
v -0.01660122950250531 -0.028500001353677362 0.5640337181964128
v -0.01660122950250531 -0.03450000163866207 0.5640337181964128
v -0.015526179097439252 -0.028500001353677362 0.566572475641216
v -0.01660122950250531 -0.028500001353677362 0.5640337181964128
v -0.015526179097439252 -0.03450000163866207 0.566572475641216
v -0.014065739346065254 -0.03450000163866207 0.5689109767288514
v -0.015526179097439252 -0.028500001353677362 0.566572475641216
v -0.015526179097439252 -0.03450000163866207 0.566572475641216
v -0.014065739346065254 -0.028500001353677362 0.5689109767288514
v -0.015526179097439252 -0.028500001353677362 0.566572475641216
v -0.014065739346065254 -0.03450000163866207 0.5689109767288514
v -0.012256157503522935 -0.03450000163866207 0.5709909939174906
v -0.014065739346065254 -0.028500001353677362 0.5689109767288514
v -0.014065739346065254 -0.03450000163866207 0.5689109767288514
v -0.012256157503522935 -0.028500001353677362 0.5709909939174906
v -0.014065739346065254 -0.028500001353677362 0.5689109767288514
v -0.012256157503522935 -0.03450000163866207 0.5709909939174906
v -0.01014234877122544 -0.03450000163866207 0.5727610745679712
v -0.012256157503522935 -0.028500001353677362 0.5709909939174906
v -0.012256157503522935 -0.03450000163866207 0.5709909939174906
v -0.01014234877122544 -0.028500001353677362 0.5727610745679712
v -0.012256157503522935 -0.028500001353677362 0.5709909939174906
v -0.01014234877122544 -0.03450000163866207 0.5727610745679712
v -0.007776778113670335 -0.03450000163866207 0.5741771512953875
v -0.01014234877122544 -0.028500001353677362 0.5727610745679712
v -0.01014234877122544 -0.03450000163866207 0.5727610745679712
v -0.007776778113670335 -0.028500001353677362 0.5741771512953875
v -0.01014234877122544 -0.028500001353677362 0.5727610745679712
v -0.007776778113670335 -0.03450000163866207 0.5741771512953875
v -0.007499000428662639 -0.028500001353677362 0.574625027293223
v -0.007499000428662639 -0.029000001377426088 0.5764327056017393
v -0.007499000428662639 -0.028500001353677362 0.5764327056017393
v -0.007499000428662639 -0.03450000163866207 0.574625027293223
v -0.007499000428662639 -0.029000001377426088 0.5764327056017393
v -0.007499000428662639 -0.028500001353677362 0.574625027293223
v -0.007499000428662639 -0.03450000163866207 0.5990015543299521
v -0.007499000428662639 -0.029000001377426088 0.5764327056017393
v -0.007499000428662639 -0.03450000163866207 0.574625027293223
v -0.007499000428662639 -0.029000001377426088 0.5990005167322465
v -0.007499000428662639 -0.029000001377426088 0.5764327056017393
v -0.007499000428662639 -0.03450000163866207 0.5990015543299521
v -0.007499000428662639 -0.029000001377426088 0.5990015543299521
v -0.007499000428662639 -0.029000001377426088 0.5990005167322465
v -0.007499000428662639 -0.03450000163866207 0.5990015543299521
v -0.007629820709229296 -0.031500001496169716 0.5742878690740838
v -0.007776778113670335 -0.028500001353677362 0.5741771512953875
v -0.007776778113670335 -0.03450000163866207 0.5741771512953875
v -0.007629820709229296 -0.028500001353677362 0.5742878690740838
v -0.007776778113670335 -0.028500001353677362 0.5741771512953875
v -0.007629820709229296 -0.031500001496169716 0.5742878690740838
v -0.007532851100131299 -0.031500001496169716 0.5744441801166644
v -0.007629820709229296 -0.028500001353677362 0.5742878690740838
v -0.007629820709229296 -0.031500001496169716 0.5742878690740838
v -0.007532851100131299 -0.028500001353677362 0.5744441801166644
v -0.007629820709229296 -0.028500001353677362 0.5742878690740838
v -0.007532851100131299 -0.031500001496169716 0.5744441801166644
v -0.007499000428662639 -0.028500001353677362 0.574625027293223
v -0.007532851100131299 -0.028500001353677362 0.5744441801166644
v -0.007532851100131299 -0.031500001496169716 0.5744441801166644
v -0.007532851100131299 -0.031500001496169716 0.5744441801166644
v -0.007499000428662639 -0.03450000163866207 0.574625027293223
v -0.007499000428662639 -0.028500001353677362 0.574625027293223
v -0.007532851100131299 -0.03450000163866207 0.5744441801166644
v -0.007499000428662639 -0.03450000163866207 0.574625027293223
v -0.007532851100131299 -0.031500001496169716 0.5744441801166644
v -0.007629820709229296 -0.031500001496169716 0.5742878690740838
v -0.007532851100131299 -0.03450000163866207 0.5744441801166644
v -0.007532851100131299 -0.031500001496169716 0.5744441801166644
v -0.007629820709229296 -0.03450000163866207 0.5742878690740838
v -0.007532851100131299 -0.03450000163866207 0.5744441801166644
v -0.007629820709229296 -0.031500001496169716 0.5742878690740838
v -0.007776778113670335 -0.03450000163866207 0.5741771512953875
v -0.007629820709229296 -0.03450000163866207 0.5742878690740838
v -0.007629820709229296 -0.031500001496169716 0.5742878690740838
v 0.00999600076470153 -0.03450000163866207 0.6070005171122261
v 0.00999600076470153 -0.029000001377426088 0.5990015543299521
v 0.00999600076470153 -0.029000001377426088 0.6070005171122261
v 0.00999600076470153 -0.03450000163866207 0.5990015543299521
v 0.00999600076470153 -0.029000001377426088 0.5990015543299521
v 0.00999600076470153 -0.03450000163866207 0.6070005171122261
v 0.00999600076470153 -0.029000001377426088 0.5990015543299521
v 0.007501000283799131 -0.03450000163866207 0.5990015543299521
v 0.007501000283799131 -0.029000001377426088 0.5990015543299521
v 0.00999600076470153 -0.03450000163866207 0.5990015543299521
v 0.007501000283799131 -0.03450000163866207 0.5990015543299521
v 0.00999600076470153 -0.029000001377426088 0.5990015543299521
v -0.009994000909565037 -0.03450000163866207 0.5990015543299521
v -0.007499000428662639 -0.029000001377426088 0.5990015543299521
v -0.007499000428662639 -0.03450000163866207 0.5990015543299521
v -0.009994000909565037 -0.029000001377426088 0.5990015543299521
v -0.007499000428662639 -0.029000001377426088 0.5990015543299521
v -0.009994000909565037 -0.03450000163866207 0.5990015543299521
v -0.009994000909565037 -0.029000001377426088 0.5990015543299521
v -0.009994000909565037 -0.03450000163866207 0.6070005171122261
v -0.009994000909565037 -0.029000001377426088 0.6070005171122261
v -0.009994000909565037 -0.03450000163866207 0.5990015543299521
v -0.009994000909565037 -0.03450000163866207 0.6070005171122261
v -0.009994000909565037 -0.029000001377426088 0.5990015543299521
v -0.007459619876407642 -0.029000001377426088 0.5766271636187881
v -0.007499000428662639 -0.028500001353677362 0.5764327056017393
v -0.007499000428662639 -0.029000001377426088 0.5764327056017393
v -0.007459619876407642 -0.028500001353677362 0.5766271636187881
v -0.007499000428662639 -0.028500001353677362 0.5764327056017393
v -0.007459619876407642 -0.029000001377426088 0.5766271636187881
v -0.00734768187136553 -0.029000001377426088 0.5767910430211032
v -0.007459619876407642 -0.028500001353677362 0.5766271636187881
v -0.007459619876407642 -0.029000001377426088 0.5766271636187881
v -0.00734768187136553 -0.028500001353677362 0.5767910430211032
v -0.007459619876407642 -0.028500001353677362 0.5766271636187881
v -0.00734768187136553 -0.029000001377426088 0.5767910430211032
v -0.007180818421972657 -0.029000001377426088 0.5768984649012054
v -0.00734768187136553 -0.028500001353677362 0.5767910430211032
v -0.00734768187136553 -0.029000001377426088 0.5767910430211032
v -0.007180818421972657 -0.028500001353677362 0.5768984649012054
v -0.00734768187136553 -0.028500001353677362 0.5767910430211032
v -0.007180818421972657 -0.029000001377426088 0.5768984649012054
v -0.009994000909565037 -0.029000001377426088 0.5990015543299521
v -0.007499000428662639 -0.029000001377426088 0.5990005167322465
v -0.007499000428662639 -0.029000001377426088 0.5990015543299521
v -0.009999000070569086 -0.029000001377426088 0.5990005167322465
v -0.007499000428662639 -0.029000001377426088 0.5990005167322465
v -0.009994000909565037 -0.029000001377426088 0.5990015543299521
v -0.009999000070569086 -0.029000001377426088 0.6070005171122261
v -0.009999000070569086 -0.029000001377426088 0.5990005167322465
v -0.009994000909565037 -0.029000001377426088 0.5990015543299521
v -0.009994000909565037 -0.029000001377426088 0.5990015543299521
v -0.009994000909565037 -0.029000001377426088 0.6070005171122261
v -0.009999000070569086 -0.029000001377426088 0.6070005171122261
v 0.007501000283799131 -0.029000001377426088 0.5990005167322465
v 0.00999600076470153 -0.029000001377426088 0.5990015543299521
v 0.007501000283799131 -0.029000001377426088 0.5990015543299521
v 0.01000100087937994 -0.029000001377426088 0.5990005167322465
v 0.00999600076470153 -0.029000001377426088 0.5990015543299521
v 0.007501000283799131 -0.029000001377426088 0.5990005167322465
v 0.01000100087937994 -0.029000001377426088 0.6070005171122261
v 0.00999600076470153 -0.029000001377426088 0.5990015543299521
v 0.01000100087937994 -0.029000001377426088 0.5990005167322465
v 0.00999600076470153 -0.029000001377426088 0.6070005171122261
v 0.00999600076470153 -0.029000001377426088 0.5990015543299521
v 0.01000100087937994 -0.029000001377426088 0.6070005171122261
v 0.00999600076470153 -0.029000001377426088 0.6070005171122261
v 0.01000100087937994 -0.03450000163866207 0.6070005171122261
v 0.00999600076470153 -0.03450000163866207 0.6070005171122261
v 0.01000100087937994 -0.029000001377426088 0.6070005171122261
v 0.01000100087937994 -0.03450000163866207 0.6070005171122261
v 0.00999600076470153 -0.029000001377426088 0.6070005171122261
v -0.009994000909565037 -0.03450000163866207 0.6070005171122261
v -0.009999000070569086 -0.029000001377426088 0.6070005171122261
v -0.009994000909565037 -0.029000001377426088 0.6070005171122261
v -0.009999000070569086 -0.03450000163866207 0.6070005171122261
v -0.009999000070569086 -0.029000001377426088 0.6070005171122261
v -0.009994000909565037 -0.03450000163866207 0.6070005171122261
v 0.0050010001650555025 -0.028057977101725307 0.6530005192971089
v 0.00527875591555288 -0.02800705852020524 0.6080005171597236
v 0.008411099833404712 -0.02723087058660978 0.6530005192971089
v 0.0017693287974556576 -0.028445088783930483 0.6080005171597236
v 0.00527875591555288 -0.02800705852020524 0.6080005171597236
v 0.0050010001650555025 -0.028057977101725307 0.6530005192971089
v 0.0015151059155076724 -0.028459752480916034 0.6530005192971089
v 0.0017693287974556576 -0.028445088783930483 0.6080005171597236
v 0.0050010001650555025 -0.028057977101725307 0.6530005192971089
v -0.0017673288231098705 -0.028445088783930483 0.6080005171597236
v 0.0017693287974556576 -0.028445088783930483 0.6080005171597236
v 0.0015151059155076724 -0.028459752480916034 0.6530005192971089
v -0.0019937406533218627 -0.028430108467056847 0.6530005192971089
v -0.0017673288231098705 -0.028445088783930483 0.6080005171597236
v 0.0015151059155076724 -0.028459752480916034 0.6530005192971089
v -0.005276756060416388 -0.02800705852020524 0.6080005171597236
v -0.0017673288231098705 -0.028445088783930483 0.6080005171597236
v -0.0019937406533218627 -0.028430108467056847 0.6530005192971089
v -0.005472348949955574 -0.027969493287097746 0.6530005192971089
v -0.005276756060416388 -0.02800705852020524 0.6080005171597236
v -0.0019937406533218627 -0.028430108467056847 0.6530005192971089
v -0.008704909738107003 -0.027137744285189447 0.6080005171597236
v -0.005276756060416388 -0.02800705852020524 0.6080005171597236
v -0.005472348949955574 -0.027969493287097746 0.6530005192971089
v -0.008867987100283914 -0.0270848878373664 0.6530005192971089
v -0.008704909738107003 -0.027137744285189447 0.6080005171597236
v -0.005472348949955574 -0.027969493287097746 0.6530005192971089
v -0.011999000165563989 -0.02585053375957269 0.6080005171597236
v -0.008704909738107003 -0.027137744285189447 0.6080005171597236
v -0.008867987100283914 -0.0270848878373664 0.6530005192971089
v -0.012129180530633943 -0.02578970268673708 0.6530005192971089
v -0.011999000165563989 -0.02585053375957269 0.6080005171597236
v -0.008867987100283914 -0.0270848878373664 0.6530005192971089
v -0.011999000165563989 -0.02585053375957269 0.5990005167322465
v -0.011999000165563989 -0.02585053375957269 0.6080005171597236
v -0.012129180530633943 -0.02578970268673708 0.6530005192971089
v -0.015081030608278256 -0.02418227501334247 0.5990005167322465
v -0.011999000165563989 -0.02585053375957269 0.5990005167322465
v -0.012129180530633943 -0.02578970268673708 0.6530005192971089
v 0.008706909593243495 -0.027137744285189447 0.6080005171597236
v 0.008411099833404712 -0.02723087058660978 0.6530005192971089
v 0.00527875591555288 -0.02800705852020524 0.6080005171597236
v 0.011693710882569874 -0.025990971846077127 0.6530005192971089
v 0.008411099833404712 -0.02723087058660978 0.6530005192971089
v 0.008706909593243495 -0.027137744285189447 0.6080005171597236
v 0.012001000974374842 -0.02585053375957269 0.6080005171597236
v 0.011693710882569874 -0.025990971846077127 0.6530005192971089
v 0.008706909593243495 -0.027137744285189447 0.6080005171597236
v 0.014799072014868853 -0.0243570758944478 0.6530005192971089
v 0.011693710882569874 -0.025990971846077127 0.6530005192971089
v 0.012001000974374842 -0.02585053375957269 0.6080005171597236
v 0.012001000974374842 -0.02585053375957269 0.5990005167322465
v 0.014799072014868853 -0.0243570758944478 0.6530005192971089
v 0.012001000974374842 -0.02585053375957269 0.6080005171597236
v 0.015083030463414748 -0.02418227501334247 0.5990005167322465
v 0.014799072014868853 -0.0243570758944478 0.6530005192971089
v 0.012001000974374842 -0.02585053375957269 0.5990005167322465
v 0.01768010986380797 -0.022353951562243957 0.6530005192971089
v 0.014799072014868853 -0.0243570758944478 0.6530005192971089
v 0.015083030463414748 -0.02418227501334247 0.5990005167322465
v 0.017937004941317447 -0.02214835844334795 0.5990005167322465
v 0.01768010986380797 -0.022353951562243957 0.6530005192971089
v 0.015083030463414748 -0.02418227501334247 0.5990005167322465
v 0.020293149004644295 -0.020011965748490956 0.6530005192971089
v 0.01768010986380797 -0.022353951562243957 0.6530005192971089
v 0.017937004941317447 -0.02214835844334795 0.5990005167322465
v 0.020519770643215862 -0.01977953814040534 0.5990005167322465
v 0.020293149004644295 -0.020011965748490956 0.6530005192971089
v 0.017937004941317447 -0.02214835844334795 0.5990005167322465
v 0.02259858238746193 -0.01736661612028012 0.6530005192971089
v 0.020293149004644295 -0.020011965748490956 0.6530005192971089
v 0.020519770643215862 -0.01977953814040534 0.5990005167322465
v 0.02279227365032388 -0.017111632206191496 0.5990005167322465
v 0.02259858238746193 -0.01736661612028012 0.6530005192971089
v 0.020519770643215862 -0.01977953814040534 0.5990005167322465
v 0.024561457846904444 -0.014458008499218522 0.6530005192971089
v 0.02259858238746193 -0.01736661612028012 0.6530005192971089
v 0.02279227365032388 -0.017111632206191496 0.5990005167322465
v 0.02472014926069188 -0.01418498106620647 0.5990005167322465
v 0.024561457846904444 -0.014458008499218522 0.6530005192971089
v 0.02279227365032388 -0.017111632206191496 0.5990005167322465
v 0.026152020742886695 -0.011330231251047707 0.6530005192971089
v 0.024561457846904444 -0.014458008499218522 0.6530005192971089
v 0.02472014926069188 -0.01418498106620647 0.5990005167322465
v 0.026274249371128766 -0.011043839979205106 0.5990005167322465
v 0.026152020742886695 -0.011330231251047707 0.6530005192971089
v 0.02472014926069188 -0.01418498106620647 0.5990005167322465
v 0.02734616218754482 -0.008030700111357203 0.6530005192971089
v 0.026152020742886695 -0.011330231251047707 0.6530005192971089
v 0.026274249371128766 -0.011043839979205106 0.5990005167322465
v 0.02743107353801344 -0.007735706219934857 0.5990005167322465
v 0.02734616218754482 -0.008030700111357203 0.6530005192971089
v 0.026274249371128766 -0.011043839979205106 0.5990005167322465
v 0.028125779534144968 -0.004609431008883724 0.6530005192971089
v 0.02734616218754482 -0.008030700111357203 0.6530005192971089
v 0.02743107353801344 -0.007735706219934857 0.5990005167322465
v 0.028173127558854816 -0.0043106009623414265 0.5990005167322465
v 0.028125779534144968 -0.004609431008883724 0.6530005192971089
v 0.02743107353801344 -0.007735706219934857 0.5990005167322465
v 0.028479052942648186 -0.001118287735649079 0.6530005192971089
v 0.028125779534144968 -0.004609431008883724 0.6530005192971089
v 0.028173127558854816 -0.0043106009623414265 0.5990005167322465
v 0.028489192408461816 -0.0008203155191951333 0.5990005167322465
v 0.028479052942648186 -0.001118287735649079 0.6530005192971089
v 0.028173127558854816 -0.0043106009623414265 0.5990005167322465
v 0.028400628485187873 0.0023898075762020243 0.6530005192971089
v 0.028479052942648186 -0.001118287735649079 0.6530005192971089
v 0.028489192408461816 -0.0008203155191951333 0.5990005167322465
v 0.028374490178282308 0.002682374127955245 0.5990005167322465
v 0.028400628485187873 0.0023898075762020243 0.6530005192971089
v 0.028489192408461816 -0.0008203155191951333 0.5990005167322465
v 0.02789169444001871 0.005861676017702988 0.6530005192971089
v 0.028400628485187873 0.0023898075762020243 0.6530005192971089
v 0.028374490178282308 0.002682374127955245 0.5990005167322465
v 0.027830752740957143 0.006144503408455904 0.5990005167322465
v 0.02789169444001871 0.005861676017702988 0.6530005192971089
v 0.028374490178282308 0.002682374127955245 0.5990005167322465
v 0.02695996603272688 0.009244687519482375 0.6530005192971089
v 0.02789169444001871 0.005861676017702988 0.6530005192971089
v 0.027830752740957143 0.006144503408455904 0.5990005167322465
v 0.02686620267683293 0.009513721917941975 0.5990005167322465
v 0.02695996603272688 0.009244687519482375 0.6530005192971089
v 0.027830752740957143 0.006144503408455904 0.5990005167322465
v 0.025619567180609204 0.012487558004320998 0.6530005192971089
v 0.02695996603272688 0.009244687519482375 0.6530005192971089
v 0.02686620267683293 0.009513721917941975 0.5990005167322465
v 0.02549542738894628 0.012739084848848448 0.5990005167322465
v 0.025619567180609204 0.012487558004320998 0.6530005192971089
v 0.02686620267683293 0.009513721917941975 0.5990005167322465
v 0.023890816869616138 0.015541130804082037 0.6530005192971089
v 0.025619567180609204 0.012487558004320998 0.6530005192971089
v 0.02549542738894628 0.012739084848848448 0.5990005167322465
v 0.023739150221177008 0.01577181986380627 0.5990005167322465
v 0.023890816869616138 0.015541130804082037 0.6530005192971089
v 0.02549542738894628 0.012739084848848448 0.5990005167322465
v 0.021799920163858566 0.018359116472597137 0.6530005192971089
v 0.023890816869616138 0.015541130804082037 0.6530005192971089
v 0.023739150221177008 0.01577181986380627 0.5990005167322465
v 0.021623931004498553 0.018566069531132934 0.5990005167322465
v 0.021799920163858566 0.018359116472597137 0.6530005192971089
v 0.023739150221177008 0.01577181986380627 0.5990005167322465
v 0.019378575291770783 0.020898795166833795 0.6530005192971089
v 0.021799920163858566 0.018359116472597137 0.6530005192971089
v 0.021623931004498553 0.018566069531132934 0.5990005167322465
v 0.019181750254956276 0.021079585122930622 0.5990005167322465
v 0.019378575291770783 0.020898795166833795 0.6530005192971089
v 0.021623931004498553 0.018566069531132934 0.5990005167322465
v 0.01666348727218603 0.023121670867507493 0.6530005192971089
v 0.019378575291770783 0.020898795166833795 0.6530005192971089
v 0.019181750254956276 0.021079585122930622 0.5990005167322465
v 0.0164495399658815 0.0232743541328162 0.5990005167322465
v 0.01666348727218603 0.023121670867507493 0.6530005192971089
v 0.019181750254956276 0.021079585122930622 0.5990005167322465
v 0.013695810968509248 0.024994044537373084 0.6530005192971089
v 0.01666348727218603 0.023121670867507493 0.6530005192971089
v 0.0164495399658815 0.0232743541328162 0.5990005167322465
v 0.01346861235694885 0.02511719441504856 0.5990005167322465
v 0.013695810968509248 0.024994044537373084 0.6530005192971089
v 0.0164495399658815 0.0232743541328162 0.5990005167322465
v 0.010520535968753797 0.02648753292007755 0.6530005192971089
v 0.013695810968509248 0.024994044537373084 0.6530005192971089
v 0.01346861235694885 0.02511719441504856 0.5990005167322465
v 0.010284041893189877 0.026580239604778733 0.5990005167322465
v 0.010520535968753797 0.02648753292007755 0.6530005192971089
v 0.01346861235694885 0.02511719441504856 0.5990005167322465
v 0.007185795171629206 0.027579499600971502 0.6530005192971089
v 0.010520535968753797 0.02648753292007755 0.6530005192971089
v 0.010284041893189877 0.026580239604778733 0.5990005167322465
v 0.006943981500475704 0.027641366364163922 0.5990005167322465
v 0.007185795171629206 0.027579499600971502 0.6530005192971089
v 0.010284041893189877 0.026580239604778733 0.5990005167322465
v 0.0037421404708634642 0.02825338879313577 0.6530005192971089
v 0.007185795171629206 0.027579499600971502 0.6530005192971089
v 0.006943981500475704 0.027641366364163922 0.5990005167322465
v 0.0034989368193277803 0.028284528168394107 0.5990005167322465
v 0.0037421404708634642 0.02825338879313577 0.6530005192971089
v 0.006943981500475704 0.027641366364163922 0.5990005167322465
v 0.00024177401916168108 0.028498984736807786 0.6530005192971089
v 0.0037421404708634642 0.02825338879313577 0.6530005192971089
v 0.0034989368193277803 0.028284528168394107 0.5990005167322465
v 9.999993965029407e-07 0.028500001353677362 0.5990005167322465
v 0.00024177401916168108 0.028498984736807786 0.6530005192971089
v 0.0034989368193277803 0.028284528168394107 0.5990005167322465
v -0.0032622424721479026 0.028312564287279463 0.6530005192971089
v 0.00024177401916168108 0.028498984736807786 0.6530005192971089
v 9.999993965029407e-07 0.028500001353677362 0.5990005167322465
v -0.0034969369641912884 0.028284528168394107 0.5990005167322465
v -0.0032622424721479026 0.028312564287279463 0.6530005192971089
v 9.999993965029407e-07 0.028500001353677362 0.5990005167322465
v -0.006716791471984562 0.02769695604270761 0.6530005192971089
v -0.0032622424721479026 0.028312564287279463 0.6530005192971089
v -0.0034969369641912884 0.028284528168394107 0.5990005167322465
v -0.0069419816453392125 0.027641366364163922 0.5990005167322465
v -0.006716791471984562 0.02769695604270761 0.6530005192971089
v -0.0034969369641912884 0.028284528168394107 0.5990005167322465
v -0.010069505216129815 0.02666148884569841 0.6530005192971089
v -0.006716791471984562 0.02769695604270761 0.6530005192971089
v -0.0069419816453392125 0.027641366364163922 0.5990005167322465
v -0.010282042038053385 0.026580239604778733 0.5990005167322465
v -0.010069505216129815 0.02666148884569841 0.6530005192971089
v -0.0069419816453392125 0.027641366364163922 0.5990005167322465
v -0.013269561444174127 0.025221862083594226 0.6530005192971089
v -0.010069505216129815 0.02666148884569841 0.6530005192971089
v -0.010282042038053385 0.026580239604778733 0.5990005167322465
v -0.013466612501812358 0.02511719441504856 0.5990005167322465
v -0.013269561444174127 0.025221862083594226 0.6530005192971089
v -0.010282042038053385 0.026580239604778733 0.5990005167322465
v -0.016268448648686373 0.02339989582579083 0.6530005192971089
v -0.013269561444174127 0.025221862083594226 0.6530005192971089
v -0.013466612501812358 0.02511719441504856 0.5990005167322465
v -0.01644754106441937 0.0232743541328162 0.5990005167322465
v -0.016268448648686373 0.02339989582579083 0.6530005192971089
v -0.013466612501812358 0.02511719441504856 0.5990005167322465
v -0.019020707080192878 0.021223212296500593 0.6530005192971089
v -0.016268448648686373 0.02339989582579083 0.6530005192971089
v -0.01644754106441937 0.0232743541328162 0.5990005167322465
v -0.019179751353494146 0.021079585122930622 0.5990005167322465
v -0.019020707080192878 0.021223212296500593 0.6530005192971089
v -0.01644754106441937 0.0232743541328162 0.5990005167322465
v -0.021484616346392205 0.01872480481394101 0.6530005192971089
v -0.019020707080192878 0.021223212296500593 0.6530005192971089
v -0.019179751353494146 0.021079585122930622 0.5990005167322465
v -0.0216219301956877 0.018566069531132934 0.5990005167322465
v -0.021484616346392205 0.01872480481394101 0.6530005192971089
v -0.019179751353494146 0.021079585122930622 0.5990005167322465
v -0.023622826744582603 0.01594255046273585 0.6530005192971089
v -0.021484616346392205 0.01872480481394101 0.6530005192971089
v -0.0216219301956877 0.018566069531132934 0.5990005167322465
v -0.023737149412366154 0.01577181986380627 0.5990005167322465
v -0.023622826744582603 0.01594255046273585 0.6530005192971089
v -0.0216219301956877 0.018566069531132934 0.5990005167322465
v -0.025402922883209778 0.012918622630508358 0.6530005192971089
v -0.023622826744582603 0.01594255046273585 0.6530005192971089
v -0.023737149412366154 0.01577181986380627 0.5990005167322465
v -0.025493426580135425 0.012739084848848448 0.5990005167322465
v -0.025402922883209778 0.012918622630508358 0.6530005192971089
v -0.023737149412366154 0.01577181986380627 0.5990005167322465
v -0.026797921499883692 0.009698861582802532 0.6530005192971089
v -0.025402922883209778 0.012918622630508358 0.6530005192971089
v -0.025493426580135425 0.012739084848848448 0.5990005167322465
v -0.0268642037753708 0.009513721917941975 0.5990005167322465
v -0.026797921499883692 0.009698861582802532 0.6530005192971089
v -0.025493426580135425 0.012739084848848448 0.5990005167322465
v -0.027786675819307938 0.006332075419775984 0.6530005192971089
v -0.026797921499883692 0.009698861582802532 0.6530005192971089
v -0.0268642037753708 0.009513721917941975 0.5990005167322465
v -0.027828753839495013 0.006144503408455904 0.5990005167322465
v -0.027786675819307938 0.006332075419775984 0.6530005192971089
v -0.0268642037753708 0.009513721917941975 0.5990005167322465
v -0.02835419598786526 0.002869301455406814 0.6530005192971089
v -0.027786675819307938 0.006332075419775984 0.6530005192971089
v -0.027828753839495013 0.006144503408455904 0.5990005167322465
v -0.028372489369471454 0.002682374127955245 0.5990005167322465
v -0.02835419598786526 0.002869301455406814 0.6530005192971089
v -0.027828753839495013 0.006144503408455904 0.5990005167322465
v -0.02849188177016182 -0.000636968046878808 0.6530005192971089
v -0.02835419598786526 0.002869301455406814 0.6530005192971089
v -0.028372489369471454 0.002682374127955245 0.5990005167322465
v -0.028487193506999686 -0.0008203155191951333 0.5990005167322465
v -0.02849188177016182 -0.000636968046878808 0.6530005192971089
v -0.028372489369471454 0.002682374127955245 0.5990005167322465
v -0.028197644619345485 -0.004133581834670774 0.6530005192971089
v -0.02849188177016182 -0.000636968046878808 0.6530005192971089
v -0.028487193506999686 -0.0008203155191951333 0.5990005167322465
v -0.028171128657392686 -0.0043106009623414265 0.5990005167322465
v -0.028197644619345485 -0.004133581834670774 0.6530005192971089
v -0.028487193506999686 -0.0008203155191951333 0.5990005167322465
v -0.027475943916731582 -0.0075675348061549075 0.6530005192971089
v -0.028197644619345485 -0.004133581834670774 0.6530005192971089
v -0.028171128657392686 -0.0043106009623414265 0.5990005167322465
v -0.027429072729202586 -0.007735706219934857 0.5990005167322465
v -0.027475943916731582 -0.0075675348061549075 0.6530005192971089
v -0.028171128657392686 -0.0043106009623414265 0.5990005167322465
v -0.026337722121946294 -0.010886771719181287 0.6530005192971089
v -0.027475943916731582 -0.0075675348061549075 0.6530005192971089
v -0.027429072729202586 -0.007735706219934857 0.5990005167322465
v -0.026272250469666636 -0.011043839979205106 0.5990005167322465
v -0.026337722121946294 -0.010886771719181287 0.6530005192971089
v -0.027429072729202586 -0.007735706219934857 0.5990005167322465
v -0.024800231204192835 -0.014040975283914903 0.6530005192971089
v -0.026337722121946294 -0.010886771719181287 0.6530005192971089
v -0.026272250469666636 -0.011043839979205106 0.5990005167322465
v -0.02471815035922975 -0.01418498106620647 0.5990005167322465
v -0.024800231204192835 -0.014040975283914903 0.6530005192971089
v -0.026272250469666636 -0.011043839979205106 0.5990005167322465
v -0.022886778964871235 -0.016982333036231756 0.6530005192971089
v -0.024800231204192835 -0.014040975283914903 0.6530005192971089
v -0.02471815035922975 -0.01418498106620647 0.5990005167322465
v -0.022790272841513026 -0.017111632206191496 0.5990005167322465
v -0.022886778964871235 -0.016982333036231756 0.6530005192971089
v -0.02471815035922975 -0.01418498106620647 0.5990005167322465
v -0.020626372363367063 -0.019666254977676045 0.6530005192971089
v -0.022886778964871235 -0.016982333036231756 0.6530005192971089
v -0.022790272841513026 -0.017111632206191496 0.5990005167322465
v -0.020517771741753732 -0.01977953814040534 0.5990005167322465
v -0.020626372363367063 -0.019666254977676045 0.6530005192971089
v -0.022790272841513026 -0.017111632206191496 0.5990005167322465
v -0.018053273104798873 -0.022052058313651868 0.6530005192971089
v -0.020626372363367063 -0.019666254977676045 0.6530005192971089
v -0.020517771741753732 -0.01977953814040534 0.5990005167322465
v -0.017935006039855317 -0.02214835844334795 0.5990005167322465
v -0.018053273104798873 -0.022052058313651868 0.6530005192971089
v -0.020517771741753732 -0.01977953814040534 0.5990005167322465
v -0.015206492192606502 -0.024103573990317262 0.6530005192971089
v -0.018053273104798873 -0.022052058313651868 0.6530005192971089
v -0.017935006039855317 -0.02214835844334795 0.5990005167322465
v -0.015081030608278256 -0.02418227501334247 0.5990005167322465
v -0.015206492192606502 -0.024103573990317262 0.6530005192971089
v -0.017935006039855317 -0.02214835844334795 0.5990005167322465
v -0.012129180530633943 -0.02578970268673708 0.6530005192971089
v -0.015206492192606502 -0.024103573990317262 0.6530005192971089
v -0.015081030608278256 -0.02418227501334247 0.5990005167322465
v 0.01000100087937994 -0.029000001377426088 0.5990005167322465
v 0.012001000974374842 -0.03450000163866207 0.5990005167322465
v 0.01000100087937994 -0.03450000163866207 0.5990005167322465
v 0.012001000974374842 -0.02585053375957269 0.5990005167322465
v 0.012001000974374842 -0.03450000163866207 0.5990005167322465
v 0.01000100087937994 -0.029000001377426088 0.5990005167322465
v -0.011999000165563989 -0.02585053375957269 0.5990005167322465
v 0.012001000974374842 -0.02585053375957269 0.5990005167322465
v 0.01000100087937994 -0.029000001377426088 0.5990005167322465
v -0.015081030608278256 -0.02418227501334247 0.5990005167322465
v 0.012001000974374842 -0.02585053375957269 0.5990005167322465
v -0.011999000165563989 -0.02585053375957269 0.5990005167322465
v 0.015083030463414748 -0.02418227501334247 0.5990005167322465
v 0.012001000974374842 -0.02585053375957269 0.5990005167322465
v -0.015081030608278256 -0.02418227501334247 0.5990005167322465
v -0.017935006039855317 -0.02214835844334795 0.5990005167322465
v 0.015083030463414748 -0.02418227501334247 0.5990005167322465
v -0.015081030608278256 -0.02418227501334247 0.5990005167322465
v 0.017937004941317447 -0.02214835844334795 0.5990005167322465
v 0.015083030463414748 -0.02418227501334247 0.5990005167322465
v -0.017935006039855317 -0.02214835844334795 0.5990005167322465
v -0.020517771741753732 -0.01977953814040534 0.5990005167322465
v 0.017937004941317447 -0.02214835844334795 0.5990005167322465
v -0.017935006039855317 -0.02214835844334795 0.5990005167322465
v 0.020519770643215862 -0.01977953814040534 0.5990005167322465
v 0.017937004941317447 -0.02214835844334795 0.5990005167322465
v -0.020517771741753732 -0.01977953814040534 0.5990005167322465
v -0.022790272841513026 -0.017111632206191496 0.5990005167322465
v 0.020519770643215862 -0.01977953814040534 0.5990005167322465
v -0.020517771741753732 -0.01977953814040534 0.5990005167322465
v 0.02279227365032388 -0.017111632206191496 0.5990005167322465
v 0.020519770643215862 -0.01977953814040534 0.5990005167322465
v -0.022790272841513026 -0.017111632206191496 0.5990005167322465
v -0.02471815035922975 -0.01418498106620647 0.5990005167322465
v 0.02279227365032388 -0.017111632206191496 0.5990005167322465
v -0.022790272841513026 -0.017111632206191496 0.5990005167322465
v 0.02472014926069188 -0.01418498106620647 0.5990005167322465
v 0.02279227365032388 -0.017111632206191496 0.5990005167322465
v -0.02471815035922975 -0.01418498106620647 0.5990005167322465
v -0.026272250469666636 -0.011043839979205106 0.5990005167322465
v 0.02472014926069188 -0.01418498106620647 0.5990005167322465
v -0.02471815035922975 -0.01418498106620647 0.5990005167322465
v 0.026274249371128766 -0.011043839979205106 0.5990005167322465
v 0.02472014926069188 -0.01418498106620647 0.5990005167322465
v -0.026272250469666636 -0.011043839979205106 0.5990005167322465
v -0.027429072729202586 -0.007735706219934857 0.5990005167322465
v 0.026274249371128766 -0.011043839979205106 0.5990005167322465
v -0.026272250469666636 -0.011043839979205106 0.5990005167322465
v 0.02743107353801344 -0.007735706219934857 0.5990005167322465
v 0.026274249371128766 -0.011043839979205106 0.5990005167322465
v -0.027429072729202586 -0.007735706219934857 0.5990005167322465
v -0.028171128657392686 -0.0043106009623414265 0.5990005167322465
v 0.02743107353801344 -0.007735706219934857 0.5990005167322465
v -0.027429072729202586 -0.007735706219934857 0.5990005167322465
v -0.028487193506999686 -0.0008203155191951333 0.5990005167322465
v 0.02743107353801344 -0.007735706219934857 0.5990005167322465
v -0.028171128657392686 -0.0043106009623414265 0.5990005167322465
v -0.028372489369471454 0.002682374127955245 0.5990005167322465
v 0.02743107353801344 -0.007735706219934857 0.5990005167322465
v -0.028487193506999686 -0.0008203155191951333 0.5990005167322465
v -0.027828753839495013 0.006144503408455904 0.5990005167322465
v 0.02743107353801344 -0.007735706219934857 0.5990005167322465
v -0.028372489369471454 0.002682374127955245 0.5990005167322465
v -0.0268642037753708 0.009513721917941975 0.5990005167322465
v 0.02743107353801344 -0.007735706219934857 0.5990005167322465
v -0.027828753839495013 0.006144503408455904 0.5990005167322465
v -0.025493426580135425 0.012739084848848448 0.5990005167322465
v 0.02743107353801344 -0.007735706219934857 0.5990005167322465
v -0.0268642037753708 0.009513721917941975 0.5990005167322465
v -0.023737149412366154 0.01577181986380627 0.5990005167322465
v 0.02743107353801344 -0.007735706219934857 0.5990005167322465
v -0.025493426580135425 0.012739084848848448 0.5990005167322465
v -0.0216219301956877 0.018566069531132934 0.5990005167322465
v 0.02743107353801344 -0.007735706219934857 0.5990005167322465
v -0.023737149412366154 0.01577181986380627 0.5990005167322465
v -0.019179751353494146 0.021079585122930622 0.5990005167322465
v 0.02743107353801344 -0.007735706219934857 0.5990005167322465
v -0.0216219301956877 0.018566069531132934 0.5990005167322465
v -0.01644754106441937 0.0232743541328162 0.5990005167322465
v 0.02743107353801344 -0.007735706219934857 0.5990005167322465
v -0.019179751353494146 0.021079585122930622 0.5990005167322465
v -0.013466612501812358 0.02511719441504856 0.5990005167322465
v 0.02743107353801344 -0.007735706219934857 0.5990005167322465
v -0.01644754106441937 0.0232743541328162 0.5990005167322465
v -0.010282042038053385 0.026580239604778733 0.5990005167322465
v 0.02743107353801344 -0.007735706219934857 0.5990005167322465
v -0.013466612501812358 0.02511719441504856 0.5990005167322465
v -0.0069419816453392125 0.027641366364163922 0.5990005167322465
v 0.02743107353801344 -0.007735706219934857 0.5990005167322465
v -0.010282042038053385 0.026580239604778733 0.5990005167322465
v -0.0034969369641912884 0.028284528168394107 0.5990005167322465
v 0.02743107353801344 -0.007735706219934857 0.5990005167322465
v -0.0069419816453392125 0.027641366364163922 0.5990005167322465
v 9.999993965029407e-07 0.028500001353677362 0.5990005167322465
v 0.02743107353801344 -0.007735706219934857 0.5990005167322465
v -0.0034969369641912884 0.028284528168394107 0.5990005167322465
v 0.0034989368193277803 0.028284528168394107 0.5990005167322465
v 0.02743107353801344 -0.007735706219934857 0.5990005167322465
v 9.999993965029407e-07 0.028500001353677362 0.5990005167322465
v 0.006943981500475704 0.027641366364163922 0.5990005167322465
v 0.02743107353801344 -0.007735706219934857 0.5990005167322465
v 0.0034989368193277803 0.028284528168394107 0.5990005167322465
v 0.010284041893189877 0.026580239604778733 0.5990005167322465
v 0.02743107353801344 -0.007735706219934857 0.5990005167322465
v 0.006943981500475704 0.027641366364163922 0.5990005167322465
v 0.01346861235694885 0.02511719441504856 0.5990005167322465
v 0.02743107353801344 -0.007735706219934857 0.5990005167322465
v 0.010284041893189877 0.026580239604778733 0.5990005167322465
v 0.0164495399658815 0.0232743541328162 0.5990005167322465
v 0.02743107353801344 -0.007735706219934857 0.5990005167322465
v 0.01346861235694885 0.02511719441504856 0.5990005167322465
v 0.019181750254956276 0.021079585122930622 0.5990005167322465
v 0.02743107353801344 -0.007735706219934857 0.5990005167322465
v 0.0164495399658815 0.0232743541328162 0.5990005167322465
v 0.021623931004498553 0.018566069531132934 0.5990005167322465
v 0.02743107353801344 -0.007735706219934857 0.5990005167322465
v 0.019181750254956276 0.021079585122930622 0.5990005167322465
v 0.023739150221177008 0.01577181986380627 0.5990005167322465
v 0.02743107353801344 -0.007735706219934857 0.5990005167322465
v 0.021623931004498553 0.018566069531132934 0.5990005167322465
v 0.02549542738894628 0.012739084848848448 0.5990005167322465
v 0.02743107353801344 -0.007735706219934857 0.5990005167322465
v 0.023739150221177008 0.01577181986380627 0.5990005167322465
v 0.02686620267683293 0.009513721917941975 0.5990005167322465
v 0.02743107353801344 -0.007735706219934857 0.5990005167322465
v 0.02549542738894628 0.012739084848848448 0.5990005167322465
v 0.027830752740957143 0.006144503408455904 0.5990005167322465
v 0.02743107353801344 -0.007735706219934857 0.5990005167322465
v 0.02686620267683293 0.009513721917941975 0.5990005167322465
v 0.028173127558854816 -0.0043106009623414265 0.5990005167322465
v 0.02743107353801344 -0.007735706219934857 0.5990005167322465
v 0.027830752740957143 0.006144503408455904 0.5990005167322465
v 0.028374490178282308 0.002682374127955245 0.5990005167322465
v 0.028173127558854816 -0.0043106009623414265 0.5990005167322465
v 0.027830752740957143 0.006144503408455904 0.5990005167322465
v 0.028489192408461816 -0.0008203155191951333 0.5990005167322465
v 0.028173127558854816 -0.0043106009623414265 0.5990005167322465
v 0.028374490178282308 0.002682374127955245 0.5990005167322465
v -0.011999000165563989 -0.02585053375957269 0.5990005167322465
v -0.009999000070569086 -0.029000001377426088 0.5990005167322465
v -0.011999000165563989 -0.03450000163866207 0.5990005167322465
v -0.007499000428662639 -0.029000001377426088 0.5990005167322465
v -0.009999000070569086 -0.029000001377426088 0.5990005167322465
v -0.011999000165563989 -0.02585053375957269 0.5990005167322465
v 0.007501000283799131 -0.029000001377426088 0.5990005167322465
v -0.007499000428662639 -0.029000001377426088 0.5990005167322465
v -0.011999000165563989 -0.02585053375957269 0.5990005167322465
v -0.009999000070569086 -0.029000001377426088 0.5990005167322465
v -0.009999000070569086 -0.03450000163866207 0.5990005167322465
v -0.011999000165563989 -0.03450000163866207 0.5990005167322465
v -0.011999000165563989 -0.02585053375957269 0.5990005167322465
v 0.01000100087937994 -0.029000001377426088 0.5990005167322465
v 0.007501000283799131 -0.029000001377426088 0.5990005167322465
v -0.011999000165563989 -0.03450000163866207 0.6080005171597236
v -0.008704909738107003 -0.027137744285189447 0.6080005171597236
v -0.011999000165563989 -0.02585053375957269 0.6080005171597236
v -0.005276756060416388 -0.02800705852020524 0.6080005171597236
v -0.008704909738107003 -0.027137744285189447 0.6080005171597236
v -0.011999000165563989 -0.03450000163866207 0.6080005171597236
v -0.0017673288231098705 -0.028445088783930483 0.6080005171597236
v -0.005276756060416388 -0.02800705852020524 0.6080005171597236
v -0.011999000165563989 -0.03450000163866207 0.6080005171597236
v -0.011999000165563989 -0.03450000163866207 0.6080005171597236
v 0.0017693287974556576 -0.028445088783930483 0.6080005171597236
v -0.0017673288231098705 -0.028445088783930483 0.6080005171597236
v 0.012001000974374842 -0.03450000163866207 0.6080005171597236
v 0.0017693287974556576 -0.028445088783930483 0.6080005171597236
v -0.011999000165563989 -0.03450000163866207 0.6080005171597236
v 0.00527875591555288 -0.02800705852020524 0.6080005171597236
v 0.0017693287974556576 -0.028445088783930483 0.6080005171597236
v 0.012001000974374842 -0.03450000163866207 0.6080005171597236
v 0.008706909593243495 -0.027137744285189447 0.6080005171597236
v 0.00527875591555288 -0.02800705852020524 0.6080005171597236
v 0.012001000974374842 -0.03450000163866207 0.6080005171597236
v 0.012001000974374842 -0.03450000163866207 0.6080005171597236
v 0.012001000974374842 -0.02585053375957269 0.6080005171597236
v 0.008706909593243495 -0.027137744285189447 0.6080005171597236
v -0.009999000070569086 -0.03450000163866207 0.6070005171122261
v -0.011999000165563989 -0.03450000163866207 0.5990005167322465
v -0.009999000070569086 -0.03450000163866207 0.5990005167322465
v -0.011999000165563989 -0.03450000163866207 0.6080005171597236
v -0.011999000165563989 -0.03450000163866207 0.5990005167322465
v -0.009999000070569086 -0.03450000163866207 0.6070005171122261
v -0.009994000909565037 -0.03450000163866207 0.6070005171122261
v -0.011999000165563989 -0.03450000163866207 0.6080005171597236
v -0.009999000070569086 -0.03450000163866207 0.6070005171122261
v 0.00999600076470153 -0.03450000163866207 0.6070005171122261
v -0.011999000165563989 -0.03450000163866207 0.6080005171597236
v -0.009994000909565037 -0.03450000163866207 0.6070005171122261
v 0.007501000283799131 -0.03450000163866207 0.5990015543299521
v 0.00999600076470153 -0.03450000163866207 0.6070005171122261
v -0.009994000909565037 -0.03450000163866207 0.6070005171122261
v 0.00999600076470153 -0.03450000163866207 0.5990015543299521
v 0.00999600076470153 -0.03450000163866207 0.6070005171122261
v 0.007501000283799131 -0.03450000163866207 0.5990015543299521
v 0.00999600076470153 -0.03450000163866207 0.6070005171122261
v 0.012001000974374842 -0.03450000163866207 0.6080005171597236
v -0.011999000165563989 -0.03450000163866207 0.6080005171597236
v 0.01000100087937994 -0.03450000163866207 0.6070005171122261
v 0.012001000974374842 -0.03450000163866207 0.6080005171597236
v 0.00999600076470153 -0.03450000163866207 0.6070005171122261
v 0.012001000974374842 -0.03450000163866207 0.5990005167322465
v 0.012001000974374842 -0.03450000163866207 0.6080005171597236
v 0.01000100087937994 -0.03450000163866207 0.6070005171122261
v 0.01000100087937994 -0.03450000163866207 0.5990005167322465
v 0.012001000974374842 -0.03450000163866207 0.5990005167322465
v 0.01000100087937994 -0.03450000163866207 0.6070005171122261
v -0.007499000428662639 -0.03450000163866207 0.5990015543299521
v 0.007501000283799131 -0.03450000163866207 0.5990015543299521
v -0.009994000909565037 -0.03450000163866207 0.6070005171122261
v 0.007501000283799131 -0.03450000163866207 0.574625027293223
v 0.007501000283799131 -0.03450000163866207 0.5990015543299521
v -0.007499000428662639 -0.03450000163866207 0.5990015543299521
v -0.007499000428662639 -0.03450000163866207 0.574625027293223
v 0.007501000283799131 -0.03450000163866207 0.574625027293223
v -0.007499000428662639 -0.03450000163866207 0.5990015543299521
v -0.007532851100131299 -0.03450000163866207 0.5744441801166644
v 0.007501000283799131 -0.03450000163866207 0.574625027293223
v -0.007499000428662639 -0.03450000163866207 0.574625027293223
v 0.007534851432104972 -0.03450000163866207 0.5744441801166644
v 0.007501000283799131 -0.03450000163866207 0.574625027293223
v -0.007532851100131299 -0.03450000163866207 0.5744441801166644
v 9.999993965029407e-07 -0.03450000163866207 0.5410005139773943
v 0.007534851432104972 -0.03450000163866207 0.5744441801166644
v -0.007532851100131299 -0.03450000163866207 0.5744441801166644
v 0.002749466549812618 -0.03450000163866207 0.5412176770736465
v 0.007534851432104972 -0.03450000163866207 0.5744441801166644
v 9.999993965029407e-07 -0.03450000163866207 0.5410005139773943
v 0.007631820564365788 -0.03450000163866207 0.5742878690740838
v 0.007534851432104972 -0.03450000163866207 0.5744441801166644
v 0.002749466549812618 -0.03450000163866207 0.5412176770736465
v 0.005429714937615626 -0.03450000163866207 0.5418638563035572
v 0.007631820564365788 -0.03450000163866207 0.5742878690740838
v 0.002749466549812618 -0.03450000163866207 0.5412176770736465
v 0.007778777968806827 -0.03450000163866207 0.5741771512953875
v 0.007631820564365788 -0.03450000163866207 0.5742878690740838
v 0.005429714937615626 -0.03450000163866207 0.5418638563035572
v 0.007975221059039472 -0.03450000163866207 0.5429229383851109
v 0.007778777968806827 -0.03450000163866207 0.5741771512953875
v 0.005429714937615626 -0.03450000163866207 0.5418638563035572
v 0.010144348626361932 -0.03450000163866207 0.5727610745679712
v 0.007778777968806827 -0.03450000163866207 0.5741771512953875
v 0.007975221059039472 -0.03450000163866207 0.5429229383851109
v 0.01032280398762131 -0.03450000163866207 0.5443686171647144
v 0.010144348626361932 -0.03450000163866207 0.5727610745679712
v 0.007975221059039472 -0.03450000163866207 0.5429229383851109
v 0.012258157358659427 -0.03450000163866207 0.5709909939174906
v 0.010144348626361932 -0.03450000163866207 0.5727610745679712
v 0.01032280398762131 -0.03450000163866207 0.5443686171647144
v 0.012414195650372606 -0.03450000163866207 0.5461651260391065
v 0.012258157358659427 -0.03450000163866207 0.5709909939174906
v 0.01032280398762131 -0.03450000163866207 0.5443686171647144
v 0.014067739201201745 -0.03450000163866207 0.5689109767288514
v 0.012258157358659427 -0.03450000163866207 0.5709909939174906
v 0.012414195650372606 -0.03450000163866207 0.5461651260391065
v 0.01419748850546021 -0.03450000163866207 0.5482677262366309
v 0.014067739201201745 -0.03450000163866207 0.5689109767288514
v 0.012414195650372606 -0.03450000163866207 0.5461651260391065
v 0.015528178952575744 -0.03450000163866207 0.566572475641216
v 0.014067739201201745 -0.03450000163866207 0.5689109767288514
v 0.01419748850546021 -0.03450000163866207 0.5482677262366309
v 0.01562841871106002 -0.03450000163866207 0.5506243547665335
v 0.015528178952575744 -0.03450000163866207 0.566572475641216
v 0.01419748850546021 -0.03450000163866207 0.5482677262366309
v 0.016603230311316164 -0.03450000163866207 0.5640337181964128
v 0.015528178952575744 -0.03450000163866207 0.566572475641216
v 0.01562841871106002 -0.03450000163866207 0.5506243547665335
v 0.01667147143394221 -0.03450000163866207 0.5531764789111904
v 0.016603230311316164 -0.03450000163866207 0.5640337181964128
v 0.01562841871106002 -0.03450000163866207 0.5506243547665335
v 0.017266207561433822 -0.03450000163866207 0.5613575706083651
v 0.016603230311316164 -0.03450000163866207 0.5640337181964128
v 0.01667147143394221 -0.03450000163866207 0.5531764789111904
v 0.017300755368860887 -0.03450000163866207 0.5558607441754049
v 0.017266207561433822 -0.03450000163866207 0.5613575706083651
v 0.01667147143394221 -0.03450000163866207 0.5531764789111904
v 0.017500655051817526 -0.03450000163866207 0.5586105001653863
v 0.017266207561433822 -0.03450000163866207 0.5613575706083651
v 0.017300755368860887 -0.03450000163866207 0.5558607441754049
v -0.007532851100131299 -0.03450000163866207 0.5744441801166644
v -0.0027474664562575357 -0.03450000163866207 0.5412176770736465
v 9.999993965029407e-07 -0.03450000163866207 0.5410005139773943
v -0.007629820709229296 -0.03450000163866207 0.5742878690740838
v -0.0027474664562575357 -0.03450000163866207 0.5412176770736465
v -0.007532851100131299 -0.03450000163866207 0.5744441801166644
v -0.005427715082479134 -0.03450000163866207 0.5418638563035572
v -0.0027474664562575357 -0.03450000163866207 0.5412176770736465
v -0.007629820709229296 -0.03450000163866207 0.5742878690740838
v -0.007776778113670335 -0.03450000163866207 0.5741771512953875
v -0.005427715082479134 -0.03450000163866207 0.5418638563035572
v -0.007629820709229296 -0.03450000163866207 0.5742878690740838
v -0.00797322120390298 -0.03450000163866207 0.5429229383851109
v -0.005427715082479134 -0.03450000163866207 0.5418638563035572
v -0.007776778113670335 -0.03450000163866207 0.5741771512953875
v -0.01014234877122544 -0.03450000163866207 0.5727610745679712
v -0.00797322120390298 -0.03450000163866207 0.5429229383851109
v -0.007776778113670335 -0.03450000163866207 0.5741771512953875
v -0.010320804132484818 -0.03450000163866207 0.5443686171647144
v -0.00797322120390298 -0.03450000163866207 0.5429229383851109
v -0.01014234877122544 -0.03450000163866207 0.5727610745679712
v -0.012256157503522935 -0.03450000163866207 0.5709909939174906
v -0.010320804132484818 -0.03450000163866207 0.5443686171647144
v -0.01014234877122544 -0.03450000163866207 0.5727610745679712
v -0.012412195795236114 -0.03450000163866207 0.5461651260391065
v -0.010320804132484818 -0.03450000163866207 0.5443686171647144
v -0.012256157503522935 -0.03450000163866207 0.5709909939174906
v -0.014065739346065254 -0.03450000163866207 0.5689109767288514
v -0.012412195795236114 -0.03450000163866207 0.5461651260391065
v -0.012256157503522935 -0.03450000163866207 0.5709909939174906
v -0.014195488650323718 -0.03450000163866207 0.5482677262366309
v -0.012412195795236114 -0.03450000163866207 0.5461651260391065
v -0.014065739346065254 -0.03450000163866207 0.5689109767288514
v -0.015526179097439252 -0.03450000163866207 0.566572475641216
v -0.014195488650323718 -0.03450000163866207 0.5482677262366309
v -0.014065739346065254 -0.03450000163866207 0.5689109767288514
v -0.01562641885592353 -0.03450000163866207 0.5506243547665335
v -0.014195488650323718 -0.03450000163866207 0.5482677262366309
v -0.015526179097439252 -0.03450000163866207 0.566572475641216
v -0.01660122950250531 -0.03450000163866207 0.5640337181964128
v -0.01562641885592353 -0.03450000163866207 0.5506243547665335
v -0.015526179097439252 -0.03450000163866207 0.566572475641216
v -0.016669470625131355 -0.03450000163866207 0.5531764789111904
v -0.01562641885592353 -0.03450000163866207 0.5506243547665335
v -0.01660122950250531 -0.03450000163866207 0.5640337181964128
v -0.017264206752622968 -0.03450000163866207 0.5613575706083651
v -0.016669470625131355 -0.03450000163866207 0.5531764789111904
v -0.01660122950250531 -0.03450000163866207 0.5640337181964128
v -0.017298756467398757 -0.03450000163866207 0.5558607441754049
v -0.016669470625131355 -0.03450000163866207 0.5531764789111904
v -0.017264206752622968 -0.03450000163866207 0.5613575706083651
v -0.017498654243006673 -0.03450000163866207 0.5586105001653863
v -0.017298756467398757 -0.03450000163866207 0.5558607441754049
v -0.017264206752622968 -0.03450000163866207 0.5613575706083651
v -0.009994000909565037 -0.03450000163866207 0.6070005171122261
v -0.009994000909565037 -0.03450000163866207 0.5990015543299521
v -0.007499000428662639 -0.03450000163866207 0.5990015543299521
v -0.011999000165563989 -0.02585053375957269 0.6080005171597236
v -0.011999000165563989 -0.03450000163866207 0.5990005167322465
v -0.011999000165563989 -0.03450000163866207 0.6080005171597236
v -0.011999000165563989 -0.02585053375957269 0.5990005167322465
v -0.011999000165563989 -0.03450000163866207 0.5990005167322465
v -0.011999000165563989 -0.02585053375957269 0.6080005171597236
v 0.012001000974374842 -0.03450000163866207 0.6080005171597236
v 0.012001000974374842 -0.02585053375957269 0.5990005167322465
v 0.012001000974374842 -0.02585053375957269 0.6080005171597236
v 0.012001000974374842 -0.03450000163866207 0.5990005167322465
v 0.012001000974374842 -0.02585053375957269 0.5990005167322465
v 0.012001000974374842 -0.03450000163866207 0.6080005171597236
v -0.009999000070569086 -0.029000001377426088 0.6070005171122261
v -0.009999000070569086 -0.03450000163866207 0.5990005167322465
v -0.009999000070569086 -0.029000001377426088 0.5990005167322465
v -0.009999000070569086 -0.03450000163866207 0.6070005171122261
v -0.009999000070569086 -0.03450000163866207 0.5990005167322465
v -0.009999000070569086 -0.029000001377426088 0.6070005171122261
v 0.01000100087937994 -0.03450000163866207 0.5990005167322465
v 0.01000100087937994 -0.029000001377426088 0.6070005171122261
v 0.01000100087937994 -0.029000001377426088 0.5990005167322465
v 0.01000100087937994 -0.03450000163866207 0.6070005171122261
v 0.01000100087937994 -0.029000001377426088 0.6070005171122261
v 0.01000100087937994 -0.03450000163866207 0.5990005167322465
usemtl DefaultMaterial
f 1 2 3
f 4 5 6
f 7 8 9
f 10 11 12
f 13 14 15
f 16 17 18
f 19 20 21
f 22 23 24
f 25 26 27
f 28 29 30
f 31 32 33
f 34 35 36
f 37 38 39
f 40 41 42
f 43 44 45
f 46 47 48
f 49 50 51
f 52 53 54
f 55 56 57
f 58 59 60
f 61 62 63
f 64 65 66
f 67 68 69
f 70 71 72
f 73 74 75
f 76 77 78
f 79 80 81
f 82 83 84
f 85 86 87
f 88 89 90
f 91 92 93
f 94 95 96
f 97 98 99
f 100 101 102
f 103 104 105
f 106 107 108
f 109 110 111
f 112 113 114
f 115 116 117
f 118 119 120
f 121 122 123
f 124 125 126
f 127 128 129
f 130 131 132
f 133 134 135
f 136 137 138
f 139 140 141
f 142 143 144
f 145 146 147
f 148 149 150
f 151 152 153
f 154 155 156
f 157 158 159
f 160 161 162
f 163 164 165
f 166 167 168
f 169 170 171
f 172 173 174
f 175 176 177
f 178 179 180
f 181 182 183
f 184 185 186
f 187 188 189
f 190 191 192
f 193 194 195
f 196 197 198
f 199 200 201
f 202 203 204
f 205 206 207
f 208 209 210
f 211 212 213
f 214 215 216
f 217 218 219
f 220 221 222
f 223 224 225
f 226 227 228
f 229 230 231
f 232 233 234
f 235 236 237
f 238 239 240
f 241 242 243
f 244 245 246
f 247 248 249
f 250 251 252
f 253 254 255
f 256 257 258
f 259 260 261
f 262 263 264
f 265 266 267
f 268 269 270
f 271 272 273
f 274 275 276
f 277 278 279
f 280 281 282
f 283 284 285
f 286 287 288
f 289 290 291
f 292 293 294
f 295 296 297
f 298 299 300
f 301 302 303
f 304 305 306
f 307 308 309
f 310 311 312
f 313 314 315
f 316 317 318
f 319 320 321
f 322 323 324
f 325 326 327
f 328 329 330
f 331 332 333
f 334 335 336
f 337 338 339
f 340 341 342
f 343 344 345
f 346 347 348
f 349 350 351
f 352 353 354
f 355 356 357
f 358 359 360
f 361 362 363
f 364 365 366
f 367 368 369
f 370 371 372
f 373 374 375
f 376 377 378
f 379 380 381
f 382 383 384
f 385 386 387
f 388 389 390
f 391 392 393
f 394 395 396
f 397 398 399
f 400 401 402
f 403 404 405
f 406 407 408
f 409 410 411
f 412 413 414
f 415 416 417
f 418 419 420
f 421 422 423
f 424 425 426
f 427 428 429
f 430 431 432
f 433 434 435
f 436 437 438
f 439 440 441
f 442 443 444
f 445 446 447
f 448 449 450
f 451 452 453
f 454 455 456
f 457 458 459
f 460 461 462
f 463 464 465
f 466 467 468
f 469 470 471
f 472 473 474
f 475 476 477
f 478 479 480
f 481 482 483
f 484 485 486
f 487 488 489
f 490 491 492
f 493 494 495
f 496 497 498
f 499 500 501
f 502 503 504
f 505 506 507
f 508 509 510
f 511 512 513
f 514 515 516
f 517 518 519
f 520 521 522
f 523 524 525
f 526 527 528
f 529 530 531
f 532 533 534
f 535 536 537
f 538 539 540
f 541 542 543
f 544 545 546
f 547 548 549
f 550 551 552
f 553 554 555
f 556 557 558
f 559 560 561
f 562 563 564
f 565 566 567
f 568 569 570
f 571 572 573
f 574 575 576
f 577 578 579
f 580 581 582
f 583 584 585
f 586 587 588
f 589 590 591
f 592 593 594
f 595 596 597
f 598 599 600
f 601 602 603
f 604 605 606
f 607 608 609
f 610 611 612
f 613 614 615
f 616 617 618
f 619 620 621
f 622 623 624
f 625 626 627
f 628 629 630
f 631 632 633
f 634 635 636
f 637 638 639
f 640 641 642
f 643 644 645
f 646 647 648
f 649 650 651
f 652 653 654
f 655 656 657
f 658 659 660
f 661 662 663
f 664 665 666
f 667 668 669
f 670 671 672
f 673 674 675
f 676 677 678
f 679 680 681
f 682 683 684
f 685 686 687
f 688 689 690
f 691 692 693
f 694 695 696
f 697 698 699
f 700 701 702
f 703 704 705
f 706 707 708
f 709 710 711
f 712 713 714
f 715 716 717
f 718 719 720
f 721 722 723
f 724 725 726
f 727 728 729
f 730 731 732
f 733 734 735
f 736 737 738
f 739 740 741
f 742 743 744
f 745 746 747
f 748 749 750
f 751 752 753
f 754 755 756
f 757 758 759
f 760 761 762
f 763 764 765
f 766 767 768
f 769 770 771
f 772 773 774
f 775 776 777
f 778 779 780
f 781 782 783
f 784 785 786
f 787 788 789
f 790 791 792
f 793 794 795
f 796 797 798
f 799 800 801
f 802 803 804
f 805 806 807
f 808 809 810
f 811 812 813
f 814 815 816
f 817 818 819
f 820 821 822
f 823 824 825
f 826 827 828
f 829 830 831
f 832 833 834
f 835 836 837
f 838 839 840
f 841 842 843
f 844 845 846
f 847 848 849
f 850 851 852
f 853 854 855
f 856 857 858
f 859 860 861
f 862 863 864
f 865 866 867
f 868 869 870
f 871 872 873
f 874 875 876
f 877 878 879
f 880 881 882
f 883 884 885
f 886 887 888
f 889 890 891
f 892 893 894
f 895 896 897
f 898 899 900
f 901 902 903
f 904 905 906
f 907 908 909
f 910 911 912
f 913 914 915
f 916 917 918
f 919 920 921
f 922 923 924
f 925 926 927
f 928 929 930
f 931 932 933
f 934 935 936
f 937 938 939
f 940 941 942
f 943 944 945
f 946 947 948
f 949 950 951
f 952 953 954
f 955 956 957
f 958 959 960
f 961 962 963
f 964 965 966
f 967 968 969
f 970 971 972
f 973 974 975
f 976 977 978
f 979 980 981
f 982 983 984
f 985 986 987
f 988 989 990
f 991 992 993
f 994 995 996
f 997 998 999
f 1000 1001 1002
f 1003 1004 1005
f 1006 1007 1008
f 1009 1010 1011
f 1012 1013 1014
f 1015 1016 1017
f 1018 1019 1020
f 1021 1022 1023
f 1024 1025 1026
f 1027 1028 1029
f 1030 1031 1032
f 1033 1034 1035
f 1036 1037 1038
f 1039 1040 1041
f 1042 1043 1044
f 1045 1046 1047
f 1048 1049 1050
f 1051 1052 1053
f 1054 1055 1056
f 1057 1058 1059
f 1060 1061 1062
f 1063 1064 1065
f 1066 1067 1068
f 1069 1070 1071
f 1072 1073 1074
f 1075 1076 1077
f 1078 1079 1080
f 1081 1082 1083
f 1084 1085 1086
f 1087 1088 1089
f 1090 1091 1092
f 1093 1094 1095
f 1096 1097 1098
f 1099 1100 1101
f 1102 1103 1104
f 1105 1106 1107
f 1108 1109 1110
f 1111 1112 1113
f 1114 1115 1116
f 1117 1118 1119
f 1120 1121 1122
f 1123 1124 1125
f 1126 1127 1128
f 1129 1130 1131
f 1132 1133 1134
f 1135 1136 1137
f 1138 1139 1140
f 1141 1142 1143
f 1144 1145 1146
f 1147 1148 1149
f 1150 1151 1152
f 1153 1154 1155
f 1156 1157 1158
f 1159 1160 1161
f 1162 1163 1164
f 1165 1166 1167
f 1168 1169 1170
f 1171 1172 1173
f 1174 1175 1176
f 1177 1178 1179
f 1180 1181 1182
f 1183 1184 1185
f 1186 1187 1188
f 1189 1190 1191
f 1192 1193 1194
f 1195 1196 1197
f 1198 1199 1200
f 1201 1202 1203
f 1204 1205 1206
f 1207 1208 1209
f 1210 1211 1212
f 1213 1214 1215
f 1216 1217 1218
f 1219 1220 1221
f 1222 1223 1224
f 1225 1226 1227
f 1228 1229 1230
f 1231 1232 1233
f 1234 1235 1236
f 1237 1238 1239
f 1240 1241 1242
f 1243 1244 1245
f 1246 1247 1248
f 1249 1250 1251
f 1252 1253 1254
f 1255 1256 1257
f 1258 1259 1260
f 1261 1262 1263
f 1264 1265 1266
f 1267 1268 1269
f 1270 1271 1272
f 1273 1274 1275
f 1276 1277 1278
f 1279 1280 1281
f 1282 1283 1284
f 1285 1286 1287
f 1288 1289 1290
f 1291 1292 1293
f 1294 1295 1296
f 1297 1298 1299
f 1300 1301 1302
f 1303 1304 1305
f 1306 1307 1308
f 1309 1310 1311
f 1312 1313 1314
f 1315 1316 1317
f 1318 1319 1320
f 1321 1322 1323
f 1324 1325 1326
f 1327 1328 1329
f 1330 1331 1332
f 1333 1334 1335
f 1336 1337 1338
f 1339 1340 1341
f 1342 1343 1344
f 1345 1346 1347
f 1348 1349 1350
f 1351 1352 1353
f 1354 1355 1356
f 1357 1358 1359
f 1360 1361 1362
f 1363 1364 1365
f 1366 1367 1368
f 1369 1370 1371
f 1372 1373 1374
f 1375 1376 1377
f 1378 1379 1380
f 1381 1382 1383
f 1384 1385 1386
f 1387 1388 1389
f 1390 1391 1392
f 1393 1394 1395
f 1396 1397 1398
f 1399 1400 1401
f 1402 1403 1404
f 1405 1406 1407
f 1408 1409 1410
f 1411 1412 1413
f 1414 1415 1416
f 1417 1418 1419
f 1420 1421 1422
f 1423 1424 1425
f 1426 1427 1428
