mtllib openarm_right_link2_collision_node_STL_BINARY__mesh.mtl
v -0.032157106019568005 -0.02778251779909091 0.16860569038138706
v -0.030398013605082985 -0.026327016173561812 0.1732415548593913
v -0.0304321417957909 -0.02873265402891234 0.16827957952605388
v -0.030398013605082985 -0.026327016173561812 0.1732415548593913
v -0.032157106019568005 -0.02778251779909091 0.16860569038138706
v -0.03312994923594159 -0.02648735935134372 0.17383693757810015
v -0.03039939834025618 0.02653526241453208 0.1733540884340723
v -0.03311296620290838 0.026324782668206703 0.17362371124961307
v -0.030423074259959826 0.028700747899467194 0.16877869453999494
v -0.03312994923594159 -0.02648735935134372 0.17383693757810015
v -0.032157106019568005 -0.02778251779909091 0.16860569038138706
v -0.04001086615822658 -0.020223639495117185 0.16772454104754253
v -0.04001086615822658 -0.020223639495117185 0.16772454104754253
v -0.032157106019568005 -0.02778251779909091 0.16860569038138706
v -0.03125199275636259 -0.031068419978478312 0.16100435640217903
v -0.03312994923594159 -0.02648735935134372 0.17383693757810015
v -0.04001086615822658 -0.020223639495117185 0.16772454104754253
v -0.042885908256453664 -0.01511755919735458 0.17387479463556232
v -0.042885908256453664 -0.01511755919735458 0.17387479463556232
v -0.04001086615822658 -0.020223639495117185 0.16772454104754253
v -0.04616101674941531 -0.005845835963392276 0.1717230153585536
v -0.045204435588257486 0.01015064096980045 0.17103643085328635
v -0.04066619303261465 0.018886343899372493 0.17387761751167297
v -0.0465744422146086 0.0026871184194861286 0.1738839346506449
v -0.045204435588257486 0.01015064096980045 0.17103643085328635
v -0.0465744422146086 0.0026871184194861286 0.1738839346506449
v -0.04616101674941531 -0.005845835963392276 0.1717230153585536
v -0.04616101674941531 -0.005845835963392276 0.1717230153585536
v -0.0465744422146086 0.0026871184194861286 0.1738839346506449
v -0.042885908256453664 -0.01511755919735458 0.17387479463556232
v -0.04066619303261465 0.018886343899372493 0.17387761751167297
v -0.045204435588257486 0.01015064096980045 0.17103643085328635
v -0.03950211521853486 0.020720652610765056 0.16735109742628929
v -0.032473920457223304 0.02822520962309616 0.16642952755829832
v -0.03311296620290838 0.026324782668206703 0.17362371124961307
v -0.04066619303261465 0.018886343899372493 0.17387761751167297
v -0.032473920457223304 0.02822520962309616 0.16642952755829832
v -0.04066619303261465 0.018886343899372493 0.17387761751167297
v -0.03950211521853486 0.020720652610765056 0.16735109742628929
v -0.032473920457223304 0.02822520962309616 0.16642952755829832
v -0.03950211521853486 0.020720652610765056 0.16735109742628929
v -0.03098716883020991 0.031506444520157384 0.16078356171395747
v -0.04001086615822658 -0.020223639495117185 0.16772454104754253
v -0.03125199275636259 -0.031068419978478312 0.16100435640217903
v -0.0303998808994832 -0.015067482710295899 0.16987686964098359
v -0.04001086615822658 -0.020223639495117185 0.16772454104754253
v -0.0303998808994832 -0.015067482710295899 0.16987686964098359
v -0.04616101674941531 -0.005845835963392276 0.1717230153585536
v -0.04616101674941531 -0.005845835963392276 0.1717230153585536
v -0.0303998808994832 -0.015067482710295899 0.16987686964098359
v -0.03039991904645767 0.003189928921578794 0.17196715599514967
v -0.04616101674941531 -0.005845835963392276 0.1717230153585536
v -0.03039991904645767 0.003189928921578794 0.17196715599514967
v -0.045204435588257486 0.01015064096980045 0.17103643085328635
v -0.045204435588257486 0.01015064096980045 0.17103643085328635
v -0.03039991904645767 0.003189928921578794 0.17196715599514967
v -0.03039966155438001 0.02002197932928884 0.16793842350399046
v -0.045204435588257486 0.01015064096980045 0.17103643085328635
v -0.03039966155438001 0.02002197932928884 0.16793842350399046
v -0.03950211521853486 0.020720652610765056 0.16735109742628929
v -0.03950211521853486 0.020720652610765056 0.16735109742628929
v -0.03039966155438001 0.02002197932928884 0.16793842350399046
v -0.03098716883020991 0.031506444520157384 0.16078356171395747
v -0.032473920457223304 0.02822520962309616 0.16642952755829832
v -0.03098716883020991 0.031506444520157384 0.16078356171395747
v -0.030423074259959826 0.028700747899467194 0.16877869453999494
v -0.032473920457223304 0.02822520962309616 0.16642952755829832
v -0.030423074259959826 0.028700747899467194 0.16877869453999494
v -0.03311296620290838 0.026324782668206703 0.17362371124961307
v -0.032157106019568005 -0.02778251779909091 0.16860569038138706
v -0.0304321417957909 -0.02873265402891234 0.16827957952605388
v -0.03125199275636259 -0.031068419978478312 0.16100435640217903
v -0.03039939834025618 0.02653526241453208 0.1733540884340723
v -0.030398013605082985 -0.026327016173561812 0.1732415548593913
v -0.03311296620290838 0.026324782668206703 0.17362371124961307
v -0.03311296620290838 0.026324782668206703 0.17362371124961307
v -0.030398013605082985 -0.026327016173561812 0.1732415548593913
v -0.03312994923594159 -0.02648735935134372 0.17383693757810015
v -0.03312994923594159 -0.02648735935134372 0.17383693757810015
v -0.04066619303261465 0.018886343899372493 0.17387761751167297
v -0.03311296620290838 0.026324782668206703 0.17362371124961307
v -0.042885908256453664 -0.01511755919735458 0.17387479463556232
v -0.04066619303261465 0.018886343899372493 0.17387761751167297
v -0.03312994923594159 -0.02648735935134372 0.17383693757810015
v -0.04066619303261465 0.018886343899372493 0.17387761751167297
v -0.042885908256453664 -0.01511755919735458 0.17387479463556232
v -0.0465744422146086 0.0026871184194861286 0.1738839346506449
v -0.030398013605082985 -0.026327016173561812 0.1732415548593913
v -0.0303998808994832 -0.015067482710295899 0.16987686964098359
v -0.0304321417957909 -0.02873265402891234 0.16827957952605388
v -0.0304321417957909 -0.02873265402891234 0.16827957952605388
v -0.0303998808994832 -0.015067482710295899 0.16987686964098359
v -0.03125199275636259 -0.031068419978478312 0.16100435640217903
v -0.0303998808994832 -0.015067482710295899 0.16987686964098359
v -0.030398013605082985 -0.026327016173561812 0.1732415548593913
v -0.03039991904645767 0.003189928921578794 0.17196715599514967
v -0.03039991904645767 0.003189928921578794 0.17196715599514967
v -0.030398013605082985 -0.026327016173561812 0.1732415548593913
v -0.03039939834025618 0.02653526241453208 0.1733540884340723
v -0.03039991904645767 0.003189928921578794 0.17196715599514967
v -0.03039939834025618 0.02653526241453208 0.1733540884340723
v -0.03039966155438001 0.02002197932928884 0.16793842350399046
v -0.03039966155438001 0.02002197932928884 0.16793842350399046
v -0.03039939834025618 0.02653526241453208 0.1733540884340723
v -0.030423074259959826 0.028700747899467194 0.16877869453999494
v -0.03039966155438001 0.02002197932928884 0.16793842350399046
v -0.030423074259959826 0.028700747899467194 0.16877869453999494
v -0.03098716883020991 0.031506444520157384 0.16078356171395747
v -0.01697121128582557 0.03468392346136273 0.18913338605854868
v -0.03078688767750859 0.03078954079958285 0.1891330198475938
v -0.044496996132048494 0.01672340091028568 0.18913346235249762
v -0.044496996132048494 0.01672340091028568 0.18913346235249762
v -0.04873047106457307 1.4492628619435977e-13 0.18913346235249762
v -0.01697121128582557 0.03468392346136273 0.18913338605854868
v -0.01697121128582557 0.03468392346136273 0.18913338605854868
v -0.04873047106457307 1.4492628619435977e-13 0.18913346235249762
v 0.03493018506973922 0.0016843773926638467 0.18913308088275294
v 0.03493018506973922 0.0016843773926638467 0.18913308088275294
v -0.04873047106457307 1.4492628619435977e-13 0.18913346235249762
v 0.007215778693561159 -0.03431446619894141 0.18913340131733847
v 0.007215778693561159 -0.03431446619894141 0.18913340131733847
v -0.04873047106457307 1.4492628619435977e-13 0.18913346235249762
v -0.020663590459006898 -0.03440813990944536 0.18913334028217932
v -0.020663590459006898 -0.03440813990944536 0.18913334028217932
v -0.04873047106457307 1.4492628619435977e-13 0.18913346235249762
v -0.04449700376144339 -0.01672338374414717 0.18913346235249762
v -0.020663590459006898 -0.03440813990944536 0.18913334028217932
v -0.04449700376144339 -0.01672338374414717 0.18913346235249762
v -0.03406477899225768 -0.028403277792564685 0.1891333555409691
v 0.021919913379396805 -0.027482915276315634 0.18913340131733847
v 0.03244856034859689 -0.01352346389153658 0.18913340131733847
v 0.007215778693561159 -0.03431446619894141 0.18913340131733847
v 0.007215778693561159 -0.03431446619894141 0.18913340131733847
v 0.03244856034859689 -0.01352346389153658 0.18913340131733847
v 0.03493018506973922 0.0016843773926638467 0.18913308088275294
v -0.01697121128582557 0.03468392346136273 0.18913338605854868
v 0.03493018506973922 0.0016843773926638467 0.18913308088275294
v 0.005320104374853252 0.03457866451471281 0.18913340131733847
v 0.005320104374853252 0.03457866451471281 0.18913340131733847
v 0.03493018506973922 0.0016843773926638467 0.18913308088275294
v 0.031103498028850485 0.01638186723317503 0.18913340131733847
v 0.005320104374853252 0.03457866451471281 0.18913340131733847
v 0.031103498028850485 0.01638186723317503 0.18913340131733847
v 0.019364186253001403 0.029339759312875247 0.18913340131733847
v -0.03010000181114303 -0.02526639104689088 0.11785703837378758
v -0.028400000967457872 -0.023835683047417344 0.1314348359547335
v -0.028400000967457872 -0.024829558598163937 0.11876112166868236
v -0.03010000181114303 -0.02526639104689088 0.11785703837378758
v -0.028400000967457872 -0.024829558598163937 0.11876112166868236
v -0.028400000967457872 -0.01745273100779321 0.10393459813731187
v -0.03010000181114303 -0.02526639104689088 0.11785703837378758
v -0.028400000967457872 -0.01745273100779321 0.10393459813731187
v -0.03010000181114303 -0.0164534595675081 0.10383650700716451
v -0.03010000181114303 -0.0164534595675081 0.10383650700716451
v -0.028400000967457872 -0.01745273100779321 0.10393459813731187
v -0.03010000181114303 -0.0015277738104727684 0.09716724094332108
v -0.03010000181114303 -0.0015277738104727684 0.09716724094332108
v -0.028400000967457872 -0.01745273100779321 0.10393459813731187
v -0.028400000967457872 -0.0022919756070624575 0.09781854712660021
v -0.03010000181114303 -0.0015277738104727684 0.09716724094332108
v -0.028400000967457872 -0.0022919756070624575 0.09781854712660021
v -0.028400000967457872 0.01391826981849198 0.10120538047838412
v -0.03010000181114303 -0.0015277738104727684 0.09716724094332108
v -0.028400000967457872 0.01391826981849198 0.10120538047838412
v -0.03010000181114303 0.014265935621748382 0.10214735897771554
v -0.03010000181114303 0.014265935621748382 0.10214735897771554
v -0.028400000967457872 0.01391826981849198 0.10120538047838412
v -0.029371430838427415 0.02289417184852316 0.11215105970921346
v -0.03010000181114303 0.025565890572835093 0.12605200794027382
v -0.029371430838427415 0.02289417184852316 0.11215105970921346
v -0.028400000967457872 0.02506422924834828 0.12518224929300548
v -0.03010000181114303 0.025565890572835093 0.12605200794027382
v -0.028400000967457872 0.02506422924834828 0.12518224929300548
v -0.02839999906010915 0.018789355216787262 0.1405076665858651
v -0.03010000181114303 0.025565890572835093 0.12605200794027382
v -0.02839999906010915 0.018789355216787262 0.1405076665858651
v -0.03010000181114303 0.01779990280773025 0.14067844296116405
v -0.03010000181114303 0.01779990280773025 0.14067844296116405
v -0.02839999906010915 0.018789355216787262 0.1405076665858651
v -0.03010000181114303 0.0034008802598760324 0.14841942538450503
v -0.03010000181114303 0.0034008802598760324 0.14841942538450503
v -0.02839999906010915 0.018789355216787262 0.1405076665858651
v -0.028400000967457872 0.004115481095285645 0.14771408782658924
v -0.03010000181114303 0.0034008802598760324 0.14841942538450503
v -0.028400000967457872 0.004115481095285645 0.14771408782658924
v -0.028400023855642553 -0.01229876672032948 0.14551953816180685
v -0.03010000181114303 0.0034008802598760324 0.14841942538450503
v -0.028400023855642553 -0.01229876672032948 0.14551953816180685
v -0.03010000181114303 -0.012714252122144054 0.14460546035960142
v -0.03010000181114303 -0.012714252122144054 0.14460546035960142
v -0.028400023855642553 -0.01229876672032948 0.14551953816180685
v -0.03010000181114303 -0.02182009991335221 0.1357344729997756
v -0.03010000181114303 -0.02182009991335221 0.1357344729997756
v -0.028400023855642553 -0.01229876672032948 0.14551953816180685
v -0.028400000967457872 -0.023835683047417344 0.1314348359547335
v -0.03010000181114303 -0.02182009991335221 0.1357344729997756
v -0.028400000967457872 -0.023835683047417344 0.1314348359547335
v -0.03010000181114303 -0.02526639104689088 0.11785703837378758
v -0.03010000181114303 -0.02182009991335221 0.1357344729997756
v -0.03010000181114303 -0.02526639104689088 0.11785703837378758
v -0.03010000181114303 -0.012714252122144054 0.14460546035960142
v -0.03010000181114303 -0.012714252122144054 0.14460546035960142
v -0.03010000181114303 -0.02526639104689088 0.11785703837378758
v -0.03010000181114303 0.0034008802598760324 0.14841942538450503
v -0.03010000181114303 0.0034008802598760324 0.14841942538450503
v -0.03010000181114303 -0.02526639104689088 0.11785703837378758
v -0.03010000181114303 0.01779990280773025 0.14067844296116405
v -0.03010000181114303 0.01779990280773025 0.14067844296116405
v -0.03010000181114303 -0.02526639104689088 0.11785703837378758
v -0.03010000181114303 0.025565890572835093 0.12605200794027382
v -0.03010000181114303 0.025565890572835093 0.12605200794027382
v -0.03010000181114303 -0.02526639104689088 0.11785703837378758
v -0.029371430838427415 0.02289417184852316 0.11215105970921346
v -0.029371430838427415 0.02289417184852316 0.11215105970921346
v -0.03010000181114303 -0.02526639104689088 0.11785703837378758
v -0.03010000181114303 -0.0164534595675081 0.10383650700716451
v -0.029371430838427415 0.02289417184852316 0.11215105970921346
v -0.03010000181114303 -0.0164534595675081 0.10383650700716451
v -0.03010000181114303 0.014265935621748382 0.10214735897771554
v -0.03010000181114303 0.014265935621748382 0.10214735897771554
v -0.03010000181114303 -0.0164534595675081 0.10383650700716451
v -0.03010000181114303 -0.0015277738104727684 0.09716724094332108
v -0.04839169541371646 -0.017832613838336675 0.15191472584349164
v -0.04840299073285648 -0.024572011207391053 0.14681847316002639
v -0.03333133092885632 -0.03427343531320348 0.15857216634524995
v -0.03333133092885632 -0.03427343531320348 0.15857216634524995
v -0.04840299073285648 -0.024572011207391053 0.14681847316002639
v -0.033441754975849225 -0.04299902547984402 0.1470192177984675
v -0.033441754975849225 -0.04299902547984402 0.1470192177984675
v -0.04840299073285648 -0.024572011207391053 0.14681847316002639
v -0.048400789652429665 -0.033081807754162806 0.1321064058108501
v -0.033441754975849225 -0.04299902547984402 0.1470192177984675
v -0.048400789652429665 -0.033081807754162806 0.1321064058108501
v -0.03346121374752542 -0.04909476704134885 0.12760281215211666
v -0.03346121374752542 -0.04909476704134885 0.12760281215211666
v -0.048400789652429665 -0.033081807754162806 0.1321064058108501
v -0.04840307465620031 -0.03336824575604913 0.11478730556196748
v -0.03346121374752542 -0.04909476704134885 0.12760281215211666
v -0.04840307465620031 -0.03336824575604913 0.11478730556196748
v -0.033407720245228756 -0.0468386481597749 0.10743237814963891
v -0.033407720245228756 -0.0468386481597749 0.10743237814963891
v -0.04840307465620031 -0.03336824575604913 0.11478730556196748
v -0.04841390839694926 -0.022498299713631376 0.09640607910296861
v -0.033407720245228756 -0.0468386481597749 0.10743237814963891
v -0.04841390839694926 -0.022498299713631376 0.09640607910296861
v -0.03338696829111809 -0.036707685306753834 0.08994269226032969
v -0.03338696829111809 -0.036707685306753834 0.08994269226032969
v -0.04841390839694926 -0.022498299713631376 0.09640607910296861
v -0.033389764464346605 -0.020418826119378286 0.07798868168277906
v -0.033389764464346605 -0.020418826119378286 0.07798868168277906
v -0.04841390839694926 -0.022498299713631376 0.09640607910296861
v -0.04840344468185265 -0.0026293109712142992 0.08864201776007441
v -0.033389764464346605 -0.020418826119378286 0.07798868168277906
v -0.04840344468185265 -0.0026293109712142992 0.08864201776007441
v -0.03346090475703223 -0.0004701906665970784 0.07356546369924999
v -0.03346090475703223 -0.0004701906665970784 0.07356546369924999
v -0.04840344468185265 -0.0026293109712142992 0.08864201776007441
v -0.048403448496550094 0.014417070119893682 0.09171887642672516
v -0.03346090475703223 -0.0004701906665970784 0.07356546369924999
v -0.048403448496550094 0.014417070119893682 0.09171887642672516
v -0.033394445098113845 0.019487368555605178 0.07757538210260151
v -0.033394445098113845 0.019487368555605178 0.07757538210260151
v -0.048403448496550094 0.014417070119893682 0.09171887642672516
v -0.03338545767092915 0.036017446321332525 0.08918992275436022
v -0.03338545767092915 0.036017446321332525 0.08918992275436022
v -0.048403448496550094 0.014417070119893682 0.09171887642672516
v -0.04840345231124754 0.02778377664924836 0.10270977508108903
v -0.03338545767092915 0.036017446321332525 0.08918992275436022
v -0.04840345231124754 0.02778377664924836 0.10270977508108903
v -0.03339965978952364 0.04650935966146852 0.1064729054478164
v -0.03339965978952364 0.04650935966146852 0.1064729054478164
v -0.04840345231124754 0.02778377664924836 0.10270977508108903
v -0.048412893687428404 0.03474412701646834 0.12290191471203915
v -0.03339965978952364 0.04650935966146852 0.1064729054478164
v -0.048412893687428404 0.03474412701646834 0.12290191471203915
v -0.03345927206652499 0.04917417378340172 0.1266671126447827
v -0.03345927206652499 0.04917417378340172 0.1266671126447827
v -0.048412893687428404 0.03474412701646834 0.12290191471203915
v -0.03339976660105215 0.0432555944007218 0.14668071680582706
v -0.03339976660105215 0.0432555944007218 0.14668071680582706
v -0.048412893687428404 0.03474412701646834 0.12290191471203915
v -0.04840971222975776 0.02591781357844214 0.1459152443573597
v -0.03339976660105215 0.0432555944007218 0.14668071680582706
v -0.04840971222975776 0.02591781357844214 0.1459152443573597
v -0.042118215654072255 0.023955229943354306 0.156059638760091
v -0.02847531453915031 -0.03975897787111604 0.1514831004567796
v -0.033441754975849225 -0.04299902547984402 0.1470192177984675
v -0.028457669656110074 -0.04647009116595102 0.13886159411998555
v -0.028457669656110074 -0.04647009116595102 0.13886159411998555
v -0.033441754975849225 -0.04299902547984402 0.1470192177984675
v -0.03346121374752542 -0.04909476704134885 0.12760281215211666
v -0.028457669656110074 -0.04647009116595102 0.13886159411998555
v -0.03346121374752542 -0.04909476704134885 0.12760281215211666
v -0.028481248301028828 -0.04883467334003022 0.12848555602949396
v -0.028481248301028828 -0.04883467334003022 0.12848555602949396
v -0.03346121374752542 -0.04909476704134885 0.12760281215211666
v -0.0284790949043201 -0.048609770222658444 0.11669217473203375
v -0.0284790949043201 -0.048609770222658444 0.11669217473203375
v -0.03346121374752542 -0.04909476704134885 0.12760281215211666
v -0.033407720245228756 -0.0468386481597749 0.10743237814963891
v -0.0284790949043201 -0.048609770222658444 0.11669217473203375
v -0.033407720245228756 -0.0468386481597749 0.10743237814963891
v -0.028470071237509664 -0.045865598949739184 0.105282979243837
v -0.028470071237509664 -0.045865598949739184 0.105282979243837
v -0.033407720245228756 -0.0468386481597749 0.10743237814963891
v -0.03338696829111809 -0.036707685306753834 0.08994269226032969
v -0.028470071237509664 -0.045865598949739184 0.105282979243837
v -0.03338696829111809 -0.036707685306753834 0.08994269226032969
v -0.028458587090846033 -0.037971528903160134 0.09160573250045267
v -0.028458587090846033 -0.037971528903160134 0.09160573250045267
v -0.03338696829111809 -0.036707685306753834 0.08994269226032969
v -0.028506413860085456 -0.024121943665872392 0.07996339796309648
v -0.028506413860085456 -0.024121943665872392 0.07996339796309648
v -0.03338696829111809 -0.036707685306753834 0.08994269226032969
v -0.033389764464346605 -0.020418826119378286 0.07798868168277906
v -0.028506413860085456 -0.024121943665872392 0.07996339796309648
v -0.033389764464346605 -0.020418826119378286 0.07798868168277906
v -0.02847049466892626 -0.005882751744259451 0.07395086258230155
v -0.02847049466892626 -0.005882751744259451 0.07395086258230155
v -0.033389764464346605 -0.020418826119378286 0.07798868168277906
v -0.03346090475703223 -0.0004701906665970784 0.07356546369924999
v -0.02847049466892626 -0.005882751744259451 0.07395086258230155
v -0.03346090475703223 -0.0004701906665970784 0.07356546369924999
v -0.02846736470967115 0.012221219643281933 0.075270244358836
v -0.02846736470967115 0.012221219643281933 0.075270244358836
v -0.03346090475703223 -0.0004701906665970784 0.07356546369924999
v -0.033394445098113845 0.019487368555605178 0.07757538210260151
v -0.02846736470967115 0.012221219643281933 0.075270244358836
v -0.033394445098113845 0.019487368555605178 0.07757538210260151
v -0.028477618616408185 0.024287289819355795 0.0802934226980101
v -0.028477618616408185 0.024287289819355795 0.0802934226980101
v -0.033394445098113845 0.019487368555605178 0.07757538210260151
v -0.03338545767092915 0.036017446321332525 0.08918992275436022
v -0.028477618616408185 0.024287289819355795 0.0802934226980101
v -0.03338545767092915 0.036017446321332525 0.08918992275436022
v -0.028436250129946217 0.03365246360402141 0.08717990526386998
v -0.028436250129946217 0.03365246360402141 0.08717990526386998
v -0.03338545767092915 0.036017446321332525 0.08918992275436022
v -0.02845714132051369 0.04299793447637423 0.09889958660665776
v -0.02845714132051369 0.04299793447637423 0.09889958660665776
v -0.03338545767092915 0.036017446321332525 0.08918992275436022
v -0.03339965978952364 0.04650935966146852 0.1064729054478164
v -0.02845714132051369 0.04299793447637423 0.09889958660665776
v -0.03339965978952364 0.04650935966146852 0.1064729054478164
v -0.02850383512461141 0.04852343980473961 0.11500356076022733
v -0.02850383512461141 0.04852343980473961 0.11500356076022733
v -0.03339965978952364 0.04650935966146852 0.1064729054478164
v -0.03345927206652499 0.04917417378340172 0.1266671126447827
v -0.02850383512461141 0.04852343980473961 0.11500356076022733
v -0.03345927206652499 0.04917417378340172 0.1266671126447827
v -0.028464583795232423 0.048482637800848494 0.13097431042016439
v -0.028464583795232423 0.048482637800848494 0.13097431042016439
v -0.03345927206652499 0.04917417378340172 0.1266671126447827
v -0.03339976660105215 0.0432555944007218 0.14668071680582706
v -0.028464583795232423 0.048482637800848494 0.13097431042016439
v -0.03339976660105215 0.0432555944007218 0.14668071680582706
v -0.02847888128126308 0.0441430646882357 0.14430527418811678
v -0.02847888128126308 0.0441430646882357 0.14430527418811678
v -0.03339976660105215 0.0432555944007218 0.14668071680582706
v -0.02844398442901963 0.03828259077706564 0.1533351513259973
v 0.007215778693561159 -0.03431446619894141 0.18913340131733847
v -0.011416021889277816 -0.03511012053360796 0.1738832174875249
v 0.01145931393692734 -0.03323367848891534 0.17388340059300234
v 0.007215778693561159 -0.03431446619894141 0.18913340131733847
v 0.01145931393692734 -0.03323367848891534 0.17388340059300234
v 0.021919913379396805 -0.027482915276315634 0.18913340131733847
v 0.021919913379396805 -0.027482915276315634 0.18913340131733847
v 0.01145931393692734 -0.03323367848891534 0.17388340059300234
v 0.02921106095776338 -0.02036152364168098 0.17388340059300234
v 0.021919913379396805 -0.027482915276315634 0.18913340131733847
v 0.02921106095776338 -0.02036152364168098 0.17388340059300234
v 0.03244856034859689 -0.01352346389153658 0.18913340131733847
v 0.03244856034859689 -0.01352346389153658 0.18913340131733847
v 0.02921106095776338 -0.02036152364168098 0.17388340059300234
v 0.034619466518603925 -0.0041995136348299544 0.17387628999696148
v 0.03244856034859689 -0.01352346389153658 0.18913340131733847
v 0.034619466518603925 -0.0041995136348299544 0.17387628999696148
v 0.03493018506973922 0.0016843773926638467 0.18913308088275294
v 0.03493018506973922 0.0016843773926638467 0.18913308088275294
v 0.034619466518603925 -0.0041995136348299544 0.17387628999696148
v 0.03482000134868546 -1.0007046333937945e-10 0.1741818930388206
v 0.03482000134868546 -1.0007046333937945e-10 0.1741818930388206
v 0.034619466518603925 -0.0041995136348299544 0.17387628999696148
v 0.034751291018273456 0.002186365946666019 0.17388340059300234
v 0.03482000134868546 -1.0007046333937945e-10 0.1741818930388206
v 0.034751291018273456 0.002186365946666019 0.17388340059300234
v 0.03481902860083652 0.00026047362134247465 0.17418090121748442
v 0.03481902860083652 0.00026047362134247465 0.17418090121748442
v 0.034751291018273456 0.002186365946666019 0.17388340059300234
v 0.03481610654259226 0.0005209328183602285 0.17417992465493803
v 0.03481610654259226 0.0005209328183602285 0.17417992465493803
v 0.034751291018273456 0.002186365946666019 0.17388340059300234
v 0.03481123898865013 0.0007813629283099505 0.17417894809239165
v 0.03481123898865013 0.0007813629283099505 0.17417894809239165
v 0.034751291018273456 0.002186365946666019 0.17388340059300234
v 0.03459894344634007 0.0039173483325026515 0.17417894809239165
v 0.03459894344634007 0.0039173483325026515 0.17417894809239165
v 0.034751291018273456 0.002186365946666019 0.17388340059300234
v 0.033760018998534314 0.008842825355924733 0.1738781668281053
v 0.03459894344634007 0.0039173483325026515 0.17417894809239165
v 0.033760018998534314 0.008842825355924733 0.1738781668281053
v 0.03493018506973922 0.0016843773926638467 0.18913308088275294
v 0.03493018506973922 0.0016843773926638467 0.18913308088275294
v 0.033760018998534314 0.008842825355924733 0.1738781668281053
v 0.031103498028850485 0.01638186723317503 0.18913340131733847
v 0.031103498028850485 0.01638186723317503 0.18913340131733847
v 0.033760018998534314 0.008842825355924733 0.1738781668281053
v 0.025474469441173486 0.024878285636000808 0.17388340059300234
v 0.031103498028850485 0.01638186723317503 0.18913340131733847
v 0.025474469441173486 0.024878285636000808 0.17388340059300234
v 0.019364186253001403 0.029339759312875247 0.18913340131733847
v 0.019364186253001403 0.029339759312875247 0.18913340131733847
v 0.025474469441173486 0.024878285636000808 0.17388340059300234
v 0.007215778693561159 0.03431446619894141 0.17388340059300234
v 0.019364186253001403 0.029339759312875247 0.18913340131733847
v 0.007215778693561159 0.03431446619894141 0.17388340059300234
v 0.005320104374853252 0.03457866451471281 0.18913340131733847
v 0.03459894344634007 0.0039173483325026515 0.17417894809239165
v 0.03493018506973922 0.0016843773926638467 0.18913308088275294
v 0.03473117611863641 0.0024933773271387794 0.17418090121748442
v 0.03473117611863641 0.0024933773271387794 0.17418090121748442
v 0.03493018506973922 0.0016843773926638467 0.18913308088275294
v 0.03481142590882502 0.0007813753260766526 0.17418181674487165
v 0.03481142590882502 0.0007813753260766526 0.17418181674487165
v 0.03493018506973922 0.0016843773926638467 0.18913308088275294
v 0.03482000134868546 -1.0007046333937945e-10 0.1741818930388206
v -0.028400000967457872 -0.023835683047417344 0.1314348359547335
v -0.028481248301028828 -0.04883467334003022 0.12848555602949396
v -0.028400000967457872 -0.024829558598163937 0.11876112166868236
v -0.028400000967457872 -0.024829558598163937 0.11876112166868236
v -0.028481248301028828 -0.04883467334003022 0.12848555602949396
v -0.0284790949043201 -0.048609770222658444 0.11669217473203375
v -0.028481248301028828 -0.04883467334003022 0.12848555602949396
v -0.028400000967457872 -0.023835683047417344 0.1314348359547335
v -0.028457669656110074 -0.04647009116595102 0.13886159411998555
v -0.028457669656110074 -0.04647009116595102 0.13886159411998555
v -0.028400000967457872 -0.023835683047417344 0.1314348359547335
v -0.02847531453915031 -0.03975897787111604 0.1514831004567796
v -0.02847531453915031 -0.03975897787111604 0.1514831004567796
v -0.028400000967457872 -0.023835683047417344 0.1314348359547335
v -0.028400023855642553 -0.01229876672032948 0.14551953816180685
v -0.02847531453915031 -0.03975897787111604 0.1514831004567796
v -0.028400023855642553 -0.01229876672032948 0.14551953816180685
v -0.0284287599715094 -0.0344857766318829 0.15891143027737975
v -0.0284287599715094 -0.0344857766318829 0.15891143027737975
v -0.028400023855642553 -0.01229876672032948 0.14551953816180685
v -0.02843368283856451 -0.031638974738854575 0.17035025833534334
v -0.02843368283856451 -0.031638974738854575 0.17035025833534334
v -0.028400023855642553 -0.01229876672032948 0.14551953816180685
v -0.028261813552447057 -0.031935252752804955 0.1738834463693717
v -0.028261813552447057 -0.031935252752804955 0.1738834463693717
v -0.028400023855642553 -0.01229876672032948 0.14551953816180685
v -0.028400000967457872 0.004115481095285645 0.14771408782658924
v -0.028261813552447057 -0.031935252752804955 0.1738834463693717
v -0.028400000967457872 0.004115481095285645 0.14771408782658924
v -0.02840383473839192 0.031091226147164086 0.17276519070102303
v -0.02840383473839192 0.031091226147164086 0.17276519070102303
v -0.028400000967457872 0.004115481095285645 0.14771408782658924
v -0.028422498145650454 0.0337468659217377 0.16087950898413972
v -0.028422498145650454 0.0337468659217377 0.16087950898413972
v -0.028400000967457872 0.004115481095285645 0.14771408782658924
v -0.02839999906010915 0.018789355216787262 0.1405076665858651
v -0.028422498145650454 0.0337468659217377 0.16087950898413972
v -0.02839999906010915 0.018789355216787262 0.1405076665858651
v -0.02844398442901963 0.03828259077706564 0.1533351513259973
v -0.02844398442901963 0.03828259077706564 0.1533351513259973
v -0.02839999906010915 0.018789355216787262 0.1405076665858651
v -0.02847888128126308 0.0441430646882357 0.14430527418811678
v -0.02847888128126308 0.0441430646882357 0.14430527418811678
v -0.02839999906010915 0.018789355216787262 0.1405076665858651
v -0.028400000967457872 0.02506422924834828 0.12518224929300548
v -0.02847888128126308 0.0441430646882357 0.14430527418811678
v -0.028400000967457872 0.02506422924834828 0.12518224929300548
v -0.028464583795232423 0.048482637800848494 0.13097431042016439
v -0.028464583795232423 0.048482637800848494 0.13097431042016439
v -0.028400000967457872 0.02506422924834828 0.12518224929300548
v -0.02850383512461141 0.04852343980473961 0.11500356076022733
v -0.02850383512461141 0.04852343980473961 0.11500356076022733
v -0.028400000967457872 0.02506422924834828 0.12518224929300548
v -0.02845714132051369 0.04299793447637423 0.09889958660665776
v -0.02845714132051369 0.04299793447637423 0.09889958660665776
v -0.028400000967457872 0.02506422924834828 0.12518224929300548
v -0.028436250129946217 0.03365246360402141 0.08717990526386998
v -0.028436250129946217 0.03365246360402141 0.08717990526386998
v -0.028400000967457872 0.02506422924834828 0.12518224929300548
v -0.029371430838427415 0.02289417184852316 0.11215105970921346
v -0.028436250129946217 0.03365246360402141 0.08717990526386998
v -0.029371430838427415 0.02289417184852316 0.11215105970921346
v -0.028400000967457872 0.01391826981849198 0.10120538047838412
v -0.028436250129946217 0.03365246360402141 0.08717990526386998
v -0.028400000967457872 0.01391826981849198 0.10120538047838412
v -0.028477618616408185 0.024287289819355795 0.0802934226980101
v -0.028477618616408185 0.024287289819355795 0.0802934226980101
v -0.028400000967457872 0.01391826981849198 0.10120538047838412
v -0.02846736470967115 0.012221219643281933 0.075270244358836
v -0.02846736470967115 0.012221219643281933 0.075270244358836
v -0.028400000967457872 0.01391826981849198 0.10120538047838412
v -0.028400000967457872 -0.0022919756070624575 0.09781854712660021
v -0.02846736470967115 0.012221219643281933 0.075270244358836
v -0.028400000967457872 -0.0022919756070624575 0.09781854712660021
v -0.02847049466892626 -0.005882751744259451 0.07395086258230155
v -0.02847049466892626 -0.005882751744259451 0.07395086258230155
v -0.028400000967457872 -0.0022919756070624575 0.09781854712660021
v -0.028400000967457872 -0.01745273100779321 0.10393459813731187
v -0.02847049466892626 -0.005882751744259451 0.07395086258230155
v -0.028400000967457872 -0.01745273100779321 0.10393459813731187
v -0.028506413860085456 -0.024121943665872392 0.07996339796309648
v -0.028506413860085456 -0.024121943665872392 0.07996339796309648
v -0.028400000967457872 -0.01745273100779321 0.10393459813731187
v -0.028458587090846033 -0.037971528903160134 0.09160573250045267
v -0.028458587090846033 -0.037971528903160134 0.09160573250045267
v -0.028400000967457872 -0.01745273100779321 0.10393459813731187
v -0.028400000967457872 -0.024829558598163937 0.11876112166868236
v -0.028400000967457872 -0.024829558598163937 0.11876112166868236
v -0.0284790949043201 -0.048609770222658444 0.11669217473203375
v -0.028470071237509664 -0.045865598949739184 0.105282979243837
v -0.028400000967457872 -0.024829558598163937 0.11876112166868236
v -0.028470071237509664 -0.045865598949739184 0.105282979243837
v -0.028458587090846033 -0.037971528903160134 0.09160573250045267
v 0.01145931393692734 -0.03323367848891534 0.17388340059300234
v -0.011416021889277816 -0.03511012053360796 0.1738832174875249
v -0.028261813552447057 -0.031935252752804955 0.1738834463693717
v 0.01145931393692734 -0.03323367848891534 0.17388340059300234
v -0.028261813552447057 -0.031935252752804955 0.1738834463693717
v -0.019701455098366516 0.034515905112317835 0.17388335481663297
v 0.01145931393692734 -0.03323367848891534 0.17388340059300234
v -0.019701455098366516 0.034515905112317835 0.17388335481663297
v 0.007215778693561159 0.03431446619894141 0.17388340059300234
v -0.019701455098366516 0.034515905112317835 0.17388335481663297
v -0.028261813552447057 -0.031935252752804955 0.1738834463693717
v -0.02840383473839192 0.031091226147164086 0.17276519070102303
v 0.007215778693561159 0.03431446619894141 0.17388340059300234
v 0.025474469441173486 0.024878285636000808 0.17388340059300234
v 0.01145931393692734 -0.03323367848891534 0.17388340059300234
v 0.01145931393692734 -0.03323367848891534 0.17388340059300234
v 0.025474469441173486 0.024878285636000808 0.17388340059300234
v 0.02921106095776338 -0.02036152364168098 0.17388340059300234
v 0.02921106095776338 -0.02036152364168098 0.17388340059300234
v 0.025474469441173486 0.024878285636000808 0.17388340059300234
v 0.033760018998534314 0.008842825355924733 0.1738781668281053
v 0.02921106095776338 -0.02036152364168098 0.17388340059300234
v 0.033760018998534314 0.008842825355924733 0.1738781668281053
v 0.034619466518603925 -0.0041995136348299544 0.17387628999696148
v 0.034619466518603925 -0.0041995136348299544 0.17387628999696148
v 0.033760018998534314 0.008842825355924733 0.1738781668281053
v 0.034751291018273456 0.002186365946666019 0.17388340059300234
v -0.04829308167001889 -0.010335732950942922 0.15542807745079656
v -0.048292547612376335 -0.00667306359515174 0.15632854441251176
v -0.04840000382475562 -0.004154222685718301 0.15662865429004746
v -0.04840000382475562 -0.004154222685718301 0.15662865429004746
v -0.048292547612376335 -0.00667306359515174 0.15632854441251176
v -0.048342779548355974 -0.004532455182778838 0.1566338880549445
v -0.04840000382475562 -0.004154222685718301 0.15662865429004746
v -0.048342779548355974 -0.004532455182778838 0.1566338880549445
v -0.04838246003119773 -0.0023170846609131546 0.15682004529034899
v -0.04840000382475562 -0.004154222685718301 0.15662865429004746
v -0.04838246003119773 -0.0023170846609131546 0.15682004529034899
v -0.04840000382475562 -3.18835933877278e-08 0.15688339978554566
v -0.04840000382475562 -3.18835933877278e-08 0.15688339978554566
v -0.04838246003119773 -0.0023170846609131546 0.15682004529034899
v -0.04839939347316413 -4.33511680093682e-06 0.15688401013713715
v -0.04840000382475562 -3.18835933877278e-08 0.15688339978554566
v -0.04839939347316413 -4.33511680093682e-06 0.15688401013713715
v -0.04838260117500326 0.0023091918134771072 0.15682047253646303
v -0.04840000382475562 -3.18835933877278e-08 0.15688339978554566
v -0.04838260117500326 0.0023091918134771072 0.15682047253646303
v -0.04840000382475562 0.004154159743210428 0.15662866954883725
v -0.04840000382475562 0.004154159743210428 0.15662866954883725
v -0.04838260117500326 0.0023091918134771072 0.15682047253646303
v -0.04833776703591086 0.0039042000240778474 0.15688361340860268
v -0.04840000382475562 0.004154159743210428 0.15662866954883725
v -0.04833776703591086 0.0039042000240778474 0.15688361340860268
v -0.04840000382475562 0.008246102724737692 0.15586827827736904
v -0.04840000382475562 0.008246102724737692 0.15586827827736904
v -0.04833776703591086 0.0039042000240778474 0.15688361340860268
v -0.04821042862043878 0.01026067973235123 0.15568811774635094
v -0.04840000382475562 0.008246102724737692 0.15586827827736904
v -0.04821042862043878 0.01026067973235123 0.15568811774635094
v -0.04827428284100099 0.013834351243033893 0.15436827820612287
v -0.02840383473839192 0.031091226147164086 0.17276519070102303
v -0.03307328953476407 0.028971530383031796 0.17120162251152315
v -0.03078688767750859 0.03078954079958285 0.1891330198475938
v -0.03078688767750859 0.03078954079958285 0.1891330198475938
v -0.03307328953476407 0.028971530383031796 0.17120162251152315
v -0.040407140743699 0.022577086567349136 0.16977320142316898
v -0.03078688767750859 0.03078954079958285 0.1891330198475938
v -0.040407140743699 0.022577086567349136 0.16977320142316898
v -0.044496996132048494 0.01672340091028568 0.18913346235249762
v -0.044496996132048494 0.01672340091028568 0.18913346235249762
v -0.040407140743699 0.022577086567349136 0.16977320142316898
v -0.04654156333731452 0.012138342480226827 0.1699618458413088
v -0.044496996132048494 0.01672340091028568 0.18913346235249762
v -0.04654156333731452 0.012138342480226827 0.1699618458413088
v -0.04873047106457307 1.4492628619435977e-13 0.18913346235249762
v -0.04873047106457307 1.4492628619435977e-13 0.18913346235249762
v -0.04654156333731452 0.012138342480226827 0.1699618458413088
v -0.04833776703591086 0.0039042000240778474 0.15688361340860268
v -0.04873047106457307 1.4492628619435977e-13 0.18913346235249762
v -0.04833776703591086 0.0039042000240778474 0.15688361340860268
v -0.048310659795853805 -0.0043124110362799395 0.16417006700176096
v -0.04873047106457307 1.4492628619435977e-13 0.18913346235249762
v -0.048310659795853805 -0.0043124110362799395 0.16417006700176096
v -0.04449700376144339 -0.01672338374414717 0.18913346235249762
v -0.04449700376144339 -0.01672338374414717 0.18913346235249762
v -0.048310659795853805 -0.0043124110362799395 0.16417006700176096
v -0.04568872287322279 -0.013919693654314003 0.1698622517203674
v -0.04449700376144339 -0.01672338374414717 0.18913346235249762
v -0.04568872287322279 -0.013919693654314003 0.1698622517203674
v -0.041348882731788716 -0.02122580819811315 0.17178890281285497
v -0.04449700376144339 -0.01672338374414717 0.18913346235249762
v -0.041348882731788716 -0.02122580819811315 0.17178890281285497
v -0.03406477899225768 -0.028403277792564685 0.1891333555409691
v -0.03406477899225768 -0.028403277792564685 0.1891333555409691
v -0.041348882731788716 -0.02122580819811315 0.17178890281285497
v -0.03360779731161667 -0.028723901205620628 0.1706527028077165
v -0.03406477899225768 -0.028403277792564685 0.1891333555409691
v -0.03360779731161667 -0.028723901205620628 0.1706527028077165
v -0.02843368283856451 -0.031638974738854575 0.17035025833534334
v -0.02843368283856451 -0.031638974738854575 0.17035025833534334
v -0.028261813552447057 -0.031935252752804955 0.1738834463693717
v -0.03406477899225768 -0.028403277792564685 0.1891333555409691
v -0.03406477899225768 -0.028403277792564685 0.1891333555409691
v -0.028261813552447057 -0.031935252752804955 0.1738834463693717
v -0.020663590459006898 -0.03440813990944536 0.18913334028217932
v -0.020663590459006898 -0.03440813990944536 0.18913334028217932
v -0.028261813552447057 -0.031935252752804955 0.1738834463693717
v -0.011416021889277816 -0.03511012053360796 0.1738832174875249
v -0.02840383473839192 0.031091226147164086 0.17276519070102303
v -0.03078688767750859 0.03078954079958285 0.1891330198475938
v -0.019701455098366516 0.034515905112317835 0.17388335481663297
v -0.019701455098366516 0.034515905112317835 0.17388335481663297
v -0.03078688767750859 0.03078954079958285 0.1891330198475938
v -0.01697121128582557 0.03468392346136273 0.18913338605854868
v 0.03459894344634007 0.0039173483325026515 0.17417894809239165
v 0.03473117611863641 0.0024933773271387794 0.17418090121748442
v 0.03481123898865013 0.0007813629283099505 0.17417894809239165
v 0.03481123898865013 0.0007813629283099505 0.17417894809239165
v 0.03473117611863641 0.0024933773271387794 0.17418090121748442
v 0.03481142590882502 0.0007813753260766526 0.17418181674487165
v 0.03481123898865013 0.0007813629283099505 0.17417894809239165
v 0.03481142590882502 0.0007813753260766526 0.17418181674487165
v 0.03481610654259226 0.0005209328183602285 0.17417992465493803
v 0.03481610654259226 0.0005209328183602285 0.17417992465493803
v 0.03481142590882502 0.0007813753260766526 0.17418181674487165
v 0.03481902860083652 0.00026047362134247465 0.17418090121748442
v 0.03481902860083652 0.00026047362134247465 0.17418090121748442
v 0.03481142590882502 0.0007813753260766526 0.17418181674487165
v 0.03482000134868546 -1.0007046333937945e-10 0.1741818930388206
v 0.007215778693561159 0.03431446619894141 0.17388340059300234
v -0.019701455098366516 0.034515905112317835 0.17388335481663297
v 0.005320104374853252 0.03457866451471281 0.18913340131733847
v 0.005320104374853252 0.03457866451471281 0.18913340131733847
v -0.019701455098366516 0.034515905112317835 0.17388335481663297
v -0.01697121128582557 0.03468392346136273 0.18913338605854868
v -0.020663590459006898 -0.03440813990944536 0.18913334028217932
v -0.011416021889277816 -0.03511012053360796 0.1738832174875249
v 0.007215778693561159 -0.03431446619894141 0.18913340131733847
v -0.02843368283856451 -0.031638974738854575 0.17035025833534334
v -0.03360779731161667 -0.028723901205620628 0.1706527028077165
v -0.0284287599715094 -0.0344857766318829 0.15891143027737975
v -0.03360779731161667 -0.028723901205620628 0.1706527028077165
v -0.03333133092885632 -0.03427343531320348 0.15857216634524995
v -0.0284287599715094 -0.0344857766318829 0.15891143027737975
v -0.0284287599715094 -0.0344857766318829 0.15891143027737975
v -0.03333133092885632 -0.03427343531320348 0.15857216634524995
v -0.02847531453915031 -0.03975897787111604 0.1514831004567796
v -0.02847531453915031 -0.03975897787111604 0.1514831004567796
v -0.03333133092885632 -0.03427343531320348 0.15857216634524995
v -0.033441754975849225 -0.04299902547984402 0.1470192177984675
v -0.0406126270510665 -0.02427804871479089 0.15951934046250393
v -0.04839169541371646 -0.017832613838336675 0.15191472584349164
v -0.03333133092885632 -0.03427343531320348 0.15857216634524995
v -0.0406126270510665 -0.02427804871479089 0.15951934046250393
v -0.04770991361253474 -0.01425222846014762 0.1564986036246907
v -0.04839169541371646 -0.017832613838336675 0.15191472584349164
v -0.04770991361253474 -0.01425222846014762 0.1564986036246907
v -0.0406126270510665 -0.02427804871479089 0.15951934046250393
v -0.04568872287322279 -0.013919693654314003 0.1698622517203674
v -0.0406126270510665 -0.02427804871479089 0.15951934046250393
v -0.03333133092885632 -0.03427343531320348 0.15857216634524995
v -0.03360779731161667 -0.028723901205620628 0.1706527028077165
v -0.041348882731788716 -0.02122580819811315 0.17178890281285497
v -0.04568872287322279 -0.013919693654314003 0.1698622517203674
v -0.0406126270510665 -0.02427804871479089 0.15951934046250393
v -0.041348882731788716 -0.02122580819811315 0.17178890281285497
v -0.0406126270510665 -0.02427804871479089 0.15951934046250393
v -0.03360779731161667 -0.028723901205620628 0.1706527028077165
v -0.04654156333731452 0.012138342480226827 0.1699618458413088
v -0.04827428284100099 0.013834351243033893 0.15436827820612287
v -0.04821042862043878 0.01026067973235123 0.15568811774635094
v -0.04833776703591086 0.0039042000240778474 0.15688361340860268
v -0.04838260117500326 0.0023091918134771072 0.15682047253646303
v -0.048310659795853805 -0.0043124110362799395 0.16417006700176096
v -0.048310659795853805 -0.0043124110362799395 0.16417006700176096
v -0.04838260117500326 0.0023091918134771072 0.15682047253646303
v -0.04839939347316413 -4.33511680093682e-06 0.15688401013713715
v -0.048310659795853805 -0.0043124110362799395 0.16417006700176096
v -0.04839939347316413 -4.33511680093682e-06 0.15688401013713715
v -0.04838246003119773 -0.0023170846609131546 0.15682004529034899
v -0.048310659795853805 -0.0043124110362799395 0.16417006700176096
v -0.04838246003119773 -0.0023170846609131546 0.15682004529034899
v -0.048342779548355974 -0.004532455182778838 0.1566338880549445
v -0.04829308167001889 -0.010335732950942922 0.15542807745079656
v -0.04770991361253474 -0.01425222846014762 0.1564986036246907
v -0.048292547612376335 -0.00667306359515174 0.15632854441251176
v -0.048292547612376335 -0.00667306359515174 0.15632854441251176
v -0.04770991361253474 -0.01425222846014762 0.1564986036246907
v -0.048310659795853805 -0.0043124110362799395 0.16417006700176096
v -0.048292547612376335 -0.00667306359515174 0.15632854441251176
v -0.048310659795853805 -0.0043124110362799395 0.16417006700176096
v -0.048342779548355974 -0.004532455182778838 0.1566338880549445
v -0.04829308167001889 -0.010335732950942922 0.15542807745079656
v -0.04839169541371646 -0.017832613838336675 0.15191472584349164
v -0.04770991361253474 -0.01425222846014762 0.1564986036246907
v -0.048310659795853805 -0.0043124110362799395 0.16417006700176096
v -0.04770991361253474 -0.01425222846014762 0.1564986036246907
v -0.04568872287322279 -0.013919693654314003 0.1698622517203674
v -0.04833776703591086 0.0039042000240778474 0.15688361340860268
v -0.04654156333731452 0.012138342480226827 0.1699618458413088
v -0.04821042862043878 0.01026067973235123 0.15568811774635094
v -0.03307328953476407 0.028971530383031796 0.17120162251152315
v -0.03346765677151309 0.03279514849982457 0.16078989411171918
v -0.042118215654072255 0.023955229943354306 0.156059638760091
v -0.03339976660105215 0.0432555944007218 0.14668071680582706
v -0.042118215654072255 0.023955229943354306 0.156059638760091
v -0.03346765677151309 0.03279514849982457 0.16078989411171918
v -0.042118215654072255 0.023955229943354306 0.156059638760091
v -0.04840971222975776 0.02591781357844214 0.1459152443573597
v -0.04827428284100099 0.013834351243033893 0.15436827820612287
v -0.042118215654072255 0.023955229943354306 0.156059638760091
v -0.04827428284100099 0.013834351243033893 0.15436827820612287
v -0.040407140743699 0.022577086567349136 0.16977320142316898
v -0.042118215654072255 0.023955229943354306 0.156059638760091
v -0.040407140743699 0.022577086567349136 0.16977320142316898
v -0.039115804622793515 0.025026385542327167 0.16326766217374278
v -0.039115804622793515 0.025026385542327167 0.16326766217374278
v -0.040407140743699 0.022577086567349136 0.16977320142316898
v -0.03307328953476407 0.028971530383031796 0.17120162251152315
v -0.04827428284100099 0.013834351243033893 0.15436827820612287
v -0.04654156333731452 0.012138342480226827 0.1699618458413088
v -0.040407140743699 0.022577086567349136 0.16977320142316898
v -0.03307328953476407 0.028971530383031796 0.17120162251152315
v -0.042118215654072255 0.023955229943354306 0.156059638760091
v -0.039115804622793515 0.025026385542327167 0.16326766217374278
v -0.028422498145650454 0.0337468659217377 0.16087950898413972
v -0.03307328953476407 0.028971530383031796 0.17120162251152315
v -0.02840383473839192 0.031091226147164086 0.17276519070102303
v -0.03346765677151309 0.03279514849982457 0.16078989411171918
v -0.028422498145650454 0.0337468659217377 0.16087950898413972
v -0.02844398442901963 0.03828259077706564 0.1533351513259973
v -0.03339976660105215 0.0432555944007218 0.14668071680582706
v -0.03346765677151309 0.03279514849982457 0.16078989411171918
v -0.02844398442901963 0.03828259077706564 0.1533351513259973
v -0.028422498145650454 0.0337468659217377 0.16087950898413972
v -0.03346765677151309 0.03279514849982457 0.16078989411171918
v -0.03307328953476407 0.028971530383031796 0.17120162251152315
v -0.04840971222975776 0.02591781357844214 0.1459152443573597
v -0.04839169541371646 -0.017832613838336675 0.15191472584349164
v -0.04827428284100099 0.013834351243033893 0.15436827820612287
v -0.04827428284100099 0.013834351243033893 0.15436827820612287
v -0.04839169541371646 -0.017832613838336675 0.15191472584349164
v -0.04829308167001889 -0.010335732950942922 0.15542807745079656
v -0.04827428284100099 0.013834351243033893 0.15436827820612287
v -0.04829308167001889 -0.010335732950942922 0.15542807745079656
v -0.04840000382475562 0.008246102724737692 0.15586827827736904
v -0.04840000382475562 0.008246102724737692 0.15586827827736904
v -0.04829308167001889 -0.010335732950942922 0.15542807745079656
v -0.04840000382475562 -0.004154222685718301 0.15662865429004746
v -0.04840000382475562 0.008246102724737692 0.15586827827736904
v -0.04840000382475562 -0.004154222685718301 0.15662865429004746
v -0.04840000382475562 0.004154159743210428 0.15662866954883725
v -0.04840000382475562 0.004154159743210428 0.15662866954883725
v -0.04840000382475562 -0.004154222685718301 0.15662865429004746
v -0.04840000382475562 -3.18835933877278e-08 0.15688339978554566
v -0.04839169541371646 -0.017832613838336675 0.15191472584349164
v -0.04840971222975776 0.02591781357844214 0.1459152443573597
v -0.04840299073285648 -0.024572011207391053 0.14681847316002639
v -0.04840299073285648 -0.024572011207391053 0.14681847316002639
v -0.04840971222975776 0.02591781357844214 0.1459152443573597
v -0.048400789652429665 -0.033081807754162806 0.1321064058108501
v -0.048400789652429665 -0.033081807754162806 0.1321064058108501
v -0.04840971222975776 0.02591781357844214 0.1459152443573597
v -0.048412893687428404 0.03474412701646834 0.12290191471203915
v -0.048412893687428404 0.03474412701646834 0.12290191471203915
v -0.04840345231124754 0.02778377664924836 0.10270977508108903
v -0.048400789652429665 -0.033081807754162806 0.1321064058108501
v -0.048400789652429665 -0.033081807754162806 0.1321064058108501
v -0.04840345231124754 0.02778377664924836 0.10270977508108903
v -0.048403448496550094 0.014417070119893682 0.09171887642672516
v -0.048400789652429665 -0.033081807754162806 0.1321064058108501
v -0.048403448496550094 0.014417070119893682 0.09171887642672516
v -0.04840344468185265 -0.0026293109712142992 0.08864201776007441
v -0.04840344468185265 -0.0026293109712142992 0.08864201776007441
v -0.04841390839694926 -0.022498299713631376 0.09640607910296861
v -0.048400789652429665 -0.033081807754162806 0.1321064058108501
v -0.04841390839694926 -0.022498299713631376 0.09640607910296861
v -0.04840307465620031 -0.03336824575604913 0.11478730556196748
v -0.048400789652429665 -0.033081807754162806 0.1321064058108501
usemtl DefaultMaterial
f 1 2 3
f 4 5 6
f 7 8 9
f 10 11 12
f 13 14 15
f 16 17 18
f 19 20 21
f 22 23 24
f 25 26 27
f 28 29 30
f 31 32 33
f 34 35 36
f 37 38 39
f 40 41 42
f 43 44 45
f 46 47 48
f 49 50 51
f 52 53 54
f 55 56 57
f 58 59 60
f 61 62 63
f 64 65 66
f 67 68 69
f 70 71 72
f 73 74 75
f 76 77 78
f 79 80 81
f 82 83 84
f 85 86 87
f 88 89 90
f 91 92 93
f 94 95 96
f 97 98 99
f 100 101 102
f 103 104 105
f 106 107 108
f 109 110 111
f 112 113 114
f 115 116 117
f 118 119 120
f 121 122 123
f 124 125 126
f 127 128 129
f 130 131 132
f 133 134 135
f 136 137 138
f 139 140 141
f 142 143 144
f 145 146 147
f 148 149 150
f 151 152 153
f 154 155 156
f 157 158 159
f 160 161 162
f 163 164 165
f 166 167 168
f 169 170 171
f 172 173 174
f 175 176 177
f 178 179 180
f 181 182 183
f 184 185 186
f 187 188 189
f 190 191 192
f 193 194 195
f 196 197 198
f 199 200 201
f 202 203 204
f 205 206 207
f 208 209 210
f 211 212 213
f 214 215 216
f 217 218 219
f 220 221 222
f 223 224 225
f 226 227 228
f 229 230 231
f 232 233 234
f 235 236 237
f 238 239 240
f 241 242 243
f 244 245 246
f 247 248 249
f 250 251 252
f 253 254 255
f 256 257 258
f 259 260 261
f 262 263 264
f 265 266 267
f 268 269 270
f 271 272 273
f 274 275 276
f 277 278 279
f 280 281 282
f 283 284 285
f 286 287 288
f 289 290 291
f 292 293 294
f 295 296 297
f 298 299 300
f 301 302 303
f 304 305 306
f 307 308 309
f 310 311 312
f 313 314 315
f 316 317 318
f 319 320 321
f 322 323 324
f 325 326 327
f 328 329 330
f 331 332 333
f 334 335 336
f 337 338 339
f 340 341 342
f 343 344 345
f 346 347 348
f 349 350 351
f 352 353 354
f 355 356 357
f 358 359 360
f 361 362 363
f 364 365 366
f 367 368 369
f 370 371 372
f 373 374 375
f 376 377 378
f 379 380 381
f 382 383 384
f 385 386 387
f 388 389 390
f 391 392 393
f 394 395 396
f 397 398 399
f 400 401 402
f 403 404 405
f 406 407 408
f 409 410 411
f 412 413 414
f 415 416 417
f 418 419 420
f 421 422 423
f 424 425 426
f 427 428 429
f 430 431 432
f 433 434 435
f 436 437 438
f 439 440 441
f 442 443 444
f 445 446 447
f 448 449 450
f 451 452 453
f 454 455 456
f 457 458 459
f 460 461 462
f 463 464 465
f 466 467 468
f 469 470 471
f 472 473 474
f 475 476 477
f 478 479 480
f 481 482 483
f 484 485 486
f 487 488 489
f 490 491 492
f 493 494 495
f 496 497 498
f 499 500 501
f 502 503 504
f 505 506 507
f 508 509 510
f 511 512 513
f 514 515 516
f 517 518 519
f 520 521 522
f 523 524 525
f 526 527 528
f 529 530 531
f 532 533 534
f 535 536 537
f 538 539 540
f 541 542 543
f 544 545 546
f 547 548 549
f 550 551 552
f 553 554 555
f 556 557 558
f 559 560 561
f 562 563 564
f 565 566 567
f 568 569 570
f 571 572 573
f 574 575 576
f 577 578 579
f 580 581 582
f 583 584 585
f 586 587 588
f 589 590 591
f 592 593 594
f 595 596 597
f 598 599 600
f 601 602 603
f 604 605 606
f 607 608 609
f 610 611 612
f 613 614 615
f 616 617 618
f 619 620 621
f 622 623 624
f 625 626 627
f 628 629 630
f 631 632 633
f 634 635 636
f 637 638 639
f 640 641 642
f 643 644 645
f 646 647 648
f 649 650 651
f 652 653 654
f 655 656 657
f 658 659 660
f 661 662 663
f 664 665 666
f 667 668 669
f 670 671 672
f 673 674 675
f 676 677 678
f 679 680 681
f 682 683 684
f 685 686 687
f 688 689 690
f 691 692 693
f 694 695 696
f 697 698 699
f 700 701 702
f 703 704 705
f 706 707 708
f 709 710 711
f 712 713 714
f 715 716 717
f 718 719 720
f 721 722 723
f 724 725 726
f 727 728 729
f 730 731 732
f 733 734 735
f 736 737 738
f 739 740 741
f 742 743 744
f 745 746 747
f 748 749 750
f 751 752 753
f 754 755 756
f 757 758 759
f 760 761 762
f 763 764 765
f 766 767 768
f 769 770 771
f 772 773 774
f 775 776 777
f 778 779 780
f 781 782 783
f 784 785 786
f 787 788 789
f 790 791 792
f 793 794 795
f 796 797 798
