mtllib openarm_right_link1_collision_node_STL_BINARY__mesh.mtl
v -0.02041236211455466 -0.04922675175831116 0.12569337297450908
v -0.03012064504637646 -0.018575596738006354 0.11269733201299201
v -0.02036904431769737 -0.04604983357763049 0.10461455269841655
v -0.02036904431769737 -0.04604983357763049 0.10461455269841655
v -0.03012064504637646 -0.018575596738006354 0.11269733201299201
v -0.020415892617041687 -0.03636817723398745 0.08942725797071115
v -0.020415892617041687 -0.03636817723398745 0.08942725797071115
v -0.03012064504637646 -0.018575596738006354 0.11269733201299201
v -0.02041047956136466 -0.02245190345593451 0.07856940070450234
v -0.02041047956136466 -0.02245190345593451 0.07856940070450234
v -0.03012064504637646 -0.018575596738006354 0.11269733201299201
v -0.0301241278651454 0.0014671067696273717 0.10155807214552667
v -0.02041047956136466 -0.02245190345593451 0.07856940070450234
v -0.0301241278651454 0.0014671067696273717 0.10155807214552667
v -0.02038926602886293 -0.002589448574988052 0.07323248638851253
v -0.02038926602886293 -0.002589448574988052 0.07323248638851253
v -0.0301241278651454 0.0014671067696273717 0.10155807214552667
v -0.02041137029321849 0.017654223326933897 0.07643140774406641
v -0.02041137029321849 0.017654223326933897 0.07643140774406641
v -0.0301241278651454 0.0014671067696273717 0.10155807214552667
v -0.020406115547485504 0.03721719537123747 0.0898620953326734
v -0.020406115547485504 0.03721719537123747 0.0898620953326734
v -0.0301241278651454 0.0014671067696273717 0.10155807214552667
v -0.030105878352559845 0.017938967603153836 0.11252234421171178
v -0.020406115547485504 0.03721719537123747 0.0898620953326734
v -0.030105878352559845 0.017938967603153836 0.11252234421171178
v -0.020411709801291256 0.04779389799152379 0.11028272771129274
v -0.020411709801291256 0.04779389799152379 0.11028272771129274
v -0.030105878352559845 0.017938967603153836 0.11252234421171178
v -0.03012064504637646 0.01857559483065763 0.1323026948826733
v -0.020411709801291256 0.04779389799152379 0.11028272771129274
v -0.03012064504637646 0.01857559483065763 0.1323026948826733
v -0.02039049245409208 0.048626711294019756 0.13080135203792584
v -0.02039049245409208 0.048626711294019756 0.13080135203792584
v -0.03012064504637646 0.01857559483065763 0.1323026948826733
v -0.020402131096002307 0.04232468615338104 0.14753336272034898
v -0.020402131096002307 0.04232468615338104 0.14753336272034898
v -0.03012064504637646 0.01857559483065763 0.1323026948826733
v -0.02041261388458615 0.03053130867061827 0.16124523165776058
v -0.02041261388458615 0.03053130867061827 0.16124523165776058
v -0.03012064504637646 0.01857559483065763 0.1323026948826733
v -0.0301241278651454 -0.0014671056967437148 0.14344193186195395
v -0.02041261388458615 0.03053130867061827 0.16124523165776058
v -0.0301241278651454 -0.0014671056967437148 0.14344193186195395
v -0.020406016365351887 0.014593889929622742 0.16945670360540174
v -0.020406016365351887 0.014593889929622742 0.16945670360540174
v -0.0301241278651454 -0.0014671056967437148 0.14344193186195395
v -0.020409792915824232 -0.0025860220230064517 0.1717058797376225
v -0.020409792915824232 -0.0025860220230064517 0.1717058797376225
v -0.0301241278651454 -0.0014671056967437148 0.14344193186195395
v -0.020415415779860835 -0.02184759434520012 0.16672695188883144
v -0.020415415779860835 -0.02184759434520012 0.16672695188883144
v -0.0301241278651454 -0.0014671056967437148 0.14344193186195395
v -0.030105878352559845 -0.017938967603153836 0.13247766742516373
v -0.020415415779860835 -0.02184759434520012 0.16672695188883144
v -0.030105878352559845 -0.017938967603153836 0.13247766742516373
v -0.020383009925050155 -0.0413687801936713 0.15018028972595407
v -0.020383009925050155 -0.0413687801936713 0.15018028972595407
v -0.030105878352559845 -0.017938967603153836 0.13247766742516373
v -0.02041236211455466 -0.04922675175831116 0.12569337297450908
v -0.02041236211455466 -0.04922675175831116 0.12569337297450908
v -0.030105878352559845 -0.017938967603153836 0.13247766742516373
v -0.03012064504637646 -0.018575596738006354 0.11269733201299201
v 0.04573728397172072 -0.007521185755338946 0.06299989618081091
v 0.04634458761995086 -4.5795994191985205e-05 0.07782764041536437
v 0.045114462134276945 -0.010450698395246262 0.07782495486836181
v 0.04573728397172072 -0.007521185755338946 0.06299989618081091
v 0.045114462134276945 -0.010450698395246262 0.07782495486836181
v 0.0398120632007859 -0.023643693139616676 0.07578057458327069
v 0.04573728397172072 -0.007521185755338946 0.06299989618081091
v 0.0398120632007859 -0.023643693139616676 0.07578057458327069
v 0.03832333556049505 -0.026015143676448867 0.06299997247475984
v 0.03832333556049505 -0.026015143676448867 0.06299997247475984
v 0.0398120632007859 -0.023643693139616676 0.07578057458327069
v 0.032978593485344376 -0.03251406251845613 0.0775441321011172
v 0.03832333556049505 -0.026015143676448867 0.06299997247475984
v 0.032978593485344376 -0.03251406251845613 0.0775441321011172
v 0.020077979087808062 -0.042314153773730385 0.06299991525429814
v 0.020077979087808062 -0.042314153773730385 0.06299991525429814
v 0.032978593485344376 -0.03251406251845613 0.0775441321011172
v 0.026563645670885094 -0.03835989180612787 0.07300084270075223
v 0.020077979087808062 -0.042314153773730385 0.06299991525429814
v 0.026563645670885094 -0.03835989180612787 0.07300084270075223
v -0.0024958885901517347 -0.04671769936252624 0.07300005687307819
v 0.020077979087808062 -0.042314153773730385 0.06299991525429814
v -0.0024958885901517347 -0.04671769936252624 0.07300005687307819
v -0.00248579680805619 -0.0461125472036561 0.06299999917764197
v -0.00248579680805619 -0.0461125472036561 0.06299999917764197
v -0.0024958885901517347 -0.04671769936252624 0.07300005687307819
v -0.02410965843274493 -0.04009315681154924 0.06299996484536495
v -0.02410965843274493 -0.04009315681154924 0.06299996484536495
v -0.0024958885901517347 -0.04671769936252624 0.07300005687307819
v -0.023785288986796216 -0.03958300969259199 0.07300001109670883
v -0.02410965843274493 -0.04009315681154924 0.06299996484536495
v -0.023785288986796216 -0.03958300969259199 0.07300001109670883
v -0.040080671306805815 -0.02413116569695007 0.0730000416142884
v -0.02410965843274493 -0.04009315681154924 0.06299996484536495
v -0.040080671306805815 -0.02413116569695007 0.0730000416142884
v -0.03956660649357069 -0.023812398134202 0.06299999917764197
v -0.03956660649357069 -0.023812398134202 0.06299999917764197
v -0.040080671306805815 -0.02413116569695007 0.0730000416142884
v -0.04671529228843729 -0.0025334361802835386 0.06299996484536495
v -0.04671529228843729 -0.0025334361802835386 0.06299996484536495
v -0.040080671306805815 -0.02413116569695007 0.0730000416142884
v -0.04611179189356163 -0.0025015133615370615 0.07300001109670883
v -0.04671529228843729 -0.0025334361802835386 0.06299996484536495
v -0.04611179189356163 -0.0025015133615370615 0.07300001109670883
v -0.04245586596918205 0.01965382669339433 0.0730000339848935
v -0.04671529228843729 -0.0025334361802835386 0.06299996484536495
v -0.04245586596918205 0.01965382669339433 0.0730000339848935
v -0.041909654700562626 0.0193940019282457 0.06299999917764197
v -0.041909654700562626 0.0193940019282457 0.06299999917764197
v -0.04245586596918205 0.01965382669339433 0.0730000339848935
v -0.02830413189857328 0.037250676970728154 0.06299996484536495
v -0.02830413189857328 0.037250676970728154 0.06299996484536495
v -0.04245586596918205 0.01965382669339433 0.0730000339848935
v -0.0279277681264245 0.03677763541383606 0.07300001109670883
v -0.02830413189857328 0.037250676970728154 0.06299996484536495
v -0.0279277681264245 0.03677763541383606 0.07300001109670883
v -0.014714706166135127 0.04377250116355481 0.07300001109670883
v -0.02830413189857328 0.037250676970728154 0.06299996484536495
v -0.014714706166135127 0.04377250116355481 0.07300001109670883
v -0.007457875606000086 0.045573309201969454 0.06299999917764197
v -0.007457875606000086 0.045573309201969454 0.06299999917764197
v -0.014714706166135127 0.04377250116355481 0.07300001109670883
v 4.056453897505197e-05 0.046179571437796614 0.07300001109670883
v -0.007457875606000086 0.045573309201969454 0.06299999917764197
v 4.056453897505197e-05 0.046179571437796614 0.07300001109670883
v 0.007487172005554432 0.04556850268318647 0.06300000299233942
v 0.007487172005554432 0.04556850268318647 0.06300000299233942
v 4.056453897505197e-05 0.046179571437796614 0.07300001109670883
v 0.017196228844120753 0.04302754797265385 0.07300001872610372
v 0.007487172005554432 0.04556850268318647 0.06300000299233942
v 0.017196228844120753 0.04302754797265385 0.07300001872610372
v 0.024193352894728015 0.03954842564553918 0.0629999114396007
v 0.024193352894728015 0.03954842564553918 0.0629999114396007
v 0.017196228844120753 0.04302754797265385 0.07300001872610372
v 0.027903310193744257 0.036449250998824574 0.0730864750290383
v 0.024193352894728015 0.03954842564553918 0.0629999114396007
v 0.027903310193744257 0.036449250998824574 0.0730864750290383
v 0.034801500066068414 0.030500136870431634 0.07477883503373749
v 0.024193352894728015 0.03954842564553918 0.0629999114396007
v 0.034801500066068414 0.030500136870431634 0.07477883503373749
v 0.0369907854483742 0.027659743669113952 0.06299995721597006
v 0.0369907854483742 0.027659743669113952 0.06299995721597006
v 0.034801500066068414 0.030500136870431634 0.07477883503373749
v 0.04130954175701973 0.02102747444845843 0.07705163177254891
v 0.0369907854483742 0.027659743669113952 0.06299995721597006
v 0.04130954175701973 0.02102747444845843 0.07705163177254891
v 0.044649507735972094 0.01227719269891903 0.06300001443643176
v 0.044649507735972094 0.01227719269891903 0.06300001443643176
v 0.04130954175701973 0.02102747444845843 0.07705163177254891
v 0.044320409972538055 0.01345765368485852 0.07713418945469284
v 0.044649507735972094 0.01227719269891903 0.06300001443643176
v 0.044320409972538055 0.01345765368485852 0.07713418945469284
v 0.04634458761995086 -4.5795994191985205e-05 0.07782764041536437
v 0.044649507735972094 0.01227719269891903 0.06300001443643176
v 0.04634458761995086 -4.5795994191985205e-05 0.07782764041536437
v 0.04573728397172072 -0.007521185755338946 0.06299989618081091
v 0.027913638487081505 -0.038810838635408025 0.09169238716765447
v 0.03410458917481263 -0.0430936871969867 0.09908208173251329
v -0.02036904431769737 -0.04604983357763049 0.10461455269841655
v -0.02036904431769737 -0.04604983357763049 0.10461455269841655
v 0.03410458917481263 -0.0430936871969867 0.09908208173251329
v 0.03399537438691036 -0.04859263841642482 0.1139908196232575
v -0.02036904431769737 -0.04604983357763049 0.10461455269841655
v 0.03399537438691036 -0.04859263841642482 0.1139908196232575
v -0.02041236211455466 -0.04922675175831116 0.12569337297450908
v -0.02041236211455466 -0.04922675175831116 0.12569337297450908
v 0.03399537438691036 -0.04859263841642482 0.1139908196232575
v 0.03398088998070481 -0.04785919035302345 0.1344601199119033
v -0.02041236211455466 -0.04922675175831116 0.12569337297450908
v 0.03398088998070481 -0.04785919035302345 0.1344601199119033
v -0.020383009925050155 -0.0413687801936713 0.15018028972595407
v -0.020383009925050155 -0.0413687801936713 0.15018028972595407
v 0.03398088998070481 -0.04785919035302345 0.1344601199119033
v 0.034058358856454696 -0.03871515076465216 0.15307199823732628
v -0.020383009925050155 -0.0413687801936713 0.15018028972595407
v 0.034058358856454696 -0.03871515076465216 0.15307199823732628
v 0.03399630898778483 -0.022862898958854187 0.16621256282631333
v -0.020383009925050155 -0.0413687801936713 0.15018028972595407
v 0.03399630898778483 -0.022862898958854187 0.16621256282631333
v -0.020415415779860835 -0.02184759434520012 0.16672695188883144
v -0.020415415779860835 -0.02184759434520012 0.16672695188883144
v 0.03399630898778483 -0.022862898958854187 0.16621256282631333
v 0.03392372673946431 -0.002623272305155994 0.17181806236013838
v -0.020415415779860835 -0.02184759434520012 0.16672695188883144
v 0.03392372673946431 -0.002623272305155994 0.17181806236013838
v -0.020409792915824232 -0.0025860220230064517 0.1717058797376225
v -0.020409792915824232 -0.0025860220230064517 0.1717058797376225
v 0.03392372673946431 -0.002623272305155994 0.17181806236013838
v -0.020406016365351887 0.014593889929622742 0.16945670360540174
v -0.020406016365351887 0.014593889929622742 0.16945670360540174
v 0.03392372673946431 -0.002623272305155994 0.17181806236013838
v 0.034058191009767036 0.01825232973961977 0.16832802618362838
v -0.020406016365351887 0.014593889929622742 0.16945670360540174
v 0.034058191009767036 0.01825232973961977 0.16832802618362838
v -0.02041261388458615 0.03053130867061827 0.16124523165776058
v -0.02041261388458615 0.03053130867061827 0.16124523165776058
v 0.034058191009767036 0.01825232973961977 0.16832802618362838
v 0.03398897332459461 0.03542619873465603 0.15682807141377705
v -0.02041261388458615 0.03053130867061827 0.16124523165776058
v 0.03398897332459461 0.03542619873465603 0.15682807141377705
v -0.020402131096002307 0.04232468615338104 0.14753336272034898
v -0.020402131096002307 0.04232468615338104 0.14753336272034898
v 0.03398897332459461 0.03542619873465603 0.15682807141377705
v 0.03398360985998439 0.046316446596885726 0.13948107046776845
v -0.020402131096002307 0.04232468615338104 0.14753336272034898
v 0.03398360985998439 0.046316446596885726 0.13948107046776845
v -0.02039049245409208 0.048626711294019756 0.13080135203792584
v -0.02039049245409208 0.048626711294019756 0.13080135203792584
v 0.03398360985998439 0.046316446596885726 0.13948107046776845
v 0.03405639047257214 0.04920837636070986 0.11902792160811246
v -0.02039049245409208 0.048626711294019756 0.13080135203792584
v 0.03405639047257214 0.04920837636070986 0.11902792160811246
v -0.020411709801291256 0.04779389799152379 0.11028272771129274
v -0.020411709801291256 0.04779389799152379 0.11028272771129274
v 0.03405639047257214 0.04920837636070986 0.11902792160811246
v 0.034098989198960705 0.04435896130493556 0.10132204155570254
v -0.020411709801291256 0.04779389799152379 0.11028272771129274
v 0.034098989198960705 0.04435896130493556 0.10132204155570254
v -0.020406115547485504 0.03721719537123747 0.0898620953326734
v -0.020406115547485504 0.03721719537123747 0.0898620953326734
v 0.034098989198960705 0.04435896130493556 0.10132204155570254
v 0.027907098188308943 0.03868296616229339 0.09144940619908225
v -0.020406115547485504 0.03721719537123747 0.0898620953326734
v 0.027907098188308943 0.03868296616229339 0.09144940619908225
v 0.02797653331123584 0.03561926820183415 0.08790499532516537
v -0.020406115547485504 0.03721719537123747 0.0898620953326734
v 0.02797653331123584 0.03561926820183415 0.08790499532516537
v 0.03314577260095097 0.033097070358647514 0.08637711744497788
v -0.020406115547485504 0.03721719537123747 0.0898620953326734
v 0.03314577260095097 0.033097070358647514 0.08637711744497788
v 0.03400000542961079 0.020124688150695572 0.07745441041716815
v -0.020406115547485504 0.03721719537123747 0.0898620953326734
v 0.03400000542961079 0.020124688150695572 0.07745441041716815
v -0.02041137029321849 0.017654223326933897 0.07643140774406641
v -0.02041137029321849 0.017654223326933897 0.07643140774406641
v 0.03400000542961079 0.020124688150695572 0.07745441041716815
v 0.03400000542961079 5.237098479030664e-08 0.07316331066501201
v -0.02041137029321849 0.017654223326933897 0.07643140774406641
v 0.03400000542961079 5.237098479030664e-08 0.07316331066501201
v -0.02038926602886293 -0.002589448574988052 0.07323248638851253
v -0.02038926602886293 -0.002589448574988052 0.07323248638851253
v 0.03400000542961079 5.237098479030664e-08 0.07316331066501201
v 0.03400000542961079 -0.02012459087591068 0.07745436464079879
v -0.02038926602886293 -0.002589448574988052 0.07323248638851253
v 0.03400000542961079 -0.02012459087591068 0.07745436464079879
v -0.02041047956136466 -0.02245190345593451 0.07856940070450234
v -0.02041047956136466 -0.02245190345593451 0.07856940070450234
v 0.03400000542961079 -0.02012459087591068 0.07745436464079879
v 0.032876935613084246 -0.03345958105701819 0.08666222793215271
v -0.02041047956136466 -0.02245190345593451 0.07856940070450234
v 0.032876935613084246 -0.03345958105701819 0.08666222793215271
v -0.020415892617041687 -0.03636817723398745 0.08942725797071115
v -0.020415892617041687 -0.03636817723398745 0.08942725797071115
v 0.032876935613084246 -0.03345958105701819 0.08666222793215271
v 0.027906113996367665 -0.03592642382555412 0.0890451931332281
v -0.020415892617041687 -0.03636817723398745 0.08942725797071115
v 0.027906113996367665 -0.03592642382555412 0.0890451931332281
v 0.027913638487081505 -0.038810838635408025 0.09169238716765447
v -0.020415892617041687 -0.03636817723398745 0.08942725797071115
v 0.027913638487081505 -0.038810838635408025 0.09169238716765447
v -0.02036904431769737 -0.04604983357763049 0.10461455269841655
v 0.04884355777038385 -0.020805388485151125 0.09555535579595985
v 0.04900255435996703 -0.03011094999281539 0.1059778721601434
v 0.04031278420235207 -0.030384572518629145 0.09191722543516966
v 0.04031278420235207 -0.030384572518629145 0.09191722543516966
v 0.04900255435996703 -0.03011094999281539 0.1059778721601434
v 0.03410458917481263 -0.0430936871969867 0.09908208173251329
v 0.03410458917481263 -0.0430936871969867 0.09908208173251329
v 0.04900255435996703 -0.03011094999281539 0.1059778721601434
v 0.03399537438691036 -0.04859263841642482 0.1139908196232575
v 0.03399537438691036 -0.04859263841642482 0.1139908196232575
v 0.04900255435996703 -0.03011094999281539 0.1059778721601434
v 0.049001821938057244 -0.03429651041805926 0.12226849183039065
v 0.03399537438691036 -0.04859263841642482 0.1139908196232575
v 0.049001821938057244 -0.03429651041805926 0.12226849183039065
v 0.03398088998070481 -0.04785919035302345 0.1344601199119033
v 0.03398088998070481 -0.04785919035302345 0.1344601199119033
v 0.049001821938057244 -0.03429651041805926 0.12226849183039065
v 0.04900231784872533 -0.030346925269526544 0.13858229723171964
v 0.03398088998070481 -0.04785919035302345 0.1344601199119033
v 0.04900231784872533 -0.030346925269526544 0.13858229723171964
v 0.034058358856454696 -0.03871515076465216 0.15307199823732628
v 0.034058358856454696 -0.03871515076465216 0.15307199823732628
v 0.04900231784872533 -0.030346925269526544 0.13858229723171964
v 0.049009397927186615 -0.01517722392644583 0.1537685619911144
v 0.034058358856454696 -0.03871515076465216 0.15307199823732628
v 0.049009397927186615 -0.01517722392644583 0.1537685619911144
v 0.03399630898778483 -0.022862898958854187 0.16621256282631333
v 0.03399630898778483 -0.022862898958854187 0.16621256282631333
v 0.049009397927186615 -0.01517722392644583 0.1537685619911144
v 0.03392372673946431 -0.002623272305155994 0.17181806236013838
v 0.03392372673946431 -0.002623272305155994 0.17181806236013838
v 0.049009397927186615 -0.01517722392644583 0.1537685619911144
v 0.04900309223230703 0.006109732918065382 0.15629560068536105
v 0.03392372673946431 -0.002623272305155994 0.17181806236013838
v 0.04900309223230703 0.006109732918065382 0.15629560068536105
v 0.034058191009767036 0.01825232973961977 0.16832802618362838
v 0.034058191009767036 0.01825232973961977 0.16832802618362838
v 0.04900309223230703 0.006109732918065382 0.15629560068536105
v 0.04900940555658151 0.02518270802900014 0.1464555886213059
v 0.034058191009767036 0.01825232973961977 0.16832802618362838
v 0.04900940555658151 0.02518270802900014 0.1464555886213059
v 0.03398897332459461 0.03542619873465603 0.15682807141377705
v 0.03398897332459461 0.03542619873465603 0.15682807141377705
v 0.04900940555658151 0.02518270802900014 0.1464555886213059
v 0.03398360985998439 0.046316446596885726 0.13948107046776845
v 0.03398360985998439 0.046316446596885726 0.13948107046776845
v 0.04900940555658151 0.02518270802900014 0.1464555886213059
v 0.049002321663422777 0.03405537194835385 0.12693884880270898
v 0.03398360985998439 0.046316446596885726 0.13948107046776845
v 0.049002321663422777 0.03405537194835385 0.12693884880270898
v 0.03405639047257214 0.04920837636070986 0.11902792160811246
v 0.03405639047257214 0.04920837636070986 0.11902792160811246
v 0.049002321663422777 0.03405537194835385 0.12693884880270898
v 0.04900530857152363 0.031205203584828707 0.10771024071166477
v 0.03405639047257214 0.04920837636070986 0.11902792160811246
v 0.04900530857152363 0.031205203584828707 0.10771024071166477
v 0.034098989198960705 0.04435896130493556 0.10132204155570254
v 0.034098989198960705 0.04435896130493556 0.10132204155570254
v 0.04900530857152363 0.031205203584828707 0.10771024071166477
v 0.04158860213404392 0.029104182672047292 0.09248386822331421
v 0.04158860213404392 0.029104182672047292 0.09248386822331421
v 0.04900530857152363 0.031205203584828707 0.10771024071166477
v 0.048800886564743795 0.02064868071403603 0.09513124536321803
v 0.04671843559913347 0.03059249260296771 0.10727235159174506
v 0.04700107797706021 0.03200020369888313 0.11312444079792702
v 0.044615282270479284 0.033019162792691244 0.10930967468655958
v 0.044615282270479284 0.033019162792691244 0.10930967468655958
v 0.04700107797706021 0.03200020369888313 0.11312444079792702
v 0.03400069970454611 0.04553690935893196 0.1138266884509109
v 0.03400069970454611 0.04553690935893196 0.1138266884509109
v 0.04700107797706021 0.03200020369888313 0.11312444079792702
v 0.04700655588259384 0.03281004870805183 0.13024202583948427
v 0.03400069970454611 0.04553690935893196 0.1138266884509109
v 0.04700655588259384 0.03281004870805183 0.13024202583948427
v 0.03400464791640356 0.045279455428246525 0.13386409632402338
v 0.03400464791640356 0.045279455428246525 0.13386409632402338
v 0.04700655588259384 0.03281004870805183 0.13024202583948427
v 0.034000875180628665 0.03602220324904871 0.15170131640952708
v 0.034000875180628665 0.03602220324904871 0.15170131640952708
v 0.04700655588259384 0.03281004870805183 0.13024202583948427
v 0.04700524744136958 0.02157786090343339 0.14840436495898499
v 0.034000875180628665 0.03602220324904871 0.15170131640952708
v 0.04700524744136958 0.02157786090343339 0.14840436495898499
v 0.03400893945103123 0.018074833774768265 0.16581078363242516
v 0.03400893945103123 0.018074833774768265 0.16581078363242516
v 0.04700524744136958 0.02157786090343339 0.14840436495898499
v 0.0470018676194317 0.00585134104864521 0.15535227178313346
v 0.03400893945103123 0.018074833774768265 0.16581078363242516
v 0.0470018676194317 0.00585134104864521 0.15535227178313346
v 0.034000001614913344 0.0010000000474974515 0.16866074409493945
v 0.034000001614913344 0.0010000000474974515 0.16866074409493945
v 0.0470018676194317 0.00585134104864521 0.15535227178313346
v 0.044657491897728274 0.0010000000474974515 0.15800000750459728
v 0.034000001614913344 0.0010000000474974515 0.16866074409493945
v 0.044657491897728274 0.0010000000474974515 0.15800000750459728
v 0.04223604021411198 0.0010000000474974515 0.16042235564211357
v 0.044657491897728274 0.0010000000474974515 0.15800000750459728
v 0.0470018676194317 0.00585134104864521 0.15535227178313346
v 0.044657491897728274 -0.0010000000474974515 0.15800000750459728
v 0.044657491897728274 -0.0010000000474974515 0.15800000750459728
v 0.0470018676194317 0.00585134104864521 0.15535227178313346
v 0.04700340494250277 -0.008661219054574289 0.15491367312948864
v 0.044657491897728274 -0.0010000000474974515 0.15800000750459728
v 0.04700340494250277 -0.008661219054574289 0.15491367312948864
v 0.034000001614913344 -0.0010000000474974515 0.16866074409493945
v 0.034000001614913344 -0.0010000000474974515 0.16866074409493945
v 0.04700340494250277 -0.008661219054574289 0.15491367312948864
v 0.03400893945103123 -0.0180748528482555 0.16581076837363537
v 0.03400893945103123 -0.0180748528482555 0.16581076837363537
v 0.04700340494250277 -0.008661219054574289 0.15491367312948864
v 0.04700527414425171 -0.025385028137486783 0.14469196243890534
v 0.03400893945103123 -0.0180748528482555 0.16581076837363537
v 0.04700527414425171 -0.025385028137486783 0.14469196243890534
v 0.034001916593031645 -0.03730713449294099 0.1502325510809754
v 0.034001916593031645 -0.03730713449294099 0.1502325510809754
v 0.04700527414425171 -0.025385028137486783 0.14469196243890534
v 0.034000981992157175 -0.044764963368897355 0.13459296293579112
v 0.034000981992157175 -0.044764963368897355 0.13459296293579112
v 0.04700527414425171 -0.025385028137486783 0.14469196243890534
v 0.04701609262621087 -0.03393023842800603 0.12299762547097967
v 0.034000981992157175 -0.044764963368897355 0.13459296293579112
v 0.04701609262621087 -0.03393023842800603 0.12299762547097967
v 0.03400229043338143 -0.04611903600401313 0.1163282831131873
v 0.03400229043338143 -0.04611903600401313 0.1163282831131873
v 0.04701609262621087 -0.03393023842800603 0.12299762547097967
v 0.044615282270479284 -0.033019162792691244 0.10930967468655958
v 0.03400229043338143 -0.04611903600401313 0.1163282831131873
v 0.044615282270479284 -0.033019162792691244 0.10930967468655958
v 0.034000001614913344 -0.042651617168665286 0.10481798288386021
v 0.034000001614913344 -0.042651617168665286 0.10481798288386021
v 0.044615282270479284 -0.033019162792691244 0.10930967468655958
v 0.042202886678601725 -0.03520878386837235 0.1082886403973404
v 0.034000001614913344 -0.042651617168665286 0.10481798288386021
v 0.042202886678601725 -0.03520878386837235 0.1082886403973404
v 0.03963958165572823 -0.037534952039162135 0.10720392354894412
v 0.04701609262621087 -0.03393023842800603 0.12299762547097967
v 0.04702706751076535 -0.027049960467543384 0.1027521487403282
v 0.044615282270479284 -0.033019162792691244 0.10930967468655958
v 0.044615282270479284 -0.033019162792691244 0.10930967468655958
v 0.04702706751076535 -0.027049960467543384 0.1027521487403282
v 0.04467157576070191 -0.03217392883530846 0.10749706015954705
v 0.04467157576070191 -0.03217392883530846 0.10749706015954705
v 0.04702706751076535 -0.027049960467543384 0.1027521487403282
v 0.03400002831779547 -0.042001039592598495 0.1028735400424807
v 0.03400002831779547 -0.042001039592598495 0.1028735400424807
v 0.04702706751076535 -0.027049960467543384 0.1027521487403282
v 0.040165163040555285 -0.02889858192375639 0.0944832884842972
v 0.03963958165572823 -0.037534952039162135 0.10720392354894412
v 0.03691079124291452 -0.040010900490503605 0.10604937484908647
v 0.034000001614913344 -0.042651617168665286 0.10481798288386021
v 0.03692300590413922 -0.0010000000474974515 0.16573700738380379
v 0.039662786460297195 -0.0010000000474974515 0.1629964524440641
v 0.034000001614913344 -0.0010000000474974515 0.16866074409493945
v 0.034000001614913344 -0.0010000000474974515 0.16866074409493945
v 0.039662786460297195 -0.0010000000474974515 0.1629964524440641
v 0.04223604021411198 -0.0010000000474974515 0.16042235564211357
v 0.034000001614913344 -0.0010000000474974515 0.16866074409493945
v 0.04223604021411198 -0.0010000000474974515 0.16042235564211357
v 0.044657491897728274 -0.0010000000474974515 0.15800000750459728
v 0.04223604021411198 0.0010000000474974515 0.16042235564211357
v 0.039662786460297195 0.0010000000474974515 0.1629964524440641
v 0.034000001614913344 0.0010000000474974515 0.16866074409493945
v 0.034000001614913344 0.0010000000474974515 0.16866074409493945
v 0.039662786460297195 0.0010000000474974515 0.1629964524440641
v 0.03692300590413922 0.0010000000474974515 0.16573700738380379
v 0.03400069970454611 0.04553690935893196 0.1138266884509109
v 0.034000001614913344 0.042651617168665286 0.10481798288386021
v 0.044615282270479284 0.033019162792691244 0.10930967468655958
v 0.044615282270479284 0.033019162792691244 0.10930967468655958
v 0.034000001614913344 0.042651617168665286 0.10481798288386021
v 0.042202886678601725 0.03520878386837235 0.1082886403973404
v 0.042202886678601725 0.03520878386837235 0.1082886403973404
v 0.034000001614913344 0.042651617168665286 0.10481798288386021
v 0.03963958165572823 0.037534952039162135 0.10720392354894412
v 0.03963958165572823 0.037534952039162135 0.10720392354894412
v 0.034000001614913344 0.042651617168665286 0.10481798288386021
v 0.03691079124291452 0.040010900490503605 0.10604937484908647
v 0.034801500066068414 0.030500136870431634 0.07477883503373749
v 0.027903310193744257 0.036449250998824574 0.0730864750290383
v 0.03353497855205445 0.03406172723430024 0.08383976380883505
v 0.03353497855205445 0.03406172723430024 0.08383976380883505
v 0.027903310193744257 0.036449250998824574 0.0730864750290383
v 0.027907098188308943 0.03868296616229339 0.09144940619908225
v 0.03353497855205445 0.03406172723430024 0.08383976380883505
v 0.027907098188308943 0.03868296616229339 0.09144940619908225
v 0.034098989198960705 0.04435896130493556 0.10132204155570254
v 0.027916472807284487 -0.03692196830643369 0.08363951508106203
v 0.026563645670885094 -0.03835989180612787 0.07300084270075223
v 0.032978593485344376 -0.03251406251845613 0.0775441321011172
v 0.027916472807284487 -0.03692196830643369 0.08363951508106203
v 0.032978593485344376 -0.03251406251845613 0.0775441321011172
v 0.033896402061652786 -0.03615154438068036 0.08791628682960793
v 0.027916472807284487 -0.03692196830643369 0.08363951508106203
v 0.033896402061652786 -0.03615154438068036 0.08791628682960793
v 0.027913638487081505 -0.038810838635408025 0.09169238716765447
v 0.033896402061652786 -0.03615154438068036 0.08791628682960793
v 0.03410458917481263 -0.0430936871969867 0.09908208173251329
v 0.027913638487081505 -0.038810838635408025 0.09169238716765447
v 0.03252174150441656 0.029636743045853293 0.07300000346731393
v 0.03219416199056635 0.03064545204762182 0.07849902716600353
v 0.030291087635648806 0.031912927235997486 0.07300000346731393
v 0.030291087635648806 0.031912927235997486 0.07300000346731393
v 0.03219416199056635 0.03064545204762182 0.07849902716600353
v 0.02790247668235213 0.03393440407761795 0.07300131572323564
v 0.02797653331123584 0.03561926820183415 0.08790499532516537
v 0.02790247668235213 0.03393440407761795 0.07300131572323564
v 0.03219416199056635 0.03064545204762182 0.07849902716600353
v 0.03219416199056635 0.03064545204762182 0.07849902716600353
v 0.03314577260095097 0.033097070358647514 0.08637711744497788
v 0.02797653331123584 0.03561926820183415 0.08790499532516537
v 0.030291087635648806 -0.031912927235997486 0.07300000346731393
v 0.027900000943709147 -0.03402313394023083 0.07300000346731393
v 0.027918303862058957 -0.034492101400249726 0.08219145593025166
v 0.032876935613084246 -0.03345958105701819 0.08666222793215271
v 0.03235027848357719 -0.0312100921196068 0.08046115494474647
v 0.027906113996367665 -0.03592642382555412 0.0890451931332281
v 0.03235027848357719 -0.0312100921196068 0.08046115494474647
v 0.034166124059327174 -0.028275973709369635 0.07749285493803713
v 0.027918303862058957 -0.034492101400249726 0.08219145593025166
v 0.030291087635648806 -0.031912927235997486 0.07300000346731393
v 0.034166124059327174 -0.028275973709369635 0.07749285493803713
v 0.03252173006032422 -0.029636733509109676 0.07300000346731393
v 0.034166124059327174 -0.028275973709369635 0.07749285493803713
v 0.030291087635648806 -0.031912927235997486 0.07300000346731393
v 0.027918303862058957 -0.034492101400249726 0.08219145593025166
v 0.027906113996367665 -0.03592642382555412 0.0890451931332281
v 0.03235027848357719 -0.0312100921196068 0.08046115494474647
v 0.027918303862058957 -0.034492101400249726 0.08219145593025166
v 0.04467157576070191 -0.03217392883530846 0.10749706015954705
v 0.03400002831779547 -0.042001039592598495 0.1028735400424807
v 0.034000001614913344 -0.03285011447533571 0.10894714872939912
v 0.034000001614913344 0.03217392883530846 0.10749706015954705
v 0.033975782100823526 0.04209511384633436 0.10238959989498306
v 0.04671843559913347 0.03059249260296771 0.10727235159174506
v 0.034000001614913344 0.033019162792691244 0.10930967468655958
v 0.034000001614913344 0.03217392883530846 0.10749706015954705
v 0.044615282270479284 0.033019162792691244 0.10930967468655958
v 0.044615282270479284 0.033019162792691244 0.10930967468655958
v 0.034000001614913344 0.03217392883530846 0.10749706015954705
v 0.04671843559913347 0.03059249260296771 0.10727235159174506
v 0.044615282270479284 0.033019162792691244 0.10930967468655958
v 0.042202886678601725 0.03520878386837235 0.1082886403973404
v 0.034000001614913344 0.033019162792691244 0.10930967468655958
v 0.034000001614913344 0.033019162792691244 0.10930967468655958
v 0.042202886678601725 0.03520878386837235 0.1082886403973404
v 0.03963958165572823 0.037534952039162135 0.10720392354894412
v 0.034000001614913344 0.033019162792691244 0.10930967468655958
v 0.03963958165572823 0.037534952039162135 0.10720392354894412
v 0.03691079124291452 0.040010900490503605 0.10604937484908647
v 0.03691079124291452 0.040010900490503605 0.10604937484908647
v 0.034000001614913344 0.042651617168665286 0.10481798288386021
v 0.034000001614913344 0.033019162792691244 0.10930967468655958
v 0.044657491897728274 0.0010000000474974515 0.15800000750459728
v 0.034000001614913344 0.0010000000474974515 0.15800000750459728
v 0.04223604021411198 0.0010000000474974515 0.16042235564211357
v 0.04223604021411198 0.0010000000474974515 0.16042235564211357
v 0.034000001614913344 0.0010000000474974515 0.15800000750459728
v 0.039662786460297195 0.0010000000474974515 0.1629964524440641
v 0.039662786460297195 0.0010000000474974515 0.1629964524440641
v 0.034000001614913344 0.0010000000474974515 0.15800000750459728
v 0.03692300590413922 0.0010000000474974515 0.16573700738380379
v 0.03692300590413922 0.0010000000474974515 0.16573700738380379
v 0.034000001614913344 0.0010000000474974515 0.15800000750459728
v 0.034000001614913344 0.0010000000474974515 0.16866074409493945
v 0.034000001614913344 -0.0010000000474974515 0.15800000750459728
v 0.034000001614913344 0.0010000000474974515 0.15800000750459728
v 0.044657491897728274 -0.0010000000474974515 0.15800000750459728
v 0.044657491897728274 -0.0010000000474974515 0.15800000750459728
v 0.034000001614913344 0.0010000000474974515 0.15800000750459728
v 0.044657491897728274 0.0010000000474974515 0.15800000750459728
v 0.044657491897728274 -0.0010000000474974515 0.15800000750459728
v 0.04223604021411198 -0.0010000000474974515 0.16042235564211357
v 0.034000001614913344 -0.0010000000474974515 0.15800000750459728
v 0.034000001614913344 -0.0010000000474974515 0.15800000750459728
v 0.04223604021411198 -0.0010000000474974515 0.16042235564211357
v 0.039662786460297195 -0.0010000000474974515 0.1629964524440641
v 0.034000001614913344 -0.0010000000474974515 0.15800000750459728
v 0.039662786460297195 -0.0010000000474974515 0.1629964524440641
v 0.03692300590413922 -0.0010000000474974515 0.16573700738380379
v 0.03692300590413922 -0.0010000000474974515 0.16573700738380379
v 0.034000001614913344 -0.0010000000474974515 0.16866074409493945
v 0.034000001614913344 -0.0010000000474974515 0.15800000750459728
v 0.044615282270479284 -0.033019162792691244 0.10930967468655958
v 0.034000001614913344 -0.03285011447533571 0.10894714872939912
v 0.042202886678601725 -0.03520878386837235 0.1082886403973404
v 0.042202886678601725 -0.03520878386837235 0.1082886403973404
v 0.034000001614913344 -0.03285011447533571 0.10894714872939912
v 0.03963958165572823 -0.037534952039162135 0.10720392354894412
v 0.03963958165572823 -0.037534952039162135 0.10720392354894412
v 0.034000001614913344 -0.03285011447533571 0.10894714872939912
v 0.03691079124291452 -0.040010900490503605 0.10604937484908647
v 0.03691079124291452 -0.040010900490503605 0.10604937484908647
v 0.034000001614913344 -0.03285011447533571 0.10894714872939912
v 0.034000001614913344 -0.042651617168665286 0.10481798288386021
v 0.04467157576070191 -0.03217392883530846 0.10749706015954705
v 0.034000001614913344 -0.03285011447533571 0.10894714872939912
v 0.044615282270479284 -0.033019162792691244 0.10930967468655958
v 0.04884355777038385 -0.020805388485151125 0.09555535579595985
v 0.048800886564743795 0.02064868071403603 0.09513124536321803
v 0.04900255435996703 -0.03011094999281539 0.1059778721601434
v 0.04900255435996703 -0.03011094999281539 0.1059778721601434
v 0.048800886564743795 0.02064868071403603 0.09513124536321803
v 0.04900530857152363 0.031205203584828707 0.10771024071166477
v 0.04900255435996703 -0.03011094999281539 0.1059778721601434
v 0.04900530857152363 0.031205203584828707 0.10771024071166477
v 0.049001821938057244 -0.03429651041805926 0.12226849183039065
v 0.049001821938057244 -0.03429651041805926 0.12226849183039065
v 0.04900530857152363 0.031205203584828707 0.10771024071166477
v 0.049002321663422777 0.03405537194835385 0.12693884880270898
v 0.049001821938057244 -0.03429651041805926 0.12226849183039065
v 0.049002321663422777 0.03405537194835385 0.12693884880270898
v 0.04900231784872533 -0.030346925269526544 0.13858229723171964
v 0.04900231784872533 -0.030346925269526544 0.13858229723171964
v 0.049002321663422777 0.03405537194835385 0.12693884880270898
v 0.04900940555658151 0.02518270802900014 0.1464555886213059
v 0.04900231784872533 -0.030346925269526544 0.13858229723171964
v 0.04900940555658151 0.02518270802900014 0.1464555886213059
v 0.049009397927186615 -0.01517722392644583 0.1537685619911144
v 0.049009397927186615 -0.01517722392644583 0.1537685619911144
v 0.04900940555658151 0.02518270802900014 0.1464555886213059
v 0.04900309223230703 0.006109732918065382 0.15629560068536105
v 0.034098989198960705 0.04435896130493556 0.10132204155570254
v 0.04158860213404392 0.029104182672047292 0.09248386822331421
v 0.03353497855205445 0.03406172723430024 0.08383976380883505
v 0.04158860213404392 0.029104182672047292 0.09248386822331421
v 0.03863305466089928 0.026855313622971007 0.08105519488995404
v 0.03353497855205445 0.03406172723430024 0.08383976380883505
v 0.04577835681913056 0.019864888181080346 0.08817604483755125
v 0.04130954175701973 0.02102747444845843 0.07705163177254891
v 0.03863305466089928 0.026855313622971007 0.08105519488995404
v 0.03863305466089928 0.026855313622971007 0.08105519488995404
v 0.034801500066068414 0.030500136870431634 0.07477883503373749
v 0.03353497855205445 0.03406172723430024 0.08383976380883505
v 0.04577835681913056 0.019864888181080346 0.08817604483755125
v 0.03863305466089928 0.026855313622971007 0.08105519488995404
v 0.04158860213404392 0.029104182672047292 0.09248386822331421
v 0.04577835681913056 0.019864888181080346 0.08817604483755125
v 0.04158860213404392 0.029104182672047292 0.09248386822331421
v 0.048800886564743795 0.02064868071403603 0.09513124536321803
v 0.03863305466089928 0.026855313622971007 0.08105519488995404
v 0.04130954175701973 0.02102747444845843 0.07705163177254891
v 0.034801500066068414 0.030500136870431634 0.07477883503373749
v 0.04884355777038385 -0.020805388485151125 0.09555535579595985
v 0.04754991757222049 -0.01278716148077064 0.08984196135954912
v 0.048738695552268396 -0.0016475115604913664 0.09234087810421786
v 0.048738695552268396 -0.0016475115604913664 0.09234087810421786
v 0.04754991757222049 -0.01278716148077064 0.08984196135954912
v 0.04634458761995086 -4.5795994191985205e-05 0.07782764041536437
v 0.04884355777038385 -0.020805388485151125 0.09555535579595985
v 0.04204426392936833 -0.02188237484917144 0.08067423631473057
v 0.04754991757222049 -0.01278716148077064 0.08984196135954912
v 0.0398120632007859 -0.023643693139616676 0.07578057458327069
v 0.045114462134276945 -0.010450698395246262 0.07782495486836181
v 0.04204426392936833 -0.02188237484917144 0.08067423631473057
v 0.04204426392936833 -0.02188237484917144 0.08067423631473057
v 0.045114462134276945 -0.010450698395246262 0.07782495486836181
v 0.04754991757222049 -0.01278716148077064 0.08984196135954912
v 0.045114462134276945 -0.010450698395246262 0.07782495486836181
v 0.04634458761995086 -4.5795994191985205e-05 0.07782764041536437
v 0.04754991757222049 -0.01278716148077064 0.08984196135954912
v 0.04130954175701973 0.02102747444845843 0.07705163177254891
v 0.04577835681913056 0.019864888181080346 0.08817604483755125
v 0.047928270709087784 0.011339891972331763 0.09056583834705643
v 0.04884355777038385 -0.020805388485151125 0.09555535579595985
v 0.048738695552268396 -0.0016475115604913664 0.09234087810421786
v 0.048800886564743795 0.02064868071403603 0.09513124536321803
v 0.047928270709087784 0.011339891972331763 0.09056583834705643
v 0.048800886564743795 0.02064868071403603 0.09513124536321803
v 0.048738695552268396 -0.0016475115604913664 0.09234087810421786
v 0.04577835681913056 0.019864888181080346 0.08817604483755125
v 0.048800886564743795 0.02064868071403603 0.09513124536321803
v 0.047928270709087784 0.011339891972331763 0.09056583834705643
v 0.048738695552268396 -0.0016475115604913664 0.09234087810421786
v 0.04634458761995086 -4.5795994191985205e-05 0.07782764041536437
v 0.047928270709087784 0.011339891972331763 0.09056583834705643
v 0.047928270709087784 0.011339891972331763 0.09056583834705643
v 0.044320409972538055 0.01345765368485852 0.07713418945469284
v 0.04130954175701973 0.02102747444845843 0.07705163177254891
v 0.047928270709087784 0.011339891972331763 0.09056583834705643
v 0.04634458761995086 -4.5795994191985205e-05 0.07782764041536437
v 0.044320409972538055 0.01345765368485852 0.07713418945469284
v 0.033896402061652786 -0.03615154438068036 0.08791628682960793
v 0.04031278420235207 -0.030384572518629145 0.09191722543516966
v 0.03410458917481263 -0.0430936871969867 0.09908208173251329
v 0.04031278420235207 -0.030384572518629145 0.09191722543516966
v 0.033896402061652786 -0.03615154438068036 0.08791628682960793
v 0.04204426392936833 -0.02188237484917144 0.08067423631473057
v 0.04204426392936833 -0.02188237484917144 0.08067423631473057
v 0.033896402061652786 -0.03615154438068036 0.08791628682960793
v 0.032978593485344376 -0.03251406251845613 0.0775441321011172
v 0.04884355777038385 -0.020805388485151125 0.09555535579595985
v 0.04031278420235207 -0.030384572518629145 0.09191722543516966
v 0.04204426392936833 -0.02188237484917144 0.08067423631473057
v 0.04204426392936833 -0.02188237484917144 0.08067423631473057
v 0.032978593485344376 -0.03251406251845613 0.0775441321011172
v 0.0398120632007859 -0.023643693139616676 0.07578057458327069
v 0.04694386895945035 -0.020177121167102022 0.09590254666938412
v 0.04702706751076535 -0.027049960467543384 0.1027521487403282
v 0.04701609262621087 -0.03393023842800603 0.12299762547097967
v 0.04694386895945035 -0.020177121167102022 0.09590254666938412
v 0.04701609262621087 -0.03393023842800603 0.12299762547097967
v 0.04700527414425171 -0.025385028137486783 0.14469196243890534
v 0.04694386895945035 -0.020177121167102022 0.09590254666938412
v 0.04700527414425171 -0.025385028137486783 0.14469196243890534
v 0.04700655588259384 0.03281004870805183 0.13024202583948427
v 0.04700655588259384 0.03281004870805183 0.13024202583948427
v 0.04700527414425171 -0.025385028137486783 0.14469196243890534
v 0.04700524744136958 0.02157786090343339 0.14840436495898499
v 0.04700524744136958 0.02157786090343339 0.14840436495898499
v 0.04700527414425171 -0.025385028137486783 0.14469196243890534
v 0.04700340494250277 -0.008661219054574289 0.15491367312948864
v 0.04700524744136958 0.02157786090343339 0.14840436495898499
v 0.04700340494250277 -0.008661219054574289 0.15491367312948864
v 0.0470018676194317 0.00585134104864521 0.15535227178313346
v 0.04694386895945035 -0.020177121167102022 0.09590254666938412
v 0.04700655588259384 0.03281004870805183 0.13024202583948427
v 0.04700107797706021 0.03200020369888313 0.11312444079792702
v 0.04694386895945035 -0.020177121167102022 0.09590254666938412
v 0.04700107797706021 0.03200020369888313 0.11312444079792702
v 0.04671843559913347 0.03059249260296771 0.10727235159174506
v 0.04671843559913347 0.03059249260296771 0.10727235159174506
v 0.04688076241958772 0.020436074273884056 0.09605508879088728
v 0.04694386895945035 -0.020177121167102022 0.09590254666938412
v 0.032882936132168084 0.029235928970419163 0.07300000346731393
v 0.03219416199056635 0.03064545204762182 0.07849902716600353
v 0.03252174150441656 0.029636743045853293 0.07300000346731393
v 0.032882936132168084 0.029235928970419163 0.07300000346731393
v 0.03327650228245327 0.028787633355864546 0.07300000346731393
v 0.03219416199056635 0.03064545204762182 0.07849902716600353
v 0.03327650228245327 0.028787633355864546 0.07300000346731393
v 0.03404461450155383 0.02787472666577529 0.07300000346731393
v 0.03219416199056635 0.03064545204762182 0.07849902716600353
v 0.03219416199056635 0.03064545204762182 0.07849902716600353
v 0.03404461450155383 0.02787472666577529 0.07300000346731393
v 0.03478758023508499 0.026941237775611755 0.07300000346731393
v 0.03219416199056635 0.03064545204762182 0.07849902716600353
v 0.03478758023508499 0.026941237775611755 0.07300000346731393
v 0.03613080387066203 0.025025243040441854 0.07308579601289276
v 0.03613080387066203 0.025025243040441854 0.07308579601289276
v 0.03478758023508499 0.026941237775611755 0.07300000346731393
v 0.03550516678650251 0.025988110822992024 0.07300000346731393
v 0.042671949506056794 0.020158471111284552 0.08681767685311036
v 0.04688076241958772 0.020436074273884056 0.09605508879088728
v 0.04136712080028193 0.026237151438458513 0.093080044399092
v 0.04688076241958772 0.020436074273884056 0.09605508879088728
v 0.04671843559913347 0.03059249260296771 0.10727235159174506
v 0.04136712080028193 0.026237151438458513 0.093080044399092
v 0.04671843559913347 0.03059249260296771 0.10727235159174506
v 0.033975782100823526 0.04209511384633436 0.10238959989498306
v 0.04136712080028193 0.026237151438458513 0.093080044399092
v 0.04136712080028193 0.026237151438458513 0.093080044399092
v 0.03314577260095097 0.033097070358647514 0.08637711744497788
v 0.042671949506056794 0.020158471111284552 0.08681767685311036
v 0.04136712080028193 0.026237151438458513 0.093080044399092
v 0.033975782100823526 0.04209511384633436 0.10238959989498306
v 0.03314577260095097 0.033097070358647514 0.08637711744497788
v 0.042671949506056794 0.020158471111284552 0.08681767685311036
v 0.03314577260095097 0.033097070358647514 0.08637711744497788
v 0.03902518648494446 0.02270106232702185 0.08051143265709547
v 0.03902518648494446 0.02270106232702185 0.08051143265709547
v 0.03219416199056635 0.03064545204762182 0.07849902716600353
v 0.03613080387066203 0.025025243040441854 0.07308579601289276
v 0.03314577260095097 0.033097070358647514 0.08637711744497788
v 0.03219416199056635 0.03064545204762182 0.07849902716600353
v 0.03902518648494446 0.02270106232702185 0.08051143265709547
v 0.03911079592504585 0.02015248966568795 0.07303094829300248
v 0.03902518648494446 0.02270106232702185 0.08051143265709547
v 0.03613080387066203 0.025025243040441854 0.07308579601289276
v 0.04694386895945035 -0.020177121167102022 0.09590254666938412
v 0.04534593034595469 -0.0121756244720489 0.0891448025129593
v 0.042039339154964495 -0.019774960503469167 0.08481368658458609
v 0.04499571823215254 0.010050705433437558 0.08657335311103685
v 0.04688076241958772 0.020436074273884056 0.09605508879088728
v 0.042671949506056794 0.020158471111284552 0.08681767685311036
v 0.042671949506056794 0.020158471111284552 0.08681767685311036
v 0.03902518648494446 0.02270106232702185 0.08051143265709547
v 0.042770986681170964 0.009738421902674712 0.07322722973543082
v 0.03911079592504585 0.02015248966568795 0.07303094829300248
v 0.042770986681170964 0.009738421902674712 0.07322722973543082
v 0.03902518648494446 0.02270106232702185 0.08051143265709547
v 0.04453710004630684 -2.6617274952569013e-05 0.08011713789959794
v 0.044029596512680236 -0.0010978102013359944 0.07300802196134713
v 0.04327272239225799 -0.009553030467782666 0.07735868439943781
v 0.04453710004630684 -2.6617274952569013e-05 0.08011713789959794
v 0.04327272239225799 -0.009553030467782666 0.07735868439943781
v 0.046688570332822366 -0.006734299502753895 0.09306248916144176
v 0.044029596512680236 -0.0010978102013359944 0.07300802196134713
v 0.04057463647919368 -0.017885516062529087 0.07300144542294883
v 0.04327272239225799 -0.009553030467782666 0.07735868439943781
v 0.046688570332822366 -0.006734299502753895 0.09306248916144176
v 0.04327272239225799 -0.009553030467782666 0.07735868439943781
v 0.04534593034595469 -0.0121756244720489 0.0891448025129593
v 0.04057463647919368 -0.017885516062529087 0.07300144542294883
v 0.0391726893911204 -0.020769421610273845 0.07663245755830327
v 0.04327272239225799 -0.009553030467782666 0.07735868439943781
v 0.04327272239225799 -0.009553030467782666 0.07735868439943781
v 0.0391726893911204 -0.020769421610273845 0.07663245755830327
v 0.04534593034595469 -0.0121756244720489 0.0891448025129593
v 0.04534593034595469 -0.0121756244720489 0.0891448025129593
v 0.0391726893911204 -0.020769421610273845 0.07663245755830327
v 0.042039339154964495 -0.019774960503469167 0.08481368658458609
v 0.042770986681170964 0.009738421902674712 0.07322722973543082
v 0.044029596512680236 -0.0010978102013359944 0.07300802196134713
v 0.04453710004630684 -2.6617274952569013e-05 0.08011713789959794
v 0.042770986681170964 0.009738421902674712 0.07322722973543082
v 0.04453710004630684 -2.6617274952569013e-05 0.08011713789959794
v 0.04499571823215254 0.010050705433437558 0.08657335311103685
v 0.042770986681170964 0.009738421902674712 0.07322722973543082
v 0.04499571823215254 0.010050705433437558 0.08657335311103685
v 0.042671949506056794 0.020158471111284552 0.08681767685311036
v 0.04499571823215254 0.010050705433437558 0.08657335311103685
v 0.04453710004630684 -2.6617274952569013e-05 0.08011713789959794
v 0.04688076241958772 0.020436074273884056 0.09605508879088728
v 0.04453710004630684 -2.6617274952569013e-05 0.08011713789959794
v 0.046688570332822366 -0.006734299502753895 0.09306248916144176
v 0.04688076241958772 0.020436074273884056 0.09605508879088728
v 0.04534593034595469 -0.0121756244720489 0.0891448025129593
v 0.04694386895945035 -0.020177121167102022 0.09590254666938412
v 0.046688570332822366 -0.006734299502753895 0.09306248916144176
v 0.04688076241958772 0.020436074273884056 0.09605508879088728
v 0.046688570332822366 -0.006734299502753895 0.09306248916144176
v 0.04694386895945035 -0.020177121167102022 0.09590254666938412
v 0.03252173006032422 -0.029636733509109676 0.07300000346731393
v 0.034166124059327174 -0.028275973709369635 0.07749285493803713
v 0.032882947576260424 -0.0292359156189781 0.07300000346731393
v 0.032882947576260424 -0.0292359156189781 0.07300000346731393
v 0.034166124059327174 -0.028275973709369635 0.07749285493803713
v 0.03327651372654561 -0.028787620004423482 0.07300000346731393
v 0.034012773221965276 -0.03417962045889401 0.09054101229607257
v 0.03400002831779547 -0.042001039592598495 0.1028735400424807
v 0.040165163040555285 -0.02889858192375639 0.0944832884842972
v 0.04694386895945035 -0.020177121167102022 0.09590254666938412
v 0.042039339154964495 -0.019774960503469167 0.08481368658458609
v 0.038503820340796135 -0.0256778214253195 0.08571133829958553
v 0.04694386895945035 -0.020177121167102022 0.09590254666938412
v 0.038503820340796135 -0.0256778214253195 0.08571133829958553
v 0.040165163040555285 -0.02889858192375639 0.0944832884842972
v 0.035505182045292294 -0.02598809174950479 0.07300000346731393
v 0.0391726893911204 -0.020769421610273845 0.07663245755830327
v 0.04057463647919368 -0.017885516062529087 0.07300144542294883
v 0.0391726893911204 -0.020769421610273845 0.07663245755830327
v 0.034166124059327174 -0.028275973709369635 0.07749285493803713
v 0.042039339154964495 -0.019774960503469167 0.08481368658458609
v 0.03478759167917733 -0.026941220609473245 0.07300000346731393
v 0.034166124059327174 -0.028275973709369635 0.07749285493803713
v 0.035505182045292294 -0.02598809174950479 0.07300000346731393
v 0.035505182045292294 -0.02598809174950479 0.07300000346731393
v 0.034166124059327174 -0.028275973709369635 0.07749285493803713
v 0.0391726893911204 -0.020769421610273845 0.07663245755830327
v 0.034166124059327174 -0.028275973709369635 0.07749285493803713
v 0.03478759167917733 -0.026941220609473245 0.07300000346731393
v 0.034044629760343614 -0.02787470949963678 0.07300000346731393
v 0.034166124059327174 -0.028275973709369635 0.07749285493803713
v 0.034044629760343614 -0.02787470949963678 0.07300000346731393
v 0.03327651372654561 -0.028787620004423482 0.07300000346731393
v 0.032876935613084246 -0.03345958105701819 0.08666222793215271
v 0.034012773221965276 -0.03417962045889401 0.09054101229607257
v 0.038503820340796135 -0.0256778214253195 0.08571133829958553
v 0.038503820340796135 -0.0256778214253195 0.08571133829958553
v 0.042039339154964495 -0.019774960503469167 0.08481368658458609
v 0.034166124059327174 -0.028275973709369635 0.07749285493803713
v 0.03235027848357719 -0.0312100921196068 0.08046115494474647
v 0.038503820340796135 -0.0256778214253195 0.08571133829958553
v 0.034166124059327174 -0.028275973709369635 0.07749285493803713
v 0.038503820340796135 -0.0256778214253195 0.08571133829958553
v 0.03235027848357719 -0.0312100921196068 0.08046115494474647
v 0.032876935613084246 -0.03345958105701819 0.08666222793215271
v 0.034012773221965276 -0.03417962045889401 0.09054101229607257
v 0.040165163040555285 -0.02889858192375639 0.0944832884842972
v 0.038503820340796135 -0.0256778214253195 0.08571133829958553
v 0.04694386895945035 -0.020177121167102022 0.09590254666938412
v 0.040165163040555285 -0.02889858192375639 0.0944832884842972
v 0.04702706751076535 -0.027049960467543384 0.1027521487403282
v 0.027913638487081505 -0.038810838635408025 0.09169238716765447
v 0.027906113996367665 -0.03592642382555412 0.0890451931332281
v 0.027918303862058957 -0.034492101400249726 0.08219145593025166
v 0.027913638487081505 -0.038810838635408025 0.09169238716765447
v 0.027918303862058957 -0.034492101400249726 0.08219145593025166
v 0.027916472807284487 -0.03692196830643369 0.08363951508106203
v 0.027916472807284487 -0.03692196830643369 0.08363951508106203
v 0.027918303862058957 -0.034492101400249726 0.08219145593025166
v 0.027900000943709147 -0.03402313394023083 0.07300000346731393
v 0.027916472807284487 -0.03692196830643369 0.08363951508106203
v 0.027900000943709147 -0.03402313394023083 0.07300000346731393
v 0.026563645670885094 -0.03835989180612787 0.07300084270075223
v 0.02797653331123584 0.03561926820183415 0.08790499532516537
v 0.027907098188308943 0.03868296616229339 0.09144940619908225
v 0.027903310193744257 0.036449250998824574 0.0730864750290383
v 0.02797653331123584 0.03561926820183415 0.08790499532516537
v 0.027903310193744257 0.036449250998824574 0.0730864750290383
v 0.02790247668235213 0.03393440407761795 0.07300131572323564
v 0.044649507735972094 0.01227719269891903 0.06300001443643176
v 0.04573728397172072 -0.007521185755338946 0.06299989618081091
v 0.03832333556049505 -0.026015143676448867 0.06299997247475984
v 0.044649507735972094 0.01227719269891903 0.06300001443643176
v 0.03832333556049505 -0.026015143676448867 0.06299997247475984
v 0.0369907854483742 0.027659743669113952 0.06299995721597006
v 0.0369907854483742 0.027659743669113952 0.06299995721597006
v 0.03832333556049505 -0.026015143676448867 0.06299997247475984
v 0.024193352894728015 0.03954842564553918 0.0629999114396007
v 0.024193352894728015 0.03954842564553918 0.0629999114396007
v 0.03832333556049505 -0.026015143676448867 0.06299997247475984
v 0.020077979087808062 -0.042314153773730385 0.06299991525429814
v 0.024193352894728015 0.03954842564553918 0.0629999114396007
v 0.020077979087808062 -0.042314153773730385 0.06299991525429814
v 0.007487172005554432 0.04556850268318647 0.06300000299233942
v 0.007487172005554432 0.04556850268318647 0.06300000299233942
v 0.020077979087808062 -0.042314153773730385 0.06299991525429814
v -0.007457875606000086 0.045573309201969454 0.06299999917764197
v -0.007457875606000086 0.045573309201969454 0.06299999917764197
v 0.020077979087808062 -0.042314153773730385 0.06299991525429814
v -0.02830413189857328 0.037250676970728154 0.06299996484536495
v -0.02830413189857328 0.037250676970728154 0.06299996484536495
v 0.020077979087808062 -0.042314153773730385 0.06299991525429814
v -0.041909654700562626 0.0193940019282457 0.06299999917764197
v -0.041909654700562626 0.0193940019282457 0.06299999917764197
v 0.020077979087808062 -0.042314153773730385 0.06299991525429814
v -0.04671529228843729 -0.0025334361802835386 0.06299996484536495
v -0.04671529228843729 -0.0025334361802835386 0.06299996484536495
v 0.020077979087808062 -0.042314153773730385 0.06299991525429814
v -0.03956660649357069 -0.023812398134202 0.06299999917764197
v -0.03956660649357069 -0.023812398134202 0.06299999917764197
v 0.020077979087808062 -0.042314153773730385 0.06299991525429814
v -0.02410965843274493 -0.04009315681154924 0.06299996484536495
v -0.02410965843274493 -0.04009315681154924 0.06299996484536495
v 0.020077979087808062 -0.042314153773730385 0.06299991525429814
v -0.00248579680805619 -0.0461125472036561 0.06299999917764197
v 0.032876935613084246 -0.03345958105701819 0.08666222793215271
v 0.03400000542961079 -0.02012459087591068 0.07745436464079879
v 0.034012773221965276 -0.03417962045889401 0.09054101229607257
v 0.034012773221965276 -0.03417962045889401 0.09054101229607257
v 0.03400000542961079 -0.02012459087591068 0.07745436464079879
v 0.034000001614913344 -0.03285011447533571 0.10894714872939912
v 0.034012773221965276 -0.03417962045889401 0.09054101229607257
v 0.034000001614913344 -0.03285011447533571 0.10894714872939912
v 0.03400002831779547 -0.042001039592598495 0.1028735400424807
v 0.03400000542961079 -0.02012459087591068 0.07745436464079879
v 0.03400000542961079 5.237098479030664e-08 0.07316331066501201
v 0.034000001614913344 -0.03285011447533571 0.10894714872939912
v 0.034000001614913344 -0.03285011447533571 0.10894714872939912
v 0.03400000542961079 5.237098479030664e-08 0.07316331066501201
v 0.034000001614913344 0.03217392883530846 0.10749706015954705
v 0.03400000542961079 5.237098479030664e-08 0.07316331066501201
v 0.03400000542961079 0.020124688150695572 0.07745441041716815
v 0.034000001614913344 0.03217392883530846 0.10749706015954705
v 0.034000001614913344 0.03217392883530846 0.10749706015954705
v 0.03400000542961079 0.020124688150695572 0.07745441041716815
v 0.03314577260095097 0.033097070358647514 0.08637711744497788
v 0.034000001614913344 0.03217392883530846 0.10749706015954705
v 0.03314577260095097 0.033097070358647514 0.08637711744497788
v 0.033975782100823526 0.04209511384633436 0.10238959989498306
v 0.034000001614913344 0.033019162792691244 0.10930967468655958
v 0.034000001614913344 0.0010000000474974515 0.15800000750459728
v 0.034000001614913344 0.03217392883530846 0.10749706015954705
v 0.034000001614913344 0.03217392883530846 0.10749706015954705
v 0.034000001614913344 0.0010000000474974515 0.15800000750459728
v 0.034000001614913344 -0.0010000000474974515 0.15800000750459728
v 0.034000001614913344 0.03217392883530846 0.10749706015954705
v 0.034000001614913344 -0.0010000000474974515 0.15800000750459728
v 0.034000001614913344 -0.03285011447533571 0.10894714872939912
v 0.034000001614913344 -0.03285011447533571 0.10894714872939912
v 0.034000001614913344 -0.0010000000474974515 0.15800000750459728
v 0.034001916593031645 -0.03730713449294099 0.1502325510809754
v 0.034000001614913344 0.042651617168665286 0.10481798288386021
v 0.03400069970454611 0.04553690935893196 0.1138266884509109
v 0.034000001614913344 0.033019162792691244 0.10930967468655958
v 0.03400069970454611 0.04553690935893196 0.1138266884509109
v 0.03400464791640356 0.045279455428246525 0.13386409632402338
v 0.034000001614913344 0.033019162792691244 0.10930967468655958
v 0.034000001614913344 0.033019162792691244 0.10930967468655958
v 0.03400464791640356 0.045279455428246525 0.13386409632402338
v 0.034000875180628665 0.03602220324904871 0.15170131640952708
v 0.034000001614913344 0.033019162792691244 0.10930967468655958
v 0.034000875180628665 0.03602220324904871 0.15170131640952708
v 0.034000001614913344 0.0010000000474974515 0.15800000750459728
v 0.034000875180628665 0.03602220324904871 0.15170131640952708
v 0.03400893945103123 0.018074833774768265 0.16581078363242516
v 0.034000001614913344 0.0010000000474974515 0.15800000750459728
v 0.03400893945103123 0.018074833774768265 0.16581078363242516
v 0.034000001614913344 0.0010000000474974515 0.16866074409493945
v 0.034000001614913344 0.0010000000474974515 0.15800000750459728
v 0.034000001614913344 -0.0010000000474974515 0.16866074409493945
v 0.03400893945103123 -0.0180748528482555 0.16581076837363537
v 0.034000001614913344 -0.0010000000474974515 0.15800000750459728
v 0.03400893945103123 -0.0180748528482555 0.16581076837363537
v 0.034001916593031645 -0.03730713449294099 0.1502325510809754
v 0.034000001614913344 -0.0010000000474974515 0.15800000750459728
v 0.034001916593031645 -0.03730713449294099 0.1502325510809754
v 0.034000981992157175 -0.044764963368897355 0.13459296293579112
v 0.034000001614913344 -0.03285011447533571 0.10894714872939912
v 0.034000981992157175 -0.044764963368897355 0.13459296293579112
v 0.03400229043338143 -0.04611903600401313 0.1163282831131873
v 0.034000001614913344 -0.03285011447533571 0.10894714872939912
v 0.034000001614913344 -0.03285011447533571 0.10894714872939912
v 0.03400229043338143 -0.04611903600401313 0.1163282831131873
v 0.034000001614913344 -0.042651617168665286 0.10481798288386021
v -0.030105878352559845 -0.017938967603153836 0.13247766742516373
v -0.03012064504637646 0.01857559483065763 0.1323026948826733
v -0.03012064504637646 -0.018575596738006354 0.11269733201299201
v -0.03012064504637646 -0.018575596738006354 0.11269733201299201
v -0.03012064504637646 0.01857559483065763 0.1323026948826733
v -0.030105878352559845 0.017938967603153836 0.11252234421171178
v -0.03012064504637646 -0.018575596738006354 0.11269733201299201
v -0.030105878352559845 0.017938967603153836 0.11252234421171178
v -0.0301241278651454 0.0014671067696273717 0.10155807214552667
v -0.03012064504637646 0.01857559483065763 0.1323026948826733
v -0.030105878352559845 -0.017938967603153836 0.13247766742516373
v -0.0301241278651454 -0.0014671056967437148 0.14344193186195395
v 0.032882936132168084 0.029235928970419163 0.07300000346731393
v 0.03252174150441656 0.029636743045853293 0.07300000346731393
v 0.03252173006032422 -0.029636733509109676 0.07300000346731393
v 0.03252173006032422 -0.029636733509109676 0.07300000346731393
v 0.03252174150441656 0.029636743045853293 0.07300000346731393
v 0.030291087635648806 0.031912927235997486 0.07300000346731393
v 0.03252173006032422 -0.029636733509109676 0.07300000346731393
v 0.030291087635648806 0.031912927235997486 0.07300000346731393
v 0.030291087635648806 -0.031912927235997486 0.07300000346731393
v 0.030291087635648806 -0.031912927235997486 0.07300000346731393
v 0.030291087635648806 0.031912927235997486 0.07300000346731393
v 0.027900000943709147 -0.03402313394023083 0.07300000346731393
v 0.027900000943709147 -0.03402313394023083 0.07300000346731393
v 0.030291087635648806 0.031912927235997486 0.07300000346731393
v 0.02790247668235213 0.03393440407761795 0.07300131572323564
v 0.027900000943709147 -0.03402313394023083 0.07300000346731393
v 0.02790247668235213 0.03393440407761795 0.07300131572323564
v -0.023785288986796216 -0.03958300969259199 0.07300001109670883
v -0.023785288986796216 -0.03958300969259199 0.07300001109670883
v 0.02790247668235213 0.03393440407761795 0.07300131572323564
v -0.040080671306805815 -0.02413116569695007 0.0730000416142884
v -0.040080671306805815 -0.02413116569695007 0.0730000416142884
v 0.02790247668235213 0.03393440407761795 0.07300131572323564
v -0.04245586596918205 0.01965382669339433 0.0730000339848935
v 0.027903310193744257 0.036449250998824574 0.0730864750290383
v 0.017196228844120753 0.04302754797265385 0.07300001872610372
v 0.02790247668235213 0.03393440407761795 0.07300131572323564
v 0.02790247668235213 0.03393440407761795 0.07300131572323564
v 0.017196228844120753 0.04302754797265385 0.07300001872610372
v 4.056453897505197e-05 0.046179571437796614 0.07300001109670883
v 0.02790247668235213 0.03393440407761795 0.07300131572323564
v 4.056453897505197e-05 0.046179571437796614 0.07300001109670883
v -0.014714706166135127 0.04377250116355481 0.07300001109670883
v 0.02790247668235213 0.03393440407761795 0.07300131572323564
v -0.014714706166135127 0.04377250116355481 0.07300001109670883
v -0.0279277681264245 0.03677763541383606 0.07300001109670883
v 0.02790247668235213 0.03393440407761795 0.07300131572323564
v -0.0279277681264245 0.03677763541383606 0.07300001109670883
v -0.04245586596918205 0.01965382669339433 0.0730000339848935
v -0.040080671306805815 -0.02413116569695007 0.0730000416142884
v -0.04245586596918205 0.01965382669339433 0.0730000339848935
v -0.04611179189356163 -0.0025015133615370615 0.07300001109670883
v 0.027900000943709147 -0.03402313394023083 0.07300000346731393
v -0.023785288986796216 -0.03958300969259199 0.07300001109670883
v -0.0024958885901517347 -0.04671769936252624 0.07300005687307819
v 0.027900000943709147 -0.03402313394023083 0.07300000346731393
v -0.0024958885901517347 -0.04671769936252624 0.07300005687307819
v 0.026563645670885094 -0.03835989180612787 0.07300084270075223
v 0.03252173006032422 -0.029636733509109676 0.07300000346731393
v 0.032882947576260424 -0.0292359156189781 0.07300000346731393
v 0.032882936132168084 0.029235928970419163 0.07300000346731393
v 0.032882936132168084 0.029235928970419163 0.07300000346731393
v 0.032882947576260424 -0.0292359156189781 0.07300000346731393
v 0.03327650228245327 0.028787633355864546 0.07300000346731393
v 0.03327650228245327 0.028787633355864546 0.07300000346731393
v 0.032882947576260424 -0.0292359156189781 0.07300000346731393
v 0.03404461450155383 0.02787472666577529 0.07300000346731393
v 0.03404461450155383 0.02787472666577529 0.07300000346731393
v 0.032882947576260424 -0.0292359156189781 0.07300000346731393
v 0.03327651372654561 -0.028787620004423482 0.07300000346731393
v 0.03404461450155383 0.02787472666577529 0.07300000346731393
v 0.03327651372654561 -0.028787620004423482 0.07300000346731393
v 0.03478758023508499 0.026941237775611755 0.07300000346731393
v 0.03478758023508499 0.026941237775611755 0.07300000346731393
v 0.03327651372654561 -0.028787620004423482 0.07300000346731393
v 0.034044629760343614 -0.02787470949963678 0.07300000346731393
v 0.03478758023508499 0.026941237775611755 0.07300000346731393
v 0.034044629760343614 -0.02787470949963678 0.07300000346731393
v 0.03478759167917733 -0.026941220609473245 0.07300000346731393
v 0.03478758023508499 0.026941237775611755 0.07300000346731393
v 0.03478759167917733 -0.026941220609473245 0.07300000346731393
v 0.03550516678650251 0.025988110822992024 0.07300000346731393
v 0.03550516678650251 0.025988110822992024 0.07300000346731393
v 0.03478759167917733 -0.026941220609473245 0.07300000346731393
v 0.035505182045292294 -0.02598809174950479 0.07300000346731393
v 0.03550516678650251 0.025988110822992024 0.07300000346731393
v 0.035505182045292294 -0.02598809174950479 0.07300000346731393
v 0.03613080387066203 0.025025243040441854 0.07308579601289276
v 0.03613080387066203 0.025025243040441854 0.07308579601289276
v 0.035505182045292294 -0.02598809174950479 0.07300000346731393
v 0.04057463647919368 -0.017885516062529087 0.07300144542294883
v 0.03613080387066203 0.025025243040441854 0.07308579601289276
v 0.04057463647919368 -0.017885516062529087 0.07300144542294883
v 0.03911079592504585 0.02015248966568795 0.07303094829300248
v 0.04057463647919368 -0.017885516062529087 0.07300144542294883
v 0.044029596512680236 -0.0010978102013359944 0.07300802196134713
v 0.03911079592504585 0.02015248966568795 0.07303094829300248
v 0.03911079592504585 0.02015248966568795 0.07303094829300248
v 0.044029596512680236 -0.0010978102013359944 0.07300802196134713
v 0.042770986681170964 0.009738421902674712 0.07322722973543082
usemtl DefaultMaterial
f 1 2 3
f 4 5 6
f 7 8 9
f 10 11 12
f 13 14 15
f 16 17 18
f 19 20 21
f 22 23 24
f 25 26 27
f 28 29 30
f 31 32 33
f 34 35 36
f 37 38 39
f 40 41 42
f 43 44 45
f 46 47 48
f 49 50 51
f 52 53 54
f 55 56 57
f 58 59 60
f 61 62 63
f 64 65 66
f 67 68 69
f 70 71 72
f 73 74 75
f 76 77 78
f 79 80 81
f 82 83 84
f 85 86 87
f 88 89 90
f 91 92 93
f 94 95 96
f 97 98 99
f 100 101 102
f 103 104 105
f 106 107 108
f 109 110 111
f 112 113 114
f 115 116 117
f 118 119 120
f 121 122 123
f 124 125 126
f 127 128 129
f 130 131 132
f 133 134 135
f 136 137 138
f 139 140 141
f 142 143 144
f 145 146 147
f 148 149 150
f 151 152 153
f 154 155 156
f 157 158 159
f 160 161 162
f 163 164 165
f 166 167 168
f 169 170 171
f 172 173 174
f 175 176 177
f 178 179 180
f 181 182 183
f 184 185 186
f 187 188 189
f 190 191 192
f 193 194 195
f 196 197 198
f 199 200 201
f 202 203 204
f 205 206 207
f 208 209 210
f 211 212 213
f 214 215 216
f 217 218 219
f 220 221 222
f 223 224 225
f 226 227 228
f 229 230 231
f 232 233 234
f 235 236 237
f 238 239 240
f 241 242 243
f 244 245 246
f 247 248 249
f 250 251 252
f 253 254 255
f 256 257 258
f 259 260 261
f 262 263 264
f 265 266 267
f 268 269 270
f 271 272 273
f 274 275 276
f 277 278 279
f 280 281 282
f 283 284 285
f 286 287 288
f 289 290 291
f 292 293 294
f 295 296 297
f 298 299 300
f 301 302 303
f 304 305 306
f 307 308 309
f 310 311 312
f 313 314 315
f 316 317 318
f 319 320 321
f 322 323 324
f 325 326 327
f 328 329 330
f 331 332 333
f 334 335 336
f 337 338 339
f 340 341 342
f 343 344 345
f 346 347 348
f 349 350 351
f 352 353 354
f 355 356 357
f 358 359 360
f 361 362 363
f 364 365 366
f 367 368 369
f 370 371 372
f 373 374 375
f 376 377 378
f 379 380 381
f 382 383 384
f 385 386 387
f 388 389 390
f 391 392 393
f 394 395 396
f 397 398 399
f 400 401 402
f 403 404 405
f 406 407 408
f 409 410 411
f 412 413 414
f 415 416 417
f 418 419 420
f 421 422 423
f 424 425 426
f 427 428 429
f 430 431 432
f 433 434 435
f 436 437 438
f 439 440 441
f 442 443 444
f 445 446 447
f 448 449 450
f 451 452 453
f 454 455 456
f 457 458 459
f 460 461 462
f 463 464 465
f 466 467 468
f 469 470 471
f 472 473 474
f 475 476 477
f 478 479 480
f 481 482 483
f 484 485 486
f 487 488 489
f 490 491 492
f 493 494 495
f 496 497 498
f 499 500 501
f 502 503 504
f 505 506 507
f 508 509 510
f 511 512 513
f 514 515 516
f 517 518 519
f 520 521 522
f 523 524 525
f 526 527 528
f 529 530 531
f 532 533 534
f 535 536 537
f 538 539 540
f 541 542 543
f 544 545 546
f 547 548 549
f 550 551 552
f 553 554 555
f 556 557 558
f 559 560 561
f 562 563 564
f 565 566 567
f 568 569 570
f 571 572 573
f 574 575 576
f 577 578 579
f 580 581 582
f 583 584 585
f 586 587 588
f 589 590 591
f 592 593 594
f 595 596 597
f 598 599 600
f 601 602 603
f 604 605 606
f 607 608 609
f 610 611 612
f 613 614 615
f 616 617 618
f 619 620 621
f 622 623 624
f 625 626 627
f 628 629 630
f 631 632 633
f 634 635 636
f 637 638 639
f 640 641 642
f 643 644 645
f 646 647 648
f 649 650 651
f 652 653 654
f 655 656 657
f 658 659 660
f 661 662 663
f 664 665 666
f 667 668 669
f 670 671 672
f 673 674 675
f 676 677 678
f 679 680 681
f 682 683 684
f 685 686 687
f 688 689 690
f 691 692 693
f 694 695 696
f 697 698 699
f 700 701 702
f 703 704 705
f 706 707 708
f 709 710 711
f 712 713 714
f 715 716 717
f 718 719 720
f 721 722 723
f 724 725 726
f 727 728 729
f 730 731 732
f 733 734 735
f 736 737 738
f 739 740 741
f 742 743 744
f 745 746 747
f 748 749 750
f 751 752 753
f 754 755 756
f 757 758 759
f 760 761 762
f 763 764 765
f 766 767 768
f 769 770 771
f 772 773 774
f 775 776 777
f 778 779 780
f 781 782 783
f 784 785 786
f 787 788 789
f 790 791 792
f 793 794 795
f 796 797 798
f 799 800 801
f 802 803 804
f 805 806 807
f 808 809 810
f 811 812 813
f 814 815 816
f 817 818 819
f 820 821 822
f 823 824 825
f 826 827 828
f 829 830 831
f 832 833 834
f 835 836 837
f 838 839 840
f 841 842 843
f 844 845 846
f 847 848 849
f 850 851 852
f 853 854 855
f 856 857 858
f 859 860 861
f 862 863 864
f 865 866 867
f 868 869 870
f 871 872 873
f 874 875 876
f 877 878 879
f 880 881 882
f 883 884 885
f 886 887 888
f 889 890 891
f 892 893 894
f 895 896 897
f 898 899 900
f 901 902 903
f 904 905 906
f 907 908 909
f 910 911 912
f 913 914 915
f 916 917 918
f 919 920 921
f 922 923 924
f 925 926 927
f 928 929 930
f 931 932 933
f 934 935 936
f 937 938 939
f 940 941 942
f 943 944 945
f 946 947 948
f 949 950 951
f 952 953 954
f 955 956 957
f 958 959 960
f 961 962 963
f 964 965 966
f 967 968 969
f 970 971 972
f 973 974 975
f 976 977 978
f 979 980 981
f 982 983 984
f 985 986 987
f 988 989 990
f 991 992 993
f 994 995 996
f 997 998 999
f 1000 1001 1002
f 1003 1004 1005
f 1006 1007 1008
f 1009 1010 1011
f 1012 1013 1014
f 1015 1016 1017
f 1018 1019 1020
f 1021 1022 1023
f 1024 1025 1026
f 1027 1028 1029
f 1030 1031 1032
f 1033 1034 1035
f 1036 1037 1038
f 1039 1040 1041
f 1042 1043 1044
f 1045 1046 1047
f 1048 1049 1050
f 1051 1052 1053
f 1054 1055 1056
f 1057 1058 1059
f 1060 1061 1062
